<?xml version="1.0" encoding="utf-8"?>
<!-- Generator: Adobe Illustrator 16.0.0, SVG Export Plug-In . SVG Version: 6.00 Build 0)  -->
<!DOCTYPE svg PUBLIC "-//W3C//DTD SVG 1.1//EN" "http://www.w3.org/Graphics/SVG/1.1/DTD/svg11.dtd">
<svg version="1.1" id="图层_1" xmlns="http://www.w3.org/2000/svg" xmlns:xlink="http://www.w3.org/1999/xlink" x="0px" y="0px"
	 width="210.524px" height="18px" viewBox="0 0 210.524 18" enable-background="new 0 0 210.524 18" xml:space="preserve">
<g>
	
		<rect x="0.721" y="0.25" fill="#6D6E6F" stroke="#2D2A29" stroke-width="0.4992" stroke-miterlimit="10" width="8.979" height="17.5"/>
	
		<rect x="9.7" y="0.25" fill="#6D6E6F" stroke="#2D2A29" stroke-width="0.4992" stroke-miterlimit="10" width="191.12" height="17.5"/>
	<ellipse fill="#2B2C2E" cx="5.264" cy="8.999" rx="4.148" ry="4.487"/>
	
		<ellipse fill="#5A5B5D" stroke="#2D2A29" stroke-width="0.5204" stroke-miterlimit="10" cx="4.408" cy="9.293" rx="4.148" ry="4.486"/>
	
		<ellipse fill="#D8D9DA" stroke="#2D2A29" stroke-width="0.5204" stroke-miterlimit="10" cx="4.409" cy="9.293" rx="2.99" ry="3.233"/>
	
		<rect x="200.82" y="0.25" fill="#6D6E6F" stroke="#2D2A29" stroke-width="0.4992" stroke-miterlimit="10" width="8.979" height="17.5"/>
	<ellipse fill="#2B2C2E" cx="205.099" cy="8.999" rx="4.279" ry="4.487"/>
	
		<ellipse fill="#5A5B5D" stroke="#2D2A29" stroke-width="0.5286" stroke-miterlimit="10" cx="205.981" cy="9.293" rx="4.279" ry="4.486"/>
	
		<ellipse fill="#D8D9DA" stroke="#2D2A29" stroke-width="0.5286" stroke-miterlimit="10" cx="205.981" cy="9.293" rx="3.084" ry="3.233"/>
	<g>
		<rect x="13.729" y="0.711" fill="#040206" width="35.765" height="16.575"/>
		<rect x="20.022" y="1.389" fill="#6F6E6F" width="28.627" height="7.397"/>
		<rect x="20.022" y="2.538" fill="#2D2A29" width="25.904" height="5.192"/>
		<polygon fill="#929292" points="38.519,3.237 20.022,3.237 20.022,1.389 15.188,1.389 15.188,8.786 20.022,8.786 20.022,6.936 
			38.519,6.936 		"/>
		<linearGradient id="SVGID_1_" gradientUnits="userSpaceOnUse" x1="39.0571" y1="5.1538" x2="44.3521" y2="5.1538">
			<stop  offset="0" style="stop-color:#F19787"/>
			<stop  offset="1" style="stop-color:#EA523E"/>
		</linearGradient>
		<rect x="39.057" y="3.305" fill="url(#SVGID_1_)" width="5.295" height="3.699"/>
		<rect x="20.022" y="9.575" fill="#6F6E6F" width="28.627" height="7.396"/>
		<rect x="20.022" y="10.724" fill="#2D2A29" width="25.904" height="5.192"/>
		<polygon fill="#929292" points="38.519,11.423 20.022,11.423 20.022,9.575 15.188,9.575 15.188,16.97 20.022,16.97 20.022,15.123 
			38.519,15.123 		"/>
		<linearGradient id="SVGID_2_" gradientUnits="userSpaceOnUse" x1="39.0571" y1="13.3413" x2="44.3521" y2="13.3413">
			<stop  offset="0" style="stop-color:#F19787"/>
			<stop  offset="1" style="stop-color:#EA523E"/>
		</linearGradient>
		<rect x="39.057" y="11.491" fill="url(#SVGID_2_)" width="5.295" height="3.7"/>
		<rect x="48.881" y="0.711" fill="#D8D9DA" width="0.613" height="16.575"/>
		<rect x="13.729" y="0.711" fill="#D8D9DA" width="0.613" height="16.575"/>
		<rect x="20.022" y="1.389" fill="#2D2A29" width="0.576" height="1.848"/>
		<rect x="20.022" y="6.936" fill="#2D2A29" width="0.576" height="1.882"/>
		<rect x="20.022" y="9.574" fill="#2D2A29" width="0.576" height="1.85"/>
		<rect x="20.022" y="15.121" fill="#2D2A29" width="0.576" height="1.883"/>
	</g>
	<g>
		<rect x="50.575" y="0.711" fill="#040206" width="35.766" height="16.575"/>
		<rect x="56.868" y="1.389" fill="#6F6E6F" width="28.629" height="7.397"/>
		<rect x="56.868" y="2.538" fill="#2D2A29" width="25.903" height="5.192"/>
		<polygon fill="#929292" points="75.366,3.237 56.868,3.237 56.868,1.389 52.033,1.389 52.033,8.786 56.868,8.786 56.868,6.936 
			75.366,6.936 		"/>
		<linearGradient id="SVGID_3_" gradientUnits="userSpaceOnUse" x1="75.9033" y1="5.1538" x2="81.1982" y2="5.1538">
			<stop  offset="0" style="stop-color:#F19787"/>
			<stop  offset="1" style="stop-color:#EA523E"/>
		</linearGradient>
		<rect x="75.903" y="3.305" fill="url(#SVGID_3_)" width="5.295" height="3.699"/>
		<rect x="56.868" y="9.575" fill="#6F6E6F" width="28.629" height="7.396"/>
		<rect x="56.868" y="10.724" fill="#2D2A29" width="25.903" height="5.192"/>
		<polygon fill="#929292" points="75.366,11.423 56.868,11.423 56.868,9.575 52.033,9.575 52.033,16.97 56.868,16.97 56.868,15.123 
			75.366,15.123 		"/>
		<linearGradient id="SVGID_4_" gradientUnits="userSpaceOnUse" x1="75.9033" y1="13.3413" x2="81.1982" y2="13.3413">
			<stop  offset="0" style="stop-color:#F19787"/>
			<stop  offset="1" style="stop-color:#EA523E"/>
		</linearGradient>
		<rect x="75.903" y="11.491" fill="url(#SVGID_4_)" width="5.295" height="3.7"/>
		<rect x="85.727" y="0.711" fill="#D8D9DA" width="0.614" height="16.575"/>
		<rect x="50.575" y="0.711" fill="#D8D9DA" width="0.614" height="16.575"/>
		<rect x="56.868" y="1.389" fill="#2D2A29" width="0.576" height="1.848"/>
		<rect x="56.868" y="6.936" fill="#2D2A29" width="0.576" height="1.882"/>
		<rect x="56.868" y="9.574" fill="#2D2A29" width="0.576" height="1.85"/>
		<rect x="56.868" y="15.121" fill="#2D2A29" width="0.576" height="1.883"/>
	</g>
	<g>
		<rect x="87.421" y="0.711" fill="#040206" width="35.766" height="16.575"/>
		<rect x="93.716" y="1.389" fill="#6F6E6F" width="28.627" height="7.397"/>
		<rect x="93.716" y="2.538" fill="#2D2A29" width="25.901" height="5.192"/>
		<polygon fill="#929292" points="112.212,3.237 93.716,3.237 93.716,1.389 88.88,1.389 88.88,8.786 93.716,8.786 93.716,6.936 
			112.212,6.936 		"/>
		<linearGradient id="SVGID_5_" gradientUnits="userSpaceOnUse" x1="112.749" y1="5.1538" x2="118.0439" y2="5.1538">
			<stop  offset="0" style="stop-color:#F19787"/>
			<stop  offset="1" style="stop-color:#EA523E"/>
		</linearGradient>
		<rect x="112.749" y="3.305" fill="url(#SVGID_5_)" width="5.295" height="3.699"/>
		<rect x="93.716" y="9.575" fill="#6F6E6F" width="28.627" height="7.396"/>
		<rect x="93.716" y="10.724" fill="#2D2A29" width="25.901" height="5.192"/>
		<polygon fill="#929292" points="112.212,11.423 93.716,11.423 93.716,9.575 88.88,9.575 88.88,16.97 93.716,16.97 93.716,15.123 
			112.212,15.123 		"/>
		<linearGradient id="SVGID_6_" gradientUnits="userSpaceOnUse" x1="112.749" y1="13.3413" x2="118.0439" y2="13.3413">
			<stop  offset="0" style="stop-color:#F19787"/>
			<stop  offset="1" style="stop-color:#EA523E"/>
		</linearGradient>
		<rect x="112.749" y="11.491" fill="url(#SVGID_6_)" width="5.295" height="3.7"/>
		<rect x="122.573" y="0.711" fill="#D8D9DA" width="0.613" height="16.575"/>
		<rect x="87.421" y="0.711" fill="#D8D9DA" width="0.615" height="16.575"/>
		<rect x="93.716" y="1.389" fill="#2D2A29" width="0.574" height="1.848"/>
		<rect x="93.716" y="6.936" fill="#2D2A29" width="0.574" height="1.882"/>
		<rect x="93.716" y="9.574" fill="#2D2A29" width="0.574" height="1.85"/>
		<rect x="93.716" y="15.121" fill="#2D2A29" width="0.574" height="1.883"/>
	</g>
	<g>
		<rect x="124.267" y="0.711" fill="#040206" width="35.766" height="16.575"/>
		<rect x="130.56" y="1.389" fill="#6F6E6F" width="28.629" height="7.397"/>
		<rect x="130.56" y="2.538" fill="#2D2A29" width="25.904" height="5.192"/>
		<polygon fill="#929292" points="149.058,3.237 130.56,3.237 130.56,1.389 125.725,1.389 125.725,8.786 130.56,8.786 130.56,6.936 
			149.058,6.936 		"/>
		<linearGradient id="SVGID_7_" gradientUnits="userSpaceOnUse" x1="149.5957" y1="5.1538" x2="154.8896" y2="5.1538">
			<stop  offset="0" style="stop-color:#F19787"/>
			<stop  offset="1" style="stop-color:#EA523E"/>
		</linearGradient>
		<rect x="149.596" y="3.305" fill="url(#SVGID_7_)" width="5.294" height="3.699"/>
		<rect x="130.56" y="9.575" fill="#6F6E6F" width="28.629" height="7.396"/>
		<rect x="130.56" y="10.724" fill="#2D2A29" width="25.904" height="5.192"/>
		<polygon fill="#929292" points="149.058,11.423 130.56,11.423 130.56,9.575 125.725,9.575 125.725,16.97 130.56,16.97 
			130.56,15.123 149.058,15.123 		"/>
		<linearGradient id="SVGID_8_" gradientUnits="userSpaceOnUse" x1="149.5957" y1="13.3413" x2="154.8896" y2="13.3413">
			<stop  offset="0" style="stop-color:#F19787"/>
			<stop  offset="1" style="stop-color:#EA523E"/>
		</linearGradient>
		<rect x="149.596" y="11.491" fill="url(#SVGID_8_)" width="5.294" height="3.7"/>
		<rect x="159.419" y="0.711" fill="#D8D9DA" width="0.613" height="16.575"/>
		<rect x="124.267" y="0.711" fill="#D8D9DA" width="0.615" height="16.575"/>
		<rect x="130.56" y="1.389" fill="#2D2A29" width="0.576" height="1.848"/>
		<rect x="130.56" y="6.936" fill="#2D2A29" width="0.576" height="1.882"/>
		<rect x="130.56" y="9.574" fill="#2D2A29" width="0.576" height="1.85"/>
		<rect x="130.56" y="15.121" fill="#2D2A29" width="0.576" height="1.883"/>
	</g>
	<g>
		<rect x="160.491" y="1.542" fill="#040206" width="39.241" height="6.234"/>
		<rect x="160.836" y="3.45" fill="#4A494F" width="38.552" height="2.417"/>
		<rect x="167.72" y="1.542" fill="#4A494F" width="0.774" height="6.234"/>
		<rect x="175.723" y="1.542" fill="#4A494F" width="0.773" height="6.234"/>
		<rect x="183.727" y="1.542" fill="#4A494F" width="0.774" height="6.234"/>
		<rect x="191.729" y="1.542" fill="#4A494F" width="0.774" height="6.234"/>
	</g>
	<rect x="160.618" y="8.103" fill="#101012" width="38.988" height="9.184"/>
	<g>
		<rect x="163.918" y="8.511" fill="#4A494F" width="24.866" height="2.449"/>
		<polygon fill="#4A494F" points="189.169,8.511 189.169,11.478 163.38,11.478 163.38,8.511 161.155,8.511 161.155,11.478 
			161.155,16.878 163.38,16.878 198.916,16.878 198.916,13.341 198.916,11.478 198.916,8.511 		"/>
	</g>
	<ellipse fill="#101012" cx="190.896" cy="13.985" rx="1.678" ry="1.974"/>
	<ellipse fill="#757479" cx="190.965" cy="14.027" rx="1.565" ry="1.839"/>
	<rect x="168.063" y="12.185" fill="#101012" width="16.563" height="4.029"/>
	<rect x="168.237" y="12.406" fill="#B7B8B8" width="16.216" height="3.587"/>
	<g>
		
			<radialGradient id="SVGID_9_" cx="173.6064" cy="-19.2026" r="0.8455" gradientTransform="matrix(0.9902 0 0 1.1638 -2.5115 36.6949)" gradientUnits="userSpaceOnUse">
			<stop  offset="0" style="stop-color:#F2F2F2"/>
			<stop  offset="0.0827" style="stop-color:#E4E4E4"/>
			<stop  offset="0.3775" style="stop-color:#B6B5B5"/>
			<stop  offset="0.6393" style="stop-color:#959494"/>
			<stop  offset="0.8557" style="stop-color:#807F7F"/>
			<stop  offset="1" style="stop-color:#797878"/>
		</radialGradient>
		<ellipse fill="url(#SVGID_9_)" cx="169.396" cy="14.347" rx="0.837" ry="0.984"/>
		<g>
			<rect x="168.961" y="14.169" width="0.87" height="0.357"/>
			<rect x="169.243" y="13.837" width="0.305" height="1.021"/>
		</g>
	</g>
	<g>
		
			<radialGradient id="SVGID_10_" cx="187.5967" cy="-19.2026" r="0.8455" gradientTransform="matrix(0.9902 0 0 1.1638 -2.5115 36.6949)" gradientUnits="userSpaceOnUse">
			<stop  offset="0" style="stop-color:#F2F2F2"/>
			<stop  offset="0.1173" style="stop-color:#DDDDDD"/>
			<stop  offset="0.4009" style="stop-color:#AFAEAE"/>
			<stop  offset="0.6529" style="stop-color:#8E8D8D"/>
			<stop  offset="0.8611" style="stop-color:#797878"/>
			<stop  offset="1" style="stop-color:#727171"/>
		</radialGradient>
		<ellipse fill="url(#SVGID_10_)" cx="183.25" cy="14.347" rx="0.837" ry="0.984"/>
		<g>
			<rect x="182.815" y="14.169" width="0.869" height="0.357"/>
			<rect x="183.099" y="13.837" width="0.304" height="1.021"/>
		</g>
	</g>
	<path fill="#080304" d="M171.718,15.702c-0.306,0-0.596-0.275-0.664-0.629l-0.294-1.56c-0.041-0.209-0.005-0.412,0.099-0.559
		c0.092-0.131,0.23-0.203,0.385-0.203h10.203c0.156,0,0.293,0.072,0.385,0.203c0.104,0.146,0.141,0.35,0.1,0.559l-0.295,1.56
		c-0.067,0.354-0.357,0.629-0.663,0.629H171.718z"/>
	
		<radialGradient id="SVGID_11_" cx="180.624" cy="-19.356" r="4.032" gradientTransform="matrix(0.9902 0 0 1.1638 -2.5115 36.6949)" gradientUnits="userSpaceOnUse">
		<stop  offset="0" style="stop-color:#FFFFFF"/>
		<stop  offset="0.2875" style="stop-color:#D8D8D9"/>
		<stop  offset="0.5861" style="stop-color:#B7B7B8"/>
		<stop  offset="0.8344" style="stop-color:#A2A2A3"/>
		<stop  offset="1" style="stop-color:#9B9B9C"/>
	</radialGradient>
	<path fill="url(#SVGID_11_)" d="M181.55,15.02c-0.059,0.315-0.314,0.567-0.577,0.567h-9.255c-0.262,0-0.52-0.252-0.578-0.567
		l-0.297-1.606c-0.066-0.362,0.113-0.662,0.4-0.662h10.203c0.288,0,0.467,0.3,0.4,0.662L181.55,15.02z"/>
	<path fill="#818181" d="M171.718,15.382c-0.181,0-0.369-0.186-0.408-0.406l-0.296-1.607c-0.022-0.125-0.005-0.24,0.047-0.317
		c0.044-0.063,0.106-0.096,0.183-0.096h10.203c0.076,0,0.14,0.032,0.183,0.096c0.054,0.077,0.071,0.192,0.048,0.317l-0.296,1.607
		c-0.04,0.221-0.227,0.406-0.408,0.406H171.718z"/>
	<g>
		<g>
			<rect x="171.601" y="13.513" fill="#080304" width="0.381" height="0.448"/>
			<rect x="171.791" y="13.738" fill="#9E9E9E" width="0.19" height="0.224"/>
		</g>
		<g>
			<rect x="172.111" y="13.513" fill="#080304" width="0.38" height="0.448"/>
			<rect x="172.302" y="13.738" fill="#9E9E9E" width="0.189" height="0.224"/>
		</g>
		<g>
			<rect x="172.623" y="13.513" fill="#080304" width="0.38" height="0.448"/>
			<rect x="172.813" y="13.738" fill="#9E9E9E" width="0.19" height="0.224"/>
		</g>
		<g>
			<rect x="173.134" y="13.513" fill="#080304" width="0.38" height="0.448"/>
			<rect x="173.323" y="13.738" fill="#9E9E9E" width="0.19" height="0.224"/>
		</g>
		<g>
			<rect x="173.644" y="13.513" fill="#080304" width="0.381" height="0.448"/>
			<rect x="173.834" y="13.738" fill="#9E9E9E" width="0.19" height="0.224"/>
		</g>
		<g>
			<rect x="174.155" y="13.513" fill="#080304" width="0.38" height="0.448"/>
			<rect x="174.345" y="13.738" fill="#9E9E9E" width="0.19" height="0.224"/>
		</g>
		<g>
			<rect x="174.665" y="13.513" fill="#080304" width="0.381" height="0.448"/>
			<rect x="174.856" y="13.738" fill="#9E9E9E" width="0.189" height="0.224"/>
		</g>
		<g>
			<rect x="175.177" y="13.513" fill="#080304" width="0.38" height="0.448"/>
			<rect x="175.368" y="13.738" fill="#9E9E9E" width="0.188" height="0.224"/>
		</g>
		<g>
			<rect x="175.688" y="13.513" fill="#080304" width="0.381" height="0.448"/>
			<rect x="175.878" y="13.738" fill="#9E9E9E" width="0.19" height="0.224"/>
		</g>
		<g>
			<rect x="176.198" y="13.513" fill="#080304" width="0.381" height="0.448"/>
			<rect x="176.389" y="13.738" fill="#9E9E9E" width="0.19" height="0.224"/>
		</g>
		<g>
			<rect x="176.709" y="13.513" fill="#080304" width="0.381" height="0.448"/>
			<rect x="176.899" y="13.738" fill="#9E9E9E" width="0.19" height="0.224"/>
		</g>
		<g>
			<rect x="177.221" y="13.513" fill="#080304" width="0.381" height="0.448"/>
			<rect x="177.411" y="13.738" fill="#9E9E9E" width="0.19" height="0.224"/>
		</g>
		<g>
			<rect x="177.731" y="13.513" fill="#080304" width="0.38" height="0.448"/>
			<rect x="177.921" y="13.738" fill="#9E9E9E" width="0.19" height="0.224"/>
		</g>
		<g>
			<rect x="178.242" y="13.513" fill="#080304" width="0.38" height="0.448"/>
			<rect x="178.431" y="13.738" fill="#9E9E9E" width="0.191" height="0.224"/>
		</g>
		<g>
			<rect x="178.754" y="13.513" fill="#080304" width="0.38" height="0.448"/>
			<rect x="178.943" y="13.738" fill="#9E9E9E" width="0.19" height="0.224"/>
		</g>
		<g>
			<rect x="179.264" y="13.513" fill="#080304" width="0.38" height="0.448"/>
			<rect x="179.454" y="13.738" fill="#9E9E9E" width="0.189" height="0.224"/>
		</g>
		<g>
			<rect x="179.774" y="13.513" fill="#080304" width="0.381" height="0.448"/>
			<rect x="179.964" y="13.738" fill="#9E9E9E" width="0.191" height="0.224"/>
		</g>
		<g>
			<rect x="180.285" y="13.513" fill="#080304" width="0.382" height="0.448"/>
			<rect x="180.476" y="13.738" fill="#9E9E9E" width="0.191" height="0.224"/>
		</g>
		<g>
			<rect x="180.796" y="13.513" fill="#080304" width="0.381" height="0.448"/>
			<rect x="180.986" y="13.738" fill="#9E9E9E" width="0.19" height="0.224"/>
		</g>
		<g>
			<rect x="171.601" y="14.492" fill="#080304" width="0.381" height="0.446"/>
			<rect x="171.791" y="14.714" fill="#9E9E9E" width="0.19" height="0.224"/>
		</g>
		<g>
			<rect x="172.111" y="14.492" fill="#080304" width="0.38" height="0.446"/>
			<rect x="172.302" y="14.714" fill="#9E9E9E" width="0.189" height="0.224"/>
		</g>
		<g>
			<rect x="172.623" y="14.492" fill="#080304" width="0.38" height="0.446"/>
			<rect x="172.813" y="14.714" fill="#9E9E9E" width="0.19" height="0.224"/>
		</g>
		<g>
			<rect x="173.134" y="14.492" fill="#080304" width="0.38" height="0.446"/>
			<rect x="173.323" y="14.714" fill="#9E9E9E" width="0.19" height="0.224"/>
		</g>
		<g>
			<rect x="173.644" y="14.492" fill="#080304" width="0.381" height="0.446"/>
			<rect x="173.834" y="14.714" fill="#9E9E9E" width="0.19" height="0.224"/>
		</g>
		<g>
			<rect x="174.155" y="14.492" fill="#080304" width="0.38" height="0.446"/>
			<rect x="174.345" y="14.714" fill="#9E9E9E" width="0.19" height="0.224"/>
		</g>
		<g>
			<rect x="174.665" y="14.492" fill="#080304" width="0.381" height="0.446"/>
			<rect x="174.856" y="14.714" fill="#9E9E9E" width="0.189" height="0.224"/>
		</g>
		<g>
			<rect x="175.177" y="14.492" fill="#080304" width="0.38" height="0.446"/>
			<rect x="175.368" y="14.714" fill="#9E9E9E" width="0.188" height="0.224"/>
		</g>
		<g>
			<rect x="175.688" y="14.492" fill="#080304" width="0.381" height="0.446"/>
			<rect x="175.878" y="14.714" fill="#9E9E9E" width="0.19" height="0.224"/>
		</g>
		<g>
			<rect x="176.198" y="14.492" fill="#080304" width="0.381" height="0.446"/>
			<rect x="176.389" y="14.714" fill="#9E9E9E" width="0.19" height="0.224"/>
		</g>
		<g>
			<rect x="176.709" y="14.492" fill="#080304" width="0.381" height="0.446"/>
			<rect x="176.899" y="14.714" fill="#9E9E9E" width="0.19" height="0.224"/>
		</g>
		<g>
			<rect x="177.221" y="14.492" fill="#080304" width="0.381" height="0.446"/>
			<rect x="177.411" y="14.714" fill="#9E9E9E" width="0.19" height="0.224"/>
		</g>
		<g>
			<rect x="177.731" y="14.492" fill="#080304" width="0.38" height="0.446"/>
			<rect x="177.921" y="14.714" fill="#9E9E9E" width="0.19" height="0.224"/>
		</g>
		<g>
			<rect x="178.242" y="14.492" fill="#080304" width="0.38" height="0.446"/>
			<rect x="178.431" y="14.714" fill="#9E9E9E" width="0.191" height="0.224"/>
		</g>
		<g>
			<rect x="178.754" y="14.492" fill="#080304" width="0.38" height="0.446"/>
			<rect x="178.943" y="14.714" fill="#9E9E9E" width="0.19" height="0.224"/>
		</g>
		<g>
			<rect x="179.264" y="14.492" fill="#080304" width="0.38" height="0.446"/>
			<rect x="179.454" y="14.714" fill="#9E9E9E" width="0.189" height="0.224"/>
		</g>
		<g>
			<rect x="179.774" y="14.492" fill="#080304" width="0.381" height="0.446"/>
			<rect x="179.964" y="14.714" fill="#9E9E9E" width="0.191" height="0.224"/>
		</g>
		<g>
			<rect x="180.285" y="14.492" fill="#080304" width="0.382" height="0.446"/>
			<rect x="180.476" y="14.714" fill="#9E9E9E" width="0.191" height="0.224"/>
		</g>
		<g>
			<rect x="180.796" y="14.492" fill="#080304" width="0.381" height="0.446"/>
			<rect x="180.986" y="14.714" fill="#9E9E9E" width="0.19" height="0.224"/>
		</g>
	</g>
	<g>
		<rect x="193.597" y="9.481" fill="#080304" width="4.309" height="5.063"/>
		<rect x="193.802" y="9.723" fill="#A8B0B5" width="3.897" height="4.581"/>
		<path fill="#32393D" d="M196.98,12.166h0.225v-0.42c0-0.822-0.495-1.508-1.151-1.672V10.4h-0.606v-0.326
			c-0.657,0.164-1.151,0.85-1.151,1.672v0.42h0.236v0.711h-0.236v1.077h0.61v-0.47h0.605v0.47h0.45v-0.47h0.606v0.47h0.637v-1.077
			h-0.225V12.166z M195.512,12.876h-0.605v-0.711h0.605V12.876z M195.447,11.658v-0.712h0.606v0.712H195.447z M196.568,12.876
			h-0.606v-0.711h0.606V12.876z"/>
		<path fill="#080304" d="M196.98,12.013h0.225v-0.42c0-0.822-0.495-1.508-1.151-1.671v0.326h-0.606V9.922
			c-0.657,0.164-1.151,0.849-1.151,1.671v0.42h0.236v0.711h-0.236V13.8h0.61v-0.469h0.605V13.8h0.45v-0.469h0.606V13.8h0.637v-1.076
			h-0.225V12.013z M195.512,12.724h-0.605v-0.711h0.605V12.724z M195.447,11.505v-0.711h0.606v0.711H195.447z M196.568,12.724
			h-0.606v-0.711h0.606V12.724z"/>
	</g>
</g>
</svg>
