<?xml version="1.0" encoding="utf-8"?>
<!DOCTYPE svg PUBLIC "-//W3C//DTD SVG 1.1//EN" "http://www.w3.org/Graphics/SVG/1.1/DTD/svg11.dtd">

<!-- Generator: Adobe Illustrator 16.0.0, SVG Export Plug-In . SVG Version: 6.00 Build 0)  -->
<svg xmlns="http://www.w3.org/2000/svg" xmlns:xlink="http://www.w3.org/1999/xlink" version="1.1" id="图层_1" x="0px" y="0px" width="221.09px" height="46.248px" viewBox="0 0 221.09 46.248" enable-background="new 0 0 221.09 46.248" xml:space="preserve">
   <g>
	
		 
    <linearGradient id="SVGID_1_" gradientUnits="userSpaceOnUse" x1="3025.2764" y1="1067.2686" x2="3246.3662" y2="1067.2686" gradientTransform="matrix(1 0 0 1 -3025.2764 -1044.1445)">
		 
      <stop offset="0" style="stop-color:#5E605F"/>
		 
      <stop offset="1" style="stop-color:#474446"/>
	
    </linearGradient>
	 
    <rect fill="url(#SVGID_1_)" width="221.09" height="46.248"/>
	
		 
    <linearGradient id="SVGID_2_" gradientUnits="userSpaceOnUse" x1="3025.2764" y1="1045.8174" x2="3246.3662" y2="1045.8174" gradientTransform="matrix(1 0 0 1 -3025.2764 -1044.1445)">
		 
      <stop offset="0" style="stop-color:#858586"/>
		 
      <stop offset="0.4843" style="stop-color:#838384"/>
		 
      <stop offset="0.7355" style="stop-color:#7D7B7E"/>
		 
      <stop offset="0.9326" style="stop-color:#716E72"/>
		 
      <stop offset="1" style="stop-color:#6C676D"/>
	
    </linearGradient>
	 
    <rect fill="url(#SVGID_2_)" width="221.09" height="3.346"/>
	
		 
    <linearGradient id="SVGID_3_" gradientUnits="userSpaceOnUse" x1="3058.3154" y1="1049.9238" x2="3058.3154" y2="1092.9348" gradientTransform="matrix(1 0 0 1 -3025.2764 -1044.1445)">
		 
      <stop offset="0" style="stop-color:#106186"/>
		 
      <stop offset="0.4261" style="stop-color:#40B4D4"/>
		 
      <stop offset="0.4462" style="stop-color:#42B8D8"/>
		 
      <stop offset="0.5669" style="stop-color:#40B5D5"/>
		 
      <stop offset="0.6666" style="stop-color:#3AAACC"/>
		 
      <stop offset="0.7588" style="stop-color:#3199BC"/>
		 
      <stop offset="0.8464" style="stop-color:#2381A5"/>
		 
      <stop offset="0.9301" style="stop-color:#126289"/>
		 
      <stop offset="1" style="stop-color:#00426B"/>
	
    </linearGradient>
	 
    <rect x="26.864" y="3.346" fill="url(#SVGID_3_)" width="12.351" height="42.902"/>
	 
    <g>
		 
      <g>
			 
        <rect x="50.42" y="9.256" fill="#444142" width="8.83" height="8.83"/>
		
      </g>
		 
      <g>
			 
        <rect x="50.42" y="20.594" fill="#444142" width="8.83" height="8.83"/>
		
      </g>
		 
      <g>
			 
        <rect x="50.42" y="31.934" fill="#444142" width="8.83" height="8.83"/>
		
      </g>
		 
      <g>
			 
        <rect x="61.759" y="9.256" fill="#444142" width="8.83" height="8.83"/>
		
      </g>
		 
      <g>
			 
        <rect x="61.759" y="20.594" fill="#444142" width="8.83" height="8.83"/>
		
      </g>
		 
      <g>
			 
        <rect x="61.759" y="31.934" fill="#444142" width="8.83" height="8.83"/>
		
      </g>
		 
      <g>
			 
        <rect x="73.098" y="9.256" fill="#444142" width="8.83" height="8.83"/>
		
      </g>
		 
      <g>
			 
        <rect x="73.098" y="20.594" fill="#444142" width="8.83" height="8.83"/>
		
      </g>
		 
      <g>
			 
        <rect x="73.098" y="31.934" fill="#444142" width="8.83" height="8.83"/>
		
      </g>
		 
      <g>
			 
        <rect x="84.437" y="9.256" fill="#444142" width="8.83" height="8.83"/>
		
      </g>
		 
      <g>
			 
        <rect x="84.437" y="20.594" fill="#444142" width="8.83" height="8.83"/>
		
      </g>
		 
      <g>
			 
        <rect x="84.437" y="31.934" fill="#444142" width="8.83" height="8.83"/>
		
      </g>
		 
      <g>
			 
        <rect x="95.775" y="9.256" fill="#444142" width="8.83" height="8.83"/>
		
      </g>
		 
      <g>
			 
        <rect x="95.775" y="20.594" fill="#444142" width="8.83" height="8.83"/>
		
      </g>
		 
      <g>
			 
        <rect x="95.775" y="31.934" fill="#444142" width="8.83" height="8.83"/>
		
      </g>
		 
      <g>
			 
        <rect x="107.114" y="9.256" fill="#444142" width="8.83" height="8.83"/>
		
      </g>
		 
      <g>
			 
        <rect x="107.114" y="20.594" fill="#444142" width="8.83" height="8.83"/>
		
      </g>
		 
      <g>
			 
        <rect x="107.114" y="31.934" fill="#444142" width="8.83" height="8.83"/>
		
      </g>
		 
      <g>
			 
        <rect x="118.453" y="9.256" fill="#444142" width="8.83" height="8.83"/>
		
      </g>
		 
      <g>
			 
        <rect x="118.453" y="20.594" fill="#444142" width="8.83" height="8.83"/>
		
      </g>
		 
      <g>
			 
        <rect x="118.453" y="31.934" fill="#444142" width="8.83" height="8.83"/>
		
      </g>
		 
      <g>
			 
        <rect x="129.792" y="9.256" fill="#444142" width="8.83" height="8.83"/>
		
      </g>
		 
      <g>
			 
        <rect x="129.792" y="20.594" fill="#444142" width="8.83" height="8.83"/>
		
      </g>
		 
      <g>
			 
        <rect x="129.792" y="31.934" fill="#444142" width="8.83" height="8.83"/>
		
      </g>
		 
      <g>
			 
        <rect x="141.131" y="9.256" fill="#444142" width="8.83" height="8.83"/>
		
      </g>
		 
      <g>
			 
        <rect x="141.131" y="20.594" fill="#444142" width="8.83" height="8.83"/>
		
      </g>
		 
      <g>
			 
        <rect x="141.131" y="31.934" fill="#444142" width="8.83" height="8.83"/>
		
      </g>
		 
      <g>
			 
        <rect x="152.47" y="9.256" fill="#444142" width="8.83" height="8.83"/>
		
      </g>
		 
      <g>
			 
        <rect x="152.47" y="20.594" fill="#444142" width="8.83" height="8.83"/>
		
      </g>
		 
      <g>
			 
        <rect x="152.47" y="31.934" fill="#444142" width="8.83" height="8.83"/>
		
      </g>
		 
      <g>
			 
        <rect x="163.809" y="9.256" fill="#444142" width="8.83" height="8.83"/>
		
      </g>
		 
      <g>
			 
        <rect x="163.809" y="20.594" fill="#444142" width="8.83" height="8.83"/>
		
      </g>
		 
      <g>
			 
        <rect x="163.809" y="31.934" fill="#444142" width="8.83" height="8.83"/>
		
      </g>
		 
      <g>
			 
        <rect x="175.147" y="9.256" fill="#444142" width="8.83" height="8.83"/>
		
      </g>
		 
      <g>
			 
        <rect x="175.147" y="20.594" fill="#444142" width="8.83" height="8.83"/>
		
      </g>
		 
      <g>
			 
        <rect x="175.147" y="31.934" fill="#444142" width="8.83" height="8.83"/>
		
      </g>
		 
      <g>
			 
        <rect x="186.486" y="9.256" fill="#444142" width="8.83" height="8.83"/>
		
      </g>
		 
      <g>
			 
        <rect x="186.486" y="20.594" fill="#444142" width="8.83" height="8.83"/>
		
      </g>
		 
      <g>
			 
        <rect x="186.486" y="31.934" fill="#444142" width="8.83" height="8.83"/>
		
      </g>
		 
      <g>
			 
        <rect x="197.825" y="9.256" fill="#444142" width="8.83" height="8.83"/>
		
      </g>
		 
      <g>
			 
        <rect x="197.825" y="20.594" fill="#444142" width="8.83" height="8.83"/>
		
      </g>
		 
      <g>
			 
        <rect x="197.825" y="31.934" fill="#444142" width="8.83" height="8.83"/>
		
      </g>
		 
      <g>
			 
        <g>
				 
          <rect x="51.421" y="10.256" fill="#101112" width="8.83" height="8.83"/>
			
        </g>
			 
        <g>
				 
          <rect x="51.421" y="21.596" fill="#101112" width="8.83" height="8.83"/>
			
        </g>
			 
        <g>
				 
          <rect x="51.421" y="32.934" fill="#101112" width="8.83" height="8.83"/>
			
        </g>
			 
        <g>
				 
          <rect x="62.76" y="10.256" fill="#101112" width="8.83" height="8.83"/>
			
        </g>
			 
        <g>
				 
          <rect x="62.76" y="21.596" fill="#101112" width="8.83" height="8.83"/>
			
        </g>
			 
        <g>
				 
          <rect x="62.76" y="32.934" fill="#101112" width="8.83" height="8.83"/>
			
        </g>
			 
        <g>
				 
          <rect x="74.099" y="10.256" fill="#101112" width="8.83" height="8.83"/>
			
        </g>
			 
        <g>
				 
          <rect x="74.099" y="21.596" fill="#101112" width="8.83" height="8.83"/>
			
        </g>
			 
        <g>
				 
          <rect x="74.099" y="32.934" fill="#101112" width="8.83" height="8.83"/>
			
        </g>
			 
        <g>
				 
          <rect x="85.438" y="10.256" fill="#101112" width="8.83" height="8.83"/>
			
        </g>
			 
        <g>
				 
          <rect x="85.438" y="21.596" fill="#101112" width="8.83" height="8.83"/>
			
        </g>
			 
        <g>
				 
          <rect x="85.438" y="32.934" fill="#101112" width="8.83" height="8.83"/>
			
        </g>
			 
        <g>
				 
          <rect x="96.776" y="10.256" fill="#101112" width="8.83" height="8.83"/>
			
        </g>
			 
        <g>
				 
          <rect x="96.776" y="21.596" fill="#101112" width="8.83" height="8.83"/>
			
        </g>
			 
        <g>
				 
          <rect x="96.776" y="32.934" fill="#101112" width="8.83" height="8.83"/>
			
        </g>
			 
        <g>
				 
          <rect x="108.115" y="10.256" fill="#101112" width="8.83" height="8.83"/>
			
        </g>
			 
        <g>
				 
          <rect x="108.115" y="21.596" fill="#101112" width="8.83" height="8.83"/>
			
        </g>
			 
        <g>
				 
          <rect x="108.115" y="32.934" fill="#101112" width="8.83" height="8.83"/>
			
        </g>
			 
        <g>
				 
          <rect x="119.454" y="10.256" fill="#101112" width="8.83" height="8.83"/>
			
        </g>
			 
        <g>
				 
          <rect x="119.454" y="21.596" fill="#101112" width="8.83" height="8.83"/>
			
        </g>
			 
        <g>
				 
          <rect x="119.454" y="32.934" fill="#101112" width="8.83" height="8.83"/>
			
        </g>
			 
        <g>
				 
          <rect x="130.793" y="10.256" fill="#101112" width="8.83" height="8.83"/>
			
        </g>
			 
        <g>
				 
          <rect x="130.793" y="21.596" fill="#101112" width="8.83" height="8.83"/>
			
        </g>
			 
        <g>
				 
          <rect x="130.793" y="32.934" fill="#101112" width="8.83" height="8.83"/>
			
        </g>
			 
        <g>
				 
          <rect x="142.132" y="10.256" fill="#101112" width="8.83" height="8.83"/>
			
        </g>
			 
        <g>
				 
          <rect x="142.132" y="21.596" fill="#101112" width="8.83" height="8.83"/>
			
        </g>
			 
        <g>
				 
          <rect x="142.132" y="32.934" fill="#101112" width="8.83" height="8.83"/>
			
        </g>
			 
        <g>
				 
          <rect x="153.471" y="10.256" fill="#101112" width="8.83" height="8.83"/>
			
        </g>
			 
        <g>
				 
          <rect x="153.471" y="21.596" fill="#101112" width="8.83" height="8.83"/>
			
        </g>
			 
        <g>
				 
          <rect x="153.471" y="32.934" fill="#101112" width="8.83" height="8.83"/>
			
        </g>
			 
        <g>
				 
          <rect x="164.81" y="10.256" fill="#101112" width="8.83" height="8.83"/>
			
        </g>
			 
        <g>
				 
          <rect x="164.81" y="21.596" fill="#101112" width="8.83" height="8.83"/>
			
        </g>
			 
        <g>
				 
          <rect x="164.81" y="32.934" fill="#101112" width="8.83" height="8.83"/>
			
        </g>
			 
        <g>
				 
          <rect x="176.148" y="10.256" fill="#101112" width="8.83" height="8.83"/>
			
        </g>
			 
        <g>
				 
          <rect x="176.148" y="21.596" fill="#101112" width="8.83" height="8.83"/>
			
        </g>
			 
        <g>
				 
          <rect x="176.148" y="32.934" fill="#101112" width="8.83" height="8.83"/>
			
        </g>
			 
        <g>
				 
          <rect x="187.487" y="10.256" fill="#101112" width="8.83" height="8.83"/>
			
        </g>
			 
        <g>
				 
          <rect x="187.487" y="21.596" fill="#101112" width="8.83" height="8.83"/>
			
        </g>
			 
        <g>
				 
          <rect x="187.487" y="32.934" fill="#101112" width="8.83" height="8.83"/>
			
        </g>
			 
        <g>
				 
          <rect x="198.826" y="10.256" fill="#101112" width="8.83" height="8.83"/>
			
        </g>
			 
        <g>
				 
          <rect x="198.826" y="21.596" fill="#101112" width="8.83" height="8.83"/>
			
        </g>
			 
        <g>
				 
          <rect x="198.826" y="32.934" fill="#101112" width="8.83" height="8.83"/>
			
        </g>
		
      </g>
	
    </g>
	 
    <g>
		 
      <g>
			 
        <rect x="51.421" y="10.256" fill="#101112" width="8.83" height="8.83"/>
		
      </g>
		 
      <g>
			 
        <rect x="51.421" y="21.596" fill="#101112" width="8.83" height="8.83"/>
		
      </g>
		 
      <g>
			 
        <rect x="51.421" y="32.934" fill="#101112" width="8.83" height="8.83"/>
		
      </g>
		 
      <g>
			 
        <rect x="62.76" y="10.256" fill="#101112" width="8.83" height="8.83"/>
		
      </g>
		 
      <g>
			 
        <rect x="62.76" y="21.596" fill="#101112" width="8.83" height="8.83"/>
		
      </g>
		 
      <g>
			 
        <rect x="62.76" y="32.934" fill="#101112" width="8.83" height="8.83"/>
		
      </g>
		 
      <g>
			 
        <rect x="74.099" y="10.256" fill="#101112" width="8.83" height="8.83"/>
		
      </g>
		 
      <g>
			 
        <rect x="74.099" y="21.596" fill="#101112" width="8.83" height="8.83"/>
		
      </g>
		 
      <g>
			 
        <rect x="74.099" y="32.934" fill="#101112" width="8.83" height="8.83"/>
		
      </g>
		 
      <g>
			 
        <rect x="85.438" y="10.256" fill="#101112" width="8.83" height="8.83"/>
		
      </g>
		 
      <g>
			 
        <rect x="85.438" y="21.596" fill="#101112" width="8.83" height="8.83"/>
		
      </g>
		 
      <g>
			 
        <rect x="85.438" y="32.934" fill="#101112" width="8.83" height="8.83"/>
		
      </g>
		 
      <g>
			 
        <rect x="96.776" y="10.256" fill="#101112" width="8.83" height="8.83"/>
		
      </g>
		 
      <g>
			 
        <rect x="96.776" y="21.596" fill="#101112" width="8.83" height="8.83"/>
		
      </g>
		 
      <g>
			 
        <rect x="96.776" y="32.934" fill="#101112" width="8.83" height="8.83"/>
		
      </g>
		 
      <g>
			 
        <rect x="108.115" y="10.256" fill="#101112" width="8.83" height="8.83"/>
		
      </g>
		 
      <g>
			 
        <rect x="108.115" y="21.596" fill="#101112" width="8.83" height="8.83"/>
		
      </g>
		 
      <g>
			 
        <rect x="108.115" y="32.934" fill="#101112" width="8.83" height="8.83"/>
		
      </g>
		 
      <g>
			 
        <rect x="119.454" y="10.256" fill="#101112" width="8.83" height="8.83"/>
		
      </g>
		 
      <g>
			 
        <rect x="119.454" y="21.596" fill="#101112" width="8.83" height="8.83"/>
		
      </g>
		 
      <g>
			 
        <rect x="119.454" y="32.934" fill="#101112" width="8.83" height="8.83"/>
		
      </g>
		 
      <g>
			 
        <rect x="130.793" y="10.256" fill="#101112" width="8.83" height="8.83"/>
		
      </g>
		 
      <g>
			 
        <rect x="130.793" y="21.596" fill="#101112" width="8.83" height="8.83"/>
		
      </g>
		 
      <g>
			 
        <rect x="130.793" y="32.934" fill="#101112" width="8.83" height="8.83"/>
		
      </g>
		 
      <g>
			 
        <rect x="142.132" y="10.256" fill="#101112" width="8.83" height="8.83"/>
		
      </g>
		 
      <g>
			 
        <rect x="142.132" y="21.596" fill="#101112" width="8.83" height="8.83"/>
		
      </g>
		 
      <g>
			 
        <rect x="142.132" y="32.934" fill="#101112" width="8.83" height="8.83"/>
		
      </g>
		 
      <g>
			 
        <rect x="153.471" y="10.256" fill="#101112" width="8.83" height="8.83"/>
		
      </g>
		 
      <g>
			 
        <rect x="153.471" y="21.596" fill="#101112" width="8.83" height="8.83"/>
		
      </g>
		 
      <g>
			 
        <rect x="153.471" y="32.934" fill="#101112" width="8.83" height="8.83"/>
		
      </g>
		 
      <g>
			 
        <rect x="164.81" y="10.256" fill="#101112" width="8.83" height="8.83"/>
		
      </g>
		 
      <g>
			 
        <rect x="164.81" y="21.596" fill="#101112" width="8.83" height="8.83"/>
		
      </g>
		 
      <g>
			 
        <rect x="164.81" y="32.934" fill="#101112" width="8.83" height="8.83"/>
		
      </g>
		 
      <g>
			 
        <rect x="176.148" y="10.256" fill="#101112" width="8.83" height="8.83"/>
		
      </g>
		 
      <g>
			 
        <rect x="176.148" y="21.596" fill="#101112" width="8.83" height="8.83"/>
		
      </g>
		 
      <g>
			 
        <rect x="176.148" y="32.934" fill="#101112" width="8.83" height="8.83"/>
		
      </g>
		 
      <g>
			 
        <rect x="187.487" y="10.256" fill="#101112" width="8.83" height="8.83"/>
		
      </g>
		 
      <g>
			 
        <rect x="187.487" y="21.596" fill="#101112" width="8.83" height="8.83"/>
		
      </g>
		 
      <g>
			 
        <rect x="187.487" y="32.934" fill="#101112" width="8.83" height="8.83"/>
		
      </g>
		 
      <g>
			 
        <rect x="198.826" y="10.256" fill="#101112" width="8.83" height="8.83"/>
		
      </g>
		 
      <g>
			 
        <rect x="198.826" y="21.596" fill="#101112" width="8.83" height="8.83"/>
		
      </g>
		 
      <g>
			 
        <rect x="198.826" y="32.934" fill="#101112" width="8.83" height="8.83"/>
		
      </g>
	
    </g>
  </g>
</svg>
