<?xml version="1.0" encoding="utf-8"?>
<!-- Generator: Adobe Illustrator 19.0.0, SVG Export Plug-In . SVG Version: 6.00 Build 0)  -->
<svg version="1.1" id="图层_1" xmlns="http://www.w3.org/2000/svg" xmlns:xlink="http://www.w3.org/1999/xlink" x="0px" y="0px"
	 width="1417.3px" height="1134px" viewBox="0 0 1417.3 1134" style="enable-background:new 0 0 1417.3 1134;" xml:space="preserve"
	>
<style type="text/css">
	.st0{fill:#343537;}
	.st1{fill:url(#XMLID_4_);}
	.st2{fill:url(#XMLID_5_);}
	.st3{clip-path:url(#XMLID_7_);}
	.st4{clip-path:url(#XMLID_8_);fill:url(#XMLID_9_);}
	.st5{fill:url(#XMLID_12_);}
	.st6{fill:url(#XMLID_13_);}
	.st7{fill:url(#XMLID_17_);}
	.st8{fill:url(#XMLID_22_);}
	.st9{clip-path:url(#XMLID_25_);}
	.st10{clip-path:url(#XMLID_26_);fill:url(#XMLID_27_);}
	.st11{fill:url(#XMLID_29_);}
	.st12{fill:url(#XMLID_30_);}
	.st13{fill:url(#XMLID_34_);}
	.st14{fill:url(#XMLID_40_);}
</style>
<rect id="XMLID_11_" x="69.9" class="st0" width="1276.6" height="1134"/>
<linearGradient id="XMLID_4_" gradientUnits="userSpaceOnUse" x1="0" y1="568.6701" x2="70.866" y2="568.6701" gradientTransform="matrix(1 0 0 -1 0 1135.67)">
	<stop  offset="0" style="stop-color:#343537"/>
	<stop  offset="1" style="stop-color:#191919"/>
</linearGradient>
<rect id="XMLID_10_" y="0" class="st1" width="70.9" height="1134"/>
<linearGradient id="XMLID_5_" gradientUnits="userSpaceOnUse" x1="9786.3047" y1="568.6701" x2="9857.1699" y2="568.6701" gradientTransform="matrix(-1 0 0 -1 11203.627 1135.67)">
	<stop  offset="0" style="stop-color:#343537"/>
	<stop  offset="1" style="stop-color:#191919"/>
</linearGradient>
<rect id="XMLID_1_" x="1346.5" y="0" class="st2" width="70.9" height="1134"/>
<g id="XMLID_196_">
	<g id="XMLID_39_">
		<g id="XMLID_31_">
			<g id="XMLID_32_">
				<g id="XMLID_37_">
					<defs>
						<polygon id="XMLID_38_" points="3,444 4,444 3,445 						"/>
					</defs>
					<clipPath id="XMLID_6_">
						<use xlink:href="#XMLID_38_"  style="overflow:visible;"/>
					</clipPath>
				</g>
				<g id="XMLID_33_">
					<defs>
						<polygon id="XMLID_36_" points="3,444 4,444 3,445 						"/>
					</defs>
					<defs>
						<polygon id="XMLID_35_" points="1,442 0,442 1,441 						"/>
					</defs>
					<clipPath id="XMLID_7_">
						<use xlink:href="#XMLID_36_"  style="overflow:visible;"/>
					</clipPath>
					<clipPath id="XMLID_8_" class="st3">
						<use xlink:href="#XMLID_35_"  style="overflow:visible;"/>
					</clipPath>
					
						<linearGradient id="XMLID_9_" gradientUnits="userSpaceOnUse" x1="33.7476" y1="570.1515" x2="54.8978" y2="570.1515" gradientTransform="matrix(1 0 0 -1 0 1136.11)">
						<stop  offset="0" style="stop-color:#FFFFFF"/>
						<stop  offset="0.1901" style="stop-color:#FCFCFC"/>
						<stop  offset="0.3236" style="stop-color:#F3F3F3"/>
						<stop  offset="0.4397" style="stop-color:#E3E3E3"/>
						<stop  offset="0.5461" style="stop-color:#CDCDCD"/>
						<stop  offset="0.6456" style="stop-color:#B1B1B1"/>
						<stop  offset="0.7402" style="stop-color:#8E8E8E"/>
						<stop  offset="0.8309" style="stop-color:#656565"/>
						<stop  offset="0.9161" style="stop-color:#363636"/>
						<stop  offset="0.9985" style="stop-color:#010101"/>
						<stop  offset="1" style="stop-color:#000000"/>
					</linearGradient>
					<rect id="XMLID_41_" x="33.5" y="494.6" class="st4" width="22.1" height="142.8"/>
				</g>
			</g>
		</g>
	</g>
	
		<linearGradient id="XMLID_12_" gradientUnits="userSpaceOnUse" x1="33.7476" y1="570.1515" x2="54.8978" y2="570.1515" gradientTransform="matrix(1 0 0 -1 0 1136.11)">
		<stop  offset="0" style="stop-color:#040000"/>
		<stop  offset="0.448" style="stop-color:#060303"/>
		<stop  offset="0.7621" style="stop-color:#0E0C0C"/>
		<stop  offset="1" style="stop-color:#191919"/>
	</linearGradient>
	<rect id="XMLID_212_" x="33.5" y="494.6" class="st5" width="22.1" height="142.8"/>
	<g id="XMLID_198_">
		
			<linearGradient id="XMLID_13_" gradientUnits="userSpaceOnUse" x1="51.3664" y1="643.936" x2="29.8171" y2="635.3162" gradientTransform="matrix(1 0 0 -1 0 1136.11)">
			<stop  offset="0" style="stop-color:#E1E0DF"/>
			<stop  offset="1" style="stop-color:#666666"/>
		</linearGradient>
		<path id="XMLID_204_" class="st6" d="M28.2,489.4l3.5-0.1c1.8,0,4,0.3,5.8,0.7l8.7,2.3c2.3,0.6,3.9,2.7,3.9,5v1.9
			c0,5.2-4.7,9-9.8,8.2l-12.8-2.2L28.2,489.4z"/>
		
			<linearGradient id="XMLID_17_" gradientUnits="userSpaceOnUse" x1="-2085.5042" y1="-1098.2572" x2="-2070.5652" y2="-1098.2572" gradientTransform="matrix(-1 0 0 1 -2033.0801 1735.5875)">
			<stop  offset="0" style="stop-color:#E1E0DF"/>
			<stop  offset="1" style="stop-color:#666666"/>
		</linearGradient>
		<path id="XMLID_202_" class="st7" d="M43.5,644.1l-5.2,1.4c-3,0.8-6.1,1.2-9.2,1.2l0,0l-1.7-15.8l14.7-2.8c4.1-0.8,8,2.4,8,6.5v1
			C50,639.6,47.3,643.1,43.5,644.1z"/>
		
			<linearGradient id="XMLID_22_" gradientUnits="userSpaceOnUse" x1="19.2403" y1="568.1675" x2="38.9585" y2="568.1675" gradientTransform="matrix(1 0 0 -1 0 1136.11)">
			<stop  offset="0" style="stop-color:#CCCDCD"/>
			<stop  offset="0.4731" style="stop-color:#E1E0DF"/>
			<stop  offset="1" style="stop-color:#666666"/>
		</linearGradient>
		<path id="XMLID_3_" class="st8" d="M29.1,646.7L29.1,646.7c-5.5,0-9.9-4.4-9.9-9.8V499c0-5.5,4.4-9.8,9.9-9.8l0,0
			c5.5,0,9.9,4.4,9.9,9.8v137.8C38.9,642.3,34.5,646.7,29.1,646.7z"/>
	</g>
</g>
<g id="XMLID_110_">
	<g id="XMLID_111_">
		<g id="XMLID_24_">
			<g id="XMLID_14_">
				<g id="XMLID_15_">
					<g id="XMLID_20_">
						<defs>
							<polygon id="XMLID_21_" points="3,444 4,444 3,445 							"/>
						</defs>
						<clipPath id="XMLID_23_">
							<use xlink:href="#XMLID_21_"  style="overflow:visible;"/>
						</clipPath>
					</g>
					<g id="XMLID_16_">
						<defs>
							<polygon id="XMLID_19_" points="3,444 4,444 3,445 							"/>
						</defs>
						<defs>
							<polygon id="XMLID_18_" points="1,442 0,442 1,441 							"/>
						</defs>
						<clipPath id="XMLID_25_">
							<use xlink:href="#XMLID_19_"  style="overflow:visible;"/>
						</clipPath>
						<clipPath id="XMLID_26_" class="st9">
							<use xlink:href="#XMLID_18_"  style="overflow:visible;"/>
						</clipPath>
						
							<linearGradient id="XMLID_27_" gradientUnits="userSpaceOnUse" x1="4074.187" y1="570.1515" x2="4095.3362" y2="570.1515" gradientTransform="matrix(-1 0 0 -1 5459.6816 1136.11)">
							<stop  offset="0" style="stop-color:#FFFFFF"/>
							<stop  offset="0.1901" style="stop-color:#FCFCFC"/>
							<stop  offset="0.3236" style="stop-color:#F3F3F3"/>
							<stop  offset="0.4397" style="stop-color:#E3E3E3"/>
							<stop  offset="0.5461" style="stop-color:#CDCDCD"/>
							<stop  offset="0.6456" style="stop-color:#B1B1B1"/>
							<stop  offset="0.7402" style="stop-color:#8E8E8E"/>
							<stop  offset="0.8309" style="stop-color:#656565"/>
							<stop  offset="0.9161" style="stop-color:#363636"/>
							<stop  offset="0.9985" style="stop-color:#010101"/>
							<stop  offset="1" style="stop-color:#000000"/>
						</linearGradient>
						<rect id="XMLID_28_" x="1363.7" y="494.6" class="st10" width="22.1" height="142.8"/>
					</g>
				</g>
			</g>
		</g>
		
			<linearGradient id="XMLID_29_" gradientUnits="userSpaceOnUse" x1="4074.187" y1="570.1515" x2="4095.3362" y2="570.1515" gradientTransform="matrix(-1 0 0 -1 5459.6816 1136.11)">
			<stop  offset="0" style="stop-color:#040000"/>
			<stop  offset="0.448" style="stop-color:#060303"/>
			<stop  offset="0.7621" style="stop-color:#0E0C0C"/>
			<stop  offset="1" style="stop-color:#191919"/>
		</linearGradient>
		<rect id="XMLID_190_" x="1363.7" y="494.6" class="st11" width="22.1" height="142.8"/>
		<g id="XMLID_112_">
			
				<linearGradient id="XMLID_30_" gradientUnits="userSpaceOnUse" x1="4091.8083" y1="643.928" x2="4070.2581" y2="635.3079" gradientTransform="matrix(-1 0 0 -1 5459.6816 1136.11)">
				<stop  offset="0" style="stop-color:#E1E0DF"/>
				<stop  offset="1" style="stop-color:#666666"/>
			</linearGradient>
			<path id="XMLID_170_" class="st12" d="M1391.1,489.4l-3.5-0.1c-1.8,0-4,0.3-5.8,0.7l-8.7,2.3c-2.3,0.6-3.9,2.7-3.9,5v1.9
				c0,5.2,4.7,9,9.8,8.2l12.8-2.2L1391.1,489.4z"/>
			
				<linearGradient id="XMLID_34_" gradientUnits="userSpaceOnUse" x1="-6125.9419" y1="-1098.2572" x2="-6111.002" y2="-1098.2572" gradientTransform="matrix(1 0 0 1 7492.7612 1735.5875)">
				<stop  offset="0" style="stop-color:#E1E0DF"/>
				<stop  offset="1" style="stop-color:#666666"/>
			</linearGradient>
			<path id="XMLID_119_" class="st13" d="M1375.8,644.1l5.2,1.4c3,0.8,6.1,1.2,9.2,1.2l0,0l1.7-15.8l-14.7-2.8c-4.1-0.8-8,2.4-8,6.5
				v1C1369.2,639.6,1371.9,643.1,1375.8,644.1z"/>
			
				<linearGradient id="XMLID_40_" gradientUnits="userSpaceOnUse" x1="4059.6787" y1="568.1675" x2="4079.3967" y2="568.1675" gradientTransform="matrix(-1 0 0 -1 5459.6816 1136.11)">
				<stop  offset="0" style="stop-color:#CCCDCD"/>
				<stop  offset="0.4731" style="stop-color:#E1E0DF"/>
				<stop  offset="1" style="stop-color:#666666"/>
			</linearGradient>
			<path id="XMLID_114_" class="st14" d="M1390.2,646.7L1390.2,646.7c5.5,0,9.9-4.4,9.9-9.8V499c0-5.5-4.4-9.8-9.9-9.8l0,0
				c-5.5,0-9.9,4.4-9.9,9.8v137.8C1380.3,642.3,1384.7,646.7,1390.2,646.7z"/>
		</g>
	</g>
</g>
</svg>
