<?xml version="1.0" encoding="utf-8"?>
<!-- Generator: Adobe Illustrator 19.0.0, SVG Export Plug-In . SVG Version: 6.00 Build 0)  -->
<svg version="1.1" id="图层_1" xmlns="http://www.w3.org/2000/svg" xmlns:xlink="http://www.w3.org/1999/xlink" x="0px" y="0px"
	 width="689.6px" height="2133.2px" viewBox="0 0 689.6 2133.2" style="enable-background:new 0 0 689.6 2133.2;"
	 xml:space="preserve">
<style type="text/css">
	.st0{fill:url(#XMLID_2_);}
	.st1{fill:#211613;}
	.st2{stroke:#000000;stroke-width:0.7;stroke-miterlimit:10;}
	.st3{font-family:'MicrosoftYaHei';}
	.st4{font-size:24.6945px;}
</style>
<g id="XMLID_4421_">
	
		<linearGradient id="XMLID_2_" gradientUnits="userSpaceOnUse" x1="-78.5073" y1="1243.1406" x2="521.4927" y2="1243.1406" gradientTransform="matrix(1 0 0 -1 123.2847 2309.7656)">
		<stop  offset="0" style="stop-color:#808080"/>
		<stop  offset="8.950000e-02" style="stop-color:#3E3A39"/>
		<stop  offset="0.9181" style="stop-color:#3E3A39"/>
		<stop  offset="1" style="stop-color:#808080"/>
	</linearGradient>
	<path id="XMLID_4422_" class="st0" d="M44.8,0v2133.2h600V0H44.8z M569.8,2066.8h-450V66.5h450V2066.8z"/>
</g>
<g id="XMLID_1955_">
	<rect id="XMLID_2449_" x="100.3" y="2024.1" class="st1" width="9" height="11.1"/>
	<rect id="XMLID_2448_" x="100.3" y="2053.8" class="st1" width="9" height="11.1"/>
	<polygon id="XMLID_2447_" class="st1" points="109.3,2043.1 109.3,2039 100.3,2039 100.3,2050.1 109.3,2050.1 109.3,2046 
		110.8,2046 110.8,2043.1 	"/>
	<g id="XMLID_2440_">
		<rect id="XMLID_2443_" x="578.7" y="2024.1" class="st1" width="9" height="11.1"/>
		<rect id="XMLID_2442_" x="578.7" y="2053.8" class="st1" width="9" height="11.1"/>
		<polygon id="XMLID_2441_" class="st1" points="578.7,2043.1 578.7,2039 587.7,2039 587.7,2050.1 578.7,2050.1 578.7,2046 
			577.2,2046 577.2,2043.1 		"/>
	</g>
	<rect id="XMLID_2438_" x="100.3" y="1979.7" class="st1" width="9" height="11.1"/>
	<rect id="XMLID_2437_" x="100.3" y="2009.3" class="st1" width="9" height="11.1"/>
	<polygon id="XMLID_2436_" class="st1" points="109.3,1998.6 109.3,1994.5 100.3,1994.5 100.3,2005.6 109.3,2005.6 109.3,2001.5 
		110.8,2001.5 110.8,1998.6 	"/>
	<g id="XMLID_2429_">
		<rect id="XMLID_2432_" x="578.7" y="1979.7" class="st1" width="9" height="11.1"/>
		<rect id="XMLID_2431_" x="578.7" y="2009.3" class="st1" width="9" height="11.1"/>
		<polygon id="XMLID_2430_" class="st1" points="578.7,1998.6 578.7,1994.5 587.7,1994.5 587.7,2005.6 578.7,2005.6 578.7,2001.5 
			577.2,2001.5 577.2,1998.6 		"/>
	</g>
	<rect id="XMLID_2427_" x="100.3" y="1935.2" class="st1" width="9" height="11.1"/>
	<rect id="XMLID_2426_" x="100.3" y="1964.9" class="st1" width="9" height="11.1"/>
	<polygon id="XMLID_2425_" class="st1" points="109.3,1954.2 109.3,1950.1 100.3,1950.1 100.3,1961.2 109.3,1961.2 109.3,1957.1 
		110.8,1957.1 110.8,1954.2 	"/>
	<g id="XMLID_2418_">
		<rect id="XMLID_2421_" x="578.7" y="1935.2" class="st1" width="9" height="11.1"/>
		<rect id="XMLID_2420_" x="578.7" y="1964.9" class="st1" width="9" height="11.1"/>
		<polygon id="XMLID_2419_" class="st1" points="578.7,1954.2 578.7,1950.1 587.7,1950.1 587.7,1961.2 578.7,1961.2 578.7,1957.1 
			577.2,1957.1 577.2,1954.2 		"/>
	</g>
	<rect id="XMLID_2416_" x="100.3" y="1890.8" class="st1" width="9" height="11.1"/>
	<rect id="XMLID_2415_" x="100.3" y="1920.4" class="st1" width="9" height="11.1"/>
	<polygon id="XMLID_2414_" class="st1" points="109.3,1909.7 109.3,1905.6 100.3,1905.6 100.3,1916.7 109.3,1916.7 109.3,1912.6 
		110.8,1912.6 110.8,1909.7 	"/>
	<g id="XMLID_2407_">
		<rect id="XMLID_2410_" x="578.7" y="1890.8" class="st1" width="9" height="11.1"/>
		<rect id="XMLID_2409_" x="578.7" y="1920.4" class="st1" width="9" height="11.1"/>
		<polygon id="XMLID_2408_" class="st1" points="578.7,1909.7 578.7,1905.6 587.7,1905.6 587.7,1916.7 578.7,1916.7 578.7,1912.6 
			577.2,1912.6 577.2,1909.7 		"/>
	</g>
	<rect id="XMLID_2405_" x="100.3" y="1846.3" class="st1" width="9" height="11.1"/>
	<rect id="XMLID_2404_" x="100.3" y="1876" class="st1" width="9" height="11.1"/>
	<polygon id="XMLID_2403_" class="st1" points="109.3,1865.3 109.3,1861.2 100.3,1861.2 100.3,1872.3 109.3,1872.3 109.3,1868.2 
		110.8,1868.2 110.8,1865.3 	"/>
	<g id="XMLID_2396_">
		<rect id="XMLID_2399_" x="578.7" y="1846.3" class="st1" width="9" height="11.1"/>
		<rect id="XMLID_2398_" x="578.7" y="1876" class="st1" width="9" height="11.1"/>
		<polygon id="XMLID_2397_" class="st1" points="578.7,1865.3 578.7,1861.2 587.7,1861.2 587.7,1872.3 578.7,1872.3 578.7,1868.2 
			577.2,1868.2 577.2,1865.3 		"/>
	</g>
	<rect id="XMLID_2394_" x="100.3" y="1801.9" class="st1" width="9" height="11.1"/>
	<rect id="XMLID_2393_" x="100.3" y="1831.5" class="st1" width="9" height="11.1"/>
	<polygon id="XMLID_2392_" class="st1" points="109.3,1820.8 109.3,1816.7 100.3,1816.7 100.3,1827.8 109.3,1827.8 109.3,1823.7 
		110.8,1823.7 110.8,1820.8 	"/>
	<g id="XMLID_2385_">
		<rect id="XMLID_2388_" x="578.7" y="1801.9" class="st1" width="9" height="11.1"/>
		<rect id="XMLID_2387_" x="578.7" y="1831.5" class="st1" width="9" height="11.1"/>
		<polygon id="XMLID_2386_" class="st1" points="578.7,1820.8 578.7,1816.7 587.7,1816.7 587.7,1827.8 578.7,1827.8 578.7,1823.7 
			577.2,1823.7 577.2,1820.8 		"/>
	</g>
	<rect id="XMLID_2383_" x="100.3" y="1757.4" class="st1" width="9" height="11.1"/>
	<rect id="XMLID_2382_" x="100.3" y="1787.1" class="st1" width="9" height="11.1"/>
	<polygon id="XMLID_2381_" class="st1" points="109.3,1776.4 109.3,1772.3 100.3,1772.3 100.3,1783.4 109.3,1783.4 109.3,1779.3 
		110.8,1779.3 110.8,1776.4 	"/>
	<g id="XMLID_2374_">
		<rect id="XMLID_2377_" x="578.7" y="1757.4" class="st1" width="9" height="11.1"/>
		<rect id="XMLID_2376_" x="578.7" y="1787.1" class="st1" width="9" height="11.1"/>
		<polygon id="XMLID_2375_" class="st1" points="578.7,1776.4 578.7,1772.3 587.7,1772.3 587.7,1783.4 578.7,1783.4 578.7,1779.3 
			577.2,1779.3 577.2,1776.4 		"/>
	</g>
	<rect id="XMLID_2372_" x="100.3" y="1713" class="st1" width="9" height="11.1"/>
	<rect id="XMLID_2371_" x="100.3" y="1742.6" class="st1" width="9" height="11.1"/>
	<polygon id="XMLID_2370_" class="st1" points="109.3,1731.9 109.3,1727.8 100.3,1727.8 100.3,1738.9 109.3,1738.9 109.3,1734.8 
		110.8,1734.8 110.8,1731.9 	"/>
	<g id="XMLID_2363_">
		<rect id="XMLID_2366_" x="578.7" y="1713" class="st1" width="9" height="11.1"/>
		<rect id="XMLID_2365_" x="578.7" y="1742.6" class="st1" width="9" height="11.1"/>
		<polygon id="XMLID_2364_" class="st1" points="578.7,1731.9 578.7,1727.8 587.7,1727.8 587.7,1738.9 578.7,1738.9 578.7,1734.8 
			577.2,1734.8 577.2,1731.9 		"/>
	</g>
	<rect id="XMLID_2361_" x="100.3" y="1668.5" class="st1" width="9" height="11.1"/>
	<rect id="XMLID_2360_" x="100.3" y="1698.2" class="st1" width="9" height="11.1"/>
	<polygon id="XMLID_2359_" class="st1" points="109.3,1687.5 109.3,1683.4 100.3,1683.4 100.3,1694.5 109.3,1694.5 109.3,1690.4 
		110.8,1690.4 110.8,1687.5 	"/>
	<g id="XMLID_2352_">
		<rect id="XMLID_2355_" x="578.7" y="1668.5" class="st1" width="9" height="11.1"/>
		<rect id="XMLID_2354_" x="578.7" y="1698.2" class="st1" width="9" height="11.1"/>
		<polygon id="XMLID_2353_" class="st1" points="578.7,1687.5 578.7,1683.4 587.7,1683.4 587.7,1694.5 578.7,1694.5 578.7,1690.4 
			577.2,1690.4 577.2,1687.5 		"/>
	</g>
	<rect id="XMLID_2350_" x="100.3" y="1624.1" class="st1" width="9" height="11.1"/>
	<rect id="XMLID_2349_" x="100.3" y="1653.7" class="st1" width="9" height="11.1"/>
	<polygon id="XMLID_2348_" class="st1" points="109.3,1643 109.3,1638.9 100.3,1638.9 100.3,1650 109.3,1650 109.3,1645.9 
		110.8,1645.9 110.8,1643 	"/>
	<g id="XMLID_2341_">
		<rect id="XMLID_2344_" x="578.7" y="1624.1" class="st1" width="9" height="11.1"/>
		<rect id="XMLID_2343_" x="578.7" y="1653.7" class="st1" width="9" height="11.1"/>
		<polygon id="XMLID_2342_" class="st1" points="578.7,1643 578.7,1638.9 587.7,1638.9 587.7,1650 578.7,1650 578.7,1645.9 
			577.2,1645.9 577.2,1643 		"/>
	</g>
	<rect id="XMLID_2339_" x="100.3" y="1579.6" class="st1" width="9" height="11.1"/>
	<rect id="XMLID_2338_" x="100.3" y="1609.3" class="st1" width="9" height="11.1"/>
	<polygon id="XMLID_2337_" class="st1" points="109.3,1598.6 109.3,1594.5 100.3,1594.5 100.3,1605.6 109.3,1605.6 109.3,1601.5 
		110.8,1601.5 110.8,1598.6 	"/>
	<g id="XMLID_2330_">
		<rect id="XMLID_2333_" x="578.7" y="1579.6" class="st1" width="9" height="11.1"/>
		<rect id="XMLID_2332_" x="578.7" y="1609.3" class="st1" width="9" height="11.1"/>
		<polygon id="XMLID_2331_" class="st1" points="578.7,1598.6 578.7,1594.5 587.7,1594.5 587.7,1605.6 578.7,1605.6 578.7,1601.5 
			577.2,1601.5 577.2,1598.6 		"/>
	</g>
	<rect id="XMLID_2328_" x="100.3" y="1535.2" class="st1" width="9" height="11.1"/>
	<rect id="XMLID_2327_" x="100.3" y="1564.8" class="st1" width="9" height="11.1"/>
	<polygon id="XMLID_2326_" class="st1" points="109.3,1554.1 109.3,1550 100.3,1550 100.3,1561.1 109.3,1561.1 109.3,1557 
		110.8,1557 110.8,1554.1 	"/>
	<g id="XMLID_2319_">
		<rect id="XMLID_2322_" x="578.7" y="1535.2" class="st1" width="9" height="11.1"/>
		<rect id="XMLID_2321_" x="578.7" y="1564.8" class="st1" width="9" height="11.1"/>
		<polygon id="XMLID_2320_" class="st1" points="578.7,1554.1 578.7,1550 587.7,1550 587.7,1561.1 578.7,1561.1 578.7,1557 
			577.2,1557 577.2,1554.1 		"/>
	</g>
	<rect id="XMLID_2317_" x="100.3" y="1490.7" class="st1" width="9" height="11.1"/>
	<rect id="XMLID_2316_" x="100.3" y="1520.4" class="st1" width="9" height="11.1"/>
	<polygon id="XMLID_2315_" class="st1" points="109.3,1509.7 109.3,1505.6 100.3,1505.6 100.3,1516.7 109.3,1516.7 109.3,1512.6 
		110.8,1512.6 110.8,1509.7 	"/>
	<g id="XMLID_2308_">
		<rect id="XMLID_2311_" x="578.7" y="1490.7" class="st1" width="9" height="11.1"/>
		<rect id="XMLID_2310_" x="578.7" y="1520.4" class="st1" width="9" height="11.1"/>
		<polygon id="XMLID_2309_" class="st1" points="578.7,1509.7 578.7,1505.6 587.7,1505.6 587.7,1516.7 578.7,1516.7 578.7,1512.6 
			577.2,1512.6 577.2,1509.7 		"/>
	</g>
	<rect id="XMLID_2306_" x="100.3" y="1446.3" class="st1" width="9" height="11.1"/>
	<rect id="XMLID_2305_" x="100.3" y="1475.9" class="st1" width="9" height="11.1"/>
	<polygon id="XMLID_2304_" class="st1" points="109.3,1465.2 109.3,1461.1 100.3,1461.1 100.3,1472.2 109.3,1472.2 109.3,1468.1 
		110.8,1468.1 110.8,1465.2 	"/>
	<g id="XMLID_2297_">
		<rect id="XMLID_2300_" x="578.7" y="1446.3" class="st1" width="9" height="11.1"/>
		<rect id="XMLID_2299_" x="578.7" y="1475.9" class="st1" width="9" height="11.1"/>
		<polygon id="XMLID_2298_" class="st1" points="578.7,1465.2 578.7,1461.1 587.7,1461.1 587.7,1472.2 578.7,1472.2 578.7,1468.1 
			577.2,1468.1 577.2,1465.2 		"/>
	</g>
	<rect id="XMLID_2295_" x="100.3" y="1401.8" class="st1" width="9" height="11.1"/>
	<rect id="XMLID_2294_" x="100.3" y="1431.5" class="st1" width="9" height="11.1"/>
	<polygon id="XMLID_2293_" class="st1" points="109.3,1420.8 109.3,1416.7 100.3,1416.7 100.3,1427.8 109.3,1427.8 109.3,1423.7 
		110.8,1423.7 110.8,1420.8 	"/>
	<g id="XMLID_2286_">
		<rect id="XMLID_2289_" x="578.7" y="1401.8" class="st1" width="9" height="11.1"/>
		<rect id="XMLID_2288_" x="578.7" y="1431.5" class="st1" width="9" height="11.1"/>
		<polygon id="XMLID_2287_" class="st1" points="578.7,1420.8 578.7,1416.7 587.7,1416.7 587.7,1427.8 578.7,1427.8 578.7,1423.7 
			577.2,1423.7 577.2,1420.8 		"/>
	</g>
	<rect id="XMLID_2284_" x="100.3" y="1357.4" class="st1" width="9" height="11.1"/>
	<rect id="XMLID_2283_" x="100.3" y="1387" class="st1" width="9" height="11.1"/>
	<polygon id="XMLID_2282_" class="st1" points="109.3,1376.3 109.3,1372.2 100.3,1372.2 100.3,1383.3 109.3,1383.3 109.3,1379.2 
		110.8,1379.2 110.8,1376.3 	"/>
	<g id="XMLID_2275_">
		<rect id="XMLID_2278_" x="578.7" y="1357.4" class="st1" width="9" height="11.1"/>
		<rect id="XMLID_2277_" x="578.7" y="1387" class="st1" width="9" height="11.1"/>
		<polygon id="XMLID_2276_" class="st1" points="578.7,1376.3 578.7,1372.2 587.7,1372.2 587.7,1383.3 578.7,1383.3 578.7,1379.2 
			577.2,1379.2 577.2,1376.3 		"/>
	</g>
	<rect id="XMLID_2273_" x="100.3" y="1312.9" class="st1" width="9" height="11.1"/>
	<rect id="XMLID_2272_" x="100.3" y="1342.6" class="st1" width="9" height="11.1"/>
	<polygon id="XMLID_2271_" class="st1" points="109.3,1331.9 109.3,1327.8 100.3,1327.8 100.3,1338.9 109.3,1338.9 109.3,1334.8 
		110.8,1334.8 110.8,1331.9 	"/>
	<g id="XMLID_2264_">
		<rect id="XMLID_2267_" x="578.7" y="1312.9" class="st1" width="9" height="11.1"/>
		<rect id="XMLID_2266_" x="578.7" y="1342.6" class="st1" width="9" height="11.1"/>
		<polygon id="XMLID_2265_" class="st1" points="578.7,1331.9 578.7,1327.8 587.7,1327.8 587.7,1338.9 578.7,1338.9 578.7,1334.8 
			577.2,1334.8 577.2,1331.9 		"/>
	</g>
	<rect id="XMLID_2262_" x="100.3" y="1268.5" class="st1" width="9" height="11.1"/>
	<rect id="XMLID_2261_" x="100.3" y="1298.1" class="st1" width="9" height="11.1"/>
	<polygon id="XMLID_2260_" class="st1" points="109.3,1287.4 109.3,1283.3 100.3,1283.3 100.3,1294.4 109.3,1294.4 109.3,1290.3 
		110.8,1290.3 110.8,1287.4 	"/>
	<g id="XMLID_2253_">
		<rect id="XMLID_2256_" x="578.7" y="1268.5" class="st1" width="9" height="11.1"/>
		<rect id="XMLID_2255_" x="578.7" y="1298.1" class="st1" width="9" height="11.1"/>
		<polygon id="XMLID_2254_" class="st1" points="578.7,1287.4 578.7,1283.3 587.7,1283.3 587.7,1294.4 578.7,1294.4 578.7,1290.3 
			577.2,1290.3 577.2,1287.4 		"/>
	</g>
	<rect id="XMLID_2251_" x="100.3" y="1224" class="st1" width="9" height="11.1"/>
	<rect id="XMLID_2250_" x="100.3" y="1253.7" class="st1" width="9" height="11.1"/>
	<polygon id="XMLID_2249_" class="st1" points="109.3,1243 109.3,1238.9 100.3,1238.9 100.3,1250 109.3,1250 109.3,1245.9 
		110.8,1245.9 110.8,1243 	"/>
	<g id="XMLID_2242_">
		<rect id="XMLID_2245_" x="578.7" y="1224" class="st1" width="9" height="11.1"/>
		<rect id="XMLID_2244_" x="578.7" y="1253.7" class="st1" width="9" height="11.1"/>
		<polygon id="XMLID_2243_" class="st1" points="578.7,1243 578.7,1238.9 587.7,1238.9 587.7,1250 578.7,1250 578.7,1245.9 
			577.2,1245.9 577.2,1243 		"/>
	</g>
	<rect id="XMLID_2240_" x="100.3" y="1179.6" class="st1" width="9" height="11.1"/>
	<rect id="XMLID_2239_" x="100.3" y="1209.2" class="st1" width="9" height="11.1"/>
	<polygon id="XMLID_2238_" class="st1" points="109.3,1198.5 109.3,1194.4 100.3,1194.4 100.3,1205.5 109.3,1205.5 109.3,1201.4 
		110.8,1201.4 110.8,1198.5 	"/>
	<g id="XMLID_2231_">
		<rect id="XMLID_2234_" x="578.7" y="1179.6" class="st1" width="9" height="11.1"/>
		<rect id="XMLID_2233_" x="578.7" y="1209.2" class="st1" width="9" height="11.1"/>
		<polygon id="XMLID_2232_" class="st1" points="578.7,1198.5 578.7,1194.4 587.7,1194.4 587.7,1205.5 578.7,1205.5 578.7,1201.4 
			577.2,1201.4 577.2,1198.5 		"/>
	</g>
	<rect id="XMLID_2229_" x="100.3" y="1135.1" class="st1" width="9" height="11.1"/>
	<rect id="XMLID_2228_" x="100.3" y="1164.8" class="st1" width="9" height="11.1"/>
	<polygon id="XMLID_2227_" class="st1" points="109.3,1154.1 109.3,1150 100.3,1150 100.3,1161.1 109.3,1161.1 109.3,1157 
		110.8,1157 110.8,1154.1 	"/>
	<g id="XMLID_2220_">
		<rect id="XMLID_2223_" x="578.7" y="1135.1" class="st1" width="9" height="11.1"/>
		<rect id="XMLID_2222_" x="578.7" y="1164.8" class="st1" width="9" height="11.1"/>
		<polygon id="XMLID_2221_" class="st1" points="578.7,1154.1 578.7,1150 587.7,1150 587.7,1161.1 578.7,1161.1 578.7,1157 
			577.2,1157 577.2,1154.1 		"/>
	</g>
	<rect id="XMLID_2218_" x="100.3" y="1090.7" class="st1" width="9" height="11.1"/>
	<rect id="XMLID_2217_" x="100.3" y="1120.3" class="st1" width="9" height="11.1"/>
	<polygon id="XMLID_2216_" class="st1" points="109.3,1109.6 109.3,1105.5 100.3,1105.5 100.3,1116.6 109.3,1116.6 109.3,1112.5 
		110.8,1112.5 110.8,1109.6 	"/>
	<g id="XMLID_2209_">
		<rect id="XMLID_2212_" x="578.7" y="1090.7" class="st1" width="9" height="11.1"/>
		<rect id="XMLID_2211_" x="578.7" y="1120.3" class="st1" width="9" height="11.1"/>
		<polygon id="XMLID_2210_" class="st1" points="578.7,1109.6 578.7,1105.5 587.7,1105.5 587.7,1116.6 578.7,1116.6 578.7,1112.5 
			577.2,1112.5 577.2,1109.6 		"/>
	</g>
	<rect id="XMLID_2207_" x="100.3" y="1046.2" class="st1" width="9" height="11.1"/>
	<rect id="XMLID_2206_" x="100.3" y="1075.9" class="st1" width="9" height="11.1"/>
	<polygon id="XMLID_2205_" class="st1" points="109.3,1065.2 109.3,1061.1 100.3,1061.1 100.3,1072.2 109.3,1072.2 109.3,1068.1 
		110.8,1068.1 110.8,1065.2 	"/>
	<g id="XMLID_2198_">
		<rect id="XMLID_2201_" x="578.7" y="1046.2" class="st1" width="9" height="11.1"/>
		<rect id="XMLID_2200_" x="578.7" y="1075.9" class="st1" width="9" height="11.1"/>
		<polygon id="XMLID_2199_" class="st1" points="578.7,1065.2 578.7,1061.1 587.7,1061.1 587.7,1072.2 578.7,1072.2 578.7,1068.1 
			577.2,1068.1 577.2,1065.2 		"/>
	</g>
	<rect id="XMLID_2196_" x="100.3" y="1001.8" class="st1" width="9" height="11.1"/>
	<rect id="XMLID_2195_" x="100.3" y="1031.4" class="st1" width="9" height="11.1"/>
	<polygon id="XMLID_2194_" class="st1" points="109.3,1020.7 109.3,1016.6 100.3,1016.6 100.3,1027.7 109.3,1027.7 109.3,1023.6 
		110.8,1023.6 110.8,1020.7 	"/>
	<g id="XMLID_2187_">
		<rect id="XMLID_2190_" x="578.7" y="1001.8" class="st1" width="9" height="11.1"/>
		<rect id="XMLID_2189_" x="578.7" y="1031.4" class="st1" width="9" height="11.1"/>
		<polygon id="XMLID_2188_" class="st1" points="578.7,1020.7 578.7,1016.6 587.7,1016.6 587.7,1027.7 578.7,1027.7 578.7,1023.6 
			577.2,1023.6 577.2,1020.7 		"/>
	</g>
	<rect id="XMLID_2185_" x="100.3" y="957.3" class="st1" width="9" height="11.1"/>
	<rect id="XMLID_2184_" x="100.3" y="987" class="st1" width="9" height="11.1"/>
	<polygon id="XMLID_2183_" class="st1" points="109.3,976.3 109.3,972.2 100.3,972.2 100.3,983.3 109.3,983.3 109.3,979.2 
		110.8,979.2 110.8,976.3 	"/>
	<g id="XMLID_2176_">
		<rect id="XMLID_2179_" x="578.7" y="957.3" class="st1" width="9" height="11.1"/>
		<rect id="XMLID_2178_" x="578.7" y="987" class="st1" width="9" height="11.1"/>
		<polygon id="XMLID_2177_" class="st1" points="578.7,976.3 578.7,972.2 587.7,972.2 587.7,983.3 578.7,983.3 578.7,979.2 
			577.2,979.2 577.2,976.3 		"/>
	</g>
	<rect id="XMLID_2174_" x="100.3" y="912.9" class="st1" width="9" height="11.1"/>
	<rect id="XMLID_2173_" x="100.3" y="942.5" class="st1" width="9" height="11.1"/>
	<polygon id="XMLID_2172_" class="st1" points="109.3,931.8 109.3,927.7 100.3,927.7 100.3,938.8 109.3,938.8 109.3,934.7 
		110.8,934.7 110.8,931.8 	"/>
	<g id="XMLID_2165_">
		<rect id="XMLID_2168_" x="578.7" y="912.9" class="st1" width="9" height="11.1"/>
		<rect id="XMLID_2167_" x="578.7" y="942.5" class="st1" width="9" height="11.1"/>
		<polygon id="XMLID_2166_" class="st1" points="578.7,931.8 578.7,927.7 587.7,927.7 587.7,938.8 578.7,938.8 578.7,934.7 
			577.2,934.7 577.2,931.8 		"/>
	</g>
	<rect id="XMLID_2163_" x="100.3" y="868.4" class="st1" width="9" height="11.1"/>
	<rect id="XMLID_2162_" x="100.3" y="898.1" class="st1" width="9" height="11.1"/>
	<polygon id="XMLID_2161_" class="st1" points="109.3,887.4 109.3,883.3 100.3,883.3 100.3,894.4 109.3,894.4 109.3,890.3 
		110.8,890.3 110.8,887.4 	"/>
	<g id="XMLID_2154_">
		<rect id="XMLID_2157_" x="578.7" y="868.4" class="st1" width="9" height="11.1"/>
		<rect id="XMLID_2156_" x="578.7" y="898.1" class="st1" width="9" height="11.1"/>
		<polygon id="XMLID_2155_" class="st1" points="578.7,887.4 578.7,883.3 587.7,883.3 587.7,894.4 578.7,894.4 578.7,890.3 
			577.2,890.3 577.2,887.4 		"/>
	</g>
	<rect id="XMLID_2152_" x="100.3" y="824" class="st1" width="9" height="11.1"/>
	<rect id="XMLID_2151_" x="100.3" y="853.6" class="st1" width="9" height="11.1"/>
	<polygon id="XMLID_2150_" class="st1" points="109.3,842.9 109.3,838.8 100.3,838.8 100.3,849.9 109.3,849.9 109.3,845.8 
		110.8,845.8 110.8,842.9 	"/>
	<g id="XMLID_2143_">
		<rect id="XMLID_2146_" x="578.7" y="824" class="st1" width="9" height="11.1"/>
		<rect id="XMLID_2145_" x="578.7" y="853.6" class="st1" width="9" height="11.1"/>
		<polygon id="XMLID_2144_" class="st1" points="578.7,842.9 578.7,838.8 587.7,838.8 587.7,849.9 578.7,849.9 578.7,845.8 
			577.2,845.8 577.2,842.9 		"/>
	</g>
	<rect id="XMLID_2141_" x="100.3" y="779.5" class="st1" width="9" height="11.1"/>
	<rect id="XMLID_2140_" x="100.3" y="809.2" class="st1" width="9" height="11.1"/>
	<polygon id="XMLID_2139_" class="st1" points="109.3,798.5 109.3,794.4 100.3,794.4 100.3,805.5 109.3,805.5 109.3,801.4 
		110.8,801.4 110.8,798.5 	"/>
	<g id="XMLID_2132_">
		<rect id="XMLID_2135_" x="578.7" y="779.5" class="st1" width="9" height="11.1"/>
		<rect id="XMLID_2134_" x="578.7" y="809.2" class="st1" width="9" height="11.1"/>
		<polygon id="XMLID_2133_" class="st1" points="578.7,798.5 578.7,794.4 587.7,794.4 587.7,805.5 578.7,805.5 578.7,801.4 
			577.2,801.4 577.2,798.5 		"/>
	</g>
	<rect id="XMLID_2130_" x="100.3" y="735.1" class="st1" width="9" height="11.1"/>
	<rect id="XMLID_2129_" x="100.3" y="764.7" class="st1" width="9" height="11.1"/>
	<polygon id="XMLID_2128_" class="st1" points="109.3,754 109.3,749.9 100.3,749.9 100.3,761 109.3,761 109.3,756.9 110.8,756.9 
		110.8,754 	"/>
	<g id="XMLID_2121_">
		<rect id="XMLID_2124_" x="578.7" y="735.1" class="st1" width="9" height="11.1"/>
		<rect id="XMLID_2123_" x="578.7" y="764.7" class="st1" width="9" height="11.1"/>
		<polygon id="XMLID_2122_" class="st1" points="578.7,754 578.7,749.9 587.7,749.9 587.7,761 578.7,761 578.7,756.9 577.2,756.9 
			577.2,754 		"/>
	</g>
	<rect id="XMLID_2119_" x="100.3" y="690.6" class="st1" width="9" height="11.1"/>
	<rect id="XMLID_2118_" x="100.3" y="720.3" class="st1" width="9" height="11.1"/>
	<polygon id="XMLID_2117_" class="st1" points="109.3,709.6 109.3,705.5 100.3,705.5 100.3,716.6 109.3,716.6 109.3,712.5 
		110.8,712.5 110.8,709.6 	"/>
	<g id="XMLID_2110_">
		<rect id="XMLID_2113_" x="578.7" y="690.6" class="st1" width="9" height="11.1"/>
		<rect id="XMLID_2112_" x="578.7" y="720.3" class="st1" width="9" height="11.1"/>
		<polygon id="XMLID_2111_" class="st1" points="578.7,709.6 578.7,705.5 587.7,705.5 587.7,716.6 578.7,716.6 578.7,712.5 
			577.2,712.5 577.2,709.6 		"/>
	</g>
	<rect id="XMLID_2108_" x="100.3" y="646.2" class="st1" width="9" height="11.1"/>
	<rect id="XMLID_2107_" x="100.3" y="675.8" class="st1" width="9" height="11.1"/>
	<polygon id="XMLID_2106_" class="st1" points="109.3,665.1 109.3,661 100.3,661 100.3,672.1 109.3,672.1 109.3,668 110.8,668 
		110.8,665.1 	"/>
	<g id="XMLID_2099_">
		<rect id="XMLID_2102_" x="578.7" y="646.2" class="st1" width="9" height="11.1"/>
		<rect id="XMLID_2101_" x="578.7" y="675.8" class="st1" width="9" height="11.1"/>
		<polygon id="XMLID_2100_" class="st1" points="578.7,665.1 578.7,661 587.7,661 587.7,672.1 578.7,672.1 578.7,668 577.2,668 
			577.2,665.1 		"/>
	</g>
	<rect id="XMLID_2097_" x="100.3" y="601.7" class="st1" width="9" height="11.1"/>
	<rect id="XMLID_2096_" x="100.3" y="631.4" class="st1" width="9" height="11.1"/>
	<polygon id="XMLID_2095_" class="st1" points="109.3,620.7 109.3,616.6 100.3,616.6 100.3,627.7 109.3,627.7 109.3,623.6 
		110.8,623.6 110.8,620.7 	"/>
	<g id="XMLID_2088_">
		<rect id="XMLID_2091_" x="578.7" y="601.7" class="st1" width="9" height="11.1"/>
		<rect id="XMLID_2090_" x="578.7" y="631.4" class="st1" width="9" height="11.1"/>
		<polygon id="XMLID_2089_" class="st1" points="578.7,620.7 578.7,616.6 587.7,616.6 587.7,627.7 578.7,627.7 578.7,623.6 
			577.2,623.6 577.2,620.7 		"/>
	</g>
	<rect id="XMLID_2086_" x="100.3" y="557.3" class="st1" width="9" height="11.1"/>
	<rect id="XMLID_2085_" x="100.3" y="586.9" class="st1" width="9" height="11.1"/>
	<polygon id="XMLID_2084_" class="st1" points="109.3,576.2 109.3,572.1 100.3,572.1 100.3,583.2 109.3,583.2 109.3,579.1 
		110.8,579.1 110.8,576.2 	"/>
	<g id="XMLID_2077_">
		<rect id="XMLID_2080_" x="578.7" y="557.3" class="st1" width="9" height="11.1"/>
		<rect id="XMLID_2079_" x="578.7" y="586.9" class="st1" width="9" height="11.1"/>
		<polygon id="XMLID_2078_" class="st1" points="578.7,576.2 578.7,572.1 587.7,572.1 587.7,583.2 578.7,583.2 578.7,579.1 
			577.2,579.1 577.2,576.2 		"/>
	</g>
	<rect id="XMLID_2075_" x="100.3" y="512.8" class="st1" width="9" height="11.1"/>
	<rect id="XMLID_2074_" x="100.3" y="542.5" class="st1" width="9" height="11.1"/>
	<polygon id="XMLID_2073_" class="st1" points="109.3,531.8 109.3,527.7 100.3,527.7 100.3,538.8 109.3,538.8 109.3,534.7 
		110.8,534.7 110.8,531.8 	"/>
	<g id="XMLID_2066_">
		<rect id="XMLID_2069_" x="578.7" y="512.8" class="st1" width="9" height="11.1"/>
		<rect id="XMLID_2068_" x="578.7" y="542.5" class="st1" width="9" height="11.1"/>
		<polygon id="XMLID_2067_" class="st1" points="578.7,531.8 578.7,527.7 587.7,527.7 587.7,538.8 578.7,538.8 578.7,534.7 
			577.2,534.7 577.2,531.8 		"/>
	</g>
	<rect id="XMLID_2064_" x="100.3" y="468.4" class="st1" width="9" height="11.1"/>
	<rect id="XMLID_2063_" x="100.3" y="498" class="st1" width="9" height="11.1"/>
	<polygon id="XMLID_2062_" class="st1" points="109.3,487.3 109.3,483.2 100.3,483.2 100.3,494.3 109.3,494.3 109.3,490.2 
		110.8,490.2 110.8,487.3 	"/>
	<g id="XMLID_2055_">
		<rect id="XMLID_2058_" x="578.7" y="468.4" class="st1" width="9" height="11.1"/>
		<rect id="XMLID_2057_" x="578.7" y="498" class="st1" width="9" height="11.1"/>
		<polygon id="XMLID_2056_" class="st1" points="578.7,487.3 578.7,483.2 587.7,483.2 587.7,494.3 578.7,494.3 578.7,490.2 
			577.2,490.2 577.2,487.3 		"/>
	</g>
	<rect id="XMLID_2053_" x="100.3" y="423.9" class="st1" width="9" height="11.1"/>
	<rect id="XMLID_2052_" x="100.3" y="453.6" class="st1" width="9" height="11.1"/>
	<polygon id="XMLID_2051_" class="st1" points="109.3,442.9 109.3,438.8 100.3,438.8 100.3,449.9 109.3,449.9 109.3,445.8 
		110.8,445.8 110.8,442.9 	"/>
	<g id="XMLID_2044_">
		<rect id="XMLID_2047_" x="578.7" y="423.9" class="st1" width="9" height="11.1"/>
		<rect id="XMLID_2046_" x="578.7" y="453.6" class="st1" width="9" height="11.1"/>
		<polygon id="XMLID_2045_" class="st1" points="578.7,442.9 578.7,438.8 587.7,438.8 587.7,449.9 578.7,449.9 578.7,445.8 
			577.2,445.8 577.2,442.9 		"/>
	</g>
	<rect id="XMLID_2042_" x="100.3" y="379.5" class="st1" width="9" height="11.1"/>
	<rect id="XMLID_2041_" x="100.3" y="409.1" class="st1" width="9" height="11.1"/>
	<polygon id="XMLID_2040_" class="st1" points="109.3,398.4 109.3,394.3 100.3,394.3 100.3,405.4 109.3,405.4 109.3,401.3 
		110.8,401.3 110.8,398.4 	"/>
	<g id="XMLID_2033_">
		<rect id="XMLID_2036_" x="578.7" y="379.5" class="st1" width="9" height="11.1"/>
		<rect id="XMLID_2035_" x="578.7" y="409.1" class="st1" width="9" height="11.1"/>
		<polygon id="XMLID_2034_" class="st1" points="578.7,398.4 578.7,394.3 587.7,394.3 587.7,405.4 578.7,405.4 578.7,401.3 
			577.2,401.3 577.2,398.4 		"/>
	</g>
	<rect id="XMLID_2031_" x="100.3" y="335" class="st1" width="9" height="11.1"/>
	<rect id="XMLID_2030_" x="100.3" y="364.7" class="st1" width="9" height="11.1"/>
	<polygon id="XMLID_2029_" class="st1" points="109.3,354 109.3,349.9 100.3,349.9 100.3,361 109.3,361 109.3,356.9 110.8,356.9 
		110.8,354 	"/>
	<g id="XMLID_2022_">
		<rect id="XMLID_2025_" x="578.7" y="335" class="st1" width="9" height="11.1"/>
		<rect id="XMLID_2024_" x="578.7" y="364.7" class="st1" width="9" height="11.1"/>
		<polygon id="XMLID_2023_" class="st1" points="578.7,354 578.7,349.9 587.7,349.9 587.7,361 578.7,361 578.7,356.9 577.2,356.9 
			577.2,354 		"/>
	</g>
	<rect id="XMLID_2020_" x="100.3" y="290.6" class="st1" width="9" height="11.1"/>
	<rect id="XMLID_2019_" x="100.3" y="320.2" class="st1" width="9" height="11.1"/>
	<polygon id="XMLID_2018_" class="st1" points="109.3,309.5 109.3,305.4 100.3,305.4 100.3,316.5 109.3,316.5 109.3,312.4 
		110.8,312.4 110.8,309.5 	"/>
	<g id="XMLID_2011_">
		<rect id="XMLID_2014_" x="578.7" y="290.6" class="st1" width="9" height="11.1"/>
		<rect id="XMLID_2013_" x="578.7" y="320.2" class="st1" width="9" height="11.1"/>
		<polygon id="XMLID_2012_" class="st1" points="578.7,309.5 578.7,305.4 587.7,305.4 587.7,316.5 578.7,316.5 578.7,312.4 
			577.2,312.4 577.2,309.5 		"/>
	</g>
	<rect id="XMLID_2009_" x="100.3" y="246.1" class="st1" width="9" height="11.1"/>
	<rect id="XMLID_2008_" x="100.3" y="275.8" class="st1" width="9" height="11.1"/>
	<polygon id="XMLID_2007_" class="st1" points="109.3,265.1 109.3,261 100.3,261 100.3,272.1 109.3,272.1 109.3,268 110.8,268 
		110.8,265.1 	"/>
	<g id="XMLID_2000_">
		<rect id="XMLID_2003_" x="578.7" y="246.1" class="st1" width="9" height="11.1"/>
		<rect id="XMLID_2002_" x="578.7" y="275.8" class="st1" width="9" height="11.1"/>
		<polygon id="XMLID_2001_" class="st1" points="578.7,265.1 578.7,261 587.7,261 587.7,272.1 578.7,272.1 578.7,268 577.2,268 
			577.2,265.1 		"/>
	</g>
	<rect id="XMLID_1998_" x="100.3" y="201.7" class="st1" width="9" height="11.1"/>
	<rect id="XMLID_1997_" x="100.3" y="231.3" class="st1" width="9" height="11.1"/>
	<polygon id="XMLID_1996_" class="st1" points="109.3,220.6 109.3,216.5 100.3,216.5 100.3,227.6 109.3,227.6 109.3,223.5 
		110.8,223.5 110.8,220.6 	"/>
	<g id="XMLID_1989_">
		<rect id="XMLID_1992_" x="578.7" y="201.7" class="st1" width="9" height="11.1"/>
		<rect id="XMLID_1991_" x="578.7" y="231.3" class="st1" width="9" height="11.1"/>
		<polygon id="XMLID_1990_" class="st1" points="578.7,220.6 578.7,216.5 587.7,216.5 587.7,227.6 578.7,227.6 578.7,223.5 
			577.2,223.5 577.2,220.6 		"/>
	</g>
	<rect id="XMLID_1987_" x="100.3" y="157.2" class="st1" width="9" height="11.1"/>
	<rect id="XMLID_1986_" x="100.3" y="186.9" class="st1" width="9" height="11.1"/>
	<polygon id="XMLID_1985_" class="st1" points="109.3,176.2 109.3,172.1 100.3,172.1 100.3,183.2 109.3,183.2 109.3,179.1 
		110.8,179.1 110.8,176.2 	"/>
	<g id="XMLID_1978_">
		<rect id="XMLID_1981_" x="578.7" y="157.2" class="st1" width="9" height="11.1"/>
		<rect id="XMLID_1980_" x="578.7" y="186.9" class="st1" width="9" height="11.1"/>
		<polygon id="XMLID_1979_" class="st1" points="578.7,176.2 578.7,172.1 587.7,172.1 587.7,183.2 578.7,183.2 578.7,179.1 
			577.2,179.1 577.2,176.2 		"/>
	</g>
	<rect id="XMLID_1976_" x="100.3" y="112.8" class="st1" width="9" height="11.1"/>
	<rect id="XMLID_1975_" x="100.3" y="142.4" class="st1" width="9" height="11.1"/>
	<polygon id="XMLID_1974_" class="st1" points="109.3,131.7 109.3,127.6 100.3,127.6 100.3,138.7 109.3,138.7 109.3,134.6 
		110.8,134.6 110.8,131.7 	"/>
	<g id="XMLID_1967_">
		<rect id="XMLID_1970_" x="578.7" y="112.8" class="st1" width="9" height="11.1"/>
		<rect id="XMLID_1969_" x="578.7" y="142.4" class="st1" width="9" height="11.1"/>
		<polygon id="XMLID_1968_" class="st1" points="578.7,131.7 578.7,127.6 587.7,127.6 587.7,138.7 578.7,138.7 578.7,134.6 
			577.2,134.6 577.2,131.7 		"/>
	</g>
	<rect id="XMLID_1965_" x="100.3" y="68.3" class="st1" width="9" height="11.1"/>
	<rect id="XMLID_1964_" x="100.3" y="98" class="st1" width="9" height="11.1"/>
	<polygon id="XMLID_1963_" class="st1" points="109.3,87.3 109.3,83.2 100.3,83.2 100.3,94.3 109.3,94.3 109.3,90.2 110.8,90.2 
		110.8,87.3 	"/>
	<g id="XMLID_4_">
		<polygon id="XMLID_2450_" class="st2" points="35.4,2044.5 29.1,2050 29.1,2039 35.4,2044.5 		"/>
		<text id="XMLID_2445_" transform="matrix(0.9276 0 0 1 0 2051.9583)" class="st3 st4">  1</text>
		<polygon id="XMLID_2439_" class="st2" points="35.4,2000.1 29.1,2005.6 29.1,1994.6 35.4,2000.1 		"/>
		<text id="XMLID_2434_" transform="matrix(0.9276 0 0 1 0 2007.5082)" class="st3 st4">  2</text>
		<polygon id="XMLID_2428_" class="st2" points="35.4,1955.6 29.1,1961.1 29.1,1950.2 35.4,1955.6 		"/>
		<text id="XMLID_2423_" transform="matrix(0.9276 0 0 1 0 1963.0582)" class="st3 st4">  3</text>
		<polygon id="XMLID_2417_" class="st2" points="35.4,1911.2 29.1,1916.7 29.1,1905.7 35.4,1911.2 		"/>
		<text id="XMLID_2412_" transform="matrix(0.9276 0 0 1 0 1918.6082)" class="st3 st4">  4</text>
		<polygon id="XMLID_2406_" class="st2" points="35.4,1866.7 29.1,1872.2 29.1,1861.2 35.4,1866.7 		"/>
		<text id="XMLID_2401_" transform="matrix(0.9276 0 0 1 0 1874.1582)" class="st3 st4">  5</text>
		<polygon id="XMLID_2395_" class="st2" points="35.4,1822.3 29.1,1827.8 29.1,1816.8 35.4,1822.3 		"/>
		<text id="XMLID_2390_" transform="matrix(0.9276 0 0 1 0 1829.7081)" class="st3 st4">  6</text>
		<polygon id="XMLID_2384_" class="st2" points="35.4,1777.8 29.1,1783.3 29.1,1772.3 35.4,1777.8 		"/>
		<text id="XMLID_2379_" transform="matrix(0.9276 0 0 1 0 1785.2582)" class="st3 st4">  7</text>
		<polygon id="XMLID_2373_" class="st2" points="35.4,1733.4 29.1,1738.9 29.1,1727.9 35.4,1733.4 		"/>
		<text id="XMLID_2368_" transform="matrix(0.9276 0 0 1 0 1740.8082)" class="st3 st4">  8</text>
		<polygon id="XMLID_2362_" class="st2" points="35.4,1688.9 29.1,1694.4 29.1,1683.4 35.4,1688.9 		"/>
		<text id="XMLID_2357_" transform="matrix(0.9276 0 0 1 0 1696.3582)" class="st3 st4">  9</text>
		<polygon id="XMLID_2351_" class="st2" points="35.4,1644.5 29.1,1650 29.1,1639 35.4,1644.5 		"/>
		<text id="XMLID_2346_" transform="matrix(0.9276 0 0 1 0 1651.9081)" class="st3 st4">10</text>
		<polygon id="XMLID_2340_" class="st2" points="35.4,1600 29.1,1605.5 29.1,1594.5 35.4,1600 		"/>
		<text id="XMLID_2335_" transform="matrix(0.9276 0 0 1 0 1607.4581)" class="st3 st4">11</text>
		<polygon id="XMLID_2329_" class="st2" points="35.4,1555.6 29.1,1561.1 29.1,1550.1 35.4,1555.6 		"/>
		<text id="XMLID_2324_" transform="matrix(0.9276 0 0 1 0 1563.0082)" class="st3 st4">12</text>
		<polygon id="XMLID_2318_" class="st2" points="35.4,1511.1 29.1,1516.6 29.1,1505.6 35.4,1511.1 		"/>
		<text id="XMLID_2313_" transform="matrix(0.9276 0 0 1 0 1518.5581)" class="st3 st4">13</text>
		<polygon id="XMLID_2307_" class="st2" points="35.4,1466.7 29.1,1472.2 29.1,1461.2 35.4,1466.7 		"/>
		<text id="XMLID_2302_" transform="matrix(0.9276 0 0 1 0 1474.108)" class="st3 st4">14</text>
		<polygon id="XMLID_2296_" class="st2" points="35.4,1422.2 29.1,1427.7 29.1,1416.8 35.4,1422.2 		"/>
		<text id="XMLID_2291_" transform="matrix(0.9276 0 0 1 0 1429.6581)" class="st3 st4">15</text>
		<polygon id="XMLID_2285_" class="st2" points="35.4,1377.8 29.1,1383.3 29.1,1372.3 35.4,1377.8 		"/>
		<text id="XMLID_2280_" transform="matrix(0.9276 0 0 1 0 1385.2081)" class="st3 st4">16</text>
		<polygon id="XMLID_2274_" class="st2" points="35.4,1333.3 29.1,1338.8 29.1,1327.8 35.4,1333.3 		"/>
		<text id="XMLID_2269_" transform="matrix(0.9276 0 0 1 0 1340.7582)" class="st3 st4">17</text>
		<polygon id="XMLID_2263_" class="st2" points="35.4,1288.9 29.1,1294.4 29.1,1283.4 35.4,1288.9 		"/>
		<text id="XMLID_2258_" transform="matrix(0.9276 0 0 1 0 1296.308)" class="st3 st4">18</text>
		<polygon id="XMLID_2252_" class="st2" points="35.4,1244.4 29.1,1249.9 29.1,1238.9 35.4,1244.4 		"/>
		<text id="XMLID_2247_" transform="matrix(0.9276 0 0 1 0 1251.858)" class="st3 st4">19</text>
		<polygon id="XMLID_2241_" class="st2" points="35.4,1200 29.1,1205.5 29.1,1194.5 35.4,1200 		"/>
		<text id="XMLID_2236_" transform="matrix(0.9276 0 0 1 0 1207.4081)" class="st3 st4">20</text>
		<polygon id="XMLID_2230_" class="st2" points="35.4,1155.5 29.1,1161 29.1,1150 35.4,1155.5 		"/>
		<text id="XMLID_2225_" transform="matrix(0.9276 0 0 1 0 1162.9581)" class="st3 st4">21</text>
		<polygon id="XMLID_2219_" class="st2" points="35.4,1111.1 29.1,1116.6 29.1,1105.6 35.4,1111.1 		"/>
		<text id="XMLID_2214_" transform="matrix(0.9276 0 0 1 0 1118.5079)" class="st3 st4">22</text>
		<polygon id="XMLID_2208_" class="st2" points="35.4,1066.6 29.1,1072.1 29.1,1061.1 35.4,1066.6 		"/>
		<text id="XMLID_2203_" transform="matrix(0.9276 0 0 1 0 1074.058)" class="st3 st4">23</text>
		<polygon id="XMLID_2197_" class="st2" points="35.4,1022.2 29.1,1027.7 29.1,1016.7 35.4,1022.2 		"/>
		<text id="XMLID_2192_" transform="matrix(0.9276 0 0 1 0 1029.608)" class="st3 st4">24</text>
		<polygon id="XMLID_2186_" class="st2" points="35.4,977.7 29.1,983.2 29.1,972.2 35.4,977.7 		"/>
		<text id="XMLID_2181_" transform="matrix(0.9276 0 0 1 0 985.1581)" class="st3 st4">25</text>
		<polygon id="XMLID_2175_" class="st2" points="35.4,933.3 29.1,938.8 29.1,927.8 35.4,933.3 		"/>
		<text id="XMLID_2170_" transform="matrix(0.9276 0 0 1 0 940.7081)" class="st3 st4">26</text>
		<polygon id="XMLID_2164_" class="st2" points="35.4,888.8 29.1,894.3 29.1,883.3 35.4,888.8 		"/>
		<text id="XMLID_2159_" transform="matrix(0.9276 0 0 1 0 896.2582)" class="st3 st4">27</text>
		<polygon id="XMLID_2153_" class="st2" points="35.4,844.4 29.1,849.9 29.1,838.9 35.4,844.4 		"/>
		<text id="XMLID_2148_" transform="matrix(0.9276 0 0 1 0 851.8082)" class="st3 st4">28</text>
		<polygon id="XMLID_2142_" class="st2" points="35.4,799.9 29.1,805.4 29.1,794.4 35.4,799.9 		"/>
		<text id="XMLID_2137_" transform="matrix(0.9276 0 0 1 0 807.3583)" class="st3 st4">29</text>
		<polygon id="XMLID_2131_" class="st2" points="35.4,755.5 29.1,761 29.1,750 35.4,755.5 		"/>
		<text id="XMLID_2126_" transform="matrix(0.9276 0 0 1 0 762.9083)" class="st3 st4">30</text>
		<polygon id="XMLID_2120_" class="st2" points="35.4,711 29.1,716.5 29.1,705.5 35.4,711 		"/>
		<text id="XMLID_2115_" transform="matrix(0.9276 0 0 1 0 718.4584)" class="st3 st4">31</text>
		<polygon id="XMLID_2109_" class="st2" points="35.4,666.6 29.1,672.1 29.1,661.1 35.4,666.6 		"/>
		<text id="XMLID_2104_" transform="matrix(0.9276 0 0 1 0 674.0084)" class="st3 st4">32</text>
		<polygon id="XMLID_2098_" class="st2" points="35.4,622.1 29.1,627.6 29.1,616.6 35.4,622.1 		"/>
		<text id="XMLID_2093_" transform="matrix(0.9276 0 0 1 0 629.5585)" class="st3 st4">33</text>
		<polygon id="XMLID_2087_" class="st2" points="35.4,577.7 29.1,583.2 29.1,572.2 35.4,577.7 		"/>
		<text id="XMLID_2082_" transform="matrix(0.9276 0 0 1 0 585.1085)" class="st3 st4">34</text>
		<polygon id="XMLID_2076_" class="st2" points="35.4,533.2 29.1,538.7 29.1,527.7 35.4,533.2 		"/>
		<text id="XMLID_2071_" transform="matrix(0.9276 0 0 1 0 540.6586)" class="st3 st4">35</text>
		<polygon id="XMLID_2065_" class="st2" points="35.4,488.8 29.1,494.3 29.1,483.3 35.4,488.8 		"/>
		<text id="XMLID_2060_" transform="matrix(0.9276 0 0 1 0 496.2086)" class="st3 st4">36</text>
		<polygon id="XMLID_2054_" class="st2" points="35.4,444.3 29.1,449.8 29.1,438.8 35.4,444.3 		"/>
		<text id="XMLID_2049_" transform="matrix(0.9276 0 0 1 0 451.7587)" class="st3 st4">37</text>
		<polygon id="XMLID_2043_" class="st2" points="35.4,399.9 29.1,405.4 29.1,394.4 35.4,399.9 		"/>
		<text id="XMLID_2038_" transform="matrix(0.9276 0 0 1 0 407.3087)" class="st3 st4">38</text>
		<polygon id="XMLID_2032_" class="st2" points="35.4,355.4 29.1,360.9 29.1,349.9 35.4,355.4 		"/>
		<text id="XMLID_2027_" transform="matrix(0.9276 0 0 1 0 362.8588)" class="st3 st4">39</text>
		<polygon id="XMLID_2021_" class="st2" points="35.4,311 29.1,316.5 29.1,305.5 35.4,311 		"/>
		<text id="XMLID_2016_" transform="matrix(0.9276 0 0 1 0 318.4088)" class="st3 st4">40</text>
		<polygon id="XMLID_2010_" class="st2" points="35.4,266.5 29.1,272 29.1,261 35.4,266.5 		"/>
		<text id="XMLID_2005_" transform="matrix(0.9276 0 0 1 0 273.9589)" class="st3 st4">41</text>
		<polygon id="XMLID_1999_" class="st2" points="35.4,222.1 29.1,227.6 29.1,216.6 35.4,222.1 		"/>
		<text id="XMLID_1994_" transform="matrix(0.9276 0 0 1 0 229.5089)" class="st3 st4">42</text>
		<polygon id="XMLID_1988_" class="st2" points="35.4,177.6 29.1,183.1 29.1,172.1 35.4,177.6 		"/>
		<text id="XMLID_1983_" transform="matrix(0.9276 0 0 1 0 185.059)" class="st3 st4">43</text>
		<polygon id="XMLID_1977_" class="st2" points="35.4,133.2 29.1,138.7 29.1,127.7 35.4,133.2 		"/>
		<text id="XMLID_1972_" transform="matrix(0.9276 0 0 1 0 140.609)" class="st3 st4">44</text>
		<polygon id="XMLID_1966_" class="st2" points="35.4,88.7 29.1,94.2 29.1,83.2 35.4,88.7 		"/>
		<text id="XMLID_1961_" transform="matrix(0.9276 0 0 1 0 96.1591)" class="st3 st4">45</text>
	</g>
	<g id="XMLID_15_">
		<text id="XMLID_2446_" transform="matrix(0.9276 0 0 1 662.6895 2051.9583)" class="st3 st4">1</text>
		<polygon id="XMLID_2444_" class="st2" points="652.8,2044.5 659.1,2050 659.1,2039 652.8,2044.5 		"/>
		<text id="XMLID_2435_" transform="matrix(0.9276 0 0 1 662.6895 2007.5082)" class="st3 st4">2</text>
		<polygon id="XMLID_2433_" class="st2" points="652.8,2000.1 659.1,2005.6 659.1,1994.6 652.8,2000.1 		"/>
		<text id="XMLID_2424_" transform="matrix(0.9276 0 0 1 662.6895 1963.0582)" class="st3 st4">3</text>
		<polygon id="XMLID_2422_" class="st2" points="652.8,1955.6 659.1,1961.1 659.1,1950.1 652.8,1955.6 		"/>
		<text id="XMLID_2413_" transform="matrix(0.9276 0 0 1 662.6895 1918.6082)" class="st3 st4">4</text>
		<polygon id="XMLID_2411_" class="st2" points="652.8,1911.2 659.1,1916.7 659.1,1905.7 652.8,1911.2 		"/>
		<text id="XMLID_2402_" transform="matrix(0.9276 0 0 1 662.6895 1874.1582)" class="st3 st4">5</text>
		<polygon id="XMLID_2400_" class="st2" points="652.8,1866.7 659.1,1872.2 659.1,1861.2 652.8,1866.7 		"/>
		<text id="XMLID_2391_" transform="matrix(0.9276 0 0 1 662.6895 1829.7081)" class="st3 st4">6</text>
		<polygon id="XMLID_2389_" class="st2" points="652.8,1822.3 659.1,1827.8 659.1,1816.8 652.8,1822.3 		"/>
		<text id="XMLID_2380_" transform="matrix(0.9276 0 0 1 662.6895 1785.2582)" class="st3 st4">7</text>
		<polygon id="XMLID_2378_" class="st2" points="652.8,1777.8 659.1,1783.3 659.1,1772.3 652.8,1777.8 		"/>
		<text id="XMLID_2369_" transform="matrix(0.9276 0 0 1 662.6895 1740.8082)" class="st3 st4">8</text>
		<polygon id="XMLID_2367_" class="st2" points="652.8,1733.4 659.1,1738.9 659.1,1727.9 652.8,1733.4 		"/>
		<text id="XMLID_2358_" transform="matrix(0.9276 0 0 1 662.6895 1696.3582)" class="st3 st4">9</text>
		<polygon id="XMLID_2356_" class="st2" points="652.8,1688.9 659.1,1694.4 659.1,1683.4 652.8,1688.9 		"/>
		<text id="XMLID_2347_" transform="matrix(0.9276 0 0 1 662.6895 1651.9081)" class="st3 st4">10</text>
		<polygon id="XMLID_2345_" class="st2" points="652.8,1644.5 659.1,1650 659.1,1639 652.8,1644.5 		"/>
		<text id="XMLID_2336_" transform="matrix(0.9276 0 0 1 662.6895 1607.4581)" class="st3 st4">11</text>
		<polygon id="XMLID_2334_" class="st2" points="652.8,1600 659.1,1605.5 659.1,1594.5 652.8,1600 		"/>
		<text id="XMLID_2325_" transform="matrix(0.9276 0 0 1 662.6895 1563.0082)" class="st3 st4">12</text>
		<polygon id="XMLID_2323_" class="st2" points="652.8,1555.6 659.1,1561.1 659.1,1550.1 652.8,1555.6 		"/>
		<text id="XMLID_2314_" transform="matrix(0.9276 0 0 1 662.6895 1518.5581)" class="st3 st4">13</text>
		<polygon id="XMLID_2312_" class="st2" points="652.8,1511.1 659.1,1516.6 659.1,1505.6 652.8,1511.1 		"/>
		<text id="XMLID_2303_" transform="matrix(0.9276 0 0 1 662.6895 1474.108)" class="st3 st4">14</text>
		<polygon id="XMLID_2301_" class="st2" points="652.8,1466.7 659.1,1472.2 659.1,1461.2 652.8,1466.7 		"/>
		<text id="XMLID_2292_" transform="matrix(0.9276 0 0 1 662.6895 1429.6581)" class="st3 st4">15</text>
		<polygon id="XMLID_2290_" class="st2" points="652.8,1422.2 659.1,1427.7 659.1,1416.7 652.8,1422.2 		"/>
		<text id="XMLID_2281_" transform="matrix(0.9276 0 0 1 662.6895 1385.2081)" class="st3 st4">16</text>
		<polygon id="XMLID_2279_" class="st2" points="652.8,1377.8 659.1,1383.3 659.1,1372.3 652.8,1377.8 		"/>
		<text id="XMLID_2270_" transform="matrix(0.9276 0 0 1 662.6895 1340.7582)" class="st3 st4">17</text>
		<polygon id="XMLID_2268_" class="st2" points="652.8,1333.3 659.1,1338.8 659.1,1327.8 652.8,1333.3 		"/>
		<text id="XMLID_2259_" transform="matrix(0.9276 0 0 1 662.6895 1296.308)" class="st3 st4">18</text>
		<polygon id="XMLID_2257_" class="st2" points="652.8,1288.9 659.1,1294.4 659.1,1283.4 652.8,1288.9 		"/>
		<text id="XMLID_2248_" transform="matrix(0.9276 0 0 1 662.6895 1251.858)" class="st3 st4">19</text>
		<polygon id="XMLID_2246_" class="st2" points="652.8,1244.4 659.1,1249.9 659.1,1238.9 652.8,1244.4 		"/>
		<text id="XMLID_2237_" transform="matrix(0.9276 0 0 1 662.6895 1207.4081)" class="st3 st4">20</text>
		<polygon id="XMLID_2235_" class="st2" points="652.8,1200 659.1,1205.5 659.1,1194.5 652.8,1200 		"/>
		<text id="XMLID_2226_" transform="matrix(0.9276 0 0 1 662.6895 1162.9581)" class="st3 st4">21</text>
		<polygon id="XMLID_2224_" class="st2" points="652.8,1155.5 659.1,1161 659.1,1150 652.8,1155.5 		"/>
		<text id="XMLID_2215_" transform="matrix(0.9276 0 0 1 662.6895 1118.5079)" class="st3 st4">22</text>
		<polygon id="XMLID_2213_" class="st2" points="652.8,1111.1 659.1,1116.6 659.1,1105.6 652.8,1111.1 		"/>
		<text id="XMLID_2204_" transform="matrix(0.9276 0 0 1 662.6895 1074.058)" class="st3 st4">23</text>
		<polygon id="XMLID_2202_" class="st2" points="652.8,1066.6 659.1,1072.1 659.1,1061.1 652.8,1066.6 		"/>
		<text id="XMLID_2193_" transform="matrix(0.9276 0 0 1 662.6895 1029.608)" class="st3 st4">24</text>
		<polygon id="XMLID_2191_" class="st2" points="652.8,1022.2 659.1,1027.7 659.1,1016.7 652.8,1022.2 		"/>
		<text id="XMLID_2182_" transform="matrix(0.9276 0 0 1 662.6895 985.1581)" class="st3 st4">25</text>
		<polygon id="XMLID_2180_" class="st2" points="652.8,977.7 659.1,983.2 659.1,972.2 652.8,977.7 		"/>
		<text id="XMLID_2171_" transform="matrix(0.9276 0 0 1 662.6895 940.7081)" class="st3 st4">26</text>
		<polygon id="XMLID_2169_" class="st2" points="652.8,933.3 659.1,938.8 659.1,927.8 652.8,933.3 		"/>
		<text id="XMLID_2160_" transform="matrix(0.9276 0 0 1 662.6895 896.2582)" class="st3 st4">27</text>
		<polygon id="XMLID_2158_" class="st2" points="652.8,888.8 659.1,894.3 659.1,883.3 652.8,888.8 		"/>
		<text id="XMLID_2149_" transform="matrix(0.9276 0 0 1 662.6895 851.8082)" class="st3 st4">28</text>
		<polygon id="XMLID_2147_" class="st2" points="652.8,844.4 659.1,849.9 659.1,838.9 652.8,844.4 		"/>
		<text id="XMLID_2138_" transform="matrix(0.9276 0 0 1 662.6895 807.3583)" class="st3 st4">29</text>
		<polygon id="XMLID_2136_" class="st2" points="652.8,799.9 659.1,805.4 659.1,794.4 652.8,799.9 		"/>
		<text id="XMLID_2127_" transform="matrix(0.9276 0 0 1 662.6895 762.9083)" class="st3 st4">30</text>
		<polygon id="XMLID_2125_" class="st2" points="652.8,755.5 659.1,761 659.1,750 652.8,755.5 		"/>
		<text id="XMLID_2116_" transform="matrix(0.9276 0 0 1 662.6895 718.4584)" class="st3 st4">31</text>
		<polygon id="XMLID_2114_" class="st2" points="652.8,711 659.1,716.5 659.1,705.5 652.8,711 		"/>
		<text id="XMLID_2105_" transform="matrix(0.9276 0 0 1 662.6895 674.0084)" class="st3 st4">32</text>
		<polygon id="XMLID_2103_" class="st2" points="652.8,666.6 659.1,672.1 659.1,661.1 652.8,666.6 		"/>
		<text id="XMLID_2094_" transform="matrix(0.9276 0 0 1 662.6895 629.5585)" class="st3 st4">33</text>
		<polygon id="XMLID_2092_" class="st2" points="652.8,622.1 659.1,627.6 659.1,616.6 652.8,622.1 		"/>
		<text id="XMLID_2083_" transform="matrix(0.9276 0 0 1 662.6895 585.1085)" class="st3 st4">34</text>
		<polygon id="XMLID_2081_" class="st2" points="652.8,577.7 659.1,583.2 659.1,572.2 652.8,577.7 		"/>
		<text id="XMLID_2072_" transform="matrix(0.9276 0 0 1 662.6895 540.6586)" class="st3 st4">35</text>
		<polygon id="XMLID_2070_" class="st2" points="652.8,533.2 659.1,538.7 659.1,527.7 652.8,533.2 		"/>
		<text id="XMLID_2061_" transform="matrix(0.9276 0 0 1 662.6895 496.2086)" class="st3 st4">36</text>
		<polygon id="XMLID_2059_" class="st2" points="652.8,488.8 659.1,494.3 659.1,483.3 652.8,488.8 		"/>
		<text id="XMLID_2050_" transform="matrix(0.9276 0 0 1 662.6895 451.7587)" class="st3 st4">37</text>
		<polygon id="XMLID_2048_" class="st2" points="652.8,444.3 659.1,449.8 659.1,438.8 652.8,444.3 		"/>
		<text id="XMLID_2039_" transform="matrix(0.9276 0 0 1 662.6895 407.3087)" class="st3 st4">38</text>
		<polygon id="XMLID_2037_" class="st2" points="652.8,399.9 659.1,405.4 659.1,394.4 652.8,399.9 		"/>
		<text id="XMLID_2028_" transform="matrix(0.9276 0 0 1 662.6895 362.8588)" class="st3 st4">39</text>
		<polygon id="XMLID_2026_" class="st2" points="652.8,355.4 659.1,360.9 659.1,349.9 652.8,355.4 		"/>
		<text id="XMLID_2017_" transform="matrix(0.9276 0 0 1 662.6895 318.4088)" class="st3 st4">40</text>
		<polygon id="XMLID_2015_" class="st2" points="652.8,311 659.1,316.5 659.1,305.5 652.8,311 		"/>
		<text id="XMLID_2006_" transform="matrix(0.9276 0 0 1 662.6895 273.9589)" class="st3 st4">41</text>
		<polygon id="XMLID_2004_" class="st2" points="652.8,266.5 659.1,272 659.1,261 652.8,266.5 		"/>
		<text id="XMLID_1995_" transform="matrix(0.9276 0 0 1 662.6895 229.5089)" class="st3 st4">42</text>
		<polygon id="XMLID_1993_" class="st2" points="652.8,222.1 659.1,227.6 659.1,216.6 652.8,222.1 		"/>
		<text id="XMLID_1984_" transform="matrix(0.9276 0 0 1 662.6895 185.059)" class="st3 st4">43</text>
		<polygon id="XMLID_1982_" class="st2" points="652.8,177.6 659.1,183.1 659.1,172.1 652.8,177.6 		"/>
		<text id="XMLID_1973_" transform="matrix(0.9276 0 0 1 662.6895 140.609)" class="st3 st4">44</text>
		<polygon id="XMLID_1971_" class="st2" points="652.8,133.2 659.1,138.7 659.1,127.7 652.8,133.2 		"/>
		<text id="XMLID_1962_" transform="matrix(0.9276 0 0 1 662.6895 96.1591)" class="st3 st4">45</text>
		<polygon id="XMLID_1960_" class="st2" points="652.8,88.7 659.1,94.2 659.1,83.2 652.8,88.7 		"/>
	</g>
	<g id="XMLID_1956_">
		<rect id="XMLID_1959_" x="578.7" y="68.3" class="st1" width="9" height="11.1"/>
		<rect id="XMLID_1958_" x="578.7" y="98" class="st1" width="9" height="11.1"/>
		<polygon id="XMLID_1957_" class="st1" points="578.7,87.3 578.7,83.2 587.7,83.2 587.7,94.3 578.7,94.3 578.7,90.2 577.2,90.2 
			577.2,87.3 		"/>
	</g>
</g>
</svg>
