<?xml version="1.0" encoding="utf-8"?>
<!-- Generator: Adobe Illustrator 19.0.0, SVG Export Plug-In . SVG Version: 6.00 Build 0)  -->
<svg version="1.1" id="图层_1" xmlns="http://www.w3.org/2000/svg" xmlns:xlink="http://www.w3.org/1999/xlink" x="0px" y="0px"
	 width="689.6px" height="2044.3px" viewBox="0 0 689.6 2044.3" style="enable-background:new 0 0 689.6 2044.3;"
	 xml:space="preserve">
<style type="text/css">
	.st0{fill:url(#XMLID_2_);}
	.st1{stroke:#000000;stroke-width:0.7;stroke-miterlimit:10;}
	.st2{fill:#211613;}
	.st3{font-family:'MicrosoftYaHei';}
	.st4{font-size:24.6945px;}
</style>
<linearGradient id="XMLID_2_" gradientUnits="userSpaceOnUse" x1="-78.5077" y1="1197.5906" x2="521.4923" y2="1197.5906" gradientTransform="matrix(1 0 0 -1 123.2847 2219.7656)">
	<stop  offset="0" style="stop-color:#808080"/>
	<stop  offset="8.950000e-02" style="stop-color:#3E3A39"/>
	<stop  offset="0.9181" style="stop-color:#3E3A39"/>
	<stop  offset="1" style="stop-color:#808080"/>
</linearGradient>
<path id="XMLID_4428_" class="st0" d="M44.8,0v2044.3h600V0H44.8z M569.8,1977.9h-450V66.5h450V1977.9z"/>
<g id="XMLID_996_">
	<polygon id="XMLID_1469_" class="st1" points="35.4,1955.6 29.1,1961.1 29.1,1950.2 35.4,1955.6 	"/>
	<rect id="XMLID_1468_" x="100.3" y="1935.2" class="st2" width="9" height="11.1"/>
	<rect id="XMLID_1467_" x="100.3" y="1964.9" class="st2" width="9" height="11.1"/>
	<polygon id="XMLID_1466_" class="st2" points="109.3,1954.2 109.3,1950.1 100.3,1950.1 100.3,1961.2 109.3,1961.2 109.3,1957.1 
		110.8,1957.1 110.8,1954.2 	"/>
	<text id="XMLID_1465_" transform="matrix(0.9276 0 0 1 662.6892 1963.0581)" class="st3 st4">1</text>
	<text id="XMLID_1464_" transform="matrix(0.9276 0 0 1 -2.441406e-04 1963.0581)" class="st3 st4">  1</text>
	<polygon id="XMLID_1463_" class="st1" points="652.8,1955.6 659.1,1961.1 659.1,1950.1 652.8,1955.6 	"/>
	<g id="XMLID_1459_">
		<rect id="XMLID_1462_" x="578.7" y="1935.2" class="st2" width="9" height="11.1"/>
		<rect id="XMLID_1461_" x="578.7" y="1964.9" class="st2" width="9" height="11.1"/>
		<polygon id="XMLID_1460_" class="st2" points="578.7,1954.2 578.7,1950.1 587.7,1950.1 587.7,1961.2 578.7,1961.2 578.7,1957.1 
			577.2,1957.1 577.2,1954.2 		"/>
	</g>
	<polygon id="XMLID_1458_" class="st1" points="35.4,1911.2 29.1,1916.7 29.1,1905.7 35.4,1911.2 	"/>
	<rect id="XMLID_1457_" x="100.3" y="1890.8" class="st2" width="9" height="11.1"/>
	<rect id="XMLID_1456_" x="100.3" y="1920.4" class="st2" width="9" height="11.1"/>
	<polygon id="XMLID_1455_" class="st2" points="109.3,1909.7 109.3,1905.6 100.3,1905.6 100.3,1916.7 109.3,1916.7 109.3,1912.6 
		110.8,1912.6 110.8,1909.7 	"/>
	<text id="XMLID_1454_" transform="matrix(0.9276 0 0 1 662.6892 1918.6082)" class="st3 st4">2</text>
	<text id="XMLID_1453_" transform="matrix(0.9276 0 0 1 -2.441406e-04 1918.6082)" class="st3 st4">  2</text>
	<polygon id="XMLID_1452_" class="st1" points="652.8,1911.2 659.1,1916.7 659.1,1905.7 652.8,1911.2 	"/>
	<g id="XMLID_1448_">
		<rect id="XMLID_1451_" x="578.7" y="1890.8" class="st2" width="9" height="11.1"/>
		<rect id="XMLID_1450_" x="578.7" y="1920.4" class="st2" width="9" height="11.1"/>
		<polygon id="XMLID_1449_" class="st2" points="578.7,1909.7 578.7,1905.6 587.7,1905.6 587.7,1916.7 578.7,1916.7 578.7,1912.6 
			577.2,1912.6 577.2,1909.7 		"/>
	</g>
	<polygon id="XMLID_1447_" class="st1" points="35.4,1866.7 29.1,1872.2 29.1,1861.2 35.4,1866.7 	"/>
	<rect id="XMLID_1446_" x="100.3" y="1846.3" class="st2" width="9" height="11.1"/>
	<rect id="XMLID_1445_" x="100.3" y="1876" class="st2" width="9" height="11.1"/>
	<polygon id="XMLID_1444_" class="st2" points="109.3,1865.3 109.3,1861.2 100.3,1861.2 100.3,1872.3 109.3,1872.3 109.3,1868.2 
		110.8,1868.2 110.8,1865.3 	"/>
	<text id="XMLID_1443_" transform="matrix(0.9276 0 0 1 662.6892 1874.1582)" class="st3 st4">3</text>
	<text id="XMLID_1442_" transform="matrix(0.9276 0 0 1 -2.441406e-04 1874.1582)" class="st3 st4">  3</text>
	<polygon id="XMLID_1441_" class="st1" points="652.8,1866.7 659.1,1872.2 659.1,1861.2 652.8,1866.7 	"/>
	<g id="XMLID_1437_">
		<rect id="XMLID_1440_" x="578.7" y="1846.3" class="st2" width="9" height="11.1"/>
		<rect id="XMLID_1439_" x="578.7" y="1876" class="st2" width="9" height="11.1"/>
		<polygon id="XMLID_1438_" class="st2" points="578.7,1865.3 578.7,1861.2 587.7,1861.2 587.7,1872.3 578.7,1872.3 578.7,1868.2 
			577.2,1868.2 577.2,1865.3 		"/>
	</g>
	<polygon id="XMLID_1436_" class="st1" points="35.4,1822.3 29.1,1827.8 29.1,1816.8 35.4,1822.3 	"/>
	<rect id="XMLID_1435_" x="100.3" y="1801.9" class="st2" width="9" height="11.1"/>
	<rect id="XMLID_1434_" x="100.3" y="1831.5" class="st2" width="9" height="11.1"/>
	<polygon id="XMLID_1433_" class="st2" points="109.3,1820.8 109.3,1816.7 100.3,1816.7 100.3,1827.8 109.3,1827.8 109.3,1823.7 
		110.8,1823.7 110.8,1820.8 	"/>
	<text id="XMLID_1432_" transform="matrix(0.9276 0 0 1 662.6892 1829.7081)" class="st3 st4">4</text>
	<text id="XMLID_1431_" transform="matrix(0.9276 0 0 1 -2.441406e-04 1829.7081)" class="st3 st4">  4</text>
	<polygon id="XMLID_1430_" class="st1" points="652.8,1822.3 659.1,1827.8 659.1,1816.8 652.8,1822.3 	"/>
	<g id="XMLID_1426_">
		<rect id="XMLID_1429_" x="578.7" y="1801.9" class="st2" width="9" height="11.1"/>
		<rect id="XMLID_1428_" x="578.7" y="1831.5" class="st2" width="9" height="11.1"/>
		<polygon id="XMLID_1427_" class="st2" points="578.7,1820.8 578.7,1816.7 587.7,1816.7 587.7,1827.8 578.7,1827.8 578.7,1823.7 
			577.2,1823.7 577.2,1820.8 		"/>
	</g>
	<polygon id="XMLID_1425_" class="st1" points="35.4,1777.8 29.1,1783.3 29.1,1772.3 35.4,1777.8 	"/>
	<rect id="XMLID_1424_" x="100.3" y="1757.4" class="st2" width="9" height="11.1"/>
	<rect id="XMLID_1423_" x="100.3" y="1787.1" class="st2" width="9" height="11.1"/>
	<polygon id="XMLID_1422_" class="st2" points="109.3,1776.4 109.3,1772.3 100.3,1772.3 100.3,1783.4 109.3,1783.4 109.3,1779.3 
		110.8,1779.3 110.8,1776.4 	"/>
	<text id="XMLID_1421_" transform="matrix(0.9276 0 0 1 662.6892 1785.2582)" class="st3 st4">5</text>
	<text id="XMLID_1420_" transform="matrix(0.9276 0 0 1 -2.441406e-04 1785.2582)" class="st3 st4">  5</text>
	<polygon id="XMLID_1419_" class="st1" points="652.8,1777.8 659.1,1783.3 659.1,1772.3 652.8,1777.8 	"/>
	<g id="XMLID_1415_">
		<rect id="XMLID_1418_" x="578.7" y="1757.4" class="st2" width="9" height="11.1"/>
		<rect id="XMLID_1417_" x="578.7" y="1787.1" class="st2" width="9" height="11.1"/>
		<polygon id="XMLID_1416_" class="st2" points="578.7,1776.4 578.7,1772.3 587.7,1772.3 587.7,1783.4 578.7,1783.4 578.7,1779.3 
			577.2,1779.3 577.2,1776.4 		"/>
	</g>
	<polygon id="XMLID_1414_" class="st1" points="35.4,1733.4 29.1,1738.9 29.1,1727.9 35.4,1733.4 	"/>
	<rect id="XMLID_1413_" x="100.3" y="1713" class="st2" width="9" height="11.1"/>
	<rect id="XMLID_1412_" x="100.3" y="1742.6" class="st2" width="9" height="11.1"/>
	<polygon id="XMLID_1411_" class="st2" points="109.3,1731.9 109.3,1727.8 100.3,1727.8 100.3,1738.9 109.3,1738.9 109.3,1734.8 
		110.8,1734.8 110.8,1731.9 	"/>
	<text id="XMLID_1410_" transform="matrix(0.9276 0 0 1 662.6892 1740.8081)" class="st3 st4">6</text>
	<text id="XMLID_1409_" transform="matrix(0.9276 0 0 1 -2.441406e-04 1740.8081)" class="st3 st4">  6</text>
	<polygon id="XMLID_1408_" class="st1" points="652.8,1733.4 659.1,1738.9 659.1,1727.9 652.8,1733.4 	"/>
	<g id="XMLID_1404_">
		<rect id="XMLID_1407_" x="578.7" y="1713" class="st2" width="9" height="11.1"/>
		<rect id="XMLID_1406_" x="578.7" y="1742.6" class="st2" width="9" height="11.1"/>
		<polygon id="XMLID_1405_" class="st2" points="578.7,1731.9 578.7,1727.8 587.7,1727.8 587.7,1738.9 578.7,1738.9 578.7,1734.8 
			577.2,1734.8 577.2,1731.9 		"/>
	</g>
	<polygon id="XMLID_1403_" class="st1" points="35.4,1688.9 29.1,1694.4 29.1,1683.4 35.4,1688.9 	"/>
	<rect id="XMLID_1402_" x="100.3" y="1668.5" class="st2" width="9" height="11.1"/>
	<rect id="XMLID_1401_" x="100.3" y="1698.2" class="st2" width="9" height="11.1"/>
	<polygon id="XMLID_1400_" class="st2" points="109.3,1687.5 109.3,1683.4 100.3,1683.4 100.3,1694.5 109.3,1694.5 109.3,1690.4 
		110.8,1690.4 110.8,1687.5 	"/>
	<text id="XMLID_1399_" transform="matrix(0.9276 0 0 1 662.6892 1696.3582)" class="st3 st4">7</text>
	<text id="XMLID_1398_" transform="matrix(0.9276 0 0 1 -2.441406e-04 1696.3582)" class="st3 st4">  7</text>
	<polygon id="XMLID_1397_" class="st1" points="652.8,1688.9 659.1,1694.4 659.1,1683.4 652.8,1688.9 	"/>
	<g id="XMLID_1393_">
		<rect id="XMLID_1396_" x="578.7" y="1668.5" class="st2" width="9" height="11.1"/>
		<rect id="XMLID_1395_" x="578.7" y="1698.2" class="st2" width="9" height="11.1"/>
		<polygon id="XMLID_1394_" class="st2" points="578.7,1687.5 578.7,1683.4 587.7,1683.4 587.7,1694.5 578.7,1694.5 578.7,1690.4 
			577.2,1690.4 577.2,1687.5 		"/>
	</g>
	<polygon id="XMLID_1392_" class="st1" points="35.4,1644.5 29.1,1650 29.1,1639 35.4,1644.5 	"/>
	<rect id="XMLID_1391_" x="100.3" y="1624.1" class="st2" width="9" height="11.1"/>
	<rect id="XMLID_1390_" x="100.3" y="1653.7" class="st2" width="9" height="11.1"/>
	<polygon id="XMLID_1389_" class="st2" points="109.3,1643 109.3,1638.9 100.3,1638.9 100.3,1650 109.3,1650 109.3,1645.9 
		110.8,1645.9 110.8,1643 	"/>
	<text id="XMLID_1388_" transform="matrix(0.9276 0 0 1 662.6892 1651.9082)" class="st3 st4">8</text>
	<text id="XMLID_1387_" transform="matrix(0.9276 0 0 1 -2.441406e-04 1651.9082)" class="st3 st4">  8</text>
	<polygon id="XMLID_1386_" class="st1" points="652.8,1644.5 659.1,1650 659.1,1639 652.8,1644.5 	"/>
	<g id="XMLID_1382_">
		<rect id="XMLID_1385_" x="578.7" y="1624.1" class="st2" width="9" height="11.1"/>
		<rect id="XMLID_1384_" x="578.7" y="1653.7" class="st2" width="9" height="11.1"/>
		<polygon id="XMLID_1383_" class="st2" points="578.7,1643 578.7,1638.9 587.7,1638.9 587.7,1650 578.7,1650 578.7,1645.9 
			577.2,1645.9 577.2,1643 		"/>
	</g>
	<polygon id="XMLID_1381_" class="st1" points="35.4,1600 29.1,1605.5 29.1,1594.5 35.4,1600 	"/>
	<rect id="XMLID_1380_" x="100.3" y="1579.6" class="st2" width="9" height="11.1"/>
	<rect id="XMLID_1379_" x="100.3" y="1609.3" class="st2" width="9" height="11.1"/>
	<polygon id="XMLID_1378_" class="st2" points="109.3,1598.6 109.3,1594.5 100.3,1594.5 100.3,1605.6 109.3,1605.6 109.3,1601.5 
		110.8,1601.5 110.8,1598.6 	"/>
	<text id="XMLID_1377_" transform="matrix(0.9276 0 0 1 662.6892 1607.4581)" class="st3 st4">9</text>
	<text id="XMLID_1376_" transform="matrix(0.9276 0 0 1 -2.441406e-04 1607.4581)" class="st3 st4">  9</text>
	<polygon id="XMLID_1375_" class="st1" points="652.8,1600 659.1,1605.5 659.1,1594.5 652.8,1600 	"/>
	<g id="XMLID_1371_">
		<rect id="XMLID_1374_" x="578.7" y="1579.6" class="st2" width="9" height="11.1"/>
		<rect id="XMLID_1373_" x="578.7" y="1609.3" class="st2" width="9" height="11.1"/>
		<polygon id="XMLID_1372_" class="st2" points="578.7,1598.6 578.7,1594.5 587.7,1594.5 587.7,1605.6 578.7,1605.6 578.7,1601.5 
			577.2,1601.5 577.2,1598.6 		"/>
	</g>
	<polygon id="XMLID_1370_" class="st1" points="35.4,1555.6 29.1,1561.1 29.1,1550.1 35.4,1555.6 	"/>
	<rect id="XMLID_1369_" x="100.3" y="1535.2" class="st2" width="9" height="11.1"/>
	<rect id="XMLID_1368_" x="100.3" y="1564.8" class="st2" width="9" height="11.1"/>
	<polygon id="XMLID_1367_" class="st2" points="109.3,1554.1 109.3,1550 100.3,1550 100.3,1561.1 109.3,1561.1 109.3,1557 
		110.8,1557 110.8,1554.1 	"/>
	<text id="XMLID_1366_" transform="matrix(0.9276 0 0 1 662.6892 1563.0081)" class="st3 st4">10</text>
	<text id="XMLID_1365_" transform="matrix(0.9276 0 0 1 -2.441406e-04 1563.0081)" class="st3 st4">10</text>
	<polygon id="XMLID_1364_" class="st1" points="652.8,1555.6 659.1,1561.1 659.1,1550.1 652.8,1555.6 	"/>
	<g id="XMLID_1360_">
		<rect id="XMLID_1363_" x="578.7" y="1535.2" class="st2" width="9" height="11.1"/>
		<rect id="XMLID_1362_" x="578.7" y="1564.8" class="st2" width="9" height="11.1"/>
		<polygon id="XMLID_1361_" class="st2" points="578.7,1554.1 578.7,1550 587.7,1550 587.7,1561.1 578.7,1561.1 578.7,1557 
			577.2,1557 577.2,1554.1 		"/>
	</g>
	<polygon id="XMLID_1359_" class="st1" points="35.4,1511.1 29.1,1516.6 29.1,1505.6 35.4,1511.1 	"/>
	<rect id="XMLID_1358_" x="100.3" y="1490.7" class="st2" width="9" height="11.1"/>
	<rect id="XMLID_1357_" x="100.3" y="1520.4" class="st2" width="9" height="11.1"/>
	<polygon id="XMLID_1356_" class="st2" points="109.3,1509.7 109.3,1505.6 100.3,1505.6 100.3,1516.7 109.3,1516.7 109.3,1512.6 
		110.8,1512.6 110.8,1509.7 	"/>
	<text id="XMLID_1355_" transform="matrix(0.9276 0 0 1 662.6892 1518.5581)" class="st3 st4">11</text>
	<text id="XMLID_1354_" transform="matrix(0.9276 0 0 1 -2.441406e-04 1518.5581)" class="st3 st4">11</text>
	<polygon id="XMLID_1353_" class="st1" points="652.8,1511.1 659.1,1516.6 659.1,1505.6 652.8,1511.1 	"/>
	<g id="XMLID_1349_">
		<rect id="XMLID_1352_" x="578.7" y="1490.7" class="st2" width="9" height="11.1"/>
		<rect id="XMLID_1351_" x="578.7" y="1520.4" class="st2" width="9" height="11.1"/>
		<polygon id="XMLID_1350_" class="st2" points="578.7,1509.7 578.7,1505.6 587.7,1505.6 587.7,1516.7 578.7,1516.7 578.7,1512.6 
			577.2,1512.6 577.2,1509.7 		"/>
	</g>
	<polygon id="XMLID_1348_" class="st1" points="35.4,1466.7 29.1,1472.2 29.1,1461.2 35.4,1466.7 	"/>
	<rect id="XMLID_1347_" x="100.3" y="1446.3" class="st2" width="9" height="11.1"/>
	<rect id="XMLID_1346_" x="100.3" y="1475.9" class="st2" width="9" height="11.1"/>
	<polygon id="XMLID_1345_" class="st2" points="109.3,1465.2 109.3,1461.1 100.3,1461.1 100.3,1472.2 109.3,1472.2 109.3,1468.1 
		110.8,1468.1 110.8,1465.2 	"/>
	<text id="XMLID_1344_" transform="matrix(0.9276 0 0 1 662.6892 1474.1082)" class="st3 st4">12</text>
	<text id="XMLID_1343_" transform="matrix(0.9276 0 0 1 -2.441406e-04 1474.1082)" class="st3 st4">12</text>
	<polygon id="XMLID_1342_" class="st1" points="652.8,1466.7 659.1,1472.2 659.1,1461.2 652.8,1466.7 	"/>
	<g id="XMLID_1338_">
		<rect id="XMLID_1341_" x="578.7" y="1446.3" class="st2" width="9" height="11.1"/>
		<rect id="XMLID_1340_" x="578.7" y="1475.9" class="st2" width="9" height="11.1"/>
		<polygon id="XMLID_1339_" class="st2" points="578.7,1465.2 578.7,1461.1 587.7,1461.1 587.7,1472.2 578.7,1472.2 578.7,1468.1 
			577.2,1468.1 577.2,1465.2 		"/>
	</g>
	<polygon id="XMLID_1337_" class="st1" points="35.4,1422.2 29.1,1427.7 29.1,1416.8 35.4,1422.2 	"/>
	<rect id="XMLID_1336_" x="100.3" y="1401.8" class="st2" width="9" height="11.1"/>
	<rect id="XMLID_1335_" x="100.3" y="1431.5" class="st2" width="9" height="11.1"/>
	<polygon id="XMLID_1334_" class="st2" points="109.3,1420.8 109.3,1416.7 100.3,1416.7 100.3,1427.8 109.3,1427.8 109.3,1423.7 
		110.8,1423.7 110.8,1420.8 	"/>
	<text id="XMLID_1333_" transform="matrix(0.9276 0 0 1 662.6892 1429.6581)" class="st3 st4">13</text>
	<text id="XMLID_1332_" transform="matrix(0.9276 0 0 1 -2.441406e-04 1429.6581)" class="st3 st4">13</text>
	<polygon id="XMLID_1331_" class="st1" points="652.8,1422.2 659.1,1427.7 659.1,1416.7 652.8,1422.2 	"/>
	<g id="XMLID_1327_">
		<rect id="XMLID_1330_" x="578.7" y="1401.8" class="st2" width="9" height="11.1"/>
		<rect id="XMLID_1329_" x="578.7" y="1431.5" class="st2" width="9" height="11.1"/>
		<polygon id="XMLID_1328_" class="st2" points="578.7,1420.8 578.7,1416.7 587.7,1416.7 587.7,1427.8 578.7,1427.8 578.7,1423.7 
			577.2,1423.7 577.2,1420.8 		"/>
	</g>
	<polygon id="XMLID_1326_" class="st1" points="35.4,1377.8 29.1,1383.3 29.1,1372.3 35.4,1377.8 	"/>
	<rect id="XMLID_1325_" x="100.3" y="1357.4" class="st2" width="9" height="11.1"/>
	<rect id="XMLID_1324_" x="100.3" y="1387" class="st2" width="9" height="11.1"/>
	<polygon id="XMLID_1323_" class="st2" points="109.3,1376.3 109.3,1372.2 100.3,1372.2 100.3,1383.3 109.3,1383.3 109.3,1379.2 
		110.8,1379.2 110.8,1376.3 	"/>
	<text id="XMLID_1322_" transform="matrix(0.9276 0 0 1 662.6892 1385.208)" class="st3 st4">14</text>
	<text id="XMLID_1321_" transform="matrix(0.9276 0 0 1 -2.441406e-04 1385.208)" class="st3 st4">14</text>
	<polygon id="XMLID_1320_" class="st1" points="652.8,1377.8 659.1,1383.3 659.1,1372.3 652.8,1377.8 	"/>
	<g id="XMLID_1316_">
		<rect id="XMLID_1319_" x="578.7" y="1357.4" class="st2" width="9" height="11.1"/>
		<rect id="XMLID_1318_" x="578.7" y="1387" class="st2" width="9" height="11.1"/>
		<polygon id="XMLID_1317_" class="st2" points="578.7,1376.3 578.7,1372.2 587.7,1372.2 587.7,1383.3 578.7,1383.3 578.7,1379.2 
			577.2,1379.2 577.2,1376.3 		"/>
	</g>
	<polygon id="XMLID_1315_" class="st1" points="35.4,1333.3 29.1,1338.8 29.1,1327.8 35.4,1333.3 	"/>
	<rect id="XMLID_1314_" x="100.3" y="1312.9" class="st2" width="9" height="11.1"/>
	<rect id="XMLID_1313_" x="100.3" y="1342.6" class="st2" width="9" height="11.1"/>
	<polygon id="XMLID_1312_" class="st2" points="109.3,1331.9 109.3,1327.8 100.3,1327.8 100.3,1338.9 109.3,1338.9 109.3,1334.8 
		110.8,1334.8 110.8,1331.9 	"/>
	<text id="XMLID_1311_" transform="matrix(0.9276 0 0 1 662.6892 1340.7581)" class="st3 st4">15</text>
	<text id="XMLID_1310_" transform="matrix(0.9276 0 0 1 -2.441406e-04 1340.7581)" class="st3 st4">15</text>
	<polygon id="XMLID_1309_" class="st1" points="652.8,1333.3 659.1,1338.8 659.1,1327.8 652.8,1333.3 	"/>
	<g id="XMLID_1305_">
		<rect id="XMLID_1308_" x="578.7" y="1312.9" class="st2" width="9" height="11.1"/>
		<rect id="XMLID_1307_" x="578.7" y="1342.6" class="st2" width="9" height="11.1"/>
		<polygon id="XMLID_1306_" class="st2" points="578.7,1331.9 578.7,1327.8 587.7,1327.8 587.7,1338.9 578.7,1338.9 578.7,1334.8 
			577.2,1334.8 577.2,1331.9 		"/>
	</g>
	<polygon id="XMLID_1304_" class="st1" points="35.4,1288.9 29.1,1294.4 29.1,1283.4 35.4,1288.9 	"/>
	<rect id="XMLID_1303_" x="100.3" y="1268.5" class="st2" width="9" height="11.1"/>
	<rect id="XMLID_1302_" x="100.3" y="1298.1" class="st2" width="9" height="11.1"/>
	<polygon id="XMLID_1301_" class="st2" points="109.3,1287.4 109.3,1283.3 100.3,1283.3 100.3,1294.4 109.3,1294.4 109.3,1290.3 
		110.8,1290.3 110.8,1287.4 	"/>
	<text id="XMLID_1300_" transform="matrix(0.9276 0 0 1 662.6892 1296.3081)" class="st3 st4">16</text>
	<text id="XMLID_1299_" transform="matrix(0.9276 0 0 1 -2.441406e-04 1296.3081)" class="st3 st4">16</text>
	<polygon id="XMLID_1298_" class="st1" points="652.8,1288.9 659.1,1294.4 659.1,1283.4 652.8,1288.9 	"/>
	<g id="XMLID_1294_">
		<rect id="XMLID_1297_" x="578.7" y="1268.5" class="st2" width="9" height="11.1"/>
		<rect id="XMLID_1296_" x="578.7" y="1298.1" class="st2" width="9" height="11.1"/>
		<polygon id="XMLID_1295_" class="st2" points="578.7,1287.4 578.7,1283.3 587.7,1283.3 587.7,1294.4 578.7,1294.4 578.7,1290.3 
			577.2,1290.3 577.2,1287.4 		"/>
	</g>
	<polygon id="XMLID_1293_" class="st1" points="35.4,1244.4 29.1,1249.9 29.1,1238.9 35.4,1244.4 	"/>
	<rect id="XMLID_1292_" x="100.3" y="1224" class="st2" width="9" height="11.1"/>
	<rect id="XMLID_1291_" x="100.3" y="1253.7" class="st2" width="9" height="11.1"/>
	<polygon id="XMLID_1290_" class="st2" points="109.3,1243 109.3,1238.9 100.3,1238.9 100.3,1250 109.3,1250 109.3,1245.9 
		110.8,1245.9 110.8,1243 	"/>
	<text id="XMLID_1289_" transform="matrix(0.9276 0 0 1 662.6892 1251.8582)" class="st3 st4">17</text>
	<text id="XMLID_1288_" transform="matrix(0.9276 0 0 1 -2.441406e-04 1251.8582)" class="st3 st4">17</text>
	<polygon id="XMLID_1287_" class="st1" points="652.8,1244.4 659.1,1249.9 659.1,1238.9 652.8,1244.4 	"/>
	<g id="XMLID_1283_">
		<rect id="XMLID_1286_" x="578.7" y="1224" class="st2" width="9" height="11.1"/>
		<rect id="XMLID_1285_" x="578.7" y="1253.7" class="st2" width="9" height="11.1"/>
		<polygon id="XMLID_1284_" class="st2" points="578.7,1243 578.7,1238.9 587.7,1238.9 587.7,1250 578.7,1250 578.7,1245.9 
			577.2,1245.9 577.2,1243 		"/>
	</g>
	<polygon id="XMLID_1282_" class="st1" points="35.4,1200 29.1,1205.5 29.1,1194.5 35.4,1200 	"/>
	<rect id="XMLID_1281_" x="100.3" y="1179.6" class="st2" width="9" height="11.1"/>
	<rect id="XMLID_1280_" x="100.3" y="1209.2" class="st2" width="9" height="11.1"/>
	<polygon id="XMLID_1279_" class="st2" points="109.3,1198.5 109.3,1194.4 100.3,1194.4 100.3,1205.5 109.3,1205.5 109.3,1201.4 
		110.8,1201.4 110.8,1198.5 	"/>
	<text id="XMLID_1278_" transform="matrix(0.9276 0 0 1 662.6892 1207.408)" class="st3 st4">18</text>
	<text id="XMLID_1277_" transform="matrix(0.9276 0 0 1 -2.441406e-04 1207.408)" class="st3 st4">18</text>
	<polygon id="XMLID_1276_" class="st1" points="652.8,1200 659.1,1205.5 659.1,1194.5 652.8,1200 	"/>
	<g id="XMLID_1272_">
		<rect id="XMLID_1275_" x="578.7" y="1179.6" class="st2" width="9" height="11.1"/>
		<rect id="XMLID_1274_" x="578.7" y="1209.2" class="st2" width="9" height="11.1"/>
		<polygon id="XMLID_1273_" class="st2" points="578.7,1198.5 578.7,1194.4 587.7,1194.4 587.7,1205.5 578.7,1205.5 578.7,1201.4 
			577.2,1201.4 577.2,1198.5 		"/>
	</g>
	<polygon id="XMLID_1271_" class="st1" points="35.4,1155.5 29.1,1161 29.1,1150 35.4,1155.5 	"/>
	<rect id="XMLID_1270_" x="100.3" y="1135.1" class="st2" width="9" height="11.1"/>
	<rect id="XMLID_1269_" x="100.3" y="1164.8" class="st2" width="9" height="11.1"/>
	<polygon id="XMLID_1268_" class="st2" points="109.3,1154.1 109.3,1150 100.3,1150 100.3,1161.1 109.3,1161.1 109.3,1157 
		110.8,1157 110.8,1154.1 	"/>
	<text id="XMLID_1267_" transform="matrix(0.9276 0 0 1 662.6892 1162.958)" class="st3 st4">19</text>
	<text id="XMLID_1266_" transform="matrix(0.9276 0 0 1 -2.441406e-04 1162.958)" class="st3 st4">19</text>
	<polygon id="XMLID_1265_" class="st1" points="652.8,1155.5 659.1,1161 659.1,1150 652.8,1155.5 	"/>
	<g id="XMLID_1261_">
		<rect id="XMLID_1264_" x="578.7" y="1135.1" class="st2" width="9" height="11.1"/>
		<rect id="XMLID_1263_" x="578.7" y="1164.8" class="st2" width="9" height="11.1"/>
		<polygon id="XMLID_1262_" class="st2" points="578.7,1154.1 578.7,1150 587.7,1150 587.7,1161.1 578.7,1161.1 578.7,1157 
			577.2,1157 577.2,1154.1 		"/>
	</g>
	<polygon id="XMLID_1260_" class="st1" points="35.4,1111.1 29.1,1116.6 29.1,1105.6 35.4,1111.1 	"/>
	<rect id="XMLID_1259_" x="100.3" y="1090.7" class="st2" width="9" height="11.1"/>
	<rect id="XMLID_1258_" x="100.3" y="1120.3" class="st2" width="9" height="11.1"/>
	<polygon id="XMLID_1257_" class="st2" points="109.3,1109.6 109.3,1105.5 100.3,1105.5 100.3,1116.6 109.3,1116.6 109.3,1112.5 
		110.8,1112.5 110.8,1109.6 	"/>
	<text id="XMLID_1256_" transform="matrix(0.9276 0 0 1 662.6892 1118.5081)" class="st3 st4">20</text>
	<text id="XMLID_1255_" transform="matrix(0.9276 0 0 1 -2.441406e-04 1118.5081)" class="st3 st4">20</text>
	<polygon id="XMLID_1254_" class="st1" points="652.8,1111.1 659.1,1116.6 659.1,1105.6 652.8,1111.1 	"/>
	<g id="XMLID_1250_">
		<rect id="XMLID_1253_" x="578.7" y="1090.7" class="st2" width="9" height="11.1"/>
		<rect id="XMLID_1252_" x="578.7" y="1120.3" class="st2" width="9" height="11.1"/>
		<polygon id="XMLID_1251_" class="st2" points="578.7,1109.6 578.7,1105.5 587.7,1105.5 587.7,1116.6 578.7,1116.6 578.7,1112.5 
			577.2,1112.5 577.2,1109.6 		"/>
	</g>
	<polygon id="XMLID_1249_" class="st1" points="35.4,1066.6 29.1,1072.1 29.1,1061.1 35.4,1066.6 	"/>
	<rect id="XMLID_1248_" x="100.3" y="1046.2" class="st2" width="9" height="11.1"/>
	<rect id="XMLID_1247_" x="100.3" y="1075.9" class="st2" width="9" height="11.1"/>
	<polygon id="XMLID_1246_" class="st2" points="109.3,1065.2 109.3,1061.1 100.3,1061.1 100.3,1072.2 109.3,1072.2 109.3,1068.1 
		110.8,1068.1 110.8,1065.2 	"/>
	<text id="XMLID_1245_" transform="matrix(0.9276 0 0 1 662.6892 1074.0581)" class="st3 st4">21</text>
	<text id="XMLID_1244_" transform="matrix(0.9276 0 0 1 -2.441406e-04 1074.0581)" class="st3 st4">21</text>
	<polygon id="XMLID_1243_" class="st1" points="652.8,1066.6 659.1,1072.1 659.1,1061.1 652.8,1066.6 	"/>
	<g id="XMLID_1239_">
		<rect id="XMLID_1242_" x="578.7" y="1046.2" class="st2" width="9" height="11.1"/>
		<rect id="XMLID_1241_" x="578.7" y="1075.9" class="st2" width="9" height="11.1"/>
		<polygon id="XMLID_1240_" class="st2" points="578.7,1065.2 578.7,1061.1 587.7,1061.1 587.7,1072.2 578.7,1072.2 578.7,1068.1 
			577.2,1068.1 577.2,1065.2 		"/>
	</g>
	<polygon id="XMLID_1238_" class="st1" points="35.4,1022.2 29.1,1027.7 29.1,1016.7 35.4,1022.2 	"/>
	<rect id="XMLID_1237_" x="100.3" y="1001.8" class="st2" width="9" height="11.1"/>
	<rect id="XMLID_1236_" x="100.3" y="1031.4" class="st2" width="9" height="11.1"/>
	<polygon id="XMLID_1235_" class="st2" points="109.3,1020.7 109.3,1016.6 100.3,1016.6 100.3,1027.7 109.3,1027.7 109.3,1023.6 
		110.8,1023.6 110.8,1020.7 	"/>
	<text id="XMLID_1234_" transform="matrix(0.9276 0 0 1 662.6892 1029.6079)" class="st3 st4">22</text>
	<text id="XMLID_1233_" transform="matrix(0.9276 0 0 1 -2.441406e-04 1029.6079)" class="st3 st4">22</text>
	<polygon id="XMLID_1232_" class="st1" points="652.8,1022.2 659.1,1027.7 659.1,1016.7 652.8,1022.2 	"/>
	<g id="XMLID_1228_">
		<rect id="XMLID_1231_" x="578.7" y="1001.8" class="st2" width="9" height="11.1"/>
		<rect id="XMLID_1230_" x="578.7" y="1031.4" class="st2" width="9" height="11.1"/>
		<polygon id="XMLID_1229_" class="st2" points="578.7,1020.7 578.7,1016.6 587.7,1016.6 587.7,1027.7 578.7,1027.7 578.7,1023.6 
			577.2,1023.6 577.2,1020.7 		"/>
	</g>
	<polygon id="XMLID_1227_" class="st1" points="35.4,977.7 29.1,983.2 29.1,972.2 35.4,977.7 	"/>
	<rect id="XMLID_1226_" x="100.3" y="957.3" class="st2" width="9" height="11.1"/>
	<rect id="XMLID_1225_" x="100.3" y="987" class="st2" width="9" height="11.1"/>
	<polygon id="XMLID_1224_" class="st2" points="109.3,976.3 109.3,972.2 100.3,972.2 100.3,983.3 109.3,983.3 109.3,979.2 
		110.8,979.2 110.8,976.3 	"/>
	<text id="XMLID_1223_" transform="matrix(0.9276 0 0 1 662.6892 985.158)" class="st3 st4">23</text>
	<text id="XMLID_1222_" transform="matrix(0.9276 0 0 1 -2.441406e-04 985.158)" class="st3 st4">23</text>
	<polygon id="XMLID_1221_" class="st1" points="652.8,977.7 659.1,983.2 659.1,972.2 652.8,977.7 	"/>
	<g id="XMLID_1217_">
		<rect id="XMLID_1220_" x="578.7" y="957.3" class="st2" width="9" height="11.1"/>
		<rect id="XMLID_1219_" x="578.7" y="987" class="st2" width="9" height="11.1"/>
		<polygon id="XMLID_1218_" class="st2" points="578.7,976.3 578.7,972.2 587.7,972.2 587.7,983.3 578.7,983.3 578.7,979.2 
			577.2,979.2 577.2,976.3 		"/>
	</g>
	<polygon id="XMLID_1216_" class="st1" points="35.4,933.3 29.1,938.8 29.1,927.8 35.4,933.3 	"/>
	<rect id="XMLID_1215_" x="100.3" y="912.9" class="st2" width="9" height="11.1"/>
	<rect id="XMLID_1214_" x="100.3" y="942.5" class="st2" width="9" height="11.1"/>
	<polygon id="XMLID_1213_" class="st2" points="109.3,931.8 109.3,927.7 100.3,927.7 100.3,938.8 109.3,938.8 109.3,934.7 
		110.8,934.7 110.8,931.8 	"/>
	<text id="XMLID_1212_" transform="matrix(0.9276 0 0 1 662.6892 940.7081)" class="st3 st4">24</text>
	<text id="XMLID_1211_" transform="matrix(0.9276 0 0 1 -2.441406e-04 940.7081)" class="st3 st4">24</text>
	<polygon id="XMLID_1210_" class="st1" points="652.8,933.3 659.1,938.8 659.1,927.8 652.8,933.3 	"/>
	<g id="XMLID_1206_">
		<rect id="XMLID_1209_" x="578.7" y="912.9" class="st2" width="9" height="11.1"/>
		<rect id="XMLID_1208_" x="578.7" y="942.5" class="st2" width="9" height="11.1"/>
		<polygon id="XMLID_1207_" class="st2" points="578.7,931.8 578.7,927.7 587.7,927.7 587.7,938.8 578.7,938.8 578.7,934.7 
			577.2,934.7 577.2,931.8 		"/>
	</g>
	<polygon id="XMLID_1205_" class="st1" points="35.4,888.8 29.1,894.3 29.1,883.3 35.4,888.8 	"/>
	<rect id="XMLID_1204_" x="100.3" y="868.4" class="st2" width="9" height="11.1"/>
	<rect id="XMLID_1203_" x="100.3" y="898.1" class="st2" width="9" height="11.1"/>
	<polygon id="XMLID_1202_" class="st2" points="109.3,887.4 109.3,883.3 100.3,883.3 100.3,894.4 109.3,894.4 109.3,890.3 
		110.8,890.3 110.8,887.4 	"/>
	<text id="XMLID_1201_" transform="matrix(0.9276 0 0 1 662.6892 896.2581)" class="st3 st4">25</text>
	<text id="XMLID_1200_" transform="matrix(0.9276 0 0 1 -2.441406e-04 896.2581)" class="st3 st4">25</text>
	<polygon id="XMLID_1199_" class="st1" points="652.8,888.8 659.1,894.3 659.1,883.3 652.8,888.8 	"/>
	<g id="XMLID_1195_">
		<rect id="XMLID_1198_" x="578.7" y="868.4" class="st2" width="9" height="11.1"/>
		<rect id="XMLID_1197_" x="578.7" y="898.1" class="st2" width="9" height="11.1"/>
		<polygon id="XMLID_1196_" class="st2" points="578.7,887.4 578.7,883.3 587.7,883.3 587.7,894.4 578.7,894.4 578.7,890.3 
			577.2,890.3 577.2,887.4 		"/>
	</g>
	<polygon id="XMLID_1194_" class="st1" points="35.4,844.4 29.1,849.9 29.1,838.9 35.4,844.4 	"/>
	<rect id="XMLID_1193_" x="100.3" y="824" class="st2" width="9" height="11.1"/>
	<rect id="XMLID_1192_" x="100.3" y="853.6" class="st2" width="9" height="11.1"/>
	<polygon id="XMLID_1191_" class="st2" points="109.3,842.9 109.3,838.8 100.3,838.8 100.3,849.9 109.3,849.9 109.3,845.8 
		110.8,845.8 110.8,842.9 	"/>
	<text id="XMLID_1190_" transform="matrix(0.9276 0 0 1 662.6892 851.8081)" class="st3 st4">26</text>
	<text id="XMLID_1189_" transform="matrix(0.9276 0 0 1 -2.441406e-04 851.8081)" class="st3 st4">26</text>
	<polygon id="XMLID_1188_" class="st1" points="652.8,844.4 659.1,849.9 659.1,838.9 652.8,844.4 	"/>
	<g id="XMLID_1184_">
		<rect id="XMLID_1187_" x="578.7" y="824" class="st2" width="9" height="11.1"/>
		<rect id="XMLID_1186_" x="578.7" y="853.6" class="st2" width="9" height="11.1"/>
		<polygon id="XMLID_1185_" class="st2" points="578.7,842.9 578.7,838.8 587.7,838.8 587.7,849.9 578.7,849.9 578.7,845.8 
			577.2,845.8 577.2,842.9 		"/>
	</g>
	<polygon id="XMLID_1183_" class="st1" points="35.4,799.9 29.1,805.4 29.1,794.4 35.4,799.9 	"/>
	<rect id="XMLID_1182_" x="100.3" y="779.5" class="st2" width="9" height="11.1"/>
	<rect id="XMLID_1181_" x="100.3" y="809.2" class="st2" width="9" height="11.1"/>
	<polygon id="XMLID_1180_" class="st2" points="109.3,798.5 109.3,794.4 100.3,794.4 100.3,805.5 109.3,805.5 109.3,801.4 
		110.8,801.4 110.8,798.5 	"/>
	<text id="XMLID_1179_" transform="matrix(0.9276 0 0 1 662.6892 807.3582)" class="st3 st4">27</text>
	<text id="XMLID_1178_" transform="matrix(0.9276 0 0 1 -2.441406e-04 807.3582)" class="st3 st4">27</text>
	<polygon id="XMLID_1177_" class="st1" points="652.8,799.9 659.1,805.4 659.1,794.4 652.8,799.9 	"/>
	<g id="XMLID_1173_">
		<rect id="XMLID_1176_" x="578.7" y="779.5" class="st2" width="9" height="11.1"/>
		<rect id="XMLID_1175_" x="578.7" y="809.2" class="st2" width="9" height="11.1"/>
		<polygon id="XMLID_1174_" class="st2" points="578.7,798.5 578.7,794.4 587.7,794.4 587.7,805.5 578.7,805.5 578.7,801.4 
			577.2,801.4 577.2,798.5 		"/>
	</g>
	<polygon id="XMLID_1172_" class="st1" points="35.4,755.5 29.1,761 29.1,750 35.4,755.5 	"/>
	<rect id="XMLID_1171_" x="100.3" y="735.1" class="st2" width="9" height="11.1"/>
	<rect id="XMLID_1170_" x="100.3" y="764.7" class="st2" width="9" height="11.1"/>
	<polygon id="XMLID_1169_" class="st2" points="109.3,754 109.3,749.9 100.3,749.9 100.3,761 109.3,761 109.3,756.9 110.8,756.9 
		110.8,754 	"/>
	<text id="XMLID_1168_" transform="matrix(0.9276 0 0 1 662.6892 762.9082)" class="st3 st4">28</text>
	<text id="XMLID_1167_" transform="matrix(0.9276 0 0 1 -2.441406e-04 762.9082)" class="st3 st4">28</text>
	<polygon id="XMLID_1166_" class="st1" points="652.8,755.5 659.1,761 659.1,750 652.8,755.5 	"/>
	<g id="XMLID_1162_">
		<rect id="XMLID_1165_" x="578.7" y="735.1" class="st2" width="9" height="11.1"/>
		<rect id="XMLID_1164_" x="578.7" y="764.7" class="st2" width="9" height="11.1"/>
		<polygon id="XMLID_1163_" class="st2" points="578.7,754 578.7,749.9 587.7,749.9 587.7,761 578.7,761 578.7,756.9 577.2,756.9 
			577.2,754 		"/>
	</g>
	<polygon id="XMLID_1161_" class="st1" points="35.4,711 29.1,716.5 29.1,705.5 35.4,711 	"/>
	<rect id="XMLID_1160_" x="100.3" y="690.6" class="st2" width="9" height="11.1"/>
	<rect id="XMLID_1159_" x="100.3" y="720.3" class="st2" width="9" height="11.1"/>
	<polygon id="XMLID_1158_" class="st2" points="109.3,709.6 109.3,705.5 100.3,705.5 100.3,716.6 109.3,716.6 109.3,712.5 
		110.8,712.5 110.8,709.6 	"/>
	<text id="XMLID_1157_" transform="matrix(0.9276 0 0 1 662.6892 718.4583)" class="st3 st4">29</text>
	<text id="XMLID_1156_" transform="matrix(0.9276 0 0 1 -2.441406e-04 718.4583)" class="st3 st4">29</text>
	<polygon id="XMLID_1155_" class="st1" points="652.8,711 659.1,716.5 659.1,705.5 652.8,711 	"/>
	<g id="XMLID_1151_">
		<rect id="XMLID_1154_" x="578.7" y="690.6" class="st2" width="9" height="11.1"/>
		<rect id="XMLID_1153_" x="578.7" y="720.3" class="st2" width="9" height="11.1"/>
		<polygon id="XMLID_1152_" class="st2" points="578.7,709.6 578.7,705.5 587.7,705.5 587.7,716.6 578.7,716.6 578.7,712.5 
			577.2,712.5 577.2,709.6 		"/>
	</g>
	<polygon id="XMLID_1150_" class="st1" points="35.4,666.6 29.1,672.1 29.1,661.1 35.4,666.6 	"/>
	<rect id="XMLID_1149_" x="100.3" y="646.2" class="st2" width="9" height="11.1"/>
	<rect id="XMLID_1148_" x="100.3" y="675.8" class="st2" width="9" height="11.1"/>
	<polygon id="XMLID_1147_" class="st2" points="109.3,665.1 109.3,661 100.3,661 100.3,672.1 109.3,672.1 109.3,668 110.8,668 
		110.8,665.1 	"/>
	<text id="XMLID_1146_" transform="matrix(0.9276 0 0 1 662.6892 674.0083)" class="st3 st4">30</text>
	<text id="XMLID_1145_" transform="matrix(0.9276 0 0 1 -2.441406e-04 674.0083)" class="st3 st4">30</text>
	<polygon id="XMLID_1144_" class="st1" points="652.8,666.6 659.1,672.1 659.1,661.1 652.8,666.6 	"/>
	<g id="XMLID_1140_">
		<rect id="XMLID_1143_" x="578.7" y="646.2" class="st2" width="9" height="11.1"/>
		<rect id="XMLID_1142_" x="578.7" y="675.8" class="st2" width="9" height="11.1"/>
		<polygon id="XMLID_1141_" class="st2" points="578.7,665.1 578.7,661 587.7,661 587.7,672.1 578.7,672.1 578.7,668 577.2,668 
			577.2,665.1 		"/>
	</g>
	<polygon id="XMLID_1139_" class="st1" points="35.4,622.1 29.1,627.6 29.1,616.6 35.4,622.1 	"/>
	<rect id="XMLID_1138_" x="100.3" y="601.7" class="st2" width="9" height="11.1"/>
	<rect id="XMLID_1137_" x="100.3" y="631.4" class="st2" width="9" height="11.1"/>
	<polygon id="XMLID_1136_" class="st2" points="109.3,620.7 109.3,616.6 100.3,616.6 100.3,627.7 109.3,627.7 109.3,623.6 
		110.8,623.6 110.8,620.7 	"/>
	<text id="XMLID_1135_" transform="matrix(0.9276 0 0 1 662.6892 629.5583)" class="st3 st4">31</text>
	<text id="XMLID_1134_" transform="matrix(0.9276 0 0 1 -2.441406e-04 629.5583)" class="st3 st4">31</text>
	<polygon id="XMLID_1133_" class="st1" points="652.8,622.1 659.1,627.6 659.1,616.6 652.8,622.1 	"/>
	<g id="XMLID_1129_">
		<rect id="XMLID_1132_" x="578.7" y="601.7" class="st2" width="9" height="11.1"/>
		<rect id="XMLID_1131_" x="578.7" y="631.4" class="st2" width="9" height="11.1"/>
		<polygon id="XMLID_1130_" class="st2" points="578.7,620.7 578.7,616.6 587.7,616.6 587.7,627.7 578.7,627.7 578.7,623.6 
			577.2,623.6 577.2,620.7 		"/>
	</g>
	<polygon id="XMLID_1128_" class="st1" points="35.4,577.7 29.1,583.2 29.1,572.2 35.4,577.7 	"/>
	<rect id="XMLID_1127_" x="100.3" y="557.3" class="st2" width="9" height="11.1"/>
	<rect id="XMLID_1126_" x="100.3" y="586.9" class="st2" width="9" height="11.1"/>
	<polygon id="XMLID_1125_" class="st2" points="109.3,576.2 109.3,572.1 100.3,572.1 100.3,583.2 109.3,583.2 109.3,579.1 
		110.8,579.1 110.8,576.2 	"/>
	<text id="XMLID_1124_" transform="matrix(0.9276 0 0 1 662.6892 585.1084)" class="st3 st4">32</text>
	<text id="XMLID_1123_" transform="matrix(0.9276 0 0 1 -2.441406e-04 585.1084)" class="st3 st4">32</text>
	<polygon id="XMLID_1122_" class="st1" points="652.8,577.7 659.1,583.2 659.1,572.2 652.8,577.7 	"/>
	<g id="XMLID_1118_">
		<rect id="XMLID_1121_" x="578.7" y="557.3" class="st2" width="9" height="11.1"/>
		<rect id="XMLID_1120_" x="578.7" y="586.9" class="st2" width="9" height="11.1"/>
		<polygon id="XMLID_1119_" class="st2" points="578.7,576.2 578.7,572.1 587.7,572.1 587.7,583.2 578.7,583.2 578.7,579.1 
			577.2,579.1 577.2,576.2 		"/>
	</g>
	<polygon id="XMLID_1117_" class="st1" points="35.4,533.2 29.1,538.7 29.1,527.7 35.4,533.2 	"/>
	<rect id="XMLID_1116_" x="100.3" y="512.8" class="st2" width="9" height="11.1"/>
	<rect id="XMLID_1115_" x="100.3" y="542.5" class="st2" width="9" height="11.1"/>
	<polygon id="XMLID_1114_" class="st2" points="109.3,531.8 109.3,527.7 100.3,527.7 100.3,538.8 109.3,538.8 109.3,534.7 
		110.8,534.7 110.8,531.8 	"/>
	<text id="XMLID_1113_" transform="matrix(0.9276 0 0 1 662.6892 540.6584)" class="st3 st4">33</text>
	<text id="XMLID_1112_" transform="matrix(0.9276 0 0 1 -2.441406e-04 540.6584)" class="st3 st4">33</text>
	<polygon id="XMLID_1111_" class="st1" points="652.8,533.2 659.1,538.7 659.1,527.7 652.8,533.2 	"/>
	<g id="XMLID_1107_">
		<rect id="XMLID_1110_" x="578.7" y="512.8" class="st2" width="9" height="11.1"/>
		<rect id="XMLID_1109_" x="578.7" y="542.5" class="st2" width="9" height="11.1"/>
		<polygon id="XMLID_1108_" class="st2" points="578.7,531.8 578.7,527.7 587.7,527.7 587.7,538.8 578.7,538.8 578.7,534.7 
			577.2,534.7 577.2,531.8 		"/>
	</g>
	<polygon id="XMLID_1106_" class="st1" points="35.4,488.8 29.1,494.3 29.1,483.3 35.4,488.8 	"/>
	<rect id="XMLID_1105_" x="100.3" y="468.4" class="st2" width="9" height="11.1"/>
	<rect id="XMLID_1104_" x="100.3" y="498" class="st2" width="9" height="11.1"/>
	<polygon id="XMLID_1103_" class="st2" points="109.3,487.3 109.3,483.2 100.3,483.2 100.3,494.3 109.3,494.3 109.3,490.2 
		110.8,490.2 110.8,487.3 	"/>
	<text id="XMLID_1102_" transform="matrix(0.9276 0 0 1 662.6892 496.2085)" class="st3 st4">34</text>
	<text id="XMLID_1101_" transform="matrix(0.9276 0 0 1 -2.441406e-04 496.2085)" class="st3 st4">34</text>
	<polygon id="XMLID_1100_" class="st1" points="652.8,488.8 659.1,494.3 659.1,483.3 652.8,488.8 	"/>
	<g id="XMLID_1096_">
		<rect id="XMLID_1099_" x="578.7" y="468.4" class="st2" width="9" height="11.1"/>
		<rect id="XMLID_1098_" x="578.7" y="498" class="st2" width="9" height="11.1"/>
		<polygon id="XMLID_1097_" class="st2" points="578.7,487.3 578.7,483.2 587.7,483.2 587.7,494.3 578.7,494.3 578.7,490.2 
			577.2,490.2 577.2,487.3 		"/>
	</g>
	<polygon id="XMLID_1095_" class="st1" points="35.4,444.3 29.1,449.8 29.1,438.8 35.4,444.3 	"/>
	<rect id="XMLID_1094_" x="100.3" y="423.9" class="st2" width="9" height="11.1"/>
	<rect id="XMLID_1093_" x="100.3" y="453.6" class="st2" width="9" height="11.1"/>
	<polygon id="XMLID_1092_" class="st2" points="109.3,442.9 109.3,438.8 100.3,438.8 100.3,449.9 109.3,449.9 109.3,445.8 
		110.8,445.8 110.8,442.9 	"/>
	<text id="XMLID_1091_" transform="matrix(0.9276 0 0 1 662.6892 451.7585)" class="st3 st4">35</text>
	<text id="XMLID_1090_" transform="matrix(0.9276 0 0 1 -2.441406e-04 451.7585)" class="st3 st4">35</text>
	<polygon id="XMLID_1089_" class="st1" points="652.8,444.3 659.1,449.8 659.1,438.8 652.8,444.3 	"/>
	<g id="XMLID_1085_">
		<rect id="XMLID_1088_" x="578.7" y="423.9" class="st2" width="9" height="11.1"/>
		<rect id="XMLID_1087_" x="578.7" y="453.6" class="st2" width="9" height="11.1"/>
		<polygon id="XMLID_1086_" class="st2" points="578.7,442.9 578.7,438.8 587.7,438.8 587.7,449.9 578.7,449.9 578.7,445.8 
			577.2,445.8 577.2,442.9 		"/>
	</g>
	<polygon id="XMLID_1084_" class="st1" points="35.4,399.9 29.1,405.4 29.1,394.4 35.4,399.9 	"/>
	<rect id="XMLID_1083_" x="100.3" y="379.5" class="st2" width="9" height="11.1"/>
	<rect id="XMLID_1082_" x="100.3" y="409.1" class="st2" width="9" height="11.1"/>
	<polygon id="XMLID_1081_" class="st2" points="109.3,398.4 109.3,394.3 100.3,394.3 100.3,405.4 109.3,405.4 109.3,401.3 
		110.8,401.3 110.8,398.4 	"/>
	<text id="XMLID_1080_" transform="matrix(0.9276 0 0 1 662.6892 407.3086)" class="st3 st4">36</text>
	<text id="XMLID_1079_" transform="matrix(0.9276 0 0 1 -2.441406e-04 407.3086)" class="st3 st4">36</text>
	<polygon id="XMLID_1078_" class="st1" points="652.8,399.9 659.1,405.4 659.1,394.4 652.8,399.9 	"/>
	<g id="XMLID_1074_">
		<rect id="XMLID_1077_" x="578.7" y="379.5" class="st2" width="9" height="11.1"/>
		<rect id="XMLID_1076_" x="578.7" y="409.1" class="st2" width="9" height="11.1"/>
		<polygon id="XMLID_1075_" class="st2" points="578.7,398.4 578.7,394.3 587.7,394.3 587.7,405.4 578.7,405.4 578.7,401.3 
			577.2,401.3 577.2,398.4 		"/>
	</g>
	<polygon id="XMLID_1073_" class="st1" points="35.4,355.4 29.1,360.9 29.1,349.9 35.4,355.4 	"/>
	<rect id="XMLID_1072_" x="100.3" y="335" class="st2" width="9" height="11.1"/>
	<rect id="XMLID_1071_" x="100.3" y="364.7" class="st2" width="9" height="11.1"/>
	<polygon id="XMLID_1070_" class="st2" points="109.3,354 109.3,349.9 100.3,349.9 100.3,361 109.3,361 109.3,356.9 110.8,356.9 
		110.8,354 	"/>
	<text id="XMLID_1069_" transform="matrix(0.9276 0 0 1 662.6892 362.8586)" class="st3 st4">37</text>
	<text id="XMLID_1068_" transform="matrix(0.9276 0 0 1 -2.441406e-04 362.8586)" class="st3 st4">37</text>
	<polygon id="XMLID_1067_" class="st1" points="652.8,355.4 659.1,360.9 659.1,349.9 652.8,355.4 	"/>
	<g id="XMLID_1063_">
		<rect id="XMLID_1066_" x="578.7" y="335" class="st2" width="9" height="11.1"/>
		<rect id="XMLID_1065_" x="578.7" y="364.7" class="st2" width="9" height="11.1"/>
		<polygon id="XMLID_1064_" class="st2" points="578.7,354 578.7,349.9 587.7,349.9 587.7,361 578.7,361 578.7,356.9 577.2,356.9 
			577.2,354 		"/>
	</g>
	<polygon id="XMLID_1062_" class="st1" points="35.4,311 29.1,316.5 29.1,305.5 35.4,311 	"/>
	<rect id="XMLID_1061_" x="100.3" y="290.6" class="st2" width="9" height="11.1"/>
	<rect id="XMLID_1060_" x="100.3" y="320.2" class="st2" width="9" height="11.1"/>
	<polygon id="XMLID_1059_" class="st2" points="109.3,309.5 109.3,305.4 100.3,305.4 100.3,316.5 109.3,316.5 109.3,312.4 
		110.8,312.4 110.8,309.5 	"/>
	<text id="XMLID_1058_" transform="matrix(0.9276 0 0 1 662.6892 318.4087)" class="st3 st4">38</text>
	<text id="XMLID_1057_" transform="matrix(0.9276 0 0 1 -2.441406e-04 318.4087)" class="st3 st4">38</text>
	<polygon id="XMLID_1056_" class="st1" points="652.8,311 659.1,316.5 659.1,305.5 652.8,311 	"/>
	<g id="XMLID_1052_">
		<rect id="XMLID_1055_" x="578.7" y="290.6" class="st2" width="9" height="11.1"/>
		<rect id="XMLID_1054_" x="578.7" y="320.2" class="st2" width="9" height="11.1"/>
		<polygon id="XMLID_1053_" class="st2" points="578.7,309.5 578.7,305.4 587.7,305.4 587.7,316.5 578.7,316.5 578.7,312.4 
			577.2,312.4 577.2,309.5 		"/>
	</g>
	<polygon id="XMLID_1051_" class="st1" points="35.4,266.5 29.1,272 29.1,261 35.4,266.5 	"/>
	<rect id="XMLID_1050_" x="100.3" y="246.1" class="st2" width="9" height="11.1"/>
	<rect id="XMLID_1049_" x="100.3" y="275.8" class="st2" width="9" height="11.1"/>
	<polygon id="XMLID_1048_" class="st2" points="109.3,265.1 109.3,261 100.3,261 100.3,272.1 109.3,272.1 109.3,268 110.8,268 
		110.8,265.1 	"/>
	<text id="XMLID_1047_" transform="matrix(0.9276 0 0 1 662.6892 273.9587)" class="st3 st4">39</text>
	<text id="XMLID_1046_" transform="matrix(0.9276 0 0 1 -2.441406e-04 273.9587)" class="st3 st4">39</text>
	<polygon id="XMLID_1045_" class="st1" points="652.8,266.5 659.1,272 659.1,261 652.8,266.5 	"/>
	<g id="XMLID_1041_">
		<rect id="XMLID_1044_" x="578.7" y="246.1" class="st2" width="9" height="11.1"/>
		<rect id="XMLID_1043_" x="578.7" y="275.8" class="st2" width="9" height="11.1"/>
		<polygon id="XMLID_1042_" class="st2" points="578.7,265.1 578.7,261 587.7,261 587.7,272.1 578.7,272.1 578.7,268 577.2,268 
			577.2,265.1 		"/>
	</g>
	<polygon id="XMLID_1040_" class="st1" points="35.4,222.1 29.1,227.6 29.1,216.6 35.4,222.1 	"/>
	<rect id="XMLID_1039_" x="100.3" y="201.7" class="st2" width="9" height="11.1"/>
	<rect id="XMLID_1038_" x="100.3" y="231.3" class="st2" width="9" height="11.1"/>
	<polygon id="XMLID_1037_" class="st2" points="109.3,220.6 109.3,216.5 100.3,216.5 100.3,227.6 109.3,227.6 109.3,223.5 
		110.8,223.5 110.8,220.6 	"/>
	<text id="XMLID_1036_" transform="matrix(0.9276 0 0 1 662.6892 229.5088)" class="st3 st4">40</text>
	<text id="XMLID_1035_" transform="matrix(0.9276 0 0 1 -2.441406e-04 229.5088)" class="st3 st4">40</text>
	<polygon id="XMLID_1034_" class="st1" points="652.8,222.1 659.1,227.6 659.1,216.6 652.8,222.1 	"/>
	<g id="XMLID_1030_">
		<rect id="XMLID_1033_" x="578.7" y="201.7" class="st2" width="9" height="11.1"/>
		<rect id="XMLID_1032_" x="578.7" y="231.3" class="st2" width="9" height="11.1"/>
		<polygon id="XMLID_1031_" class="st2" points="578.7,220.6 578.7,216.5 587.7,216.5 587.7,227.6 578.7,227.6 578.7,223.5 
			577.2,223.5 577.2,220.6 		"/>
	</g>
	<polygon id="XMLID_1029_" class="st1" points="35.4,177.6 29.1,183.1 29.1,172.1 35.4,177.6 	"/>
	<rect id="XMLID_1028_" x="100.3" y="157.2" class="st2" width="9" height="11.1"/>
	<rect id="XMLID_1027_" x="100.3" y="186.9" class="st2" width="9" height="11.1"/>
	<polygon id="XMLID_1026_" class="st2" points="109.3,176.2 109.3,172.1 100.3,172.1 100.3,183.2 109.3,183.2 109.3,179.1 
		110.8,179.1 110.8,176.2 	"/>
	<text id="XMLID_1025_" transform="matrix(0.9276 0 0 1 662.6892 185.0588)" class="st3 st4">41</text>
	<text id="XMLID_1024_" transform="matrix(0.9276 0 0 1 -2.441406e-04 185.0588)" class="st3 st4">41</text>
	<polygon id="XMLID_1023_" class="st1" points="652.8,177.6 659.1,183.1 659.1,172.1 652.8,177.6 	"/>
	<g id="XMLID_1019_">
		<rect id="XMLID_1022_" x="578.7" y="157.2" class="st2" width="9" height="11.1"/>
		<rect id="XMLID_1021_" x="578.7" y="186.9" class="st2" width="9" height="11.1"/>
		<polygon id="XMLID_1020_" class="st2" points="578.7,176.2 578.7,172.1 587.7,172.1 587.7,183.2 578.7,183.2 578.7,179.1 
			577.2,179.1 577.2,176.2 		"/>
	</g>
	<polygon id="XMLID_1018_" class="st1" points="35.4,133.2 29.1,138.7 29.1,127.7 35.4,133.2 	"/>
	<rect id="XMLID_1017_" x="100.3" y="112.8" class="st2" width="9" height="11.1"/>
	<rect id="XMLID_1016_" x="100.3" y="142.4" class="st2" width="9" height="11.1"/>
	<polygon id="XMLID_1015_" class="st2" points="109.3,131.7 109.3,127.6 100.3,127.6 100.3,138.7 109.3,138.7 109.3,134.6 
		110.8,134.6 110.8,131.7 	"/>
	<text id="XMLID_1014_" transform="matrix(0.9276 0 0 1 662.6892 140.6089)" class="st3 st4">42</text>
	<text id="XMLID_1013_" transform="matrix(0.9276 0 0 1 -2.441406e-04 140.6089)" class="st3 st4">42</text>
	<polygon id="XMLID_1012_" class="st1" points="652.8,133.2 659.1,138.7 659.1,127.7 652.8,133.2 	"/>
	<g id="XMLID_1008_">
		<rect id="XMLID_1011_" x="578.7" y="112.8" class="st2" width="9" height="11.1"/>
		<rect id="XMLID_1010_" x="578.7" y="142.4" class="st2" width="9" height="11.1"/>
		<polygon id="XMLID_1009_" class="st2" points="578.7,131.7 578.7,127.6 587.7,127.6 587.7,138.7 578.7,138.7 578.7,134.6 
			577.2,134.6 577.2,131.7 		"/>
	</g>
	<polygon id="XMLID_1007_" class="st1" points="35.4,88.7 29.1,94.2 29.1,83.2 35.4,88.7 	"/>
	<rect id="XMLID_1006_" x="100.3" y="68.3" class="st2" width="9" height="11.1"/>
	<rect id="XMLID_1005_" x="100.3" y="98" class="st2" width="9" height="11.1"/>
	<polygon id="XMLID_1004_" class="st2" points="109.3,87.3 109.3,83.2 100.3,83.2 100.3,94.3 109.3,94.3 109.3,90.2 110.8,90.2 
		110.8,87.3 	"/>
	<text id="XMLID_1003_" transform="matrix(0.9276 0 0 1 662.6892 96.1589)" class="st3 st4">43</text>
	<text id="XMLID_1002_" transform="matrix(0.9276 0 0 1 -2.441406e-04 96.1589)" class="st3 st4">43</text>
	<polygon id="XMLID_1001_" class="st1" points="652.8,88.7 659.1,94.2 659.1,83.2 652.8,88.7 	"/>
	<g id="XMLID_997_">
		<rect id="XMLID_1000_" x="578.7" y="68.3" class="st2" width="9" height="11.1"/>
		<rect id="XMLID_999_" x="578.7" y="98" class="st2" width="9" height="11.1"/>
		<polygon id="XMLID_998_" class="st2" points="578.7,87.3 578.7,83.2 587.7,83.2 587.7,94.3 578.7,94.3 578.7,90.2 577.2,90.2 
			577.2,87.3 		"/>
	</g>
</g>
</svg>
