<?xml version="1.0" encoding="utf-8"?>
<!-- Generator: Adobe Illustrator 19.0.0, SVG Export Plug-In . SVG Version: 6.00 Build 0)  -->
<svg version="1.1" id="图层_1" xmlns="http://www.w3.org/2000/svg" xmlns:xlink="http://www.w3.org/1999/xlink" x="0px" y="0px"
	 width="689.6px" height="2088.8px" viewBox="0 0 689.6 2088.8" style="enable-background:new 0 0 689.6 2088.8;"
	 xml:space="preserve">
<style type="text/css">
	.st0{fill:url(#XMLID_2_);}
	.st1{fill:#211613;}
	.st2{stroke:#000000;stroke-width:0.7;stroke-miterlimit:10;}
	.st3{font-family:'MicrosoftYaHei';}
	.st4{font-size:24.6945px;}
</style>
<linearGradient id="XMLID_2_" gradientUnits="userSpaceOnUse" x1="-78.508" y1="1219.3656" x2="521.4919" y2="1219.3656" gradientTransform="matrix(1 0 0 -1 123.2847 2263.7656)">
	<stop  offset="0" style="stop-color:#808080"/>
	<stop  offset="8.950000e-02" style="stop-color:#3E3A39"/>
	<stop  offset="0.9181" style="stop-color:#3E3A39"/>
	<stop  offset="1" style="stop-color:#808080"/>
</linearGradient>
<path id="XMLID_4425_" class="st0" d="M44.8,0v2088.8h600V0H44.8z M569.8,2022.3h-450V66.5h450V2022.3z"/>
<g id="XMLID_1470_">
	<rect id="XMLID_1953_" x="100.3" y="1979.7" class="st1" width="9" height="11.1"/>
	<rect id="XMLID_1952_" x="100.3" y="2009.3" class="st1" width="9" height="11.1"/>
	<polygon id="XMLID_1951_" class="st1" points="109.3,1998.6 109.3,1994.5 100.3,1994.5 100.3,2005.6 109.3,2005.6 109.3,2001.5 
		110.8,2001.5 110.8,1998.6 	"/>
	<g id="XMLID_1944_">
		<rect id="XMLID_1947_" x="578.7" y="1979.7" class="st1" width="9" height="11.1"/>
		<rect id="XMLID_1946_" x="578.7" y="2009.3" class="st1" width="9" height="11.1"/>
		<polygon id="XMLID_1945_" class="st1" points="578.7,1998.6 578.7,1994.5 587.7,1994.5 587.7,2005.6 578.7,2005.6 578.7,2001.5 
			577.2,2001.5 577.2,1998.6 		"/>
	</g>
	<rect id="XMLID_1942_" x="100.3" y="1935.2" class="st1" width="9" height="11.1"/>
	<rect id="XMLID_1941_" x="100.3" y="1964.9" class="st1" width="9" height="11.1"/>
	<polygon id="XMLID_1940_" class="st1" points="109.3,1954.2 109.3,1950.1 100.3,1950.1 100.3,1961.2 109.3,1961.2 109.3,1957.1 
		110.8,1957.1 110.8,1954.2 	"/>
	<g id="XMLID_1933_">
		<rect id="XMLID_1936_" x="578.7" y="1935.2" class="st1" width="9" height="11.1"/>
		<rect id="XMLID_1935_" x="578.7" y="1964.9" class="st1" width="9" height="11.1"/>
		<polygon id="XMLID_1934_" class="st1" points="578.7,1954.2 578.7,1950.1 587.7,1950.1 587.7,1961.2 578.7,1961.2 578.7,1957.1 
			577.2,1957.1 577.2,1954.2 		"/>
	</g>
	<rect id="XMLID_1931_" x="100.3" y="1890.8" class="st1" width="9" height="11.1"/>
	<rect id="XMLID_1930_" x="100.3" y="1920.4" class="st1" width="9" height="11.1"/>
	<polygon id="XMLID_1929_" class="st1" points="109.3,1909.7 109.3,1905.6 100.3,1905.6 100.3,1916.7 109.3,1916.7 109.3,1912.6 
		110.8,1912.6 110.8,1909.7 	"/>
	<g id="XMLID_1922_">
		<rect id="XMLID_1925_" x="578.7" y="1890.8" class="st1" width="9" height="11.1"/>
		<rect id="XMLID_1924_" x="578.7" y="1920.4" class="st1" width="9" height="11.1"/>
		<polygon id="XMLID_1923_" class="st1" points="578.7,1909.7 578.7,1905.6 587.7,1905.6 587.7,1916.7 578.7,1916.7 578.7,1912.6 
			577.2,1912.6 577.2,1909.7 		"/>
	</g>
	<rect id="XMLID_1920_" x="100.3" y="1846.3" class="st1" width="9" height="11.1"/>
	<rect id="XMLID_1919_" x="100.3" y="1876" class="st1" width="9" height="11.1"/>
	<polygon id="XMLID_1918_" class="st1" points="109.3,1865.3 109.3,1861.2 100.3,1861.2 100.3,1872.3 109.3,1872.3 109.3,1868.2 
		110.8,1868.2 110.8,1865.3 	"/>
	<g id="XMLID_1911_">
		<rect id="XMLID_1914_" x="578.7" y="1846.3" class="st1" width="9" height="11.1"/>
		<rect id="XMLID_1913_" x="578.7" y="1876" class="st1" width="9" height="11.1"/>
		<polygon id="XMLID_1912_" class="st1" points="578.7,1865.3 578.7,1861.2 587.7,1861.2 587.7,1872.3 578.7,1872.3 578.7,1868.2 
			577.2,1868.2 577.2,1865.3 		"/>
	</g>
	<rect id="XMLID_1909_" x="100.3" y="1801.9" class="st1" width="9" height="11.1"/>
	<rect id="XMLID_1908_" x="100.3" y="1831.5" class="st1" width="9" height="11.1"/>
	<polygon id="XMLID_1907_" class="st1" points="109.3,1820.8 109.3,1816.7 100.3,1816.7 100.3,1827.8 109.3,1827.8 109.3,1823.7 
		110.8,1823.7 110.8,1820.8 	"/>
	<g id="XMLID_1900_">
		<rect id="XMLID_1903_" x="578.7" y="1801.9" class="st1" width="9" height="11.1"/>
		<rect id="XMLID_1902_" x="578.7" y="1831.5" class="st1" width="9" height="11.1"/>
		<polygon id="XMLID_1901_" class="st1" points="578.7,1820.8 578.7,1816.7 587.7,1816.7 587.7,1827.8 578.7,1827.8 578.7,1823.7 
			577.2,1823.7 577.2,1820.8 		"/>
	</g>
	<rect id="XMLID_1898_" x="100.3" y="1757.4" class="st1" width="9" height="11.1"/>
	<rect id="XMLID_1897_" x="100.3" y="1787.1" class="st1" width="9" height="11.1"/>
	<polygon id="XMLID_1896_" class="st1" points="109.3,1776.4 109.3,1772.3 100.3,1772.3 100.3,1783.4 109.3,1783.4 109.3,1779.3 
		110.8,1779.3 110.8,1776.4 	"/>
	<g id="XMLID_1889_">
		<rect id="XMLID_1892_" x="578.7" y="1757.4" class="st1" width="9" height="11.1"/>
		<rect id="XMLID_1891_" x="578.7" y="1787.1" class="st1" width="9" height="11.1"/>
		<polygon id="XMLID_1890_" class="st1" points="578.7,1776.4 578.7,1772.3 587.7,1772.3 587.7,1783.4 578.7,1783.4 578.7,1779.3 
			577.2,1779.3 577.2,1776.4 		"/>
	</g>
	<rect id="XMLID_1887_" x="100.3" y="1713" class="st1" width="9" height="11.1"/>
	<rect id="XMLID_1886_" x="100.3" y="1742.6" class="st1" width="9" height="11.1"/>
	<polygon id="XMLID_1885_" class="st1" points="109.3,1731.9 109.3,1727.8 100.3,1727.8 100.3,1738.9 109.3,1738.9 109.3,1734.8 
		110.8,1734.8 110.8,1731.9 	"/>
	<g id="XMLID_1878_">
		<rect id="XMLID_1881_" x="578.7" y="1713" class="st1" width="9" height="11.1"/>
		<rect id="XMLID_1880_" x="578.7" y="1742.6" class="st1" width="9" height="11.1"/>
		<polygon id="XMLID_1879_" class="st1" points="578.7,1731.9 578.7,1727.8 587.7,1727.8 587.7,1738.9 578.7,1738.9 578.7,1734.8 
			577.2,1734.8 577.2,1731.9 		"/>
	</g>
	<rect id="XMLID_1876_" x="100.3" y="1668.5" class="st1" width="9" height="11.1"/>
	<rect id="XMLID_1875_" x="100.3" y="1698.2" class="st1" width="9" height="11.1"/>
	<polygon id="XMLID_1874_" class="st1" points="109.3,1687.5 109.3,1683.4 100.3,1683.4 100.3,1694.5 109.3,1694.5 109.3,1690.4 
		110.8,1690.4 110.8,1687.5 	"/>
	<g id="XMLID_1867_">
		<rect id="XMLID_1870_" x="578.7" y="1668.5" class="st1" width="9" height="11.1"/>
		<rect id="XMLID_1869_" x="578.7" y="1698.2" class="st1" width="9" height="11.1"/>
		<polygon id="XMLID_1868_" class="st1" points="578.7,1687.5 578.7,1683.4 587.7,1683.4 587.7,1694.5 578.7,1694.5 578.7,1690.4 
			577.2,1690.4 577.2,1687.5 		"/>
	</g>
	<rect id="XMLID_1865_" x="100.3" y="1624.1" class="st1" width="9" height="11.1"/>
	<rect id="XMLID_1864_" x="100.3" y="1653.7" class="st1" width="9" height="11.1"/>
	<polygon id="XMLID_1863_" class="st1" points="109.3,1643 109.3,1638.9 100.3,1638.9 100.3,1650 109.3,1650 109.3,1645.9 
		110.8,1645.9 110.8,1643 	"/>
	<g id="XMLID_1856_">
		<rect id="XMLID_1859_" x="578.7" y="1624.1" class="st1" width="9" height="11.1"/>
		<rect id="XMLID_1858_" x="578.7" y="1653.7" class="st1" width="9" height="11.1"/>
		<polygon id="XMLID_1857_" class="st1" points="578.7,1643 578.7,1638.9 587.7,1638.9 587.7,1650 578.7,1650 578.7,1645.9 
			577.2,1645.9 577.2,1643 		"/>
	</g>
	<rect id="XMLID_1854_" x="100.3" y="1579.6" class="st1" width="9" height="11.1"/>
	<rect id="XMLID_1853_" x="100.3" y="1609.3" class="st1" width="9" height="11.1"/>
	<polygon id="XMLID_1852_" class="st1" points="109.3,1598.6 109.3,1594.5 100.3,1594.5 100.3,1605.6 109.3,1605.6 109.3,1601.5 
		110.8,1601.5 110.8,1598.6 	"/>
	<g id="XMLID_1845_">
		<rect id="XMLID_1848_" x="578.7" y="1579.6" class="st1" width="9" height="11.1"/>
		<rect id="XMLID_1847_" x="578.7" y="1609.3" class="st1" width="9" height="11.1"/>
		<polygon id="XMLID_1846_" class="st1" points="578.7,1598.6 578.7,1594.5 587.7,1594.5 587.7,1605.6 578.7,1605.6 578.7,1601.5 
			577.2,1601.5 577.2,1598.6 		"/>
	</g>
	<rect id="XMLID_1843_" x="100.3" y="1535.2" class="st1" width="9" height="11.1"/>
	<rect id="XMLID_1842_" x="100.3" y="1564.8" class="st1" width="9" height="11.1"/>
	<polygon id="XMLID_1841_" class="st1" points="109.3,1554.1 109.3,1550 100.3,1550 100.3,1561.1 109.3,1561.1 109.3,1557 
		110.8,1557 110.8,1554.1 	"/>
	<g id="XMLID_1834_">
		<rect id="XMLID_1837_" x="578.7" y="1535.2" class="st1" width="9" height="11.1"/>
		<rect id="XMLID_1836_" x="578.7" y="1564.8" class="st1" width="9" height="11.1"/>
		<polygon id="XMLID_1835_" class="st1" points="578.7,1554.1 578.7,1550 587.7,1550 587.7,1561.1 578.7,1561.1 578.7,1557 
			577.2,1557 577.2,1554.1 		"/>
	</g>
	<rect id="XMLID_1832_" x="100.3" y="1490.7" class="st1" width="9" height="11.1"/>
	<rect id="XMLID_1831_" x="100.3" y="1520.4" class="st1" width="9" height="11.1"/>
	<polygon id="XMLID_1830_" class="st1" points="109.3,1509.7 109.3,1505.6 100.3,1505.6 100.3,1516.7 109.3,1516.7 109.3,1512.6 
		110.8,1512.6 110.8,1509.7 	"/>
	<g id="XMLID_1823_">
		<rect id="XMLID_1826_" x="578.7" y="1490.7" class="st1" width="9" height="11.1"/>
		<rect id="XMLID_1825_" x="578.7" y="1520.4" class="st1" width="9" height="11.1"/>
		<polygon id="XMLID_1824_" class="st1" points="578.7,1509.7 578.7,1505.6 587.7,1505.6 587.7,1516.7 578.7,1516.7 578.7,1512.6 
			577.2,1512.6 577.2,1509.7 		"/>
	</g>
	<rect id="XMLID_1821_" x="100.3" y="1446.3" class="st1" width="9" height="11.1"/>
	<rect id="XMLID_1820_" x="100.3" y="1475.9" class="st1" width="9" height="11.1"/>
	<polygon id="XMLID_1819_" class="st1" points="109.3,1465.2 109.3,1461.1 100.3,1461.1 100.3,1472.2 109.3,1472.2 109.3,1468.1 
		110.8,1468.1 110.8,1465.2 	"/>
	<g id="XMLID_1812_">
		<rect id="XMLID_1815_" x="578.7" y="1446.3" class="st1" width="9" height="11.1"/>
		<rect id="XMLID_1814_" x="578.7" y="1475.9" class="st1" width="9" height="11.1"/>
		<polygon id="XMLID_1813_" class="st1" points="578.7,1465.2 578.7,1461.1 587.7,1461.1 587.7,1472.2 578.7,1472.2 578.7,1468.1 
			577.2,1468.1 577.2,1465.2 		"/>
	</g>
	<rect id="XMLID_1810_" x="100.3" y="1401.8" class="st1" width="9" height="11.1"/>
	<rect id="XMLID_1809_" x="100.3" y="1431.5" class="st1" width="9" height="11.1"/>
	<polygon id="XMLID_1808_" class="st1" points="109.3,1420.8 109.3,1416.7 100.3,1416.7 100.3,1427.8 109.3,1427.8 109.3,1423.7 
		110.8,1423.7 110.8,1420.8 	"/>
	<g id="XMLID_1801_">
		<rect id="XMLID_1804_" x="578.7" y="1401.8" class="st1" width="9" height="11.1"/>
		<rect id="XMLID_1803_" x="578.7" y="1431.5" class="st1" width="9" height="11.1"/>
		<polygon id="XMLID_1802_" class="st1" points="578.7,1420.8 578.7,1416.7 587.7,1416.7 587.7,1427.8 578.7,1427.8 578.7,1423.7 
			577.2,1423.7 577.2,1420.8 		"/>
	</g>
	<rect id="XMLID_1799_" x="100.3" y="1357.4" class="st1" width="9" height="11.1"/>
	<rect id="XMLID_1798_" x="100.3" y="1387" class="st1" width="9" height="11.1"/>
	<polygon id="XMLID_1797_" class="st1" points="109.3,1376.3 109.3,1372.2 100.3,1372.2 100.3,1383.3 109.3,1383.3 109.3,1379.2 
		110.8,1379.2 110.8,1376.3 	"/>
	<g id="XMLID_1790_">
		<rect id="XMLID_1793_" x="578.7" y="1357.4" class="st1" width="9" height="11.1"/>
		<rect id="XMLID_1792_" x="578.7" y="1387" class="st1" width="9" height="11.1"/>
		<polygon id="XMLID_1791_" class="st1" points="578.7,1376.3 578.7,1372.2 587.7,1372.2 587.7,1383.3 578.7,1383.3 578.7,1379.2 
			577.2,1379.2 577.2,1376.3 		"/>
	</g>
	<rect id="XMLID_1788_" x="100.3" y="1312.9" class="st1" width="9" height="11.1"/>
	<rect id="XMLID_1787_" x="100.3" y="1342.6" class="st1" width="9" height="11.1"/>
	<polygon id="XMLID_1786_" class="st1" points="109.3,1331.9 109.3,1327.8 100.3,1327.8 100.3,1338.9 109.3,1338.9 109.3,1334.8 
		110.8,1334.8 110.8,1331.9 	"/>
	<g id="XMLID_1779_">
		<rect id="XMLID_1782_" x="578.7" y="1312.9" class="st1" width="9" height="11.1"/>
		<rect id="XMLID_1781_" x="578.7" y="1342.6" class="st1" width="9" height="11.1"/>
		<polygon id="XMLID_1780_" class="st1" points="578.7,1331.9 578.7,1327.8 587.7,1327.8 587.7,1338.9 578.7,1338.9 578.7,1334.8 
			577.2,1334.8 577.2,1331.9 		"/>
	</g>
	<rect id="XMLID_1777_" x="100.3" y="1268.5" class="st1" width="9" height="11.1"/>
	<rect id="XMLID_1776_" x="100.3" y="1298.1" class="st1" width="9" height="11.1"/>
	<polygon id="XMLID_1775_" class="st1" points="109.3,1287.4 109.3,1283.3 100.3,1283.3 100.3,1294.4 109.3,1294.4 109.3,1290.3 
		110.8,1290.3 110.8,1287.4 	"/>
	<g id="XMLID_1768_">
		<rect id="XMLID_1771_" x="578.7" y="1268.5" class="st1" width="9" height="11.1"/>
		<rect id="XMLID_1770_" x="578.7" y="1298.1" class="st1" width="9" height="11.1"/>
		<polygon id="XMLID_1769_" class="st1" points="578.7,1287.4 578.7,1283.3 587.7,1283.3 587.7,1294.4 578.7,1294.4 578.7,1290.3 
			577.2,1290.3 577.2,1287.4 		"/>
	</g>
	<rect id="XMLID_1766_" x="100.3" y="1224" class="st1" width="9" height="11.1"/>
	<rect id="XMLID_1765_" x="100.3" y="1253.7" class="st1" width="9" height="11.1"/>
	<polygon id="XMLID_1764_" class="st1" points="109.3,1243 109.3,1238.9 100.3,1238.9 100.3,1250 109.3,1250 109.3,1245.9 
		110.8,1245.9 110.8,1243 	"/>
	<g id="XMLID_1757_">
		<rect id="XMLID_1760_" x="578.7" y="1224" class="st1" width="9" height="11.1"/>
		<rect id="XMLID_1759_" x="578.7" y="1253.7" class="st1" width="9" height="11.1"/>
		<polygon id="XMLID_1758_" class="st1" points="578.7,1243 578.7,1238.9 587.7,1238.9 587.7,1250 578.7,1250 578.7,1245.9 
			577.2,1245.9 577.2,1243 		"/>
	</g>
	<rect id="XMLID_1755_" x="100.3" y="1179.6" class="st1" width="9" height="11.1"/>
	<rect id="XMLID_1754_" x="100.3" y="1209.2" class="st1" width="9" height="11.1"/>
	<polygon id="XMLID_1753_" class="st1" points="109.3,1198.5 109.3,1194.4 100.3,1194.4 100.3,1205.5 109.3,1205.5 109.3,1201.4 
		110.8,1201.4 110.8,1198.5 	"/>
	<g id="XMLID_1746_">
		<rect id="XMLID_1749_" x="578.7" y="1179.6" class="st1" width="9" height="11.1"/>
		<rect id="XMLID_1748_" x="578.7" y="1209.2" class="st1" width="9" height="11.1"/>
		<polygon id="XMLID_1747_" class="st1" points="578.7,1198.5 578.7,1194.4 587.7,1194.4 587.7,1205.5 578.7,1205.5 578.7,1201.4 
			577.2,1201.4 577.2,1198.5 		"/>
	</g>
	<rect id="XMLID_1744_" x="100.3" y="1135.1" class="st1" width="9" height="11.1"/>
	<rect id="XMLID_1743_" x="100.3" y="1164.8" class="st1" width="9" height="11.1"/>
	<polygon id="XMLID_1742_" class="st1" points="109.3,1154.1 109.3,1150 100.3,1150 100.3,1161.1 109.3,1161.1 109.3,1157 
		110.8,1157 110.8,1154.1 	"/>
	<g id="XMLID_1735_">
		<rect id="XMLID_1738_" x="578.7" y="1135.1" class="st1" width="9" height="11.1"/>
		<rect id="XMLID_1737_" x="578.7" y="1164.8" class="st1" width="9" height="11.1"/>
		<polygon id="XMLID_1736_" class="st1" points="578.7,1154.1 578.7,1150 587.7,1150 587.7,1161.1 578.7,1161.1 578.7,1157 
			577.2,1157 577.2,1154.1 		"/>
	</g>
	<rect id="XMLID_1733_" x="100.3" y="1090.7" class="st1" width="9" height="11.1"/>
	<rect id="XMLID_1732_" x="100.3" y="1120.3" class="st1" width="9" height="11.1"/>
	<polygon id="XMLID_1731_" class="st1" points="109.3,1109.6 109.3,1105.5 100.3,1105.5 100.3,1116.6 109.3,1116.6 109.3,1112.5 
		110.8,1112.5 110.8,1109.6 	"/>
	<g id="XMLID_1724_">
		<rect id="XMLID_1727_" x="578.7" y="1090.7" class="st1" width="9" height="11.1"/>
		<rect id="XMLID_1726_" x="578.7" y="1120.3" class="st1" width="9" height="11.1"/>
		<polygon id="XMLID_1725_" class="st1" points="578.7,1109.6 578.7,1105.5 587.7,1105.5 587.7,1116.6 578.7,1116.6 578.7,1112.5 
			577.2,1112.5 577.2,1109.6 		"/>
	</g>
	<rect id="XMLID_1722_" x="100.3" y="1046.2" class="st1" width="9" height="11.1"/>
	<rect id="XMLID_1721_" x="100.3" y="1075.9" class="st1" width="9" height="11.1"/>
	<polygon id="XMLID_1720_" class="st1" points="109.3,1065.2 109.3,1061.1 100.3,1061.1 100.3,1072.2 109.3,1072.2 109.3,1068.1 
		110.8,1068.1 110.8,1065.2 	"/>
	<g id="XMLID_1713_">
		<rect id="XMLID_1716_" x="578.7" y="1046.2" class="st1" width="9" height="11.1"/>
		<rect id="XMLID_1715_" x="578.7" y="1075.9" class="st1" width="9" height="11.1"/>
		<polygon id="XMLID_1714_" class="st1" points="578.7,1065.2 578.7,1061.1 587.7,1061.1 587.7,1072.2 578.7,1072.2 578.7,1068.1 
			577.2,1068.1 577.2,1065.2 		"/>
	</g>
	<rect id="XMLID_1711_" x="100.3" y="1001.8" class="st1" width="9" height="11.1"/>
	<rect id="XMLID_1710_" x="100.3" y="1031.4" class="st1" width="9" height="11.1"/>
	<polygon id="XMLID_1709_" class="st1" points="109.3,1020.7 109.3,1016.6 100.3,1016.6 100.3,1027.7 109.3,1027.7 109.3,1023.6 
		110.8,1023.6 110.8,1020.7 	"/>
	<g id="XMLID_1702_">
		<rect id="XMLID_1705_" x="578.7" y="1001.8" class="st1" width="9" height="11.1"/>
		<rect id="XMLID_1704_" x="578.7" y="1031.4" class="st1" width="9" height="11.1"/>
		<polygon id="XMLID_1703_" class="st1" points="578.7,1020.7 578.7,1016.6 587.7,1016.6 587.7,1027.7 578.7,1027.7 578.7,1023.6 
			577.2,1023.6 577.2,1020.7 		"/>
	</g>
	<rect id="XMLID_1700_" x="100.3" y="957.3" class="st1" width="9" height="11.1"/>
	<rect id="XMLID_1699_" x="100.3" y="987" class="st1" width="9" height="11.1"/>
	<polygon id="XMLID_1698_" class="st1" points="109.3,976.3 109.3,972.2 100.3,972.2 100.3,983.3 109.3,983.3 109.3,979.2 
		110.8,979.2 110.8,976.3 	"/>
	<g id="XMLID_1691_">
		<rect id="XMLID_1694_" x="578.7" y="957.3" class="st1" width="9" height="11.1"/>
		<rect id="XMLID_1693_" x="578.7" y="987" class="st1" width="9" height="11.1"/>
		<polygon id="XMLID_1692_" class="st1" points="578.7,976.3 578.7,972.2 587.7,972.2 587.7,983.3 578.7,983.3 578.7,979.2 
			577.2,979.2 577.2,976.3 		"/>
	</g>
	<rect id="XMLID_1689_" x="100.3" y="912.9" class="st1" width="9" height="11.1"/>
	<rect id="XMLID_1688_" x="100.3" y="942.5" class="st1" width="9" height="11.1"/>
	<polygon id="XMLID_1687_" class="st1" points="109.3,931.8 109.3,927.7 100.3,927.7 100.3,938.8 109.3,938.8 109.3,934.7 
		110.8,934.7 110.8,931.8 	"/>
	<g id="XMLID_1680_">
		<rect id="XMLID_1683_" x="578.7" y="912.9" class="st1" width="9" height="11.1"/>
		<rect id="XMLID_1682_" x="578.7" y="942.5" class="st1" width="9" height="11.1"/>
		<polygon id="XMLID_1681_" class="st1" points="578.7,931.8 578.7,927.7 587.7,927.7 587.7,938.8 578.7,938.8 578.7,934.7 
			577.2,934.7 577.2,931.8 		"/>
	</g>
	<rect id="XMLID_1678_" x="100.3" y="868.4" class="st1" width="9" height="11.1"/>
	<rect id="XMLID_1677_" x="100.3" y="898.1" class="st1" width="9" height="11.1"/>
	<polygon id="XMLID_1676_" class="st1" points="109.3,887.4 109.3,883.3 100.3,883.3 100.3,894.4 109.3,894.4 109.3,890.3 
		110.8,890.3 110.8,887.4 	"/>
	<g id="XMLID_1669_">
		<rect id="XMLID_1672_" x="578.7" y="868.4" class="st1" width="9" height="11.1"/>
		<rect id="XMLID_1671_" x="578.7" y="898.1" class="st1" width="9" height="11.1"/>
		<polygon id="XMLID_1670_" class="st1" points="578.7,887.4 578.7,883.3 587.7,883.3 587.7,894.4 578.7,894.4 578.7,890.3 
			577.2,890.3 577.2,887.4 		"/>
	</g>
	<rect id="XMLID_1667_" x="100.3" y="824" class="st1" width="9" height="11.1"/>
	<rect id="XMLID_1666_" x="100.3" y="853.6" class="st1" width="9" height="11.1"/>
	<polygon id="XMLID_1665_" class="st1" points="109.3,842.9 109.3,838.8 100.3,838.8 100.3,849.9 109.3,849.9 109.3,845.8 
		110.8,845.8 110.8,842.9 	"/>
	<g id="XMLID_1658_">
		<rect id="XMLID_1661_" x="578.7" y="824" class="st1" width="9" height="11.1"/>
		<rect id="XMLID_1660_" x="578.7" y="853.6" class="st1" width="9" height="11.1"/>
		<polygon id="XMLID_1659_" class="st1" points="578.7,842.9 578.7,838.8 587.7,838.8 587.7,849.9 578.7,849.9 578.7,845.8 
			577.2,845.8 577.2,842.9 		"/>
	</g>
	<rect id="XMLID_1656_" x="100.3" y="779.5" class="st1" width="9" height="11.1"/>
	<rect id="XMLID_1655_" x="100.3" y="809.2" class="st1" width="9" height="11.1"/>
	<polygon id="XMLID_1654_" class="st1" points="109.3,798.5 109.3,794.4 100.3,794.4 100.3,805.5 109.3,805.5 109.3,801.4 
		110.8,801.4 110.8,798.5 	"/>
	<g id="XMLID_1647_">
		<rect id="XMLID_1650_" x="578.7" y="779.5" class="st1" width="9" height="11.1"/>
		<rect id="XMLID_1649_" x="578.7" y="809.2" class="st1" width="9" height="11.1"/>
		<polygon id="XMLID_1648_" class="st1" points="578.7,798.5 578.7,794.4 587.7,794.4 587.7,805.5 578.7,805.5 578.7,801.4 
			577.2,801.4 577.2,798.5 		"/>
	</g>
	<rect id="XMLID_1645_" x="100.3" y="735.1" class="st1" width="9" height="11.1"/>
	<rect id="XMLID_1644_" x="100.3" y="764.7" class="st1" width="9" height="11.1"/>
	<polygon id="XMLID_1643_" class="st1" points="109.3,754 109.3,749.9 100.3,749.9 100.3,761 109.3,761 109.3,756.9 110.8,756.9 
		110.8,754 	"/>
	<g id="XMLID_1636_">
		<rect id="XMLID_1639_" x="578.7" y="735.1" class="st1" width="9" height="11.1"/>
		<rect id="XMLID_1638_" x="578.7" y="764.7" class="st1" width="9" height="11.1"/>
		<polygon id="XMLID_1637_" class="st1" points="578.7,754 578.7,749.9 587.7,749.9 587.7,761 578.7,761 578.7,756.9 577.2,756.9 
			577.2,754 		"/>
	</g>
	<rect id="XMLID_1634_" x="100.3" y="690.6" class="st1" width="9" height="11.1"/>
	<rect id="XMLID_1633_" x="100.3" y="720.3" class="st1" width="9" height="11.1"/>
	<polygon id="XMLID_1632_" class="st1" points="109.3,709.6 109.3,705.5 100.3,705.5 100.3,716.6 109.3,716.6 109.3,712.5 
		110.8,712.5 110.8,709.6 	"/>
	<g id="XMLID_1625_">
		<rect id="XMLID_1628_" x="578.7" y="690.6" class="st1" width="9" height="11.1"/>
		<rect id="XMLID_1627_" x="578.7" y="720.3" class="st1" width="9" height="11.1"/>
		<polygon id="XMLID_1626_" class="st1" points="578.7,709.6 578.7,705.5 587.7,705.5 587.7,716.6 578.7,716.6 578.7,712.5 
			577.2,712.5 577.2,709.6 		"/>
	</g>
	<rect id="XMLID_1623_" x="100.3" y="646.2" class="st1" width="9" height="11.1"/>
	<rect id="XMLID_1622_" x="100.3" y="675.8" class="st1" width="9" height="11.1"/>
	<polygon id="XMLID_1621_" class="st1" points="109.3,665.1 109.3,661 100.3,661 100.3,672.1 109.3,672.1 109.3,668 110.8,668 
		110.8,665.1 	"/>
	<g id="XMLID_1614_">
		<rect id="XMLID_1617_" x="578.7" y="646.2" class="st1" width="9" height="11.1"/>
		<rect id="XMLID_1616_" x="578.7" y="675.8" class="st1" width="9" height="11.1"/>
		<polygon id="XMLID_1615_" class="st1" points="578.7,665.1 578.7,661 587.7,661 587.7,672.1 578.7,672.1 578.7,668 577.2,668 
			577.2,665.1 		"/>
	</g>
	<rect id="XMLID_1612_" x="100.3" y="601.7" class="st1" width="9" height="11.1"/>
	<rect id="XMLID_1611_" x="100.3" y="631.4" class="st1" width="9" height="11.1"/>
	<polygon id="XMLID_1610_" class="st1" points="109.3,620.7 109.3,616.6 100.3,616.6 100.3,627.7 109.3,627.7 109.3,623.6 
		110.8,623.6 110.8,620.7 	"/>
	<g id="XMLID_1603_">
		<rect id="XMLID_1606_" x="578.7" y="601.7" class="st1" width="9" height="11.1"/>
		<rect id="XMLID_1605_" x="578.7" y="631.4" class="st1" width="9" height="11.1"/>
		<polygon id="XMLID_1604_" class="st1" points="578.7,620.7 578.7,616.6 587.7,616.6 587.7,627.7 578.7,627.7 578.7,623.6 
			577.2,623.6 577.2,620.7 		"/>
	</g>
	<rect id="XMLID_1601_" x="100.3" y="557.3" class="st1" width="9" height="11.1"/>
	<rect id="XMLID_1600_" x="100.3" y="586.9" class="st1" width="9" height="11.1"/>
	<polygon id="XMLID_1599_" class="st1" points="109.3,576.2 109.3,572.1 100.3,572.1 100.3,583.2 109.3,583.2 109.3,579.1 
		110.8,579.1 110.8,576.2 	"/>
	<g id="XMLID_1592_">
		<rect id="XMLID_1595_" x="578.7" y="557.3" class="st1" width="9" height="11.1"/>
		<rect id="XMLID_1594_" x="578.7" y="586.9" class="st1" width="9" height="11.1"/>
		<polygon id="XMLID_1593_" class="st1" points="578.7,576.2 578.7,572.1 587.7,572.1 587.7,583.2 578.7,583.2 578.7,579.1 
			577.2,579.1 577.2,576.2 		"/>
	</g>
	<rect id="XMLID_1590_" x="100.3" y="512.8" class="st1" width="9" height="11.1"/>
	<rect id="XMLID_1589_" x="100.3" y="542.5" class="st1" width="9" height="11.1"/>
	<polygon id="XMLID_1588_" class="st1" points="109.3,531.8 109.3,527.7 100.3,527.7 100.3,538.8 109.3,538.8 109.3,534.7 
		110.8,534.7 110.8,531.8 	"/>
	<g id="XMLID_1581_">
		<rect id="XMLID_1584_" x="578.7" y="512.8" class="st1" width="9" height="11.1"/>
		<rect id="XMLID_1583_" x="578.7" y="542.5" class="st1" width="9" height="11.1"/>
		<polygon id="XMLID_1582_" class="st1" points="578.7,531.8 578.7,527.7 587.7,527.7 587.7,538.8 578.7,538.8 578.7,534.7 
			577.2,534.7 577.2,531.8 		"/>
	</g>
	<rect id="XMLID_1579_" x="100.3" y="468.4" class="st1" width="9" height="11.1"/>
	<rect id="XMLID_1578_" x="100.3" y="498" class="st1" width="9" height="11.1"/>
	<polygon id="XMLID_1577_" class="st1" points="109.3,487.3 109.3,483.2 100.3,483.2 100.3,494.3 109.3,494.3 109.3,490.2 
		110.8,490.2 110.8,487.3 	"/>
	<g id="XMLID_1570_">
		<rect id="XMLID_1573_" x="578.7" y="468.4" class="st1" width="9" height="11.1"/>
		<rect id="XMLID_1572_" x="578.7" y="498" class="st1" width="9" height="11.1"/>
		<polygon id="XMLID_1571_" class="st1" points="578.7,487.3 578.7,483.2 587.7,483.2 587.7,494.3 578.7,494.3 578.7,490.2 
			577.2,490.2 577.2,487.3 		"/>
	</g>
	<rect id="XMLID_1568_" x="100.3" y="423.9" class="st1" width="9" height="11.1"/>
	<rect id="XMLID_1567_" x="100.3" y="453.6" class="st1" width="9" height="11.1"/>
	<polygon id="XMLID_1566_" class="st1" points="109.3,442.9 109.3,438.8 100.3,438.8 100.3,449.9 109.3,449.9 109.3,445.8 
		110.8,445.8 110.8,442.9 	"/>
	<g id="XMLID_1559_">
		<rect id="XMLID_1562_" x="578.7" y="423.9" class="st1" width="9" height="11.1"/>
		<rect id="XMLID_1561_" x="578.7" y="453.6" class="st1" width="9" height="11.1"/>
		<polygon id="XMLID_1560_" class="st1" points="578.7,442.9 578.7,438.8 587.7,438.8 587.7,449.9 578.7,449.9 578.7,445.8 
			577.2,445.8 577.2,442.9 		"/>
	</g>
	<rect id="XMLID_1557_" x="100.3" y="379.5" class="st1" width="9" height="11.1"/>
	<rect id="XMLID_1556_" x="100.3" y="409.1" class="st1" width="9" height="11.1"/>
	<polygon id="XMLID_1555_" class="st1" points="109.3,398.4 109.3,394.3 100.3,394.3 100.3,405.4 109.3,405.4 109.3,401.3 
		110.8,401.3 110.8,398.4 	"/>
	<g id="XMLID_1548_">
		<rect id="XMLID_1551_" x="578.7" y="379.5" class="st1" width="9" height="11.1"/>
		<rect id="XMLID_1550_" x="578.7" y="409.1" class="st1" width="9" height="11.1"/>
		<polygon id="XMLID_1549_" class="st1" points="578.7,398.4 578.7,394.3 587.7,394.3 587.7,405.4 578.7,405.4 578.7,401.3 
			577.2,401.3 577.2,398.4 		"/>
	</g>
	<rect id="XMLID_1546_" x="100.3" y="335" class="st1" width="9" height="11.1"/>
	<rect id="XMLID_1545_" x="100.3" y="364.7" class="st1" width="9" height="11.1"/>
	<polygon id="XMLID_1544_" class="st1" points="109.3,354 109.3,349.9 100.3,349.9 100.3,361 109.3,361 109.3,356.9 110.8,356.9 
		110.8,354 	"/>
	<g id="XMLID_1537_">
		<rect id="XMLID_1540_" x="578.7" y="335" class="st1" width="9" height="11.1"/>
		<rect id="XMLID_1539_" x="578.7" y="364.7" class="st1" width="9" height="11.1"/>
		<polygon id="XMLID_1538_" class="st1" points="578.7,354 578.7,349.9 587.7,349.9 587.7,361 578.7,361 578.7,356.9 577.2,356.9 
			577.2,354 		"/>
	</g>
	<rect id="XMLID_1535_" x="100.3" y="290.6" class="st1" width="9" height="11.1"/>
	<rect id="XMLID_1534_" x="100.3" y="320.2" class="st1" width="9" height="11.1"/>
	<polygon id="XMLID_1533_" class="st1" points="109.3,309.5 109.3,305.4 100.3,305.4 100.3,316.5 109.3,316.5 109.3,312.4 
		110.8,312.4 110.8,309.5 	"/>
	<g id="XMLID_1526_">
		<rect id="XMLID_1529_" x="578.7" y="290.6" class="st1" width="9" height="11.1"/>
		<rect id="XMLID_1528_" x="578.7" y="320.2" class="st1" width="9" height="11.1"/>
		<polygon id="XMLID_1527_" class="st1" points="578.7,309.5 578.7,305.4 587.7,305.4 587.7,316.5 578.7,316.5 578.7,312.4 
			577.2,312.4 577.2,309.5 		"/>
	</g>
	<rect id="XMLID_1524_" x="100.3" y="246.1" class="st1" width="9" height="11.1"/>
	<rect id="XMLID_1523_" x="100.3" y="275.8" class="st1" width="9" height="11.1"/>
	<polygon id="XMLID_1522_" class="st1" points="109.3,265.1 109.3,261 100.3,261 100.3,272.1 109.3,272.1 109.3,268 110.8,268 
		110.8,265.1 	"/>
	<g id="XMLID_1515_">
		<rect id="XMLID_1518_" x="578.7" y="246.1" class="st1" width="9" height="11.1"/>
		<rect id="XMLID_1517_" x="578.7" y="275.8" class="st1" width="9" height="11.1"/>
		<polygon id="XMLID_1516_" class="st1" points="578.7,265.1 578.7,261 587.7,261 587.7,272.1 578.7,272.1 578.7,268 577.2,268 
			577.2,265.1 		"/>
	</g>
	<rect id="XMLID_1513_" x="100.3" y="201.7" class="st1" width="9" height="11.1"/>
	<rect id="XMLID_1512_" x="100.3" y="231.3" class="st1" width="9" height="11.1"/>
	<polygon id="XMLID_1511_" class="st1" points="109.3,220.6 109.3,216.5 100.3,216.5 100.3,227.6 109.3,227.6 109.3,223.5 
		110.8,223.5 110.8,220.6 	"/>
	<g id="XMLID_1504_">
		<rect id="XMLID_1507_" x="578.7" y="201.7" class="st1" width="9" height="11.1"/>
		<rect id="XMLID_1506_" x="578.7" y="231.3" class="st1" width="9" height="11.1"/>
		<polygon id="XMLID_1505_" class="st1" points="578.7,220.6 578.7,216.5 587.7,216.5 587.7,227.6 578.7,227.6 578.7,223.5 
			577.2,223.5 577.2,220.6 		"/>
	</g>
	<rect id="XMLID_1502_" x="100.3" y="157.2" class="st1" width="9" height="11.1"/>
	<rect id="XMLID_1501_" x="100.3" y="186.9" class="st1" width="9" height="11.1"/>
	<polygon id="XMLID_1500_" class="st1" points="109.3,176.2 109.3,172.1 100.3,172.1 100.3,183.2 109.3,183.2 109.3,179.1 
		110.8,179.1 110.8,176.2 	"/>
	<g id="XMLID_1493_">
		<rect id="XMLID_1496_" x="578.7" y="157.2" class="st1" width="9" height="11.1"/>
		<rect id="XMLID_1495_" x="578.7" y="186.9" class="st1" width="9" height="11.1"/>
		<polygon id="XMLID_1494_" class="st1" points="578.7,176.2 578.7,172.1 587.7,172.1 587.7,183.2 578.7,183.2 578.7,179.1 
			577.2,179.1 577.2,176.2 		"/>
	</g>
	<rect id="XMLID_1491_" x="100.3" y="112.8" class="st1" width="9" height="11.1"/>
	<rect id="XMLID_1490_" x="100.3" y="142.4" class="st1" width="9" height="11.1"/>
	<polygon id="XMLID_1489_" class="st1" points="109.3,131.7 109.3,127.6 100.3,127.6 100.3,138.7 109.3,138.7 109.3,134.6 
		110.8,134.6 110.8,131.7 	"/>
	<g id="XMLID_1482_">
		<rect id="XMLID_1485_" x="578.7" y="112.8" class="st1" width="9" height="11.1"/>
		<rect id="XMLID_1484_" x="578.7" y="142.4" class="st1" width="9" height="11.1"/>
		<polygon id="XMLID_1483_" class="st1" points="578.7,131.7 578.7,127.6 587.7,127.6 587.7,138.7 578.7,138.7 578.7,134.6 
			577.2,134.6 577.2,131.7 		"/>
	</g>
	<rect id="XMLID_1480_" x="100.3" y="68.3" class="st1" width="9" height="11.1"/>
	<rect id="XMLID_1479_" x="100.3" y="98" class="st1" width="9" height="11.1"/>
	<polygon id="XMLID_1478_" class="st1" points="109.3,87.3 109.3,83.2 100.3,83.2 100.3,94.3 109.3,94.3 109.3,90.2 110.8,90.2 
		110.8,87.3 	"/>
	<g id="XMLID_16_">
		<polygon id="XMLID_1954_" class="st2" points="35.4,2000.1 29.1,2005.6 29.1,1994.6 35.4,2000.1 		"/>
		<text id="XMLID_1949_" transform="matrix(0.9276 0 0 1 0 2007.5082)" class="st3 st4">  1</text>
		<polygon id="XMLID_1943_" class="st2" points="35.4,1955.6 29.1,1961.1 29.1,1950.2 35.4,1955.6 		"/>
		<text id="XMLID_1938_" transform="matrix(0.9276 0 0 1 0 1963.0582)" class="st3 st4">  2</text>
		<polygon id="XMLID_1932_" class="st2" points="35.4,1911.2 29.1,1916.7 29.1,1905.7 35.4,1911.2 		"/>
		<text id="XMLID_1927_" transform="matrix(0.9276 0 0 1 0 1918.6083)" class="st3 st4">  3</text>
		<polygon id="XMLID_1921_" class="st2" points="35.4,1866.7 29.1,1872.2 29.1,1861.2 35.4,1866.7 		"/>
		<text id="XMLID_1916_" transform="matrix(0.9276 0 0 1 0 1874.1582)" class="st3 st4">  4</text>
		<polygon id="XMLID_1910_" class="st2" points="35.4,1822.3 29.1,1827.8 29.1,1816.8 35.4,1822.3 		"/>
		<text id="XMLID_1905_" transform="matrix(0.9276 0 0 1 0 1829.7083)" class="st3 st4">  5</text>
		<polygon id="XMLID_1899_" class="st2" points="35.4,1777.8 29.1,1783.3 29.1,1772.3 35.4,1777.8 		"/>
		<text id="XMLID_1894_" transform="matrix(0.9276 0 0 1 0 1785.2582)" class="st3 st4">  6</text>
		<polygon id="XMLID_1888_" class="st2" points="35.4,1733.4 29.1,1738.9 29.1,1727.9 35.4,1733.4 		"/>
		<text id="XMLID_1883_" transform="matrix(0.9276 0 0 1 0 1740.8082)" class="st3 st4">  7</text>
		<polygon id="XMLID_1877_" class="st2" points="35.4,1688.9 29.1,1694.4 29.1,1683.4 35.4,1688.9 		"/>
		<text id="XMLID_1872_" transform="matrix(0.9276 0 0 1 0 1696.3583)" class="st3 st4">  8</text>
		<polygon id="XMLID_1866_" class="st2" points="35.4,1644.5 29.1,1650 29.1,1639 35.4,1644.5 		"/>
		<text id="XMLID_1861_" transform="matrix(0.9276 0 0 1 0 1651.9082)" class="st3 st4">  9</text>
		<polygon id="XMLID_1855_" class="st2" points="35.4,1600 29.1,1605.5 29.1,1594.5 35.4,1600 		"/>
		<text id="XMLID_1850_" transform="matrix(0.9276 0 0 1 0 1607.4581)" class="st3 st4">10</text>
		<polygon id="XMLID_1844_" class="st2" points="35.4,1555.6 29.1,1561.1 29.1,1550.1 35.4,1555.6 		"/>
		<text id="XMLID_1839_" transform="matrix(0.9276 0 0 1 0 1563.0082)" class="st3 st4">11</text>
		<polygon id="XMLID_1833_" class="st2" points="35.4,1511.1 29.1,1516.6 29.1,1505.6 35.4,1511.1 		"/>
		<text id="XMLID_1828_" transform="matrix(0.9276 0 0 1 0 1518.5582)" class="st3 st4">12</text>
		<polygon id="XMLID_1822_" class="st2" points="35.4,1466.7 29.1,1472.2 29.1,1461.2 35.4,1466.7 		"/>
		<text id="XMLID_1817_" transform="matrix(0.9276 0 0 1 0 1474.1082)" class="st3 st4">13</text>
		<polygon id="XMLID_1811_" class="st2" points="35.4,1422.2 29.1,1427.7 29.1,1416.8 35.4,1422.2 		"/>
		<text id="XMLID_1806_" transform="matrix(0.9276 0 0 1 0 1429.6581)" class="st3 st4">14</text>
		<polygon id="XMLID_1800_" class="st2" points="35.4,1377.8 29.1,1383.3 29.1,1372.3 35.4,1377.8 		"/>
		<text id="XMLID_1795_" transform="matrix(0.9276 0 0 1 0 1385.2081)" class="st3 st4">15</text>
		<polygon id="XMLID_1789_" class="st2" points="35.4,1333.3 29.1,1338.8 29.1,1327.8 35.4,1333.3 		"/>
		<text id="XMLID_1784_" transform="matrix(0.9276 0 0 1 0 1340.7582)" class="st3 st4">16</text>
		<polygon id="XMLID_1778_" class="st2" points="35.4,1288.9 29.1,1294.4 29.1,1283.4 35.4,1288.9 		"/>
		<text id="XMLID_1773_" transform="matrix(0.9276 0 0 1 0 1296.3082)" class="st3 st4">17</text>
		<polygon id="XMLID_1767_" class="st2" points="35.4,1244.4 29.1,1249.9 29.1,1238.9 35.4,1244.4 		"/>
		<text id="XMLID_1762_" transform="matrix(0.9276 0 0 1 0 1251.858)" class="st3 st4">18</text>
		<polygon id="XMLID_1756_" class="st2" points="35.4,1200 29.1,1205.5 29.1,1194.5 35.4,1200 		"/>
		<text id="XMLID_1751_" transform="matrix(0.9276 0 0 1 0 1207.4081)" class="st3 st4">19</text>
		<polygon id="XMLID_1745_" class="st2" points="35.4,1155.5 29.1,1161 29.1,1150 35.4,1155.5 		"/>
		<text id="XMLID_1740_" transform="matrix(0.9276 0 0 1 0 1162.9581)" class="st3 st4">20</text>
		<polygon id="XMLID_1734_" class="st2" points="35.4,1111.1 29.1,1116.6 29.1,1105.6 35.4,1111.1 		"/>
		<text id="XMLID_1729_" transform="matrix(0.9276 0 0 1 0 1118.5082)" class="st3 st4">21</text>
		<polygon id="XMLID_1723_" class="st2" points="35.4,1066.6 29.1,1072.1 29.1,1061.1 35.4,1066.6 		"/>
		<text id="XMLID_1718_" transform="matrix(0.9276 0 0 1 0 1074.058)" class="st3 st4">22</text>
		<polygon id="XMLID_1712_" class="st2" points="35.4,1022.2 29.1,1027.7 29.1,1016.7 35.4,1022.2 		"/>
		<text id="XMLID_1707_" transform="matrix(0.9276 0 0 1 0 1029.608)" class="st3 st4">23</text>
		<polygon id="XMLID_1701_" class="st2" points="35.4,977.7 29.1,983.2 29.1,972.2 35.4,977.7 		"/>
		<text id="XMLID_1696_" transform="matrix(0.9276 0 0 1 0 985.1581)" class="st3 st4">24</text>
		<polygon id="XMLID_1690_" class="st2" points="35.4,933.3 29.1,938.8 29.1,927.8 35.4,933.3 		"/>
		<text id="XMLID_1685_" transform="matrix(0.9276 0 0 1 0 940.7081)" class="st3 st4">25</text>
		<polygon id="XMLID_1679_" class="st2" points="35.4,888.8 29.1,894.3 29.1,883.3 35.4,888.8 		"/>
		<text id="XMLID_1674_" transform="matrix(0.9276 0 0 1 0 896.2582)" class="st3 st4">26</text>
		<polygon id="XMLID_1668_" class="st2" points="35.4,844.4 29.1,849.9 29.1,838.9 35.4,844.4 		"/>
		<text id="XMLID_1663_" transform="matrix(0.9276 0 0 1 0 851.8082)" class="st3 st4">27</text>
		<polygon id="XMLID_1657_" class="st2" points="35.4,799.9 29.1,805.4 29.1,794.4 35.4,799.9 		"/>
		<text id="XMLID_1652_" transform="matrix(0.9276 0 0 1 0 807.3583)" class="st3 st4">28</text>
		<polygon id="XMLID_1646_" class="st2" points="35.4,755.5 29.1,761 29.1,750 35.4,755.5 		"/>
		<text id="XMLID_1641_" transform="matrix(0.9276 0 0 1 0 762.9083)" class="st3 st4">29</text>
		<polygon id="XMLID_1635_" class="st2" points="35.4,711 29.1,716.5 29.1,705.5 35.4,711 		"/>
		<text id="XMLID_1630_" transform="matrix(0.9276 0 0 1 0 718.4584)" class="st3 st4">30</text>
		<polygon id="XMLID_1624_" class="st2" points="35.4,666.6 29.1,672.1 29.1,661.1 35.4,666.6 		"/>
		<text id="XMLID_1619_" transform="matrix(0.9276 0 0 1 0 674.0084)" class="st3 st4">31</text>
		<polygon id="XMLID_1613_" class="st2" points="35.4,622.1 29.1,627.6 29.1,616.6 35.4,622.1 		"/>
		<text id="XMLID_1608_" transform="matrix(0.9276 0 0 1 0 629.5585)" class="st3 st4">32</text>
		<polygon id="XMLID_1602_" class="st2" points="35.4,577.7 29.1,583.2 29.1,572.2 35.4,577.7 		"/>
		<text id="XMLID_1597_" transform="matrix(0.9276 0 0 1 0 585.1085)" class="st3 st4">33</text>
		<polygon id="XMLID_1591_" class="st2" points="35.4,533.2 29.1,538.7 29.1,527.7 35.4,533.2 		"/>
		<text id="XMLID_1586_" transform="matrix(0.9276 0 0 1 0 540.6586)" class="st3 st4">34</text>
		<polygon id="XMLID_1580_" class="st2" points="35.4,488.8 29.1,494.3 29.1,483.3 35.4,488.8 		"/>
		<text id="XMLID_1575_" transform="matrix(0.9276 0 0 1 0 496.2086)" class="st3 st4">35</text>
		<polygon id="XMLID_1569_" class="st2" points="35.4,444.3 29.1,449.8 29.1,438.8 35.4,444.3 		"/>
		<text id="XMLID_1564_" transform="matrix(0.9276 0 0 1 0 451.7587)" class="st3 st4">36</text>
		<polygon id="XMLID_1558_" class="st2" points="35.4,399.9 29.1,405.4 29.1,394.4 35.4,399.9 		"/>
		<text id="XMLID_1553_" transform="matrix(0.9276 0 0 1 0 407.3087)" class="st3 st4">37</text>
		<polygon id="XMLID_1547_" class="st2" points="35.4,355.4 29.1,360.9 29.1,349.9 35.4,355.4 		"/>
		<text id="XMLID_1542_" transform="matrix(0.9276 0 0 1 0 362.8588)" class="st3 st4">38</text>
		<polygon id="XMLID_1536_" class="st2" points="35.4,311 29.1,316.5 29.1,305.5 35.4,311 		"/>
		<text id="XMLID_1531_" transform="matrix(0.9276 0 0 1 0 318.4088)" class="st3 st4">39</text>
		<polygon id="XMLID_1525_" class="st2" points="35.4,266.5 29.1,272 29.1,261 35.4,266.5 		"/>
		<text id="XMLID_1520_" transform="matrix(0.9276 0 0 1 0 273.9589)" class="st3 st4">40</text>
		<polygon id="XMLID_1514_" class="st2" points="35.4,222.1 29.1,227.6 29.1,216.6 35.4,222.1 		"/>
		<text id="XMLID_1509_" transform="matrix(0.9276 0 0 1 0 229.5089)" class="st3 st4">41</text>
		<polygon id="XMLID_1503_" class="st2" points="35.4,177.6 29.1,183.1 29.1,172.1 35.4,177.6 		"/>
		<text id="XMLID_1498_" transform="matrix(0.9276 0 0 1 0 185.059)" class="st3 st4">42</text>
		<polygon id="XMLID_1492_" class="st2" points="35.4,133.2 29.1,138.7 29.1,127.7 35.4,133.2 		"/>
		<text id="XMLID_1487_" transform="matrix(0.9276 0 0 1 0 140.609)" class="st3 st4">43</text>
		<polygon id="XMLID_1481_" class="st2" points="35.4,88.7 29.1,94.2 29.1,83.2 35.4,88.7 		"/>
		<text id="XMLID_1476_" transform="matrix(0.9276 0 0 1 0 96.1591)" class="st3 st4">44</text>
	</g>
	<g id="XMLID_17_">
		<text id="XMLID_1950_" transform="matrix(0.9276 0 0 1 662.6892 2007.5082)" class="st3 st4">1</text>
		<polygon id="XMLID_1948_" class="st2" points="652.8,2000.1 659.1,2005.6 659.1,1994.6 652.8,2000.1 		"/>
		<text id="XMLID_1939_" transform="matrix(0.9276 0 0 1 662.6892 1963.0582)" class="st3 st4">2</text>
		<polygon id="XMLID_1937_" class="st2" points="652.8,1955.6 659.1,1961.1 659.1,1950.1 652.8,1955.6 		"/>
		<text id="XMLID_1928_" transform="matrix(0.9276 0 0 1 662.6892 1918.6083)" class="st3 st4">3</text>
		<polygon id="XMLID_1926_" class="st2" points="652.8,1911.2 659.1,1916.7 659.1,1905.7 652.8,1911.2 		"/>
		<text id="XMLID_1917_" transform="matrix(0.9276 0 0 1 662.6892 1874.1582)" class="st3 st4">4</text>
		<polygon id="XMLID_1915_" class="st2" points="652.8,1866.7 659.1,1872.2 659.1,1861.2 652.8,1866.7 		"/>
		<text id="XMLID_1906_" transform="matrix(0.9276 0 0 1 662.6892 1829.7083)" class="st3 st4">5</text>
		<polygon id="XMLID_1904_" class="st2" points="652.8,1822.3 659.1,1827.8 659.1,1816.8 652.8,1822.3 		"/>
		<text id="XMLID_1895_" transform="matrix(0.9276 0 0 1 662.6892 1785.2582)" class="st3 st4">6</text>
		<polygon id="XMLID_1893_" class="st2" points="652.8,1777.8 659.1,1783.3 659.1,1772.3 652.8,1777.8 		"/>
		<text id="XMLID_1884_" transform="matrix(0.9276 0 0 1 662.6892 1740.8082)" class="st3 st4">7</text>
		<polygon id="XMLID_1882_" class="st2" points="652.8,1733.4 659.1,1738.9 659.1,1727.9 652.8,1733.4 		"/>
		<text id="XMLID_1873_" transform="matrix(0.9276 0 0 1 662.6892 1696.3583)" class="st3 st4">8</text>
		<polygon id="XMLID_1871_" class="st2" points="652.8,1688.9 659.1,1694.4 659.1,1683.4 652.8,1688.9 		"/>
		<text id="XMLID_1862_" transform="matrix(0.9276 0 0 1 662.6892 1651.9082)" class="st3 st4">9</text>
		<polygon id="XMLID_1860_" class="st2" points="652.8,1644.5 659.1,1650 659.1,1639 652.8,1644.5 		"/>
		<text id="XMLID_1851_" transform="matrix(0.9276 0 0 1 662.6892 1607.4581)" class="st3 st4">10</text>
		<polygon id="XMLID_1849_" class="st2" points="652.8,1600 659.1,1605.5 659.1,1594.5 652.8,1600 		"/>
		<text id="XMLID_1840_" transform="matrix(0.9276 0 0 1 662.6892 1563.0082)" class="st3 st4">11</text>
		<polygon id="XMLID_1838_" class="st2" points="652.8,1555.6 659.1,1561.1 659.1,1550.1 652.8,1555.6 		"/>
		<text id="XMLID_1829_" transform="matrix(0.9276 0 0 1 662.6892 1518.5582)" class="st3 st4">12</text>
		<polygon id="XMLID_1827_" class="st2" points="652.8,1511.1 659.1,1516.6 659.1,1505.6 652.8,1511.1 		"/>
		<text id="XMLID_1818_" transform="matrix(0.9276 0 0 1 662.6892 1474.1082)" class="st3 st4">13</text>
		<polygon id="XMLID_1816_" class="st2" points="652.8,1466.7 659.1,1472.2 659.1,1461.2 652.8,1466.7 		"/>
		<text id="XMLID_1807_" transform="matrix(0.9276 0 0 1 662.6892 1429.6581)" class="st3 st4">14</text>
		<polygon id="XMLID_1805_" class="st2" points="652.8,1422.2 659.1,1427.7 659.1,1416.7 652.8,1422.2 		"/>
		<text id="XMLID_1796_" transform="matrix(0.9276 0 0 1 662.6892 1385.2081)" class="st3 st4">15</text>
		<polygon id="XMLID_1794_" class="st2" points="652.8,1377.8 659.1,1383.3 659.1,1372.3 652.8,1377.8 		"/>
		<text id="XMLID_1785_" transform="matrix(0.9276 0 0 1 662.6892 1340.7582)" class="st3 st4">16</text>
		<polygon id="XMLID_1783_" class="st2" points="652.8,1333.3 659.1,1338.8 659.1,1327.8 652.8,1333.3 		"/>
		<text id="XMLID_1774_" transform="matrix(0.9276 0 0 1 662.6892 1296.3082)" class="st3 st4">17</text>
		<polygon id="XMLID_1772_" class="st2" points="652.8,1288.9 659.1,1294.4 659.1,1283.4 652.8,1288.9 		"/>
		<text id="XMLID_1763_" transform="matrix(0.9276 0 0 1 662.6892 1251.858)" class="st3 st4">18</text>
		<polygon id="XMLID_1761_" class="st2" points="652.8,1244.4 659.1,1249.9 659.1,1238.9 652.8,1244.4 		"/>
		<text id="XMLID_1752_" transform="matrix(0.9276 0 0 1 662.6892 1207.4081)" class="st3 st4">19</text>
		<polygon id="XMLID_1750_" class="st2" points="652.8,1200 659.1,1205.5 659.1,1194.5 652.8,1200 		"/>
		<text id="XMLID_1741_" transform="matrix(0.9276 0 0 1 662.6892 1162.9581)" class="st3 st4">20</text>
		<polygon id="XMLID_1739_" class="st2" points="652.8,1155.5 659.1,1161 659.1,1150 652.8,1155.5 		"/>
		<text id="XMLID_1730_" transform="matrix(0.9276 0 0 1 662.6892 1118.5082)" class="st3 st4">21</text>
		<polygon id="XMLID_1728_" class="st2" points="652.8,1111.1 659.1,1116.6 659.1,1105.6 652.8,1111.1 		"/>
		<text id="XMLID_1719_" transform="matrix(0.9276 0 0 1 662.6892 1074.058)" class="st3 st4">22</text>
		<polygon id="XMLID_1717_" class="st2" points="652.8,1066.6 659.1,1072.1 659.1,1061.1 652.8,1066.6 		"/>
		<text id="XMLID_1708_" transform="matrix(0.9276 0 0 1 662.6892 1029.608)" class="st3 st4">23</text>
		<polygon id="XMLID_1706_" class="st2" points="652.8,1022.2 659.1,1027.7 659.1,1016.7 652.8,1022.2 		"/>
		<text id="XMLID_1697_" transform="matrix(0.9276 0 0 1 662.6892 985.1581)" class="st3 st4">24</text>
		<polygon id="XMLID_1695_" class="st2" points="652.8,977.7 659.1,983.2 659.1,972.2 652.8,977.7 		"/>
		<text id="XMLID_1686_" transform="matrix(0.9276 0 0 1 662.6892 940.7081)" class="st3 st4">25</text>
		<polygon id="XMLID_1684_" class="st2" points="652.8,933.3 659.1,938.8 659.1,927.8 652.8,933.3 		"/>
		<text id="XMLID_1675_" transform="matrix(0.9276 0 0 1 662.6892 896.2582)" class="st3 st4">26</text>
		<polygon id="XMLID_1673_" class="st2" points="652.8,888.8 659.1,894.3 659.1,883.3 652.8,888.8 		"/>
		<text id="XMLID_1664_" transform="matrix(0.9276 0 0 1 662.6892 851.8082)" class="st3 st4">27</text>
		<polygon id="XMLID_1662_" class="st2" points="652.8,844.4 659.1,849.9 659.1,838.9 652.8,844.4 		"/>
		<text id="XMLID_1653_" transform="matrix(0.9276 0 0 1 662.6892 807.3583)" class="st3 st4">28</text>
		<polygon id="XMLID_1651_" class="st2" points="652.8,799.9 659.1,805.4 659.1,794.4 652.8,799.9 		"/>
		<text id="XMLID_1642_" transform="matrix(0.9276 0 0 1 662.6892 762.9083)" class="st3 st4">29</text>
		<polygon id="XMLID_1640_" class="st2" points="652.8,755.5 659.1,761 659.1,750 652.8,755.5 		"/>
		<text id="XMLID_1631_" transform="matrix(0.9276 0 0 1 662.6892 718.4584)" class="st3 st4">30</text>
		<polygon id="XMLID_1629_" class="st2" points="652.8,711 659.1,716.5 659.1,705.5 652.8,711 		"/>
		<text id="XMLID_1620_" transform="matrix(0.9276 0 0 1 662.6892 674.0084)" class="st3 st4">31</text>
		<polygon id="XMLID_1618_" class="st2" points="652.8,666.6 659.1,672.1 659.1,661.1 652.8,666.6 		"/>
		<text id="XMLID_1609_" transform="matrix(0.9276 0 0 1 662.6892 629.5585)" class="st3 st4">32</text>
		<polygon id="XMLID_1607_" class="st2" points="652.8,622.1 659.1,627.6 659.1,616.6 652.8,622.1 		"/>
		<text id="XMLID_1598_" transform="matrix(0.9276 0 0 1 662.6892 585.1085)" class="st3 st4">33</text>
		<polygon id="XMLID_1596_" class="st2" points="652.8,577.7 659.1,583.2 659.1,572.2 652.8,577.7 		"/>
		<text id="XMLID_1587_" transform="matrix(0.9276 0 0 1 662.6892 540.6586)" class="st3 st4">34</text>
		<polygon id="XMLID_1585_" class="st2" points="652.8,533.2 659.1,538.7 659.1,527.7 652.8,533.2 		"/>
		<text id="XMLID_1576_" transform="matrix(0.9276 0 0 1 662.6892 496.2086)" class="st3 st4">35</text>
		<polygon id="XMLID_1574_" class="st2" points="652.8,488.8 659.1,494.3 659.1,483.3 652.8,488.8 		"/>
		<text id="XMLID_1565_" transform="matrix(0.9276 0 0 1 662.6892 451.7587)" class="st3 st4">36</text>
		<polygon id="XMLID_1563_" class="st2" points="652.8,444.3 659.1,449.8 659.1,438.8 652.8,444.3 		"/>
		<text id="XMLID_1554_" transform="matrix(0.9276 0 0 1 662.6892 407.3087)" class="st3 st4">37</text>
		<polygon id="XMLID_1552_" class="st2" points="652.8,399.9 659.1,405.4 659.1,394.4 652.8,399.9 		"/>
		<text id="XMLID_1543_" transform="matrix(0.9276 0 0 1 662.6892 362.8588)" class="st3 st4">38</text>
		<polygon id="XMLID_1541_" class="st2" points="652.8,355.4 659.1,360.9 659.1,349.9 652.8,355.4 		"/>
		<text id="XMLID_1532_" transform="matrix(0.9276 0 0 1 662.6892 318.4088)" class="st3 st4">39</text>
		<polygon id="XMLID_1530_" class="st2" points="652.8,311 659.1,316.5 659.1,305.5 652.8,311 		"/>
		<text id="XMLID_1521_" transform="matrix(0.9276 0 0 1 662.6892 273.9589)" class="st3 st4">40</text>
		<polygon id="XMLID_1519_" class="st2" points="652.8,266.5 659.1,272 659.1,261 652.8,266.5 		"/>
		<text id="XMLID_1510_" transform="matrix(0.9276 0 0 1 662.6892 229.5089)" class="st3 st4">41</text>
		<polygon id="XMLID_1508_" class="st2" points="652.8,222.1 659.1,227.6 659.1,216.6 652.8,222.1 		"/>
		<text id="XMLID_1499_" transform="matrix(0.9276 0 0 1 662.6892 185.059)" class="st3 st4">42</text>
		<polygon id="XMLID_1497_" class="st2" points="652.8,177.6 659.1,183.1 659.1,172.1 652.8,177.6 		"/>
		<text id="XMLID_1488_" transform="matrix(0.9276 0 0 1 662.6892 140.609)" class="st3 st4">43</text>
		<polygon id="XMLID_1486_" class="st2" points="652.8,133.2 659.1,138.7 659.1,127.7 652.8,133.2 		"/>
		<text id="XMLID_1477_" transform="matrix(0.9276 0 0 1 662.6892 96.1591)" class="st3 st4">44</text>
		<polygon id="XMLID_1475_" class="st2" points="652.8,88.7 659.1,94.2 659.1,83.2 652.8,88.7 		"/>
	</g>
	<g id="XMLID_1471_">
		<rect id="XMLID_1474_" x="578.7" y="68.3" class="st1" width="9" height="11.1"/>
		<rect id="XMLID_1473_" x="578.7" y="98" class="st1" width="9" height="11.1"/>
		<polygon id="XMLID_1472_" class="st1" points="578.7,87.3 578.7,83.2 587.7,83.2 587.7,94.3 578.7,94.3 578.7,90.2 577.2,90.2 
			577.2,87.3 		"/>
	</g>
</g>
</svg>
