  0
SECTION
  2
HEADER
  9
$ACADVER
  1
AC1009
  9
$INSBASE
 10
0.0
 20
0.0
 30
0.0
  9
$EXTMIN
 10
0.3313683463181007
 20
0.75635853773111
 30
0.0
  9
$EXTMAX
 10
241.86108504018389
 20
179.54317761806359
 30
0.0
  9
$LIMMIN
 10
0.0
 20
0.0
  9
$LIMMAX
 10
240.0
 20
180.0
  9
$ORTHOMODE
 70
     0
  9
$REGENMODE
 70
     1
  9
$FILLMODE
 70
     1
  9
$QTEXTMODE
 70
     0
  9
$MIRRTEXT
 70
     1
  9
$DRAGMODE
 70
     2
  9
$LTSCALE
 40
1.0
  9
$OSMODE
 70
    37
  9
$ATTMODE
 70
     1
  9
$TEXTSIZE
 40
0.2
  9
$TRACEWID
 40
0.05
  9
$TEXTSTYLE
  7
STANDARD
  9
$CLAYER
  8
0
  9
$CELTYPE
  6
BYLAYER
  9
$CECOLOR
 62
   256
  9
$DIMSCALE
 40
1.0
  9
$DIMASZ
 40
0.18
  9
$DIMEXO
 40
0.0625
  9
$DIMDLI
 40
0.38
  9
$DIMRND
 40
0.0
  9
$DIMDLE
 40
0.0
  9
$DIMEXE
 40
0.18
  9
$DIMTP
 40
0.0
  9
$DIMTM
 40
0.0
  9
$DIMTXT
 40
0.18
  9
$DIMCEN
 40
0.09
  9
$DIMTSZ
 40
0.0
  9
$DIMTOL
 70
     0
  9
$DIMLIM
 70
     0
  9
$DIMTIH
 70
     1
  9
$DIMTOH
 70
     1
  9
$DIMSE1
 70
     0
  9
$DIMSE2
 70
     0
  9
$DIMTAD
 70
     0
  9
$DIMZIN
 70
     0
  9
$DIMBLK
  1

  9
$DIMASO
 70
     1
  9
$DIMSHO
 70
     1
  9
$DIMPOST
  1

  9
$DIMAPOST
  1

  9
$DIMALT
 70
     0
  9
$DIMALTD
 70
     2
  9
$DIMALTF
 40
25.399999999999999
  9
$DIMLFAC
 40
1.0
  9
$DIMTOFL
 70
     0
  9
$DIMTVP
 40
0.0
  9
$DIMTIX
 70
     0
  9
$DIMSOXD
 70
     0
  9
$DIMSAH
 70
     0
  9
$DIMBLK1
  1

  9
$DIMBLK2
  1

  9
$DIMSTYLE
  2
STANDARD
  9
$DIMCLRD
 70
     0
  9
$DIMCLRE
 70
     0
  9
$DIMCLRT
 70
     0
  9
$DIMTFAC
 40
1.0
  9
$DIMGAP
 40
0.09
  9
$LUNITS
 70
     2
  9
$LUPREC
 70
     4
  9
$SKETCHINC
 40
0.1
  9
$FILLETRAD
 40
0.5
  9
$AUNITS
 70
     0
  9
$AUPREC
 70
     0
  9
$MENU
  1
.
  9
$ELEVATION
 40
0.0
  9
$PELEVATION
 40
0.0
  9
$THICKNESS
 40
0.0
  9
$LIMCHECK
 70
     0
  9
$BLIPMODE
 70
     0
  9
$CHAMFERA
 40
0.5
  9
$CHAMFERB
 40
0.5
  9
$SKPOLY
 70
     0
  9
$TDCREATE
 40
2451192.901182164
  9
$TDUPDATE
 40
2452556.8396023032
  9
$TDINDWG
 40
0.3019879282
  9
$TDUSRTIMER
 40
0.301987581
  9
$USRTIMER
 70
     1
  9
$ANGBASE
 50
0.0
  9
$ANGDIR
 70
     0
  9
$PDMODE
 70
     0
  9
$PDSIZE
 40
0.0
  9
$PLINEWID
 40
0.0
  9
$COORDS
 70
     1
  9
$SPLFRAME
 70
     0
  9
$SPLINETYPE
 70
     6
  9
$SPLINESEGS
 70
     8
  9
$ATTDIA
 70
     0
  9
$ATTREQ
 70
     1
  9
$HANDLING
 70
 22529
  9
$HANDSEED
  5
A9D
  9
$SURFTAB1
 70
     6
  9
$SURFTAB2
 70
     6
  9
$SURFTYPE
 70
     6
  9
$SURFU
 70
     6
  9
$SURFV
 70
     6
  9
$UCSNAME
  2

  9
$UCSORG
 10
0.0
 20
0.0
 30
0.0
  9
$UCSXDIR
 10
1.0
 20
0.0
 30
0.0
  9
$UCSYDIR
 10
0.0
 20
1.0
 30
0.0
  9
$PUCSNAME
  2

  9
$PUCSORG
 10
0.0
 20
0.0
 30
0.0
  9
$PUCSXDIR
 10
1.0
 20
0.0
 30
0.0
  9
$PUCSYDIR
 10
0.0
 20
1.0
 30
0.0
  9
$USERI1
 70
     0
  9
$USERI2
 70
     0
  9
$USERI3
 70
     0
  9
$USERI4
 70
     0
  9
$USERI5
 70
     0
  9
$USERR1
 40
0.0
  9
$USERR2
 40
0.0
  9
$USERR3
 40
0.0
  9
$USERR4
 40
0.0
  9
$USERR5
 40
0.0
  9
$WORLDVIEW
 70
     1
  9
$SHADEDGE
 70
     3
  9
$SHADEDIF
 70
    70
  9
$TILEMODE
 70
     1
  9
$MAXACTVP
 70
    64
  9
$PLIMCHECK
 70
     0
  9
$PEXTMIN
 10
1.0000000000000000E+020
 20
1.0000000000000000E+020
 30
1.0000000000000000E+020
  9
$PEXTMAX
 10
-1.0000000000000000E+020
 20
-1.0000000000000000E+020
 30
-1.0000000000000000E+020
  9
$PLIMMIN
 10
0.0
 20
0.0
  9
$PLIMMAX
 10
12.0
 20
9.0
  9
$UNITMODE
 70
     0
  9
$VISRETAIN
 70
     1
  9
$PLINEGEN
 70
     0
  9
$PSLTSCALE
 70
     1
  0
ENDSEC
  0
SECTION
  2
TABLES
  0
TABLE
  2
VPORT
 70
     2
  0
VPORT
  2
*ACTIVE
 70
     0
 10
0.0
 20
0.0
 11
1.0
 21
1.0
 12
171.1001742006836
 22
93.871468638243499
 13
0.0
 23
0.0
 14
0.5
 24
0.5
 15
12.0
 25
12.0
 16
0.0
 26
0.0
 36
1.0
 17
0.0
 27
0.0
 37
0.0
 40
197.73420228825569
 41
1.7416356877323409
 42
50.0
 43
0.0
 44
0.0
 50
0.0
 51
0.0
 71
     0
 72
   100
 73
     1
 74
     3
 75
     0
 76
     1
 77
     0
 78
     0
  0
ENDTAB
  0
TABLE
  2
LTYPE
 70
     1
  0
LTYPE
  2
CONTINUOUS
 70
     0
  3
Solid line
 72
    65
 73
     0
 40
0.0
  0
ENDTAB
  0
TABLE
  2
LAYER
 70
     1
  0
LAYER
  2
0
 70
     0
 62
     7
  6
CONTINUOUS
  0
ENDTAB
  0
TABLE
  2
STYLE
 70
     1
  0
STYLE
  2
STANDARD
 70
     0
 40
0.0
 41
1.0
 50
0.0
 71
     0
 42
0.2
  3
txt
  4

  0
ENDTAB
  0
TABLE
  2
VIEW
 70
     0
  0
ENDTAB
  0
TABLE
  2
UCS
 70
     0
  0
ENDTAB
  0
TABLE
  2
APPID
 70
     3
  0
APPID
  2
ACAD
 70
     0
  0
APPID
  2
CONTENTBLOCKDESCRIPTION
 70
     0
  0
APPID
  2
CONTENTBLOCKICON
 70
     0
  0
ENDTAB
  0
TABLE
  2
DIMSTYLE
 70
     1
  0
DIMSTYLE
  2
STANDARD
 70
     0
  3

  4

  5

  6

  7

 40
1.0
 41
0.18
 42
0.0625
 43
0.38
 44
0.18
 45
0.0
 46
0.0
 47
0.0
 48
0.0
140
0.18
141
0.09
142
0.0
143
25.399999999999999
144
1.0
145
0.0
146
1.0
147
0.09
 71
     0
 72
     0
 73
     1
 74
     1
 75
     0
 76
     0
 77
     0
 78
     0
170
     0
171
     2
172
     0
173
     0
174
     0
175
     0
176
     0
177
     0
178
     0
  0
ENDTAB
  0
ENDSEC
  0
SECTION
  2
BLOCKS
  0
BLOCK
  8
0
  2
GESCHIRRSPÜLMASCHINE
 70
     2
 10
0.0
 20
0.0
 30
0.0
  3
GESCHIRRSPÜLMASCHINE
  1
DISHWASHER
  0
LINE
  5
70
  8
0
 10
19.315600000000011
 20
33.184299999999958
 30
0.0
 11
19.5
 21
32.999999999999957
 31
0.0
  0
LINE
  5
71
  8
0
 10
20.5
 20
32.999999999999957
 30
0.0
 11
20.69380000000001
 21
33.193799999999982
 31
0.0
  0
LINE
  5
72
  8
0
 10
20.706100000000049
 20
31.793899999999962
 30
0.0
 11
20.5
 21
31.999999999999972
 31
0.0
  0
LINE
  5
73
  8
0
 10
19.5
 20
31.999999999999972
 30
0.0
 11
19.294200000000028
 21
31.794199999999989
 31
0.0
  0
LINE
  5
74
  8
0
 10
20.0
 20
32.249999999999957
 30
0.0
 11
20.0
 21
31.499999999999961
 31
0.0
  0
LINE
  5
75
  8
0
 10
20.0
 20
32.749999999999957
 30
0.0
 11
20.0
 21
33.499999999999957
 31
0.0
  0
LINE
  5
76
  8
0
 10
19.0
 20
32.499999999999957
 30
0.0
 11
19.75
 21
32.499999999999957
 31
0.0
  0
LINE
  5
77
  8
0
 10
21.0
 20
32.499999999999957
 30
0.0
 11
20.249999999999989
 21
32.499999999999957
 31
0.0
  0
CIRCLE
  5
78
  8
0
 10
20.0
 20
32.499999999999957
 30
0.0
 40
1.0
  0
LINE
  5
79
  8
0
 10
16.315600000000011
 20
33.184299999999958
 30
0.0
 11
16.5
 21
32.999999999999957
 31
0.0
  0
LINE
  5
7A
  8
0
 10
17.5
 20
32.999999999999957
 30
0.0
 11
17.69380000000001
 21
33.193799999999982
 31
0.0
  0
LINE
  5
7B
  8
0
 10
17.706100000000038
 20
31.793899999999962
 30
0.0
 11
17.5
 21
31.999999999999972
 31
0.0
  0
LINE
  5
7C
  8
0
 10
16.5
 20
31.999999999999972
 30
0.0
 11
16.294200000000039
 21
31.794199999999989
 31
0.0
  0
LINE
  5
7D
  8
0
 10
17.0
 20
32.249999999999957
 30
0.0
 11
17.0
 21
31.499999999999961
 31
0.0
  0
LINE
  5
7E
  8
0
 10
17.0
 20
32.749999999999957
 30
0.0
 11
17.0
 21
33.499999999999957
 31
0.0
  0
LINE
  5
7F
  8
0
 10
16.0
 20
32.499999999999957
 30
0.0
 11
16.75
 21
32.499999999999957
 31
0.0
  0
LINE
  5
80
  8
0
 10
18.0
 20
32.499999999999957
 30
0.0
 11
17.25
 21
32.499999999999957
 31
0.0
  0
CIRCLE
  5
81
  8
0
 10
17.0
 20
32.499999999999957
 30
0.0
 40
1.0
  0
POLYLINE
  5
82
  8
0
 66
     1
 10
0.0
 20
0.0
 30
0.0
 70
     1
  0
VERTEX
  5
919
  8
0
 10
15.0
 20
30.999999999999961
 30
0.0
  0
VERTEX
  5
91A
  8
0
 10
15.0
 20
33.999999999999957
 30
0.0
  0
VERTEX
  5
91B
  8
0
 10
22.0
 20
33.999999999999957
 30
0.0
  0
VERTEX
  5
91C
  8
0
 10
22.0
 20
30.999999999999961
 30
0.0
  0
SEQEND
  5
91D
  8
0
  0
CIRCLE
  5
83
  8
0
 10
7.5
 20
32.499999999999957
 30
0.0
 40
0.75
  0
CIRCLE
  5
84
  8
0
 10
5.0
 20
32.499999999999957
 30
0.0
 40
0.75
  0
CIRCLE
  5
85
  8
0
 10
2.5
 20
32.499999999999957
 30
0.0
 40
0.75
  0
CIRCLE
  5
86
  8
0
 10
10.0
 20
32.499999999999957
 30
0.0
 40
0.75
  0
POLYLINE
  5
87
  8
0
 66
     1
 10
0.0
 20
0.0
 30
0.0
 70
     1
  0
VERTEX
  5
91E
  8
0
 10
0.5
 20
30.999999999999961
 30
0.0
  0
VERTEX
  5
91F
  8
0
 10
0.5
 20
33.999999999999957
 30
0.0
  0
VERTEX
  5
920
  8
0
 10
12.0
 20
33.999999999999957
 30
0.0
  0
VERTEX
  5
921
  8
0
 10
12.0
 20
30.999999999999961
 30
0.0
  0
SEQEND
  5
922
  8
0
  0
LINE
  5
88
  8
0
 10
24.0
 20
30.499999999999972
 30
0.0
 11
0.0
 21
30.499999999999972
 31
0.0
  0
POLYLINE
  5
89
  8
0
 66
     1
 10
0.0
 20
0.0
 30
0.0
 70
     1
  0
VERTEX
  5
923
  8
0
 10
0.0
 20
0.0
 30
0.0
  0
VERTEX
  5
924
  8
0
 10
0.0
 20
34.499999999999957
 30
0.0
  0
VERTEX
  5
925
  8
0
 10
24.0
 20
34.499999999999957
 30
0.0
  0
VERTEX
  5
926
  8
0
 10
24.0
 20
0.0
 30
0.0
  0
SEQEND
  5
927
  8
0
  0
LINE
  5
8A
  8
0
 10
0.0
 20
5.0
 30
0.0
 11
24.0
 21
5.0
 31
0.0
  0
ENDBLK
  5
8C
  8
0
  0
ENDSEC
  0
SECTION
  2
ENTITIES
  0
INSERT
  5
AB
  8
0
  2
GESCHIRRSPÜLMASCHINE
 10
60.105710772110569
 20
145.04317761806359
 30
0.0
  0
ENDSEC
  0
EOF
