<?xml version="1.0" encoding="utf-8"?>
<!-- Generator: Adobe Illustrator 16.0.0, SVG Export Plug-In . SVG Version: 6.00 Build 0)  -->
<!DOCTYPE svg PUBLIC "-//W3C//DTD SVG 1.1//EN" "http://www.w3.org/Graphics/SVG/1.1/DTD/svg11.dtd">
<svg version="1.1" id="图层_1" xmlns="http://www.w3.org/2000/svg" xmlns:xlink="http://www.w3.org/1999/xlink" x="0px" y="0px"
	 width="255.629px" height="800px" viewBox="0 0 255.629 800" enable-background="new 0 0 255.629 800" xml:space="preserve">
<g>
	<linearGradient id="SVGID_1_" gradientUnits="userSpaceOnUse" x1="0" y1="400.0005" x2="255.6294" y2="400.0005">
		<stop  offset="0" style="stop-color:#4D4D4D"/>
		<stop  offset="0.0895" style="stop-color:#3E3A39"/>
		<stop  offset="0.9181" style="stop-color:#3E3A39"/>
		<stop  offset="1" style="stop-color:#4D4D4D"/>
	</linearGradient>
	<rect fill="url(#SVGID_1_)" width="255.629" height="800"/>
	<path fill="#0D0D0D" d="M226.219,793.815c0,1.613-1.308,2.921-2.921,2.921H35.357c-1.613,0-2.921-1.308-2.921-2.921V36.602
		c0-1.613,1.308-2.921,2.921-2.921h187.941c1.613,0,2.921,1.308,2.921,2.921V793.815z"/>
	<g>
		<g>
			<g>
				<rect x="24.663" y="34.079" fill="#B5B4B5" width="7.375" height="17.371"/>
				<path fill="#898989" d="M31.64,34.477v16.575h-6.579V34.477H31.64 M32.436,33.681h-8.171v18.168h8.171V33.681L32.436,33.681z"/>
			</g>
			<circle cx="28.35" cy="42.765" r="2.191"/>
		</g>
		<g>
			<g>
				<rect x="24.663" y="52.247" fill="#B5B4B5" width="7.375" height="17.371"/>
				<path fill="#898989" d="M31.64,52.645V69.22h-6.579V52.645H31.64 M32.436,51.849h-8.171v18.168h8.171V51.849L32.436,51.849z"/>
			</g>
			<circle cx="28.35" cy="60.933" r="2.191"/>
		</g>
		<g>
			<g>
				<rect x="24.663" y="70.415" fill="#B5B4B5" width="7.375" height="17.371"/>
				<path fill="#898989" d="M31.64,70.813v16.575h-6.579V70.813H31.64 M32.436,70.017h-8.171v18.168h8.171V70.017L32.436,70.017z"/>
			</g>
			<circle cx="28.35" cy="79.101" r="2.191"/>
		</g>
		<g>
			<g>
				<rect x="24.663" y="88.583" fill="#B5B4B5" width="7.375" height="17.371"/>
				<path fill="#898989" d="M31.64,88.981v16.575h-6.579V88.981H31.64 M32.436,88.185h-8.171v18.168h8.171V88.185L32.436,88.185z"/>
			</g>
			<circle cx="28.35" cy="97.269" r="2.191"/>
		</g>
		<g>
			<g>
				<rect x="24.663" y="106.751" fill="#B5B4B5" width="7.375" height="17.371"/>
				<path fill="#898989" d="M31.64,107.149v16.575h-6.579v-16.575H31.64 M32.436,106.353h-8.171v18.168h8.171V106.353
					L32.436,106.353z"/>
			</g>
			<circle cx="28.35" cy="115.437" r="2.191"/>
		</g>
		<g>
			<g>
				<rect x="24.663" y="124.919" fill="#B5B4B5" width="7.375" height="17.371"/>
				<path fill="#898989" d="M31.64,125.317v16.575h-6.579v-16.575H31.64 M32.436,124.521h-8.171v18.168h8.171V124.521
					L32.436,124.521z"/>
			</g>
			<circle cx="28.35" cy="133.604" r="2.191"/>
		</g>
		<g>
			<g>
				<rect x="24.663" y="143.087" fill="#B5B4B5" width="7.375" height="17.371"/>
				<path fill="#898989" d="M31.64,143.485v16.575h-6.579v-16.575H31.64 M32.436,142.688h-8.171v18.168h8.171V142.688
					L32.436,142.688z"/>
			</g>
			<circle cx="28.35" cy="151.772" r="2.191"/>
		</g>
		<g>
			<g>
				<rect x="24.663" y="161.255" fill="#B5B4B5" width="7.375" height="17.371"/>
				<path fill="#898989" d="M31.64,161.653v16.575h-6.579v-16.575H31.64 M32.436,160.856h-8.171v18.168h8.171V160.856
					L32.436,160.856z"/>
			</g>
			<circle cx="28.35" cy="169.94" r="2.191"/>
		</g>
		<g>
			<g>
				<rect x="24.663" y="179.423" fill="#B5B4B5" width="7.375" height="17.371"/>
				<path fill="#898989" d="M31.64,179.821v16.575h-6.579v-16.575H31.64 M32.436,179.024h-8.171v18.168h8.171V179.024
					L32.436,179.024z"/>
			</g>
			<circle cx="28.35" cy="188.108" r="2.191"/>
		</g>
		<g>
			<g>
				<rect x="24.663" y="197.591" fill="#B5B4B5" width="7.375" height="17.371"/>
				<path fill="#898989" d="M31.64,197.989v16.575h-6.579v-16.575H31.64 M32.436,197.192h-8.171v18.168h8.171V197.192
					L32.436,197.192z"/>
			</g>
			<circle cx="28.35" cy="206.276" r="2.191"/>
		</g>
		<g>
			<g>
				<rect x="24.663" y="215.759" fill="#B5B4B5" width="7.375" height="17.371"/>
				<path fill="#898989" d="M31.64,216.157v16.575h-6.579v-16.575H31.64 M32.436,215.36h-8.171v18.168h8.171V215.36L32.436,215.36z"
					/>
			</g>
			<circle cx="28.35" cy="224.444" r="2.191"/>
		</g>
		<g>
			<g>
				<rect x="24.663" y="233.927" fill="#B5B4B5" width="7.375" height="17.371"/>
				<path fill="#898989" d="M31.64,234.325V250.9h-6.579v-16.575H31.64 M32.436,233.528h-8.171v18.168h8.171V233.528L32.436,233.528
					z"/>
			</g>
			<circle cx="28.35" cy="242.612" r="2.191"/>
		</g>
		<g>
			<g>
				<rect x="24.663" y="252.095" fill="#B5B4B5" width="7.375" height="17.371"/>
				<path fill="#898989" d="M31.64,252.493v16.575h-6.579v-16.575H31.64 M32.436,251.696h-8.171v18.168h8.171V251.696
					L32.436,251.696z"/>
			</g>
			<circle cx="28.35" cy="260.78" r="2.191"/>
		</g>
		<g>
			<g>
				<rect x="24.663" y="270.263" fill="#B5B4B5" width="7.375" height="17.372"/>
				<path fill="#898989" d="M31.64,270.661v16.576h-6.579v-16.576H31.64 M32.436,269.864h-8.171v18.168h8.171V269.864
					L32.436,269.864z"/>
			</g>
			<circle cx="28.35" cy="278.949" r="2.191"/>
		</g>
		<g>
			<g>
				<rect x="24.663" y="288.431" fill="#B5B4B5" width="7.375" height="17.371"/>
				<path fill="#898989" d="M31.64,288.829v16.575h-6.579v-16.575H31.64 M32.436,288.033h-8.171v18.168h8.171V288.033
					L32.436,288.033z"/>
			</g>
			<circle cx="28.35" cy="297.117" r="2.191"/>
		</g>
		<g>
			<g>
				<rect x="24.663" y="306.599" fill="#B5B4B5" width="7.375" height="17.371"/>
				<path fill="#898989" d="M31.64,306.997v16.575h-6.579v-16.575H31.64 M32.436,306.201h-8.171v18.168h8.171V306.201
					L32.436,306.201z"/>
			</g>
			<circle cx="28.35" cy="315.285" r="2.191"/>
		</g>
		<g>
			<g>
				<rect x="24.663" y="324.767" fill="#B5B4B5" width="7.375" height="17.371"/>
				<path fill="#898989" d="M31.64,325.165v16.575h-6.579v-16.575H31.64 M32.436,324.369h-8.171v18.168h8.171V324.369
					L32.436,324.369z"/>
			</g>
			<circle cx="28.35" cy="333.453" r="2.191"/>
		</g>
		<g>
			<g>
				<rect x="24.663" y="342.935" fill="#B5B4B5" width="7.375" height="17.371"/>
				<path fill="#898989" d="M31.64,343.333v16.575h-6.579v-16.575H31.64 M32.436,342.537h-8.171v18.168h8.171V342.537
					L32.436,342.537z"/>
			</g>
			<circle cx="28.35" cy="351.621" r="2.191"/>
		</g>
		<g>
			<g>
				<rect x="24.663" y="361.103" fill="#B5B4B5" width="7.375" height="17.371"/>
				<path fill="#898989" d="M31.64,361.501v16.575h-6.579v-16.575H31.64 M32.436,360.705h-8.171v18.168h8.171V360.705
					L32.436,360.705z"/>
			</g>
			<circle cx="28.35" cy="369.789" r="2.191"/>
		</g>
		<g>
			<g>
				<rect x="24.663" y="379.271" fill="#B5B4B5" width="7.375" height="17.371"/>
				<path fill="#898989" d="M31.64,379.669v16.575h-6.579v-16.575H31.64 M32.436,378.873h-8.171v18.168h8.171V378.873
					L32.436,378.873z"/>
			</g>
			<circle cx="28.35" cy="387.957" r="2.191"/>
		</g>
		<g>
			<g>
				<rect x="24.663" y="397.439" fill="#B5B4B5" width="7.375" height="17.371"/>
				<path fill="#898989" d="M31.64,397.837v16.575h-6.579v-16.575H31.64 M32.436,397.041h-8.171v18.168h8.171V397.041
					L32.436,397.041z"/>
			</g>
			<circle cx="28.35" cy="406.125" r="2.191"/>
		</g>
		<g>
			<g>
				<rect x="24.663" y="415.607" fill="#B5B4B5" width="7.375" height="17.371"/>
				<path fill="#898989" d="M31.64,416.005v16.574h-6.579v-16.574H31.64 M32.436,415.208h-8.171v18.168h8.171V415.208
					L32.436,415.208z"/>
			</g>
			<circle cx="28.35" cy="424.292" r="2.191"/>
		</g>
		<g>
			<g>
				<rect x="24.663" y="433.775" fill="#B5B4B5" width="7.375" height="17.371"/>
				<path fill="#898989" d="M31.64,434.173v16.574h-6.579v-16.574H31.64 M32.436,433.376h-8.171v18.168h8.171V433.376
					L32.436,433.376z"/>
			</g>
			<circle cx="28.35" cy="442.46" r="2.191"/>
		</g>
		<g>
			<g>
				<rect x="24.663" y="451.943" fill="#B5B4B5" width="7.375" height="17.371"/>
				<path fill="#898989" d="M31.64,452.341v16.574h-6.579v-16.574H31.64 M32.436,451.544h-8.171v18.168h8.171V451.544
					L32.436,451.544z"/>
			</g>
			<circle cx="28.35" cy="460.628" r="2.191"/>
		</g>
		<g>
			<g>
				<rect x="24.663" y="470.111" fill="#B5B4B5" width="7.375" height="17.371"/>
				<path fill="#898989" d="M31.64,470.509v16.574h-6.579v-16.574H31.64 M32.436,469.712h-8.171v18.168h8.171V469.712
					L32.436,469.712z"/>
			</g>
			<circle cx="28.35" cy="478.796" r="2.191"/>
		</g>
		<g>
			<g>
				<rect x="24.663" y="488.279" fill="#B5B4B5" width="7.375" height="17.371"/>
				<path fill="#898989" d="M31.64,488.677v16.574h-6.579v-16.574H31.64 M32.436,487.88h-8.171v18.168h8.171V487.88L32.436,487.88z"
					/>
			</g>
			<circle cx="28.35" cy="496.964" r="2.191"/>
		</g>
		<g>
			<g>
				<rect x="24.663" y="506.447" fill="#B5B4B5" width="7.375" height="17.371"/>
				<path fill="#898989" d="M31.64,506.845v16.574h-6.579v-16.574H31.64 M32.436,506.048h-8.171v18.168h8.171V506.048
					L32.436,506.048z"/>
			</g>
			<circle cx="28.35" cy="515.132" r="2.191"/>
		</g>
		<g>
			<g>
				<rect x="24.663" y="524.615" fill="#B5B4B5" width="7.375" height="17.371"/>
				<path fill="#898989" d="M31.64,525.013v16.574h-6.579v-16.574H31.64 M32.436,524.216h-8.171v18.168h8.171V524.216
					L32.436,524.216z"/>
			</g>
			<circle cx="28.35" cy="533.3" r="2.191"/>
		</g>
		<g>
			<g>
				<rect x="24.663" y="542.783" fill="#B5B4B5" width="7.375" height="17.371"/>
				<path fill="#898989" d="M31.64,543.181v16.574h-6.579v-16.574H31.64 M32.436,542.384h-8.171v18.168h8.171V542.384
					L32.436,542.384z"/>
			</g>
			<circle cx="28.35" cy="551.468" r="2.191"/>
		</g>
		<g>
			<g>
				<rect x="24.663" y="560.951" fill="#B5B4B5" width="7.375" height="17.371"/>
				<path fill="#898989" d="M31.64,561.349v16.574h-6.579v-16.574H31.64 M32.436,560.552h-8.171v18.168h8.171V560.552
					L32.436,560.552z"/>
			</g>
			<circle cx="28.35" cy="569.636" r="2.191"/>
		</g>
		<g>
			<g>
				<rect x="24.663" y="579.119" fill="#B5B4B5" width="7.375" height="17.371"/>
				<path fill="#898989" d="M31.64,579.517v16.574h-6.579v-16.574H31.64 M32.436,578.72h-8.171v18.168h8.171V578.72L32.436,578.72z"
					/>
			</g>
			<circle cx="28.35" cy="587.804" r="2.191"/>
		</g>
		<g>
			<g>
				<rect x="24.663" y="597.287" fill="#B5B4B5" width="7.375" height="17.371"/>
				<path fill="#898989" d="M31.64,597.685v16.574h-6.579v-16.574H31.64 M32.436,596.888h-8.171v18.168h8.171V596.888
					L32.436,596.888z"/>
			</g>
			<circle cx="28.35" cy="605.972" r="2.191"/>
		</g>
		<g>
			<g>
				<rect x="24.663" y="615.455" fill="#B5B4B5" width="7.375" height="17.371"/>
				<path fill="#898989" d="M31.64,615.853v16.574h-6.579v-16.574H31.64 M32.436,615.056h-8.171v18.168h8.171V615.056
					L32.436,615.056z"/>
			</g>
			<circle cx="28.35" cy="624.14" r="2.191"/>
		</g>
		<g>
			<g>
				<rect x="24.663" y="633.623" fill="#B5B4B5" width="7.375" height="17.371"/>
				<path fill="#898989" d="M31.64,634.021v16.574h-6.579v-16.574H31.64 M32.436,633.224h-8.171v18.168h8.171V633.224
					L32.436,633.224z"/>
			</g>
			<circle cx="28.35" cy="642.308" r="2.191"/>
		</g>
		<g>
			<g>
				<rect x="24.663" y="651.791" fill="#B5B4B5" width="7.375" height="17.371"/>
				<path fill="#898989" d="M31.64,652.189v16.574h-6.579v-16.574H31.64 M32.436,651.392h-8.171v18.168h8.171V651.392
					L32.436,651.392z"/>
			</g>
			<circle cx="28.35" cy="660.476" r="2.191"/>
		</g>
		<g>
			<g>
				<rect x="24.663" y="669.958" fill="#B5B4B5" width="7.375" height="17.371"/>
				<path fill="#898989" d="M31.64,670.357v16.574h-6.579v-16.574H31.64 M32.436,669.56h-8.171v18.168h8.171V669.56L32.436,669.56z"
					/>
			</g>
			<circle cx="28.35" cy="678.644" r="2.191"/>
		</g>
		<g>
			<g>
				<rect x="24.663" y="688.126" fill="#B5B4B5" width="7.375" height="17.371"/>
				<path fill="#898989" d="M31.64,688.525v16.574h-6.579v-16.574H31.64 M32.436,687.728h-8.171v18.168h8.171V687.728
					L32.436,687.728z"/>
			</g>
			<circle cx="28.35" cy="696.812" r="2.191"/>
		</g>
		<g>
			<g>
				<rect x="24.663" y="706.294" fill="#B5B4B5" width="7.375" height="17.371"/>
				<path fill="#898989" d="M31.64,706.693v16.574h-6.579v-16.574H31.64 M32.436,705.896h-8.171v18.168h8.171V705.896
					L32.436,705.896z"/>
			</g>
			<circle cx="28.35" cy="714.98" r="2.191"/>
		</g>
		<g>
			<g>
				<rect x="24.663" y="724.462" fill="#B5B4B5" width="7.375" height="17.371"/>
				<path fill="#898989" d="M31.64,724.861v16.574h-6.579v-16.574H31.64 M32.436,724.064h-8.171v18.168h8.171V724.064
					L32.436,724.064z"/>
			</g>
			<circle cx="28.35" cy="733.148" r="2.191"/>
		</g>
		<g>
			<g>
				<rect x="24.663" y="742.63" fill="#B5B4B5" width="7.375" height="17.371"/>
				<path fill="#898989" d="M31.64,743.029v16.574h-6.579v-16.574H31.64 M32.436,742.232h-8.171V760.4h8.171V742.232L32.436,742.232
					z"/>
			</g>
			<circle cx="28.35" cy="751.316" r="2.191"/>
		</g>
		<g>
			<g>
				<rect x="24.663" y="760.798" fill="#B5B4B5" width="7.375" height="17.371"/>
				<path fill="#898989" d="M31.64,761.197v16.574h-6.579v-16.574H31.64 M32.436,760.4h-8.171v18.168h8.171V760.4L32.436,760.4z"/>
			</g>
			<circle cx="28.35" cy="769.484" r="2.191"/>
		</g>
		<g>
			<g>
				<rect x="24.663" y="778.966" fill="#B5B4B5" width="7.375" height="17.371"/>
				<path fill="#898989" d="M31.64,779.365v16.574h-6.579v-16.574H31.64 M32.436,778.568h-8.171v18.168h8.171V778.568
					L32.436,778.568z"/>
			</g>
			<circle cx="28.35" cy="787.652" r="2.191"/>
		</g>
	</g>
	<g>
		<g>
			<g>
				<rect x="226.618" y="34.079" fill="#B5B4B5" width="7.375" height="17.371"/>
				<path fill="#898989" d="M233.594,34.477v16.575h-6.578V34.477H233.594 M234.391,33.681h-8.172v18.168h8.172V33.681
					L234.391,33.681z"/>
			</g>
			<circle cx="230.305" cy="42.765" r="2.191"/>
		</g>
		<g>
			<g>
				<rect x="226.618" y="52.247" fill="#B5B4B5" width="7.375" height="17.371"/>
				<path fill="#898989" d="M233.594,52.645V69.22h-6.578V52.645H233.594 M234.391,51.849h-8.172v18.168h8.172V51.849
					L234.391,51.849z"/>
			</g>
			<circle cx="230.305" cy="60.933" r="2.191"/>
		</g>
		<g>
			<g>
				<rect x="226.618" y="70.415" fill="#B5B4B5" width="7.375" height="17.371"/>
				<path fill="#898989" d="M233.594,70.813v16.575h-6.578V70.813H233.594 M234.391,70.017h-8.172v18.168h8.172V70.017
					L234.391,70.017z"/>
			</g>
			<circle cx="230.305" cy="79.101" r="2.191"/>
		</g>
		<g>
			<g>
				<rect x="226.618" y="88.583" fill="#B5B4B5" width="7.375" height="17.371"/>
				<path fill="#898989" d="M233.594,88.981v16.575h-6.578V88.981H233.594 M234.391,88.185h-8.172v18.168h8.172V88.185
					L234.391,88.185z"/>
			</g>
			<circle cx="230.305" cy="97.269" r="2.191"/>
		</g>
		<g>
			<g>
				<rect x="226.618" y="106.751" fill="#B5B4B5" width="7.375" height="17.371"/>
				<path fill="#898989" d="M233.594,107.149v16.575h-6.578v-16.575H233.594 M234.391,106.353h-8.172v18.168h8.172V106.353
					L234.391,106.353z"/>
			</g>
			<circle cx="230.305" cy="115.437" r="2.191"/>
		</g>
		<g>
			<g>
				<rect x="226.618" y="124.919" fill="#B5B4B5" width="7.375" height="17.371"/>
				<path fill="#898989" d="M233.594,125.317v16.575h-6.578v-16.575H233.594 M234.391,124.521h-8.172v18.168h8.172V124.521
					L234.391,124.521z"/>
			</g>
			<circle cx="230.305" cy="133.604" r="2.191"/>
		</g>
		<g>
			<g>
				<rect x="226.618" y="143.087" fill="#B5B4B5" width="7.375" height="17.371"/>
				<path fill="#898989" d="M233.594,143.485v16.575h-6.578v-16.575H233.594 M234.391,142.688h-8.172v18.168h8.172V142.688
					L234.391,142.688z"/>
			</g>
			<circle cx="230.305" cy="151.772" r="2.191"/>
		</g>
		<g>
			<g>
				<rect x="226.618" y="161.255" fill="#B5B4B5" width="7.375" height="17.371"/>
				<path fill="#898989" d="M233.594,161.653v16.575h-6.578v-16.575H233.594 M234.391,160.856h-8.172v18.168h8.172V160.856
					L234.391,160.856z"/>
			</g>
			<circle cx="230.305" cy="169.94" r="2.191"/>
		</g>
		<g>
			<g>
				<rect x="226.618" y="179.423" fill="#B5B4B5" width="7.375" height="17.371"/>
				<path fill="#898989" d="M233.594,179.821v16.575h-6.578v-16.575H233.594 M234.391,179.024h-8.172v18.168h8.172V179.024
					L234.391,179.024z"/>
			</g>
			<circle cx="230.305" cy="188.108" r="2.191"/>
		</g>
		<g>
			<g>
				<rect x="226.618" y="197.591" fill="#B5B4B5" width="7.375" height="17.371"/>
				<path fill="#898989" d="M233.594,197.989v16.575h-6.578v-16.575H233.594 M234.391,197.192h-8.172v18.168h8.172V197.192
					L234.391,197.192z"/>
			</g>
			<circle cx="230.305" cy="206.276" r="2.191"/>
		</g>
		<g>
			<g>
				<rect x="226.618" y="215.759" fill="#B5B4B5" width="7.375" height="17.371"/>
				<path fill="#898989" d="M233.594,216.157v16.575h-6.578v-16.575H233.594 M234.391,215.36h-8.172v18.168h8.172V215.36
					L234.391,215.36z"/>
			</g>
			<circle cx="230.305" cy="224.444" r="2.191"/>
		</g>
		<g>
			<g>
				<rect x="226.618" y="233.927" fill="#B5B4B5" width="7.375" height="17.371"/>
				<path fill="#898989" d="M233.594,234.325V250.9h-6.578v-16.575H233.594 M234.391,233.528h-8.172v18.168h8.172V233.528
					L234.391,233.528z"/>
			</g>
			<circle cx="230.305" cy="242.612" r="2.191"/>
		</g>
		<g>
			<g>
				<rect x="226.618" y="252.095" fill="#B5B4B5" width="7.375" height="17.371"/>
				<path fill="#898989" d="M233.594,252.493v16.575h-6.578v-16.575H233.594 M234.391,251.696h-8.172v18.168h8.172V251.696
					L234.391,251.696z"/>
			</g>
			<circle cx="230.305" cy="260.78" r="2.191"/>
		</g>
		<g>
			<g>
				<rect x="226.618" y="270.263" fill="#B5B4B5" width="7.375" height="17.372"/>
				<path fill="#898989" d="M233.594,270.661v16.576h-6.578v-16.576H233.594 M234.391,269.864h-8.172v18.168h8.172V269.864
					L234.391,269.864z"/>
			</g>
			<circle cx="230.305" cy="278.949" r="2.191"/>
		</g>
		<g>
			<g>
				<rect x="226.618" y="288.431" fill="#B5B4B5" width="7.375" height="17.371"/>
				<path fill="#898989" d="M233.594,288.829v16.575h-6.578v-16.575H233.594 M234.391,288.033h-8.172v18.168h8.172V288.033
					L234.391,288.033z"/>
			</g>
			<circle cx="230.305" cy="297.117" r="2.191"/>
		</g>
		<g>
			<g>
				<rect x="226.618" y="306.599" fill="#B5B4B5" width="7.375" height="17.371"/>
				<path fill="#898989" d="M233.594,306.997v16.575h-6.578v-16.575H233.594 M234.391,306.201h-8.172v18.168h8.172V306.201
					L234.391,306.201z"/>
			</g>
			<circle cx="230.305" cy="315.285" r="2.191"/>
		</g>
		<g>
			<g>
				<rect x="226.618" y="324.767" fill="#B5B4B5" width="7.375" height="17.371"/>
				<path fill="#898989" d="M233.594,325.165v16.575h-6.578v-16.575H233.594 M234.391,324.369h-8.172v18.168h8.172V324.369
					L234.391,324.369z"/>
			</g>
			<circle cx="230.305" cy="333.453" r="2.191"/>
		</g>
		<g>
			<g>
				<rect x="226.618" y="342.935" fill="#B5B4B5" width="7.375" height="17.371"/>
				<path fill="#898989" d="M233.594,343.333v16.575h-6.578v-16.575H233.594 M234.391,342.537h-8.172v18.168h8.172V342.537
					L234.391,342.537z"/>
			</g>
			<circle cx="230.305" cy="351.621" r="2.191"/>
		</g>
		<g>
			<g>
				<rect x="226.618" y="361.103" fill="#B5B4B5" width="7.375" height="17.371"/>
				<path fill="#898989" d="M233.594,361.501v16.575h-6.578v-16.575H233.594 M234.391,360.705h-8.172v18.168h8.172V360.705
					L234.391,360.705z"/>
			</g>
			<circle cx="230.305" cy="369.789" r="2.191"/>
		</g>
		<g>
			<g>
				<rect x="226.618" y="379.271" fill="#B5B4B5" width="7.375" height="17.371"/>
				<path fill="#898989" d="M233.594,379.669v16.575h-6.578v-16.575H233.594 M234.391,378.873h-8.172v18.168h8.172V378.873
					L234.391,378.873z"/>
			</g>
			<circle cx="230.305" cy="387.957" r="2.191"/>
		</g>
		<g>
			<g>
				<rect x="226.618" y="397.439" fill="#B5B4B5" width="7.375" height="17.371"/>
				<path fill="#898989" d="M233.594,397.837v16.575h-6.578v-16.575H233.594 M234.391,397.041h-8.172v18.168h8.172V397.041
					L234.391,397.041z"/>
			</g>
			<circle cx="230.305" cy="406.125" r="2.191"/>
		</g>
		<g>
			<g>
				<rect x="226.618" y="415.607" fill="#B5B4B5" width="7.375" height="17.371"/>
				<path fill="#898989" d="M233.594,416.005v16.574h-6.578v-16.574H233.594 M234.391,415.208h-8.172v18.168h8.172V415.208
					L234.391,415.208z"/>
			</g>
			<circle cx="230.305" cy="424.292" r="2.191"/>
		</g>
		<g>
			<g>
				<rect x="226.618" y="433.775" fill="#B5B4B5" width="7.375" height="17.371"/>
				<path fill="#898989" d="M233.594,434.173v16.574h-6.578v-16.574H233.594 M234.391,433.376h-8.172v18.168h8.172V433.376
					L234.391,433.376z"/>
			</g>
			<circle cx="230.305" cy="442.46" r="2.191"/>
		</g>
		<g>
			<g>
				<rect x="226.618" y="451.943" fill="#B5B4B5" width="7.375" height="17.371"/>
				<path fill="#898989" d="M233.594,452.341v16.574h-6.578v-16.574H233.594 M234.391,451.544h-8.172v18.168h8.172V451.544
					L234.391,451.544z"/>
			</g>
			<circle cx="230.305" cy="460.628" r="2.191"/>
		</g>
		<g>
			<g>
				<rect x="226.618" y="470.111" fill="#B5B4B5" width="7.375" height="17.371"/>
				<path fill="#898989" d="M233.594,470.509v16.574h-6.578v-16.574H233.594 M234.391,469.712h-8.172v18.168h8.172V469.712
					L234.391,469.712z"/>
			</g>
			<circle cx="230.305" cy="478.796" r="2.191"/>
		</g>
		<g>
			<g>
				<rect x="226.618" y="488.279" fill="#B5B4B5" width="7.375" height="17.371"/>
				<path fill="#898989" d="M233.594,488.677v16.574h-6.578v-16.574H233.594 M234.391,487.88h-8.172v18.168h8.172V487.88
					L234.391,487.88z"/>
			</g>
			<circle cx="230.305" cy="496.964" r="2.191"/>
		</g>
		<g>
			<g>
				<rect x="226.618" y="506.447" fill="#B5B4B5" width="7.375" height="17.371"/>
				<path fill="#898989" d="M233.594,506.845v16.574h-6.578v-16.574H233.594 M234.391,506.048h-8.172v18.168h8.172V506.048
					L234.391,506.048z"/>
			</g>
			<circle cx="230.305" cy="515.132" r="2.191"/>
		</g>
		<g>
			<g>
				<rect x="226.618" y="524.615" fill="#B5B4B5" width="7.375" height="17.371"/>
				<path fill="#898989" d="M233.594,525.013v16.574h-6.578v-16.574H233.594 M234.391,524.216h-8.172v18.168h8.172V524.216
					L234.391,524.216z"/>
			</g>
			<circle cx="230.305" cy="533.3" r="2.191"/>
		</g>
		<g>
			<g>
				<rect x="226.618" y="542.783" fill="#B5B4B5" width="7.375" height="17.371"/>
				<path fill="#898989" d="M233.594,543.181v16.574h-6.578v-16.574H233.594 M234.391,542.384h-8.172v18.168h8.172V542.384
					L234.391,542.384z"/>
			</g>
			<circle cx="230.305" cy="551.468" r="2.191"/>
		</g>
		<g>
			<g>
				<rect x="226.618" y="560.951" fill="#B5B4B5" width="7.375" height="17.371"/>
				<path fill="#898989" d="M233.594,561.349v16.574h-6.578v-16.574H233.594 M234.391,560.552h-8.172v18.168h8.172V560.552
					L234.391,560.552z"/>
			</g>
			<circle cx="230.305" cy="569.636" r="2.191"/>
		</g>
		<g>
			<g>
				<rect x="226.618" y="579.119" fill="#B5B4B5" width="7.375" height="17.371"/>
				<path fill="#898989" d="M233.594,579.517v16.574h-6.578v-16.574H233.594 M234.391,578.72h-8.172v18.168h8.172V578.72
					L234.391,578.72z"/>
			</g>
			<circle cx="230.305" cy="587.804" r="2.191"/>
		</g>
		<g>
			<g>
				<rect x="226.618" y="597.287" fill="#B5B4B5" width="7.375" height="17.371"/>
				<path fill="#898989" d="M233.594,597.685v16.574h-6.578v-16.574H233.594 M234.391,596.888h-8.172v18.168h8.172V596.888
					L234.391,596.888z"/>
			</g>
			<circle cx="230.305" cy="605.972" r="2.191"/>
		</g>
		<g>
			<g>
				<rect x="226.618" y="615.455" fill="#B5B4B5" width="7.375" height="17.371"/>
				<path fill="#898989" d="M233.594,615.853v16.574h-6.578v-16.574H233.594 M234.391,615.056h-8.172v18.168h8.172V615.056
					L234.391,615.056z"/>
			</g>
			<circle cx="230.305" cy="624.14" r="2.191"/>
		</g>
		<g>
			<g>
				<rect x="226.618" y="633.623" fill="#B5B4B5" width="7.375" height="17.371"/>
				<path fill="#898989" d="M233.594,634.021v16.574h-6.578v-16.574H233.594 M234.391,633.224h-8.172v18.168h8.172V633.224
					L234.391,633.224z"/>
			</g>
			<circle cx="230.305" cy="642.308" r="2.191"/>
		</g>
		<g>
			<g>
				<rect x="226.618" y="651.791" fill="#B5B4B5" width="7.375" height="17.371"/>
				<path fill="#898989" d="M233.594,652.189v16.574h-6.578v-16.574H233.594 M234.391,651.392h-8.172v18.168h8.172V651.392
					L234.391,651.392z"/>
			</g>
			<circle cx="230.305" cy="660.476" r="2.191"/>
		</g>
		<g>
			<g>
				<rect x="226.618" y="669.958" fill="#B5B4B5" width="7.375" height="17.371"/>
				<path fill="#898989" d="M233.594,670.357v16.574h-6.578v-16.574H233.594 M234.391,669.56h-8.172v18.168h8.172V669.56
					L234.391,669.56z"/>
			</g>
			<circle cx="230.305" cy="678.644" r="2.191"/>
		</g>
		<g>
			<g>
				<rect x="226.618" y="688.126" fill="#B5B4B5" width="7.375" height="17.371"/>
				<path fill="#898989" d="M233.594,688.525v16.574h-6.578v-16.574H233.594 M234.391,687.728h-8.172v18.168h8.172V687.728
					L234.391,687.728z"/>
			</g>
			<circle cx="230.305" cy="696.812" r="2.191"/>
		</g>
		<g>
			<g>
				<rect x="226.618" y="706.294" fill="#B5B4B5" width="7.375" height="17.371"/>
				<path fill="#898989" d="M233.594,706.693v16.574h-6.578v-16.574H233.594 M234.391,705.896h-8.172v18.168h8.172V705.896
					L234.391,705.896z"/>
			</g>
			<circle cx="230.305" cy="714.98" r="2.191"/>
		</g>
		<g>
			<g>
				<rect x="226.618" y="724.462" fill="#B5B4B5" width="7.375" height="17.371"/>
				<path fill="#898989" d="M233.594,724.861v16.574h-6.578v-16.574H233.594 M234.391,724.064h-8.172v18.168h8.172V724.064
					L234.391,724.064z"/>
			</g>
			<circle cx="230.305" cy="733.148" r="2.191"/>
		</g>
		<g>
			<g>
				<rect x="226.618" y="742.63" fill="#B5B4B5" width="7.375" height="17.371"/>
				<path fill="#898989" d="M233.594,743.029v16.574h-6.578v-16.574H233.594 M234.391,742.232h-8.172V760.4h8.172V742.232
					L234.391,742.232z"/>
			</g>
			<circle cx="230.305" cy="751.316" r="2.191"/>
		</g>
		<g>
			<g>
				<rect x="226.618" y="760.798" fill="#B5B4B5" width="7.375" height="17.371"/>
				<path fill="#898989" d="M233.594,761.197v16.574h-6.578v-16.574H233.594 M234.391,760.4h-8.172v18.168h8.172V760.4
					L234.391,760.4z"/>
			</g>
			<circle cx="230.305" cy="769.484" r="2.191"/>
		</g>
		<g>
			<g>
				<rect x="226.618" y="778.966" fill="#B5B4B5" width="7.375" height="17.371"/>
				<path fill="#898989" d="M233.594,779.365v16.574h-6.578v-16.574H233.594 M234.391,778.568h-8.172v18.168h8.172V778.568
					L234.391,778.568z"/>
			</g>
			<circle cx="230.305" cy="787.652" r="2.191"/>
		</g>
	</g>
	<g>
		<path fill="#DCDDDD" d="M14.867,47.197h-1.604v-6.042c-0.586,0.547-1.276,0.953-2.071,1.215v-1.455
			c0.418-0.137,0.873-0.396,1.364-0.779s0.828-0.829,1.01-1.338h1.301V47.197z"/>
		<path fill="#DCDDDD" d="M17.423,44.966v-1.604h3.15v1.604H17.423z"/>
	</g>
	<g>
		<path fill="#DCDDDD" d="M16.18,63.85v1.489h-5.621c0.061-0.563,0.243-1.097,0.548-1.601c0.304-0.504,0.905-1.172,1.803-2.006
			c0.723-0.673,1.166-1.129,1.329-1.369c0.221-0.331,0.331-0.658,0.331-0.981c0-0.357-0.096-0.632-0.288-0.825
			c-0.192-0.192-0.458-0.288-0.796-0.288c-0.335,0-0.601,0.101-0.799,0.302c-0.198,0.202-0.312,0.537-0.342,1.004l-1.598-0.16
			c0.095-0.882,0.394-1.516,0.896-1.9c0.502-0.384,1.13-0.577,1.883-0.577c0.825,0,1.474,0.223,1.946,0.668
			c0.471,0.445,0.708,0.999,0.708,1.66c0,0.376-0.068,0.735-0.203,1.076c-0.135,0.34-0.349,0.697-0.642,1.07
			c-0.194,0.248-0.544,0.603-1.05,1.067c-0.506,0.464-0.827,0.772-0.961,0.924c-0.135,0.152-0.245,0.301-0.328,0.445H16.18z"/>
		<path fill="#DCDDDD" d="M17.423,63.108v-1.604h3.15v1.604H17.423z"/>
	</g>
	<g>
		<path fill="#DCDDDD" d="M10.708,81.262l1.552-0.188c0.05,0.396,0.183,0.698,0.399,0.907c0.217,0.209,0.479,0.313,0.788,0.313
			c0.331,0,0.609-0.125,0.836-0.376c0.226-0.251,0.339-0.589,0.339-1.016c0-0.403-0.108-0.723-0.325-0.958s-0.481-0.354-0.793-0.354
			c-0.206,0-0.451,0.04-0.736,0.12l0.177-1.307c0.434,0.011,0.765-0.083,0.993-0.283s0.342-0.465,0.342-0.796
			c0-0.282-0.083-0.506-0.251-0.673s-0.39-0.251-0.667-0.251c-0.274,0-0.508,0.095-0.702,0.285c-0.194,0.19-0.312,0.468-0.354,0.833
			l-1.478-0.251c0.103-0.506,0.258-0.91,0.465-1.212c0.207-0.303,0.496-0.54,0.867-0.713c0.371-0.173,0.787-0.26,1.247-0.26
			c0.788,0,1.419,0.251,1.895,0.753c0.392,0.411,0.588,0.875,0.588,1.392c0,0.734-0.401,1.32-1.204,1.757
			c0.479,0.103,0.862,0.333,1.15,0.69c0.287,0.358,0.431,0.79,0.431,1.295c0,0.734-0.268,1.36-0.805,1.877
			c-0.536,0.517-1.204,0.776-2.003,0.776c-0.757,0-1.384-0.218-1.883-0.653S10.787,81.966,10.708,81.262z"/>
		<path fill="#DCDDDD" d="M17.423,81.25v-1.604h3.15v1.604H17.423z"/>
	</g>
	<g>
		<path fill="#DCDDDD" d="M13.909,101.624v-1.683h-3.424v-1.404l3.629-5.313h1.347v5.307h1.039v1.41H15.46v1.683H13.909z
			 M13.909,98.531v-2.858l-1.923,2.858H13.909z"/>
		<path fill="#DCDDDD" d="M17.423,99.393V97.79h3.15v1.604H17.423z"/>
	</g>
	<g>
		<path fill="#DCDDDD" d="M10.787,117.615l1.598-0.165c0.046,0.361,0.181,0.647,0.405,0.858c0.225,0.211,0.483,0.317,0.776,0.317
			c0.335,0,0.618-0.136,0.851-0.408c0.232-0.272,0.348-0.682,0.348-1.229c0-0.514-0.115-0.899-0.345-1.155
			c-0.23-0.257-0.53-0.385-0.899-0.385c-0.46,0-0.873,0.204-1.238,0.61l-1.301-0.188l0.822-4.354h4.239v1.501h-3.024l-0.251,1.42
			c0.358-0.179,0.723-0.268,1.096-0.268c0.711,0,1.314,0.259,1.809,0.776c0.494,0.518,0.742,1.189,0.742,2.015
			c0,0.688-0.2,1.303-0.599,1.843c-0.544,0.738-1.299,1.107-2.266,1.107c-0.772,0-1.401-0.207-1.889-0.622
			C11.173,118.872,10.882,118.315,10.787,117.615z"/>
		<path fill="#DCDDDD" d="M17.423,117.535v-1.604h3.15v1.604H17.423z"/>
	</g>
	<g>
		<path fill="#DCDDDD" d="M16.197,131.592l-1.552,0.171c-0.038-0.319-0.137-0.555-0.297-0.708c-0.16-0.152-0.367-0.228-0.622-0.228
			c-0.339,0-0.625,0.152-0.859,0.457c-0.234,0.304-0.381,0.938-0.442,1.9c0.399-0.472,0.896-0.708,1.489-0.708
			c0.669,0,1.243,0.255,1.721,0.765c0.477,0.51,0.716,1.168,0.716,1.974c0,0.856-0.251,1.542-0.753,2.06
			c-0.502,0.517-1.147,0.776-1.935,0.776c-0.844,0-1.539-0.328-2.083-0.984s-0.816-1.731-0.816-3.227
			c0-1.533,0.283-2.638,0.85-3.315c0.567-0.677,1.303-1.016,2.208-1.016c0.635,0,1.161,0.178,1.578,0.534
			C15.817,130.398,16.083,130.915,16.197,131.592z M12.562,135.09c0,0.521,0.12,0.923,0.359,1.207
			c0.24,0.283,0.514,0.425,0.822,0.425c0.296,0,0.544-0.116,0.742-0.348c0.198-0.232,0.297-0.612,0.297-1.141
			c0-0.544-0.107-0.942-0.32-1.195s-0.479-0.379-0.799-0.379c-0.308,0-0.569,0.121-0.782,0.362S12.562,134.618,12.562,135.09z"/>
		<path fill="#DCDDDD" d="M17.423,135.678v-1.604h3.15v1.604H17.423z"/>
	</g>
	<g>
		<path fill="#DCDDDD" d="M10.765,149.29V147.8h5.483v1.164c-0.453,0.445-0.913,1.084-1.381,1.917
			c-0.468,0.833-0.825,1.718-1.07,2.656c-0.246,0.938-0.366,1.776-0.362,2.514h-1.546c0.026-1.156,0.265-2.335,0.716-3.538
			c0.451-1.202,1.053-2.277,1.806-3.224H10.765z"/>
		<path fill="#DCDDDD" d="M17.423,153.82v-1.604h3.15v1.604H17.423z"/>
	</g>
	<g>
		<path fill="#DCDDDD" d="M12.14,169.68c-0.415-0.175-0.716-0.416-0.904-0.722c-0.188-0.306-0.283-0.642-0.283-1.007
			c0-0.624,0.218-1.14,0.653-1.546c0.436-0.407,1.055-0.611,1.857-0.611c0.795,0,1.412,0.204,1.852,0.611
			c0.439,0.407,0.659,0.922,0.659,1.546c0,0.388-0.101,0.733-0.302,1.036c-0.202,0.302-0.485,0.533-0.851,0.693
			c0.464,0.187,0.817,0.458,1.059,0.816c0.242,0.357,0.362,0.77,0.362,1.238c0,0.772-0.246,1.4-0.739,1.883
			c-0.493,0.483-1.148,0.725-1.966,0.725c-0.761,0-1.394-0.2-1.9-0.599c-0.598-0.472-0.896-1.119-0.896-1.94
			c0-0.453,0.112-0.868,0.336-1.247C11.303,170.177,11.657,169.885,12.14,169.68z M12.322,171.648c0,0.441,0.113,0.786,0.339,1.033
			c0.227,0.248,0.509,0.371,0.848,0.371c0.331,0,0.604-0.119,0.821-0.357c0.217-0.237,0.325-0.581,0.325-1.03
			c0-0.392-0.11-0.707-0.331-0.944c-0.221-0.238-0.5-0.356-0.839-0.356c-0.392,0-0.684,0.135-0.876,0.405
			C12.418,171.04,12.322,171.333,12.322,171.648z M12.471,168.065c0,0.32,0.09,0.569,0.271,0.748s0.421,0.268,0.722,0.268
			c0.304,0,0.548-0.09,0.73-0.271s0.274-0.431,0.274-0.75c0-0.301-0.09-0.542-0.271-0.722s-0.419-0.271-0.716-0.271
			c-0.308,0-0.553,0.091-0.736,0.274S12.471,167.765,12.471,168.065z"/>
		<path fill="#DCDDDD" d="M17.423,171.962v-1.604h3.15v1.604H17.423z"/>
	</g>
	<g>
		<path fill="#DCDDDD" d="M10.799,190.401l1.552-0.171c0.038,0.316,0.137,0.55,0.297,0.702c0.16,0.152,0.371,0.229,0.633,0.229
			c0.331,0,0.612-0.152,0.845-0.457c0.232-0.304,0.38-0.936,0.445-1.895c-0.403,0.468-0.907,0.702-1.512,0.702
			c-0.658,0-1.226-0.254-1.703-0.762s-0.716-1.168-0.716-1.982c0-0.849,0.252-1.532,0.756-2.052
			c0.504-0.519,1.146-0.779,1.926-0.779c0.848,0,1.544,0.328,2.088,0.984s0.816,1.736,0.816,3.238c0,1.529-0.283,2.632-0.85,3.31
			s-1.305,1.016-2.214,1.016c-0.654,0-1.183-0.174-1.586-0.522C11.171,191.614,10.913,191.093,10.799,190.401z M14.428,186.897
			c0-0.517-0.119-0.918-0.356-1.204c-0.238-0.286-0.513-0.428-0.825-0.428c-0.297,0-0.543,0.117-0.739,0.351
			c-0.196,0.234-0.294,0.617-0.294,1.15c0,0.54,0.106,0.937,0.319,1.189c0.213,0.253,0.479,0.379,0.799,0.379
			c0.308,0,0.568-0.122,0.779-0.365C14.322,187.727,14.428,187.369,14.428,186.897z"/>
		<path fill="#DCDDDD" d="M17.423,190.104v-1.604h3.15v1.604H17.423z"/>
	</g>
	<g>
		<path fill="#DCDDDD" d="M8.368,210.478H6.765v-6.042c-0.586,0.547-1.276,0.953-2.071,1.215v-1.455
			c0.418-0.137,0.873-0.396,1.364-0.779s0.828-0.829,1.01-1.338h1.301V210.478z"/>
		<path fill="#DCDDDD" d="M13.475,202.079c0.811,0,1.444,0.289,1.9,0.868c0.544,0.685,0.816,1.82,0.816,3.406
			c0,1.583-0.274,2.72-0.822,3.412c-0.453,0.571-1.084,0.856-1.895,0.856c-0.814,0-1.47-0.313-1.968-0.938
			c-0.499-0.626-0.748-1.741-0.748-3.347c0-1.575,0.274-2.708,0.822-3.401C12.033,202.364,12.665,202.079,13.475,202.079z
			 M13.475,203.408c-0.194,0-0.367,0.062-0.519,0.186s-0.27,0.345-0.354,0.665c-0.111,0.415-0.166,1.113-0.166,2.094
			s0.049,1.656,0.148,2.023c0.099,0.367,0.224,0.611,0.374,0.733c0.15,0.122,0.322,0.183,0.516,0.183
			c0.194,0,0.367-0.062,0.52-0.185c0.152-0.124,0.27-0.345,0.354-0.665c0.11-0.411,0.166-1.107,0.166-2.088
			s-0.049-1.656-0.148-2.023c-0.099-0.367-0.224-0.612-0.374-0.736S13.669,203.408,13.475,203.408z"/>
		<path fill="#DCDDDD" d="M17.424,208.247v-1.604h3.15v1.604H17.424z"/>
	</g>
	<g>
		<path fill="#DCDDDD" d="M8.368,228.621H6.765v-6.042c-0.586,0.547-1.276,0.953-2.071,1.215v-1.455
			c0.418-0.137,0.873-0.396,1.364-0.779s0.828-0.829,1.01-1.338h1.301V228.621z"/>
		<path fill="#DCDDDD" d="M14.223,228.621h-1.604v-6.042c-0.586,0.547-1.276,0.953-2.071,1.215v-1.455
			c0.418-0.137,0.873-0.396,1.364-0.779s0.828-0.829,1.01-1.338h1.301V228.621z"/>
		<path fill="#DCDDDD" d="M16.779,226.39v-1.604h3.15v1.604H16.779z"/>
	</g>
	<g>
		<path fill="#DCDDDD" d="M8.368,246.762H6.765v-6.042c-0.586,0.547-1.276,0.953-2.071,1.215v-1.455
			c0.418-0.137,0.873-0.396,1.364-0.779s0.828-0.829,1.01-1.338h1.301V246.762z"/>
		<path fill="#DCDDDD" d="M16.18,245.273v1.489h-5.621c0.061-0.563,0.243-1.097,0.548-1.601c0.304-0.504,0.905-1.172,1.803-2.006
			c0.723-0.673,1.166-1.129,1.329-1.369c0.221-0.331,0.331-0.658,0.331-0.981c0-0.357-0.096-0.632-0.288-0.825
			c-0.192-0.192-0.458-0.288-0.796-0.288c-0.335,0-0.601,0.101-0.799,0.302c-0.198,0.202-0.312,0.537-0.342,1.004l-1.598-0.16
			c0.095-0.882,0.394-1.516,0.896-1.9c0.502-0.384,1.13-0.577,1.883-0.577c0.825,0,1.474,0.223,1.946,0.668
			c0.471,0.445,0.708,0.999,0.708,1.66c0,0.376-0.068,0.735-0.203,1.076c-0.135,0.34-0.349,0.697-0.642,1.07
			c-0.194,0.248-0.544,0.603-1.05,1.067c-0.506,0.464-0.827,0.772-0.961,0.924c-0.135,0.152-0.245,0.301-0.328,0.445H16.18z"/>
		<path fill="#DCDDDD" d="M17.424,244.531v-1.604h3.15v1.604H17.424z"/>
	</g>
	<g>
		<path fill="#DCDDDD" d="M8.368,264.905H6.765v-6.042c-0.586,0.547-1.276,0.953-2.071,1.215v-1.455
			c0.418-0.137,0.873-0.396,1.364-0.779s0.828-0.829,1.01-1.338h1.301V264.905z"/>
		<path fill="#DCDDDD" d="M10.708,262.685l1.552-0.188c0.05,0.396,0.183,0.698,0.399,0.907c0.217,0.209,0.479,0.313,0.788,0.313
			c0.331,0,0.609-0.125,0.836-0.376c0.226-0.251,0.339-0.589,0.339-1.016c0-0.403-0.108-0.723-0.325-0.958s-0.481-0.354-0.793-0.354
			c-0.206,0-0.451,0.04-0.736,0.12l0.177-1.307c0.434,0.011,0.765-0.083,0.993-0.283s0.342-0.465,0.342-0.796
			c0-0.282-0.083-0.506-0.251-0.673s-0.39-0.251-0.667-0.251c-0.274,0-0.508,0.095-0.702,0.285c-0.194,0.19-0.312,0.468-0.354,0.833
			l-1.478-0.251c0.103-0.506,0.258-0.91,0.465-1.212c0.207-0.303,0.496-0.54,0.867-0.713c0.371-0.173,0.787-0.26,1.247-0.26
			c0.788,0,1.419,0.251,1.895,0.753c0.392,0.411,0.588,0.875,0.588,1.392c0,0.734-0.401,1.32-1.204,1.757
			c0.479,0.103,0.862,0.333,1.15,0.69c0.287,0.358,0.431,0.79,0.431,1.295c0,0.734-0.268,1.36-0.805,1.877
			c-0.536,0.517-1.204,0.776-2.003,0.776c-0.757,0-1.384-0.218-1.883-0.653S10.787,263.389,10.708,262.685z"/>
		<path fill="#DCDDDD" d="M17.424,262.674v-1.604h3.15v1.604H17.424z"/>
	</g>
	<g>
		<path fill="#DCDDDD" d="M8.368,283.047H6.765v-6.043c-0.586,0.548-1.276,0.953-2.071,1.216v-1.455
			c0.418-0.137,0.873-0.396,1.364-0.779s0.828-0.829,1.01-1.338h1.301V283.047z"/>
		<path fill="#DCDDDD" d="M13.909,283.047v-1.684h-3.424v-1.403l3.629-5.313h1.347v5.307h1.039v1.409H15.46v1.684H13.909z
			 M13.909,279.955v-2.858l-1.923,2.858H13.909z"/>
		<path fill="#DCDDDD" d="M17.424,280.816v-1.603h3.15v1.603H17.424z"/>
	</g>
	<g>
		<path fill="#DCDDDD" d="M8.368,301.19H6.765v-6.043c-0.586,0.548-1.276,0.953-2.071,1.216v-1.455
			c0.418-0.137,0.873-0.396,1.364-0.779c0.491-0.382,0.828-0.828,1.01-1.338h1.301V301.19z"/>
		<path fill="#DCDDDD" d="M10.787,299.039l1.598-0.165c0.046,0.361,0.181,0.647,0.405,0.858s0.483,0.316,0.776,0.316
			c0.335,0,0.618-0.136,0.851-0.407c0.232-0.272,0.348-0.683,0.348-1.23c0-0.513-0.115-0.898-0.345-1.155
			c-0.23-0.257-0.53-0.385-0.899-0.385c-0.46,0-0.873,0.203-1.238,0.61l-1.301-0.188l0.822-4.354h4.239v1.501h-3.024l-0.251,1.421
			c0.358-0.179,0.723-0.269,1.096-0.269c0.711,0,1.314,0.259,1.809,0.776c0.494,0.517,0.742,1.188,0.742,2.014
			c0,0.688-0.2,1.303-0.599,1.844c-0.544,0.737-1.299,1.106-2.266,1.106c-0.772,0-1.401-0.207-1.889-0.622
			C11.173,300.296,10.882,299.739,10.787,299.039z"/>
		<path fill="#DCDDDD" d="M17.424,298.958v-1.603h3.15v1.603H17.424z"/>
	</g>
	<g>
		<path fill="#DCDDDD" d="M8.368,319.332H6.765v-6.043c-0.586,0.548-1.276,0.953-2.071,1.216v-1.455
			c0.418-0.137,0.873-0.396,1.364-0.779c0.491-0.382,0.828-0.828,1.01-1.338h1.301V319.332z"/>
		<path fill="#DCDDDD" d="M16.197,313.015l-1.552,0.171c-0.038-0.319-0.137-0.556-0.297-0.707c-0.16-0.152-0.367-0.229-0.622-0.229
			c-0.339,0-0.625,0.152-0.859,0.456c-0.234,0.305-0.381,0.938-0.442,1.9c0.399-0.472,0.896-0.708,1.489-0.708
			c0.669,0,1.243,0.256,1.721,0.765c0.477,0.51,0.716,1.168,0.716,1.975c0,0.856-0.251,1.543-0.753,2.06
			c-0.502,0.518-1.147,0.776-1.935,0.776c-0.844,0-1.539-0.328-2.083-0.984s-0.816-1.731-0.816-3.227
			c0-1.533,0.283-2.638,0.85-3.315c0.567-0.677,1.303-1.016,2.208-1.016c0.635,0,1.161,0.178,1.578,0.533
			C15.817,311.822,16.083,312.338,16.197,313.015z M12.562,316.513c0,0.521,0.12,0.923,0.359,1.206
			c0.24,0.284,0.514,0.426,0.822,0.426c0.296,0,0.544-0.116,0.742-0.349c0.198-0.231,0.297-0.612,0.297-1.141
			c0-0.544-0.107-0.942-0.32-1.195s-0.479-0.38-0.799-0.38c-0.308,0-0.569,0.121-0.782,0.362S12.562,316.042,12.562,316.513z"/>
		<path fill="#DCDDDD" d="M17.424,317.1v-1.603h3.15v1.603H17.424z"/>
	</g>
	<g>
		<path fill="#DCDDDD" d="M8.368,337.474H6.765v-6.043c-0.586,0.548-1.276,0.953-2.071,1.216v-1.455
			c0.418-0.137,0.873-0.396,1.364-0.779c0.491-0.382,0.828-0.828,1.01-1.338h1.301V337.474z"/>
		<path fill="#DCDDDD" d="M10.765,330.712v-1.489h5.483v1.164c-0.453,0.445-0.913,1.084-1.381,1.917s-0.825,1.719-1.07,2.656
			c-0.246,0.938-0.366,1.775-0.362,2.514h-1.546c0.026-1.156,0.265-2.336,0.716-3.538c0.451-1.201,1.053-2.276,1.806-3.224H10.765z"
			/>
		<path fill="#DCDDDD" d="M17.424,335.243v-1.603h3.15v1.603H17.424z"/>
	</g>
	<g>
		<path fill="#DCDDDD" d="M8.368,355.617H6.765v-6.043c-0.586,0.548-1.276,0.953-2.071,1.216v-1.455
			c0.418-0.137,0.873-0.396,1.364-0.779c0.491-0.382,0.828-0.828,1.01-1.338h1.301V355.617z"/>
		<path fill="#DCDDDD" d="M12.14,351.103c-0.415-0.175-0.716-0.415-0.904-0.722c-0.188-0.306-0.283-0.642-0.283-1.007
			c0-0.624,0.218-1.14,0.653-1.547c0.436-0.406,1.055-0.61,1.857-0.61c0.795,0,1.412,0.204,1.852,0.61
			c0.439,0.407,0.659,0.923,0.659,1.547c0,0.388-0.101,0.733-0.302,1.035c-0.202,0.303-0.485,0.534-0.851,0.693
			c0.464,0.187,0.817,0.459,1.059,0.816s0.362,0.771,0.362,1.238c0,0.771-0.246,1.399-0.739,1.883s-1.148,0.725-1.966,0.725
			c-0.761,0-1.394-0.2-1.9-0.6c-0.598-0.472-0.896-1.118-0.896-1.939c0-0.453,0.112-0.868,0.336-1.247
			C11.303,351.601,11.657,351.309,12.14,351.103z M12.322,353.072c0,0.441,0.113,0.785,0.339,1.033
			c0.227,0.247,0.509,0.37,0.848,0.37c0.331,0,0.604-0.118,0.821-0.356c0.217-0.237,0.325-0.581,0.325-1.029
			c0-0.393-0.11-0.707-0.331-0.944c-0.221-0.238-0.5-0.357-0.839-0.357c-0.392,0-0.684,0.136-0.876,0.405
			C12.418,352.463,12.322,352.756,12.322,353.072z M12.471,349.489c0,0.319,0.09,0.568,0.271,0.747s0.421,0.269,0.722,0.269
			c0.304,0,0.548-0.091,0.73-0.271s0.274-0.431,0.274-0.75c0-0.301-0.09-0.541-0.271-0.722s-0.419-0.271-0.716-0.271
			c-0.308,0-0.553,0.092-0.736,0.274S12.471,349.188,12.471,349.489z"/>
		<path fill="#DCDDDD" d="M17.424,353.385v-1.603h3.15v1.603H17.424z"/>
	</g>
	<g>
		<path fill="#DCDDDD" d="M8.368,373.758H6.765v-6.043c-0.586,0.548-1.276,0.953-2.071,1.216v-1.455
			c0.418-0.137,0.873-0.396,1.364-0.779c0.491-0.382,0.828-0.828,1.01-1.338h1.301V373.758z"/>
		<path fill="#DCDDDD" d="M10.799,371.824l1.552-0.171c0.038,0.315,0.137,0.55,0.297,0.702c0.16,0.151,0.371,0.228,0.633,0.228
			c0.331,0,0.612-0.151,0.845-0.456c0.232-0.305,0.38-0.936,0.445-1.895c-0.403,0.468-0.907,0.702-1.512,0.702
			c-0.658,0-1.226-0.254-1.703-0.762s-0.716-1.169-0.716-1.983c0-0.848,0.252-1.532,0.756-2.051c0.504-0.52,1.146-0.779,1.926-0.779
			c0.848,0,1.544,0.328,2.088,0.984s0.816,1.735,0.816,3.238c0,1.529-0.283,2.633-0.85,3.31s-1.305,1.016-2.214,1.016
			c-0.654,0-1.183-0.174-1.586-0.522C11.171,373.037,10.913,372.516,10.799,371.824z M14.428,368.321
			c0-0.518-0.119-0.919-0.356-1.204c-0.238-0.285-0.513-0.428-0.825-0.428c-0.297,0-0.543,0.116-0.739,0.351
			c-0.196,0.233-0.294,0.617-0.294,1.149c0,0.54,0.106,0.938,0.319,1.19c0.213,0.253,0.479,0.379,0.799,0.379
			c0.308,0,0.568-0.122,0.779-0.365C14.322,369.15,14.428,368.792,14.428,368.321z"/>
		<path fill="#DCDDDD" d="M17.424,371.527v-1.603h3.15v1.603H17.424z"/>
	</g>
	<g>
		<path fill="#DCDDDD" d="M9.681,390.412v1.489H4.06c0.061-0.563,0.243-1.097,0.548-1.601c0.304-0.504,0.905-1.173,1.803-2.006
			c0.723-0.673,1.166-1.13,1.329-1.369c0.221-0.331,0.331-0.658,0.331-0.981c0-0.357-0.096-0.633-0.288-0.824
			c-0.192-0.192-0.458-0.288-0.796-0.288c-0.335,0-0.601,0.101-0.799,0.302c-0.198,0.202-0.312,0.536-0.342,1.005l-1.598-0.16
			c0.095-0.883,0.394-1.516,0.896-1.9c0.502-0.384,1.13-0.576,1.883-0.576c0.825,0,1.474,0.223,1.946,0.668
			c0.471,0.445,0.708,0.998,0.708,1.66c0,0.377-0.068,0.735-0.203,1.075c-0.135,0.341-0.349,0.697-0.642,1.07
			c-0.194,0.247-0.544,0.603-1.05,1.067c-0.506,0.464-0.827,0.771-0.961,0.924c-0.135,0.152-0.245,0.301-0.328,0.445H9.681z"/>
		<path fill="#DCDDDD" d="M13.475,383.501c0.811,0,1.444,0.289,1.9,0.867c0.544,0.685,0.816,1.82,0.816,3.407
			c0,1.582-0.274,2.72-0.822,3.412c-0.453,0.57-1.084,0.855-1.895,0.855c-0.814,0-1.47-0.313-1.968-0.938
			c-0.499-0.626-0.748-1.741-0.748-3.347c0-1.575,0.274-2.708,0.822-3.4C12.033,383.787,12.665,383.501,13.475,383.501z
			 M13.475,384.832c-0.194,0-0.367,0.062-0.519,0.185c-0.152,0.124-0.27,0.346-0.354,0.665c-0.111,0.415-0.166,1.113-0.166,2.095
			s0.049,1.655,0.148,2.022c0.099,0.367,0.224,0.611,0.374,0.733c0.15,0.121,0.322,0.183,0.516,0.183
			c0.194,0,0.367-0.063,0.52-0.186c0.152-0.124,0.27-0.346,0.354-0.665c0.11-0.411,0.166-1.106,0.166-2.088
			s-0.049-1.656-0.148-2.023c-0.099-0.367-0.224-0.612-0.374-0.736C13.841,384.893,13.669,384.832,13.475,384.832z"/>
		<path fill="#DCDDDD" d="M17.424,389.669v-1.603h3.15v1.603H17.424z"/>
	</g>
	<g>
		<path fill="#DCDDDD" d="M9.681,408.554v1.489H4.06c0.061-0.563,0.243-1.097,0.548-1.601c0.304-0.504,0.905-1.173,1.803-2.006
			c0.723-0.673,1.166-1.13,1.329-1.369c0.221-0.331,0.331-0.658,0.331-0.981c0-0.357-0.096-0.633-0.288-0.824
			c-0.192-0.192-0.458-0.288-0.796-0.288c-0.335,0-0.601,0.101-0.799,0.302c-0.198,0.202-0.312,0.536-0.342,1.005l-1.598-0.16
			c0.095-0.883,0.394-1.516,0.896-1.9c0.502-0.384,1.13-0.576,1.883-0.576c0.825,0,1.474,0.223,1.946,0.668
			c0.471,0.445,0.708,0.998,0.708,1.66c0,0.377-0.068,0.735-0.203,1.075c-0.135,0.341-0.349,0.697-0.642,1.07
			c-0.194,0.247-0.544,0.603-1.05,1.067c-0.506,0.464-0.827,0.771-0.961,0.924c-0.135,0.152-0.245,0.301-0.328,0.445H9.681z"/>
		<path fill="#DCDDDD" d="M14.867,410.043h-1.604V404c-0.586,0.548-1.276,0.953-2.071,1.216v-1.455
			c0.418-0.137,0.873-0.396,1.364-0.779c0.491-0.382,0.828-0.828,1.01-1.338h1.301V410.043z"/>
		<path fill="#DCDDDD" d="M17.424,407.812v-1.603h3.15v1.603H17.424z"/>
	</g>
	<g>
		<path fill="#DCDDDD" d="M9.681,426.697v1.489H4.06c0.061-0.563,0.243-1.097,0.548-1.601c0.304-0.504,0.905-1.173,1.803-2.006
			c0.723-0.673,1.166-1.13,1.329-1.369c0.221-0.331,0.331-0.658,0.331-0.981c0-0.357-0.096-0.633-0.288-0.824
			c-0.192-0.192-0.458-0.288-0.796-0.288c-0.335,0-0.601,0.101-0.799,0.302c-0.198,0.202-0.312,0.536-0.342,1.005l-1.598-0.16
			c0.095-0.883,0.394-1.516,0.896-1.9c0.502-0.384,1.13-0.576,1.883-0.576c0.825,0,1.474,0.223,1.946,0.668
			c0.471,0.445,0.708,0.998,0.708,1.66c0,0.377-0.068,0.735-0.203,1.075c-0.135,0.341-0.349,0.697-0.642,1.07
			c-0.194,0.247-0.544,0.603-1.05,1.067c-0.506,0.464-0.827,0.771-0.961,0.924c-0.135,0.152-0.245,0.301-0.328,0.445H9.681z"/>
		<path fill="#DCDDDD" d="M16.18,426.697v1.489h-5.621c0.061-0.563,0.243-1.097,0.548-1.601c0.304-0.504,0.905-1.173,1.803-2.006
			c0.723-0.673,1.166-1.13,1.329-1.369c0.221-0.331,0.331-0.658,0.331-0.981c0-0.357-0.096-0.633-0.288-0.824
			c-0.192-0.192-0.458-0.288-0.796-0.288c-0.335,0-0.601,0.101-0.799,0.302c-0.198,0.202-0.312,0.536-0.342,1.005l-1.598-0.16
			c0.095-0.883,0.394-1.516,0.896-1.9c0.502-0.384,1.13-0.576,1.883-0.576c0.825,0,1.474,0.223,1.946,0.668
			c0.471,0.445,0.708,0.998,0.708,1.66c0,0.377-0.068,0.735-0.203,1.075c-0.135,0.341-0.349,0.697-0.642,1.07
			c-0.194,0.247-0.544,0.603-1.05,1.067c-0.506,0.464-0.827,0.771-0.961,0.924c-0.135,0.152-0.245,0.301-0.328,0.445H16.18z"/>
		<path fill="#DCDDDD" d="M17.424,425.955v-1.603h3.15v1.603H17.424z"/>
	</g>
	<g>
		<path fill="#DCDDDD" d="M9.681,444.839v1.489H4.06c0.061-0.563,0.243-1.097,0.548-1.601c0.304-0.504,0.905-1.173,1.803-2.006
			c0.723-0.673,1.166-1.13,1.329-1.369c0.221-0.331,0.331-0.658,0.331-0.981c0-0.357-0.096-0.633-0.288-0.824
			c-0.192-0.192-0.458-0.288-0.796-0.288c-0.335,0-0.601,0.101-0.799,0.302c-0.198,0.202-0.312,0.536-0.342,1.005l-1.598-0.16
			c0.095-0.883,0.394-1.516,0.896-1.9c0.502-0.384,1.13-0.576,1.883-0.576c0.825,0,1.474,0.223,1.946,0.668
			c0.471,0.445,0.708,0.998,0.708,1.66c0,0.377-0.068,0.735-0.203,1.075c-0.135,0.341-0.349,0.697-0.642,1.07
			c-0.194,0.247-0.544,0.603-1.05,1.067c-0.506,0.464-0.827,0.771-0.961,0.924c-0.135,0.152-0.245,0.301-0.328,0.445H9.681z"/>
		<path fill="#DCDDDD" d="M10.708,444.109l1.552-0.188c0.05,0.396,0.183,0.698,0.399,0.907c0.217,0.21,0.479,0.314,0.788,0.314
			c0.331,0,0.609-0.126,0.836-0.377c0.226-0.251,0.339-0.59,0.339-1.016c0-0.403-0.108-0.723-0.325-0.959
			c-0.217-0.235-0.481-0.354-0.793-0.354c-0.206,0-0.451,0.04-0.736,0.12l0.177-1.307c0.434,0.011,0.765-0.083,0.993-0.282
			c0.228-0.2,0.342-0.466,0.342-0.797c0-0.281-0.083-0.506-0.251-0.673s-0.39-0.251-0.667-0.251c-0.274,0-0.508,0.095-0.702,0.285
			c-0.194,0.19-0.312,0.468-0.354,0.833l-1.478-0.251c0.103-0.506,0.258-0.91,0.465-1.213c0.207-0.302,0.496-0.54,0.867-0.713
			c0.371-0.173,0.787-0.26,1.247-0.26c0.788,0,1.419,0.251,1.895,0.753c0.392,0.411,0.588,0.875,0.588,1.393
			c0,0.734-0.401,1.32-1.204,1.758c0.479,0.103,0.862,0.333,1.15,0.69c0.287,0.357,0.431,0.789,0.431,1.295
			c0,0.734-0.268,1.36-0.805,1.877c-0.536,0.518-1.204,0.776-2.003,0.776c-0.757,0-1.384-0.218-1.883-0.653
			S10.787,444.813,10.708,444.109z"/>
		<path fill="#DCDDDD" d="M17.424,444.097v-1.603h3.15v1.603H17.424z"/>
	</g>
	<g>
		<path fill="#DCDDDD" d="M9.681,462.981v1.489H4.06c0.061-0.563,0.243-1.097,0.548-1.601c0.304-0.504,0.905-1.173,1.803-2.006
			c0.723-0.673,1.166-1.13,1.329-1.369c0.221-0.331,0.331-0.658,0.331-0.981c0-0.357-0.096-0.633-0.288-0.824
			c-0.192-0.192-0.458-0.288-0.796-0.288c-0.335,0-0.601,0.101-0.799,0.302c-0.198,0.202-0.312,0.536-0.342,1.005l-1.598-0.16
			c0.095-0.883,0.394-1.516,0.896-1.9c0.502-0.384,1.13-0.576,1.883-0.576c0.825,0,1.474,0.223,1.946,0.668
			c0.471,0.445,0.708,0.998,0.708,1.66c0,0.377-0.068,0.735-0.203,1.075c-0.135,0.341-0.349,0.697-0.642,1.07
			c-0.194,0.247-0.544,0.603-1.05,1.067c-0.506,0.464-0.827,0.771-0.961,0.924c-0.135,0.152-0.245,0.301-0.328,0.445H9.681z"/>
		<path fill="#DCDDDD" d="M13.909,464.47v-1.684h-3.424v-1.403l3.629-5.313h1.347v5.307h1.039v1.409H15.46v1.684H13.909z
			 M13.909,461.377v-2.858l-1.923,2.858H13.909z"/>
		<path fill="#DCDDDD" d="M17.424,462.239v-1.603h3.15v1.603H17.424z"/>
	</g>
	<g>
		<path fill="#DCDDDD" d="M9.681,481.124v1.489H4.06c0.061-0.563,0.243-1.097,0.548-1.601c0.304-0.504,0.905-1.173,1.803-2.006
			c0.723-0.673,1.166-1.13,1.329-1.369c0.221-0.331,0.331-0.658,0.331-0.981c0-0.357-0.096-0.633-0.288-0.824
			c-0.192-0.192-0.458-0.288-0.796-0.288c-0.335,0-0.601,0.101-0.799,0.302c-0.198,0.202-0.312,0.536-0.342,1.005l-1.598-0.16
			c0.095-0.883,0.394-1.516,0.896-1.9c0.502-0.384,1.13-0.576,1.883-0.576c0.825,0,1.474,0.223,1.946,0.668
			c0.471,0.445,0.708,0.998,0.708,1.66c0,0.377-0.068,0.735-0.203,1.075c-0.135,0.341-0.349,0.697-0.642,1.07
			c-0.194,0.247-0.544,0.603-1.05,1.067c-0.506,0.464-0.827,0.771-0.961,0.924c-0.135,0.152-0.245,0.301-0.328,0.445H9.681z"/>
		<path fill="#DCDDDD" d="M10.787,480.461l1.598-0.165c0.046,0.361,0.181,0.647,0.405,0.858s0.483,0.316,0.776,0.316
			c0.335,0,0.618-0.136,0.851-0.407c0.232-0.272,0.348-0.683,0.348-1.23c0-0.513-0.115-0.898-0.345-1.155
			c-0.23-0.257-0.53-0.385-0.899-0.385c-0.46,0-0.873,0.203-1.238,0.61l-1.301-0.188l0.822-4.354h4.239v1.501h-3.024l-0.251,1.421
			c0.358-0.179,0.723-0.269,1.096-0.269c0.711,0,1.314,0.259,1.809,0.776c0.494,0.517,0.742,1.188,0.742,2.014
			c0,0.688-0.2,1.303-0.599,1.844c-0.544,0.737-1.299,1.106-2.266,1.106c-0.772,0-1.401-0.207-1.889-0.622
			C11.173,481.719,10.882,481.162,10.787,480.461z"/>
		<path fill="#DCDDDD" d="M17.424,480.381v-1.603h3.15v1.603H17.424z"/>
	</g>
	<g>
		<path fill="#DCDDDD" d="M9.681,499.265v1.489H4.06c0.061-0.563,0.243-1.097,0.548-1.601c0.304-0.504,0.905-1.173,1.803-2.006
			c0.723-0.673,1.166-1.13,1.329-1.369c0.221-0.331,0.331-0.658,0.331-0.981c0-0.357-0.096-0.633-0.288-0.824
			c-0.192-0.192-0.458-0.288-0.796-0.288c-0.335,0-0.601,0.101-0.799,0.302c-0.198,0.202-0.312,0.536-0.342,1.005l-1.598-0.16
			c0.095-0.883,0.394-1.516,0.896-1.9c0.502-0.384,1.13-0.576,1.883-0.576c0.825,0,1.474,0.223,1.946,0.668
			c0.471,0.445,0.708,0.998,0.708,1.66c0,0.377-0.068,0.735-0.203,1.075c-0.135,0.341-0.349,0.697-0.642,1.07
			c-0.194,0.247-0.544,0.603-1.05,1.067c-0.506,0.464-0.827,0.771-0.961,0.924c-0.135,0.152-0.245,0.301-0.328,0.445H9.681z"/>
		<path fill="#DCDDDD" d="M16.197,494.438l-1.552,0.171c-0.038-0.319-0.137-0.556-0.297-0.707c-0.16-0.152-0.367-0.229-0.622-0.229
			c-0.339,0-0.625,0.152-0.859,0.456c-0.234,0.305-0.381,0.938-0.442,1.9c0.399-0.472,0.896-0.708,1.489-0.708
			c0.669,0,1.243,0.256,1.721,0.765c0.477,0.51,0.716,1.168,0.716,1.975c0,0.856-0.251,1.543-0.753,2.06
			c-0.502,0.518-1.147,0.776-1.935,0.776c-0.844,0-1.539-0.328-2.083-0.984s-0.816-1.731-0.816-3.227
			c0-1.533,0.283-2.638,0.85-3.315c0.567-0.677,1.303-1.016,2.208-1.016c0.635,0,1.161,0.178,1.578,0.533
			C15.817,493.245,16.083,493.761,16.197,494.438z M12.562,497.936c0,0.521,0.12,0.923,0.359,1.206
			c0.24,0.284,0.514,0.426,0.822,0.426c0.296,0,0.544-0.116,0.742-0.349c0.198-0.231,0.297-0.612,0.297-1.141
			c0-0.544-0.107-0.942-0.32-1.195s-0.479-0.38-0.799-0.38c-0.308,0-0.569,0.121-0.782,0.362S12.562,497.464,12.562,497.936z"/>
		<path fill="#DCDDDD" d="M17.424,498.523v-1.603h3.15v1.603H17.424z"/>
	</g>
	<g>
		<path fill="#DCDDDD" d="M9.681,517.408v1.489H4.06c0.061-0.563,0.243-1.097,0.548-1.601c0.304-0.504,0.905-1.173,1.803-2.006
			c0.723-0.673,1.166-1.13,1.329-1.369c0.221-0.331,0.331-0.658,0.331-0.981c0-0.357-0.096-0.633-0.288-0.824
			c-0.192-0.192-0.458-0.288-0.796-0.288c-0.335,0-0.601,0.101-0.799,0.302c-0.198,0.202-0.312,0.536-0.342,1.005l-1.598-0.16
			c0.095-0.883,0.394-1.516,0.896-1.9c0.502-0.384,1.13-0.576,1.883-0.576c0.825,0,1.474,0.223,1.946,0.668
			c0.471,0.445,0.708,0.998,0.708,1.66c0,0.377-0.068,0.735-0.203,1.075c-0.135,0.341-0.349,0.697-0.642,1.07
			c-0.194,0.247-0.544,0.603-1.05,1.067c-0.506,0.464-0.827,0.771-0.961,0.924c-0.135,0.152-0.245,0.301-0.328,0.445H9.681z"/>
		<path fill="#DCDDDD" d="M10.765,512.135v-1.489h5.483v1.164c-0.453,0.445-0.913,1.084-1.381,1.917s-0.825,1.719-1.07,2.656
			c-0.246,0.938-0.366,1.775-0.362,2.514h-1.546c0.026-1.156,0.265-2.336,0.716-3.538c0.451-1.201,1.053-2.276,1.806-3.224H10.765z"
			/>
		<path fill="#DCDDDD" d="M17.424,516.666v-1.603h3.15v1.603H17.424z"/>
	</g>
	<g>
		<path fill="#DCDDDD" d="M10.897,535.55v1.489H5.276c0.061-0.563,0.243-1.097,0.548-1.601c0.304-0.504,0.905-1.173,1.803-2.006
			c0.723-0.673,1.166-1.13,1.329-1.369c0.221-0.331,0.331-0.658,0.331-0.981c0-0.357-0.096-0.633-0.288-0.824
			c-0.192-0.192-0.458-0.288-0.796-0.288c-0.335,0-0.601,0.101-0.799,0.302c-0.198,0.202-0.312,0.536-0.342,1.005l-1.598-0.16
			c0.095-0.883,0.394-1.516,0.896-1.9c0.502-0.384,1.13-0.576,1.883-0.576c0.825,0,1.474,0.223,1.946,0.668
			c0.471,0.445,0.708,0.998,0.708,1.66c0,0.377-0.068,0.735-0.203,1.075c-0.135,0.341-0.349,0.697-0.642,1.07
			c-0.194,0.247-0.544,0.603-1.05,1.067c-0.506,0.464-0.827,0.771-0.961,0.924c-0.135,0.152-0.245,0.301-0.328,0.445H10.897z"/>
		<path fill="#DCDDDD" d="M13.356,532.526c-0.415-0.175-0.716-0.415-0.904-0.722c-0.188-0.306-0.283-0.642-0.283-1.007
			c0-0.624,0.218-1.14,0.653-1.547c0.436-0.406,1.055-0.61,1.857-0.61c0.795,0,1.412,0.204,1.852,0.61
			c0.439,0.407,0.659,0.923,0.659,1.547c0,0.388-0.101,0.733-0.302,1.035c-0.202,0.303-0.485,0.534-0.851,0.693
			c0.464,0.187,0.817,0.459,1.059,0.816s0.362,0.771,0.362,1.238c0,0.771-0.246,1.399-0.739,1.883s-1.148,0.725-1.966,0.725
			c-0.761,0-1.394-0.2-1.9-0.6c-0.598-0.472-0.896-1.118-0.896-1.939c0-0.453,0.112-0.868,0.336-1.247
			C12.519,533.024,12.873,532.732,13.356,532.526z M13.539,534.495c0,0.441,0.113,0.785,0.339,1.033
			c0.227,0.247,0.509,0.37,0.848,0.37c0.331,0,0.604-0.118,0.821-0.356c0.217-0.237,0.325-0.581,0.325-1.029
			c0-0.393-0.11-0.707-0.331-0.944c-0.221-0.238-0.5-0.357-0.839-0.357c-0.392,0-0.684,0.136-0.876,0.405
			C13.635,533.886,13.539,534.179,13.539,534.495z M13.687,530.912c0,0.319,0.09,0.568,0.271,0.747s0.421,0.269,0.722,0.269
			c0.304,0,0.548-0.091,0.73-0.271s0.274-0.431,0.274-0.75c0-0.301-0.09-0.541-0.271-0.722s-0.419-0.271-0.716-0.271
			c-0.308,0-0.553,0.092-0.736,0.274S13.687,530.611,13.687,530.912z"/>
		<path fill="#DCDDDD" d="M18.64,534.808v-1.603h3.15v1.603H18.64z"/>
	</g>
	<g>
		<path fill="#DCDDDD" d="M10.897,553.693v1.489H5.276c0.061-0.563,0.243-1.097,0.548-1.601c0.304-0.504,0.905-1.173,1.803-2.006
			c0.723-0.673,1.166-1.13,1.329-1.369c0.221-0.331,0.331-0.658,0.331-0.981c0-0.357-0.096-0.633-0.288-0.824
			c-0.192-0.192-0.458-0.288-0.796-0.288c-0.335,0-0.601,0.101-0.799,0.302c-0.198,0.202-0.312,0.536-0.342,1.005l-1.598-0.16
			c0.095-0.883,0.394-1.516,0.896-1.9c0.502-0.384,1.13-0.576,1.883-0.576c0.825,0,1.474,0.223,1.946,0.668
			c0.471,0.445,0.708,0.998,0.708,1.66c0,0.377-0.068,0.735-0.203,1.075c-0.135,0.341-0.349,0.697-0.642,1.07
			c-0.194,0.247-0.544,0.603-1.05,1.067c-0.506,0.464-0.827,0.771-0.961,0.924c-0.135,0.152-0.245,0.301-0.328,0.445H10.897z"/>
		<path fill="#DCDDDD" d="M12.015,553.248l1.552-0.171c0.038,0.315,0.137,0.55,0.297,0.702c0.16,0.151,0.371,0.228,0.633,0.228
			c0.331,0,0.612-0.151,0.845-0.456c0.232-0.305,0.38-0.936,0.445-1.895c-0.403,0.468-0.907,0.702-1.512,0.702
			c-0.658,0-1.226-0.254-1.703-0.762s-0.716-1.169-0.716-1.983c0-0.848,0.252-1.532,0.756-2.051c0.504-0.52,1.146-0.779,1.926-0.779
			c0.848,0,1.544,0.328,2.088,0.984s0.816,1.735,0.816,3.238c0,1.529-0.283,2.633-0.85,3.31s-1.305,1.016-2.214,1.016
			c-0.654,0-1.183-0.174-1.586-0.522C12.388,554.46,12.129,553.94,12.015,553.248z M15.644,549.745c0-0.518-0.119-0.919-0.356-1.204
			c-0.238-0.285-0.513-0.428-0.825-0.428c-0.297,0-0.543,0.116-0.739,0.351c-0.196,0.233-0.294,0.617-0.294,1.149
			c0,0.54,0.106,0.938,0.319,1.19c0.213,0.253,0.479,0.379,0.799,0.379c0.308,0,0.568-0.122,0.779-0.365
			C15.539,550.574,15.644,550.216,15.644,549.745z"/>
		<path fill="#DCDDDD" d="M18.64,552.951v-1.603h3.15v1.603H18.64z"/>
	</g>
	<g>
		<path fill="#DCDDDD" d="M5.425,571.105l1.552-0.188c0.05,0.396,0.183,0.698,0.399,0.907c0.217,0.21,0.479,0.314,0.788,0.314
			c0.331,0,0.609-0.126,0.836-0.377c0.226-0.251,0.339-0.59,0.339-1.016c0-0.403-0.108-0.723-0.325-0.959
			c-0.217-0.235-0.481-0.354-0.793-0.354c-0.206,0-0.451,0.04-0.736,0.12l0.177-1.307c0.434,0.011,0.765-0.083,0.993-0.282
			c0.228-0.2,0.342-0.466,0.342-0.797c0-0.281-0.083-0.506-0.251-0.673s-0.39-0.251-0.667-0.251c-0.274,0-0.508,0.095-0.702,0.285
			c-0.194,0.19-0.312,0.468-0.354,0.833l-1.478-0.251c0.103-0.506,0.258-0.91,0.465-1.213c0.207-0.302,0.496-0.54,0.867-0.713
			c0.371-0.173,0.787-0.26,1.247-0.26c0.788,0,1.419,0.251,1.895,0.753c0.392,0.411,0.588,0.875,0.588,1.393
			c0,0.734-0.401,1.32-1.204,1.758c0.479,0.103,0.862,0.333,1.15,0.69c0.287,0.357,0.431,0.789,0.431,1.295
			c0,0.734-0.268,1.36-0.805,1.877c-0.536,0.518-1.204,0.776-2.003,0.776c-0.757,0-1.384-0.218-1.883-0.653
			S5.504,571.809,5.425,571.105z"/>
		<path fill="#DCDDDD" d="M14.691,564.925c0.811,0,1.444,0.289,1.9,0.867c0.544,0.685,0.816,1.82,0.816,3.407
			c0,1.582-0.274,2.72-0.822,3.412c-0.453,0.57-1.084,0.855-1.895,0.855c-0.814,0-1.47-0.313-1.968-0.938
			c-0.499-0.626-0.748-1.741-0.748-3.347c0-1.575,0.274-2.708,0.822-3.4C13.25,565.21,13.881,564.925,14.691,564.925z
			 M14.691,566.255c-0.194,0-0.367,0.062-0.519,0.185c-0.152,0.124-0.27,0.346-0.354,0.665c-0.111,0.415-0.166,1.113-0.166,2.095
			s0.049,1.655,0.148,2.022c0.099,0.367,0.224,0.611,0.374,0.733c0.15,0.121,0.322,0.183,0.516,0.183
			c0.194,0,0.367-0.063,0.52-0.186c0.152-0.124,0.27-0.346,0.354-0.665c0.11-0.411,0.166-1.106,0.166-2.088
			s-0.049-1.656-0.148-2.023c-0.099-0.367-0.224-0.612-0.374-0.736C15.057,566.317,14.885,566.255,14.691,566.255z"/>
		<path fill="#DCDDDD" d="M18.64,571.093v-1.603h3.15v1.603H18.64z"/>
	</g>
	<g>
		<path fill="#DCDDDD" d="M5.425,589.247l1.552-0.188c0.05,0.396,0.183,0.698,0.399,0.907c0.217,0.21,0.479,0.314,0.788,0.314
			c0.331,0,0.609-0.126,0.836-0.377c0.226-0.251,0.339-0.59,0.339-1.016c0-0.403-0.108-0.723-0.325-0.959
			c-0.217-0.235-0.481-0.354-0.793-0.354c-0.206,0-0.451,0.04-0.736,0.12l0.177-1.307c0.434,0.011,0.765-0.083,0.993-0.282
			c0.228-0.2,0.342-0.466,0.342-0.797c0-0.281-0.083-0.506-0.251-0.673s-0.39-0.251-0.667-0.251c-0.274,0-0.508,0.095-0.702,0.285
			c-0.194,0.19-0.312,0.468-0.354,0.833l-1.478-0.251c0.103-0.506,0.258-0.91,0.465-1.213c0.207-0.302,0.496-0.54,0.867-0.713
			c0.371-0.173,0.787-0.26,1.247-0.26c0.788,0,1.419,0.251,1.895,0.753c0.392,0.411,0.588,0.875,0.588,1.393
			c0,0.734-0.401,1.32-1.204,1.758c0.479,0.103,0.862,0.333,1.15,0.69c0.287,0.357,0.431,0.789,0.431,1.295
			c0,0.734-0.268,1.36-0.805,1.877c-0.536,0.518-1.204,0.776-2.003,0.776c-0.757,0-1.384-0.218-1.883-0.653
			S5.504,589.951,5.425,589.247z"/>
		<path fill="#DCDDDD" d="M16.083,591.466H14.48v-6.043c-0.586,0.548-1.276,0.953-2.071,1.216v-1.455
			c0.418-0.137,0.873-0.396,1.364-0.779c0.491-0.382,0.828-0.828,1.01-1.338h1.301V591.466z"/>
		<path fill="#DCDDDD" d="M18.64,589.235v-1.603h3.15v1.603H18.64z"/>
	</g>
	<g>
		<path fill="#DCDDDD" d="M5.425,607.389l1.552-0.188c0.05,0.396,0.183,0.698,0.399,0.907c0.217,0.21,0.479,0.314,0.788,0.314
			c0.331,0,0.609-0.126,0.836-0.377c0.226-0.251,0.339-0.59,0.339-1.016c0-0.403-0.108-0.723-0.325-0.959
			c-0.217-0.235-0.481-0.354-0.793-0.354c-0.206,0-0.451,0.04-0.736,0.12l0.177-1.307c0.434,0.011,0.765-0.083,0.993-0.282
			c0.228-0.2,0.342-0.466,0.342-0.797c0-0.281-0.083-0.506-0.251-0.673s-0.39-0.251-0.667-0.251c-0.274,0-0.508,0.095-0.702,0.285
			c-0.194,0.19-0.312,0.468-0.354,0.833l-1.478-0.251c0.103-0.506,0.258-0.91,0.465-1.213c0.207-0.302,0.496-0.54,0.867-0.713
			c0.371-0.173,0.787-0.26,1.247-0.26c0.788,0,1.419,0.251,1.895,0.753c0.392,0.411,0.588,0.875,0.588,1.393
			c0,0.734-0.401,1.32-1.204,1.758c0.479,0.103,0.862,0.333,1.15,0.69c0.287,0.357,0.431,0.789,0.431,1.295
			c0,0.734-0.268,1.36-0.805,1.877c-0.536,0.518-1.204,0.776-2.003,0.776c-0.757,0-1.384-0.218-1.883-0.653
			S5.504,608.093,5.425,607.389z"/>
		<path fill="#DCDDDD" d="M17.396,608.12v1.489h-5.621c0.061-0.563,0.243-1.097,0.548-1.601c0.304-0.504,0.905-1.173,1.803-2.006
			c0.723-0.673,1.166-1.13,1.329-1.369c0.221-0.331,0.331-0.658,0.331-0.981c0-0.357-0.096-0.633-0.288-0.824
			c-0.192-0.192-0.458-0.288-0.796-0.288c-0.335,0-0.601,0.101-0.799,0.302c-0.198,0.202-0.312,0.536-0.342,1.005l-1.598-0.16
			c0.095-0.883,0.394-1.516,0.896-1.9c0.502-0.384,1.13-0.576,1.883-0.576c0.825,0,1.474,0.223,1.946,0.668
			c0.471,0.445,0.708,0.998,0.708,1.66c0,0.377-0.068,0.735-0.203,1.075c-0.135,0.341-0.349,0.697-0.642,1.07
			c-0.194,0.247-0.544,0.603-1.05,1.067c-0.506,0.464-0.827,0.771-0.961,0.924c-0.135,0.152-0.245,0.301-0.328,0.445H17.396z"/>
		<path fill="#DCDDDD" d="M18.64,607.377v-1.603h3.15v1.603H18.64z"/>
	</g>
	<g>
		<path fill="#DCDDDD" d="M5.425,625.533l1.552-0.188c0.05,0.396,0.183,0.698,0.399,0.907c0.217,0.21,0.479,0.314,0.788,0.314
			c0.331,0,0.609-0.126,0.836-0.377c0.226-0.251,0.339-0.59,0.339-1.016c0-0.403-0.108-0.723-0.325-0.959
			c-0.217-0.235-0.481-0.354-0.793-0.354c-0.206,0-0.451,0.04-0.736,0.12l0.177-1.307c0.434,0.011,0.765-0.083,0.993-0.282
			c0.228-0.2,0.342-0.466,0.342-0.797c0-0.281-0.083-0.506-0.251-0.673s-0.39-0.251-0.667-0.251c-0.274,0-0.508,0.095-0.702,0.285
			c-0.194,0.19-0.312,0.468-0.354,0.833l-1.478-0.251c0.103-0.506,0.258-0.91,0.465-1.213c0.207-0.302,0.496-0.54,0.867-0.713
			c0.371-0.173,0.787-0.26,1.247-0.26c0.788,0,1.419,0.251,1.895,0.753c0.392,0.411,0.588,0.875,0.588,1.393
			c0,0.734-0.401,1.32-1.204,1.758c0.479,0.103,0.862,0.333,1.15,0.69c0.287,0.357,0.431,0.789,0.431,1.295
			c0,0.734-0.268,1.36-0.805,1.877c-0.536,0.518-1.204,0.776-2.003,0.776c-0.757,0-1.384-0.218-1.883-0.653
			S5.504,626.237,5.425,625.533z"/>
		<path fill="#DCDDDD" d="M11.924,625.533l1.552-0.188c0.05,0.396,0.183,0.698,0.399,0.907c0.217,0.21,0.479,0.314,0.788,0.314
			c0.331,0,0.609-0.126,0.836-0.377c0.226-0.251,0.339-0.59,0.339-1.016c0-0.403-0.108-0.723-0.325-0.959
			c-0.217-0.235-0.481-0.354-0.793-0.354c-0.206,0-0.451,0.04-0.736,0.12l0.177-1.307c0.434,0.011,0.765-0.083,0.993-0.282
			c0.228-0.2,0.342-0.466,0.342-0.797c0-0.281-0.083-0.506-0.251-0.673s-0.39-0.251-0.667-0.251c-0.274,0-0.508,0.095-0.702,0.285
			c-0.194,0.19-0.312,0.468-0.354,0.833l-1.478-0.251c0.103-0.506,0.258-0.91,0.465-1.213c0.207-0.302,0.496-0.54,0.867-0.713
			c0.371-0.173,0.787-0.26,1.247-0.26c0.788,0,1.419,0.251,1.895,0.753c0.392,0.411,0.588,0.875,0.588,1.393
			c0,0.734-0.401,1.32-1.204,1.758c0.479,0.103,0.862,0.333,1.15,0.69c0.287,0.357,0.431,0.789,0.431,1.295
			c0,0.734-0.268,1.36-0.805,1.877c-0.536,0.518-1.204,0.776-2.003,0.776c-0.757,0-1.384-0.218-1.883-0.653
			S12.003,626.237,11.924,625.533z"/>
		<path fill="#DCDDDD" d="M18.64,625.521v-1.603h3.15v1.603H18.64z"/>
	</g>
	<g>
		<path fill="#DCDDDD" d="M5.425,643.675l1.552-0.188c0.05,0.396,0.183,0.698,0.399,0.907c0.217,0.21,0.479,0.314,0.788,0.314
			c0.331,0,0.609-0.126,0.836-0.377c0.226-0.251,0.339-0.59,0.339-1.016c0-0.403-0.108-0.723-0.325-0.959
			c-0.217-0.235-0.481-0.354-0.793-0.354c-0.206,0-0.451,0.04-0.736,0.12l0.177-1.307c0.434,0.011,0.765-0.083,0.993-0.282
			c0.228-0.2,0.342-0.466,0.342-0.797c0-0.281-0.083-0.506-0.251-0.673s-0.39-0.251-0.667-0.251c-0.274,0-0.508,0.095-0.702,0.285
			c-0.194,0.19-0.312,0.468-0.354,0.833l-1.478-0.251c0.103-0.506,0.258-0.91,0.465-1.213c0.207-0.302,0.496-0.54,0.867-0.713
			c0.371-0.173,0.787-0.26,1.247-0.26c0.788,0,1.419,0.251,1.895,0.753c0.392,0.411,0.588,0.875,0.588,1.393
			c0,0.734-0.401,1.32-1.204,1.758c0.479,0.103,0.862,0.333,1.15,0.69c0.287,0.357,0.431,0.789,0.431,1.295
			c0,0.734-0.268,1.36-0.805,1.877c-0.536,0.518-1.204,0.776-2.003,0.776c-0.757,0-1.384-0.218-1.883-0.653
			S5.504,644.379,5.425,643.675z"/>
		<path fill="#DCDDDD" d="M15.125,645.895v-1.684h-3.424v-1.403l3.629-5.313h1.347v5.307h1.039v1.409h-1.039v1.684H15.125z
			 M15.125,642.802v-2.858l-1.923,2.858H15.125z"/>
		<path fill="#DCDDDD" d="M18.64,643.664v-1.603h3.15v1.603H18.64z"/>
	</g>
	<g>
		<path fill="#DCDDDD" d="M5.425,661.818l1.552-0.188c0.05,0.396,0.183,0.698,0.399,0.907c0.217,0.21,0.479,0.314,0.788,0.314
			c0.331,0,0.609-0.126,0.836-0.377c0.226-0.251,0.339-0.59,0.339-1.016c0-0.403-0.108-0.723-0.325-0.959
			c-0.217-0.235-0.481-0.354-0.793-0.354c-0.206,0-0.451,0.04-0.736,0.12l0.177-1.307c0.434,0.011,0.765-0.083,0.993-0.282
			c0.228-0.2,0.342-0.466,0.342-0.797c0-0.281-0.083-0.506-0.251-0.673s-0.39-0.251-0.667-0.251c-0.274,0-0.508,0.095-0.702,0.285
			c-0.194,0.19-0.312,0.468-0.354,0.833l-1.478-0.251c0.103-0.506,0.258-0.91,0.465-1.213c0.207-0.302,0.496-0.54,0.867-0.713
			c0.371-0.173,0.787-0.26,1.247-0.26c0.788,0,1.419,0.251,1.895,0.753c0.392,0.411,0.588,0.875,0.588,1.393
			c0,0.734-0.401,1.32-1.204,1.758c0.479,0.103,0.862,0.333,1.15,0.69c0.287,0.357,0.431,0.789,0.431,1.295
			c0,0.734-0.268,1.36-0.805,1.877c-0.536,0.518-1.204,0.776-2.003,0.776c-0.757,0-1.384-0.218-1.883-0.653
			S5.504,662.522,5.425,661.818z"/>
		<path fill="#DCDDDD" d="M12.003,661.886l1.598-0.165c0.046,0.361,0.181,0.647,0.405,0.858s0.483,0.316,0.776,0.316
			c0.335,0,0.618-0.136,0.851-0.407c0.232-0.272,0.348-0.683,0.348-1.23c0-0.513-0.115-0.898-0.345-1.155
			c-0.23-0.257-0.53-0.385-0.899-0.385c-0.46,0-0.873,0.203-1.238,0.61l-1.301-0.188l0.822-4.354h4.239v1.501h-3.024l-0.251,1.421
			c0.358-0.179,0.723-0.269,1.096-0.269c0.711,0,1.314,0.259,1.809,0.776c0.494,0.517,0.742,1.188,0.742,2.014
			c0,0.688-0.2,1.303-0.599,1.844c-0.544,0.737-1.299,1.106-2.266,1.106c-0.772,0-1.401-0.207-1.889-0.622
			C12.39,663.144,12.099,662.586,12.003,661.886z"/>
		<path fill="#DCDDDD" d="M18.64,661.806v-1.603h3.15v1.603H18.64z"/>
	</g>
	<g>
		<path fill="#DCDDDD" d="M5.425,679.958l1.552-0.188c0.05,0.396,0.183,0.698,0.399,0.907c0.217,0.21,0.479,0.314,0.788,0.314
			c0.331,0,0.609-0.126,0.836-0.377c0.226-0.251,0.339-0.59,0.339-1.016c0-0.403-0.108-0.723-0.325-0.959
			c-0.217-0.235-0.481-0.354-0.793-0.354c-0.206,0-0.451,0.04-0.736,0.12l0.177-1.307c0.434,0.011,0.765-0.083,0.993-0.282
			c0.228-0.2,0.342-0.466,0.342-0.797c0-0.281-0.083-0.506-0.251-0.673s-0.39-0.251-0.667-0.251c-0.274,0-0.508,0.095-0.702,0.285
			c-0.194,0.19-0.312,0.468-0.354,0.833l-1.478-0.251c0.103-0.506,0.258-0.91,0.465-1.213c0.207-0.302,0.496-0.54,0.867-0.713
			c0.371-0.173,0.787-0.26,1.247-0.26c0.788,0,1.419,0.251,1.895,0.753c0.392,0.411,0.588,0.875,0.588,1.393
			c0,0.734-0.401,1.32-1.204,1.758c0.479,0.103,0.862,0.333,1.15,0.69c0.287,0.357,0.431,0.789,0.431,1.295
			c0,0.734-0.268,1.36-0.805,1.877c-0.536,0.518-1.204,0.776-2.003,0.776c-0.757,0-1.384-0.218-1.883-0.653
			S5.504,680.663,5.425,679.958z"/>
		<path fill="#DCDDDD" d="M17.413,675.862l-1.552,0.171c-0.038-0.319-0.137-0.556-0.297-0.707c-0.16-0.152-0.367-0.229-0.622-0.229
			c-0.339,0-0.625,0.152-0.859,0.456c-0.234,0.305-0.381,0.938-0.442,1.9c0.399-0.472,0.896-0.708,1.489-0.708
			c0.669,0,1.243,0.256,1.721,0.765c0.477,0.51,0.716,1.168,0.716,1.975c0,0.856-0.251,1.543-0.753,2.06
			c-0.502,0.518-1.147,0.776-1.935,0.776c-0.844,0-1.539-0.328-2.083-0.984s-0.816-1.731-0.816-3.227
			c0-1.533,0.283-2.638,0.85-3.315c0.567-0.677,1.303-1.016,2.208-1.016c0.635,0,1.161,0.178,1.578,0.533
			C17.034,674.668,17.299,675.185,17.413,675.862z M13.778,679.36c0,0.521,0.12,0.923,0.359,1.206
			c0.24,0.284,0.514,0.426,0.822,0.426c0.296,0,0.544-0.116,0.742-0.349c0.198-0.231,0.297-0.612,0.297-1.141
			c0-0.544-0.107-0.942-0.32-1.195s-0.479-0.38-0.799-0.38c-0.308,0-0.569,0.121-0.782,0.362S13.778,678.888,13.778,679.36z"/>
		<path fill="#DCDDDD" d="M18.64,679.947v-1.603h3.15v1.603H18.64z"/>
	</g>
	<g>
		<path fill="#DCDDDD" d="M5.425,698.101l1.552-0.188c0.05,0.396,0.183,0.698,0.399,0.907c0.217,0.21,0.479,0.314,0.788,0.314
			c0.331,0,0.609-0.126,0.836-0.377c0.226-0.251,0.339-0.59,0.339-1.016c0-0.403-0.108-0.723-0.325-0.959
			c-0.217-0.235-0.481-0.354-0.793-0.354c-0.206,0-0.451,0.04-0.736,0.12l0.177-1.307c0.434,0.011,0.765-0.083,0.993-0.282
			c0.228-0.2,0.342-0.466,0.342-0.797c0-0.281-0.083-0.506-0.251-0.673s-0.39-0.251-0.667-0.251c-0.274,0-0.508,0.095-0.702,0.285
			c-0.194,0.19-0.312,0.468-0.354,0.833l-1.478-0.251c0.103-0.506,0.258-0.91,0.465-1.213c0.207-0.302,0.496-0.54,0.867-0.713
			c0.371-0.173,0.787-0.26,1.247-0.26c0.788,0,1.419,0.251,1.895,0.753c0.392,0.411,0.588,0.875,0.588,1.393
			c0,0.734-0.401,1.32-1.204,1.758c0.479,0.103,0.862,0.333,1.15,0.69c0.287,0.357,0.431,0.789,0.431,1.295
			c0,0.734-0.268,1.36-0.805,1.877c-0.536,0.518-1.204,0.776-2.003,0.776c-0.757,0-1.384-0.218-1.883-0.653
			S5.504,698.805,5.425,698.101z"/>
		<path fill="#DCDDDD" d="M11.981,693.559v-1.489h5.483v1.164c-0.453,0.445-0.913,1.084-1.381,1.917s-0.825,1.719-1.07,2.656
			c-0.246,0.938-0.366,1.775-0.362,2.514h-1.546c0.026-1.156,0.265-2.336,0.716-3.538c0.451-1.201,1.053-2.276,1.806-3.224H11.981z"
			/>
		<path fill="#DCDDDD" d="M18.64,698.089v-1.603h3.15v1.603H18.64z"/>
	</g>
	<g>
		<path fill="#DCDDDD" d="M5.425,716.243l1.552-0.188c0.05,0.396,0.183,0.698,0.399,0.907c0.217,0.21,0.479,0.314,0.788,0.314
			c0.331,0,0.609-0.126,0.836-0.377c0.226-0.251,0.339-0.59,0.339-1.016c0-0.403-0.108-0.723-0.325-0.959
			c-0.217-0.235-0.481-0.354-0.793-0.354c-0.206,0-0.451,0.04-0.736,0.12l0.177-1.307c0.434,0.011,0.765-0.083,0.993-0.282
			c0.228-0.2,0.342-0.466,0.342-0.797c0-0.281-0.083-0.506-0.251-0.673s-0.39-0.251-0.667-0.251c-0.274,0-0.508,0.095-0.702,0.285
			c-0.194,0.19-0.312,0.468-0.354,0.833l-1.478-0.251c0.103-0.506,0.258-0.91,0.465-1.213c0.207-0.302,0.496-0.54,0.867-0.713
			c0.371-0.173,0.787-0.26,1.247-0.26c0.788,0,1.419,0.251,1.895,0.753c0.392,0.411,0.588,0.875,0.588,1.393
			c0,0.734-0.401,1.32-1.204,1.758c0.479,0.103,0.862,0.333,1.15,0.69c0.287,0.357,0.431,0.789,0.431,1.295
			c0,0.734-0.268,1.36-0.805,1.877c-0.536,0.518-1.204,0.776-2.003,0.776c-0.757,0-1.384-0.218-1.883-0.653
			S5.504,716.947,5.425,716.243z"/>
		<path fill="#DCDDDD" d="M13.356,713.949c-0.415-0.175-0.716-0.415-0.904-0.722c-0.188-0.306-0.283-0.642-0.283-1.007
			c0-0.624,0.218-1.14,0.653-1.547c0.436-0.406,1.055-0.61,1.857-0.61c0.795,0,1.412,0.204,1.852,0.61
			c0.439,0.407,0.659,0.923,0.659,1.547c0,0.388-0.101,0.733-0.302,1.035c-0.202,0.303-0.485,0.534-0.851,0.693
			c0.464,0.187,0.817,0.459,1.059,0.816s0.362,0.771,0.362,1.238c0,0.771-0.246,1.399-0.739,1.883s-1.148,0.725-1.966,0.725
			c-0.761,0-1.394-0.2-1.9-0.6c-0.598-0.472-0.896-1.118-0.896-1.939c0-0.453,0.112-0.868,0.336-1.247
			C12.519,714.447,12.873,714.155,13.356,713.949z M13.539,715.917c0,0.441,0.113,0.785,0.339,1.033
			c0.227,0.247,0.509,0.37,0.848,0.37c0.331,0,0.604-0.118,0.821-0.356c0.217-0.237,0.325-0.581,0.325-1.029
			c0-0.393-0.11-0.707-0.331-0.944c-0.221-0.238-0.5-0.357-0.839-0.357c-0.392,0-0.684,0.136-0.876,0.405
			C13.635,715.309,13.539,715.602,13.539,715.917z M13.687,712.334c0,0.319,0.09,0.568,0.271,0.747s0.421,0.269,0.722,0.269
			c0.304,0,0.548-0.091,0.73-0.271s0.274-0.431,0.274-0.75c0-0.301-0.09-0.541-0.271-0.722s-0.419-0.271-0.716-0.271
			c-0.308,0-0.553,0.092-0.736,0.274S13.687,712.034,13.687,712.334z"/>
		<path fill="#DCDDDD" d="M18.64,716.231v-1.603h3.15v1.603H18.64z"/>
	</g>
	<g>
		<path fill="#DCDDDD" d="M5.425,734.386l1.552-0.188c0.05,0.396,0.183,0.698,0.399,0.907c0.217,0.21,0.479,0.314,0.788,0.314
			c0.331,0,0.609-0.126,0.836-0.377c0.226-0.251,0.339-0.59,0.339-1.016c0-0.403-0.108-0.723-0.325-0.959
			c-0.217-0.235-0.481-0.354-0.793-0.354c-0.206,0-0.451,0.04-0.736,0.12l0.177-1.307c0.434,0.011,0.765-0.083,0.993-0.282
			c0.228-0.2,0.342-0.466,0.342-0.797c0-0.281-0.083-0.506-0.251-0.673s-0.39-0.251-0.667-0.251c-0.274,0-0.508,0.095-0.702,0.285
			c-0.194,0.19-0.312,0.468-0.354,0.833l-1.478-0.251c0.103-0.506,0.258-0.91,0.465-1.213c0.207-0.302,0.496-0.54,0.867-0.713
			c0.371-0.173,0.787-0.26,1.247-0.26c0.788,0,1.419,0.251,1.895,0.753c0.392,0.411,0.588,0.875,0.588,1.393
			c0,0.734-0.401,1.32-1.204,1.758c0.479,0.103,0.862,0.333,1.15,0.69c0.287,0.357,0.431,0.789,0.431,1.295
			c0,0.734-0.268,1.36-0.805,1.877c-0.536,0.518-1.204,0.776-2.003,0.776c-0.757,0-1.384-0.218-1.883-0.653
			S5.504,735.09,5.425,734.386z"/>
		<path fill="#DCDDDD" d="M12.015,734.671l1.552-0.171c0.038,0.315,0.137,0.55,0.297,0.702c0.16,0.151,0.371,0.228,0.633,0.228
			c0.331,0,0.612-0.151,0.845-0.456c0.232-0.305,0.38-0.936,0.445-1.895c-0.403,0.468-0.907,0.702-1.512,0.702
			c-0.658,0-1.226-0.254-1.703-0.762s-0.716-1.169-0.716-1.983c0-0.848,0.252-1.532,0.756-2.051c0.504-0.52,1.146-0.779,1.926-0.779
			c0.848,0,1.544,0.328,2.088,0.984s0.816,1.735,0.816,3.238c0,1.529-0.283,2.633-0.85,3.31s-1.305,1.016-2.214,1.016
			c-0.654,0-1.183-0.174-1.586-0.522C12.388,735.884,12.129,735.364,12.015,734.671z M15.644,731.168
			c0-0.518-0.119-0.919-0.356-1.204c-0.238-0.285-0.513-0.428-0.825-0.428c-0.297,0-0.543,0.116-0.739,0.351
			c-0.196,0.233-0.294,0.617-0.294,1.149c0,0.54,0.106,0.938,0.319,1.19c0.213,0.253,0.479,0.379,0.799,0.379
			c0.308,0,0.568-0.122,0.779-0.365C15.539,731.998,15.644,731.64,15.644,731.168z"/>
		<path fill="#DCDDDD" d="M18.64,734.375v-1.603h3.15v1.603H18.64z"/>
	</g>
	<g>
		<path fill="#DCDDDD" d="M8.626,754.749v-1.684H5.202v-1.403l3.629-5.313h1.347v5.307h1.039v1.409h-1.039v1.684H8.626z
			 M8.626,751.656v-2.858l-1.923,2.858H8.626z"/>
		<path fill="#DCDDDD" d="M14.691,746.349c0.811,0,1.444,0.289,1.9,0.867c0.544,0.685,0.816,1.82,0.816,3.407
			c0,1.582-0.274,2.72-0.822,3.412c-0.453,0.57-1.084,0.855-1.895,0.855c-0.814,0-1.47-0.313-1.968-0.938
			c-0.499-0.626-0.748-1.741-0.748-3.347c0-1.575,0.274-2.708,0.822-3.4C13.25,746.634,13.881,746.349,14.691,746.349z
			 M14.691,747.679c-0.194,0-0.367,0.062-0.519,0.185c-0.152,0.124-0.27,0.346-0.354,0.665c-0.111,0.415-0.166,1.113-0.166,2.095
			s0.049,1.655,0.148,2.022c0.099,0.367,0.224,0.611,0.374,0.733c0.15,0.121,0.322,0.183,0.516,0.183
			c0.194,0,0.367-0.063,0.52-0.186c0.152-0.124,0.27-0.346,0.354-0.665c0.11-0.411,0.166-1.106,0.166-2.088
			s-0.049-1.656-0.148-2.023c-0.099-0.367-0.224-0.612-0.374-0.736C15.057,747.741,14.885,747.679,14.691,747.679z"/>
		<path fill="#DCDDDD" d="M18.64,752.517v-1.603h3.15v1.603H18.64z"/>
	</g>
	<g>
		<path fill="#DCDDDD" d="M8.626,772.891v-1.684H5.202v-1.403l3.629-5.313h1.347v5.307h1.039v1.409h-1.039v1.684H8.626z
			 M8.626,769.798v-2.858l-1.923,2.858H8.626z"/>
		<path fill="#DCDDDD" d="M16.083,772.891H14.48v-6.043c-0.586,0.548-1.276,0.953-2.071,1.216v-1.455
			c0.418-0.137,0.873-0.396,1.364-0.779c0.491-0.382,0.828-0.828,1.01-1.338h1.301V772.891z"/>
		<path fill="#DCDDDD" d="M18.64,770.66v-1.603h3.15v1.603H18.64z"/>
	</g>
	<g>
		<path fill="#DCDDDD" d="M8.626,791.034v-1.684H5.202v-1.403l3.629-5.313h1.347v5.307h1.039v1.409h-1.039v1.684H8.626z
			 M8.626,787.941v-2.858l-1.923,2.858H8.626z"/>
		<path fill="#DCDDDD" d="M17.396,789.544v1.489h-5.621c0.061-0.563,0.243-1.097,0.548-1.601c0.304-0.504,0.905-1.173,1.803-2.006
			c0.723-0.673,1.166-1.13,1.329-1.369c0.221-0.331,0.331-0.658,0.331-0.981c0-0.357-0.096-0.633-0.288-0.824
			c-0.192-0.192-0.458-0.288-0.796-0.288c-0.335,0-0.601,0.101-0.799,0.302c-0.198,0.202-0.312,0.536-0.342,1.005l-1.598-0.16
			c0.095-0.883,0.394-1.516,0.896-1.9c0.502-0.384,1.13-0.576,1.883-0.576c0.825,0,1.474,0.223,1.946,0.668
			c0.471,0.445,0.708,0.998,0.708,1.66c0,0.377-0.068,0.735-0.203,1.075c-0.135,0.341-0.349,0.697-0.642,1.07
			c-0.194,0.247-0.544,0.603-1.05,1.067c-0.506,0.464-0.827,0.771-0.961,0.924c-0.135,0.152-0.245,0.301-0.328,0.445H17.396z"/>
		<path fill="#DCDDDD" d="M18.64,788.802V787.2h3.15v1.603H18.64z"/>
	</g>
	
		<line opacity="0.5" fill="#B5B4B5" stroke="#898989" stroke-width="0.7965" stroke-linecap="square" stroke-linejoin="bevel" stroke-miterlimit="10" x1="32.436" y1="51.849" x2="226.219" y2="51.849"/>
	
		<line opacity="0.5" fill="#B5B4B5" stroke="#898989" stroke-width="0.7965" stroke-linecap="square" stroke-linejoin="bevel" stroke-miterlimit="10" x1="32.436" y1="33.681" x2="226.219" y2="33.681"/>
	
		<line opacity="0.5" fill="#B5B4B5" stroke="#898989" stroke-width="0.7965" stroke-linecap="square" stroke-linejoin="bevel" stroke-miterlimit="10" x1="32.436" y1="70.017" x2="226.219" y2="70.017"/>
	
		<line opacity="0.5" fill="#B5B4B5" stroke="#898989" stroke-width="0.7965" stroke-linecap="square" stroke-linejoin="bevel" stroke-miterlimit="10" x1="32.436" y1="88.185" x2="226.219" y2="88.185"/>
	
		<line opacity="0.5" fill="#B5B4B5" stroke="#898989" stroke-width="0.7965" stroke-linecap="square" stroke-linejoin="bevel" stroke-miterlimit="10" x1="32.436" y1="106.353" x2="226.219" y2="106.353"/>
	
		<line opacity="0.5" fill="#B5B4B5" stroke="#898989" stroke-width="0.7965" stroke-linecap="square" stroke-linejoin="bevel" stroke-miterlimit="10" x1="32.436" y1="124.521" x2="226.219" y2="124.521"/>
	
		<line opacity="0.5" fill="#B5B4B5" stroke="#898989" stroke-width="0.7965" stroke-linecap="square" stroke-linejoin="bevel" stroke-miterlimit="10" x1="32.436" y1="142.688" x2="226.219" y2="142.688"/>
	
		<line opacity="0.5" fill="#B5B4B5" stroke="#898989" stroke-width="0.7965" stroke-linecap="square" stroke-linejoin="bevel" stroke-miterlimit="10" x1="32.436" y1="160.856" x2="226.219" y2="160.856"/>
	
		<line opacity="0.5" fill="#B5B4B5" stroke="#898989" stroke-width="0.7965" stroke-linecap="square" stroke-linejoin="bevel" stroke-miterlimit="10" x1="32.436" y1="179.024" x2="226.219" y2="179.024"/>
	
		<line opacity="0.5" fill="#B5B4B5" stroke="#898989" stroke-width="0.7965" stroke-linecap="square" stroke-linejoin="bevel" stroke-miterlimit="10" x1="32.436" y1="197.192" x2="226.219" y2="197.192"/>
	
		<line opacity="0.5" fill="#B5B4B5" stroke="#898989" stroke-width="0.7965" stroke-linecap="square" stroke-linejoin="bevel" stroke-miterlimit="10" x1="32.436" y1="215.36" x2="226.219" y2="215.36"/>
	
		<line opacity="0.5" fill="#B5B4B5" stroke="#898989" stroke-width="0.7965" stroke-linecap="square" stroke-linejoin="bevel" stroke-miterlimit="10" x1="32.436" y1="233.528" x2="226.219" y2="233.528"/>
	
		<line opacity="0.5" fill="#B5B4B5" stroke="#898989" stroke-width="0.7965" stroke-linecap="square" stroke-linejoin="bevel" stroke-miterlimit="10" x1="32.436" y1="251.696" x2="226.219" y2="251.696"/>
	
		<line opacity="0.5" fill="#B5B4B5" stroke="#898989" stroke-width="0.7965" stroke-linecap="square" stroke-linejoin="bevel" stroke-miterlimit="10" x1="32.436" y1="269.864" x2="226.219" y2="269.864"/>
	
		<line opacity="0.5" fill="#B5B4B5" stroke="#898989" stroke-width="0.7965" stroke-linecap="square" stroke-linejoin="bevel" stroke-miterlimit="10" x1="32.436" y1="288.033" x2="226.219" y2="288.033"/>
	
		<line opacity="0.5" fill="#B5B4B5" stroke="#898989" stroke-width="0.7965" stroke-linecap="square" stroke-linejoin="bevel" stroke-miterlimit="10" x1="32.436" y1="306.201" x2="226.219" y2="306.201"/>
	
		<line opacity="0.5" fill="#B5B4B5" stroke="#898989" stroke-width="0.7965" stroke-linecap="square" stroke-linejoin="bevel" stroke-miterlimit="10" x1="32.436" y1="324.369" x2="226.219" y2="324.369"/>
	
		<line opacity="0.5" fill="#B5B4B5" stroke="#898989" stroke-width="0.7965" stroke-linecap="square" stroke-linejoin="bevel" stroke-miterlimit="10" x1="32.436" y1="342.537" x2="226.219" y2="342.537"/>
	
		<line opacity="0.5" fill="#B5B4B5" stroke="#898989" stroke-width="0.7965" stroke-linecap="square" stroke-linejoin="bevel" stroke-miterlimit="10" x1="32.436" y1="360.705" x2="226.219" y2="360.705"/>
	
		<line opacity="0.5" fill="#B5B4B5" stroke="#898989" stroke-width="0.7965" stroke-linecap="square" stroke-linejoin="bevel" stroke-miterlimit="10" x1="32.436" y1="378.873" x2="226.219" y2="378.873"/>
	
		<line opacity="0.5" fill="#B5B4B5" stroke="#898989" stroke-width="0.7965" stroke-linecap="square" stroke-linejoin="bevel" stroke-miterlimit="10" x1="32.436" y1="397.041" x2="226.219" y2="397.041"/>
	
		<line opacity="0.5" fill="#B5B4B5" stroke="#898989" stroke-width="0.7965" stroke-linecap="square" stroke-linejoin="bevel" stroke-miterlimit="10" x1="32.436" y1="415.208" x2="226.219" y2="415.208"/>
	
		<line opacity="0.5" fill="#B5B4B5" stroke="#898989" stroke-width="0.7965" stroke-linecap="square" stroke-linejoin="bevel" stroke-miterlimit="10" x1="32.436" y1="433.376" x2="226.219" y2="433.376"/>
	
		<line opacity="0.5" fill="#B5B4B5" stroke="#898989" stroke-width="0.7965" stroke-linecap="square" stroke-linejoin="bevel" stroke-miterlimit="10" x1="32.436" y1="451.544" x2="226.219" y2="451.544"/>
	
		<line opacity="0.5" fill="#B5B4B5" stroke="#898989" stroke-width="0.7965" stroke-linecap="square" stroke-linejoin="bevel" stroke-miterlimit="10" x1="32.436" y1="469.712" x2="226.219" y2="469.712"/>
	
		<line opacity="0.5" fill="#B5B4B5" stroke="#898989" stroke-width="0.7965" stroke-linecap="square" stroke-linejoin="bevel" stroke-miterlimit="10" x1="32.436" y1="487.88" x2="226.219" y2="487.88"/>
	
		<line opacity="0.5" fill="#B5B4B5" stroke="#898989" stroke-width="0.7965" stroke-linecap="square" stroke-linejoin="bevel" stroke-miterlimit="10" x1="32.436" y1="506.048" x2="226.219" y2="506.048"/>
	
		<line opacity="0.5" fill="#B5B4B5" stroke="#898989" stroke-width="0.7965" stroke-linecap="square" stroke-linejoin="bevel" stroke-miterlimit="10" x1="32.436" y1="524.216" x2="226.219" y2="524.216"/>
	
		<line opacity="0.5" fill="#B5B4B5" stroke="#898989" stroke-width="0.7965" stroke-linecap="square" stroke-linejoin="bevel" stroke-miterlimit="10" x1="32.436" y1="542.384" x2="226.219" y2="542.384"/>
	
		<line opacity="0.5" fill="#B5B4B5" stroke="#898989" stroke-width="0.7965" stroke-linecap="square" stroke-linejoin="bevel" stroke-miterlimit="10" x1="32.436" y1="560.552" x2="226.219" y2="560.552"/>
	
		<line opacity="0.5" fill="#B5B4B5" stroke="#898989" stroke-width="0.7965" stroke-linecap="square" stroke-linejoin="bevel" stroke-miterlimit="10" x1="32.436" y1="578.72" x2="226.219" y2="578.72"/>
	
		<line opacity="0.5" fill="#B5B4B5" stroke="#898989" stroke-width="0.7965" stroke-linecap="square" stroke-linejoin="bevel" stroke-miterlimit="10" x1="32.436" y1="596.888" x2="226.219" y2="596.888"/>
	
		<line opacity="0.5" fill="#B5B4B5" stroke="#898989" stroke-width="0.7965" stroke-linecap="square" stroke-linejoin="bevel" stroke-miterlimit="10" x1="32.436" y1="615.056" x2="226.219" y2="615.056"/>
	
		<line opacity="0.5" fill="#B5B4B5" stroke="#898989" stroke-width="0.7965" stroke-linecap="square" stroke-linejoin="bevel" stroke-miterlimit="10" x1="32.436" y1="633.224" x2="226.219" y2="633.224"/>
	
		<line opacity="0.5" fill="#B5B4B5" stroke="#898989" stroke-width="0.7965" stroke-linecap="square" stroke-linejoin="bevel" stroke-miterlimit="10" x1="32.436" y1="651.392" x2="226.219" y2="651.392"/>
	
		<line opacity="0.5" fill="#B5B4B5" stroke="#898989" stroke-width="0.7965" stroke-linecap="square" stroke-linejoin="bevel" stroke-miterlimit="10" x1="32.436" y1="669.56" x2="226.219" y2="669.56"/>
	
		<line opacity="0.5" fill="#B5B4B5" stroke="#898989" stroke-width="0.7965" stroke-linecap="square" stroke-linejoin="bevel" stroke-miterlimit="10" x1="32.436" y1="687.728" x2="226.219" y2="687.728"/>
	
		<line opacity="0.5" fill="#B5B4B5" stroke="#898989" stroke-width="0.7965" stroke-linecap="square" stroke-linejoin="bevel" stroke-miterlimit="10" x1="32.436" y1="705.896" x2="226.219" y2="705.896"/>
	
		<line opacity="0.5" fill="#B5B4B5" stroke="#898989" stroke-width="0.7965" stroke-linecap="square" stroke-linejoin="bevel" stroke-miterlimit="10" x1="32.436" y1="724.064" x2="226.219" y2="724.064"/>
	
		<line opacity="0.5" fill="#B5B4B5" stroke="#898989" stroke-width="0.7965" stroke-linecap="square" stroke-linejoin="bevel" stroke-miterlimit="10" x1="32.436" y1="742.232" x2="226.219" y2="742.232"/>
	
		<line opacity="0.5" fill="#B5B4B5" stroke="#898989" stroke-width="0.7965" stroke-linecap="square" stroke-linejoin="bevel" stroke-miterlimit="10" x1="32.436" y1="760.4" x2="226.219" y2="760.4"/>
	
		<line opacity="0.5" fill="#B5B4B5" stroke="#898989" stroke-width="0.7965" stroke-linecap="square" stroke-linejoin="bevel" stroke-miterlimit="10" x1="32.436" y1="778.568" x2="226.219" y2="778.568"/>
	
		<line opacity="0.5" fill="#B5B4B5" stroke="#898989" stroke-width="0.7965" stroke-linecap="square" stroke-linejoin="bevel" stroke-miterlimit="10" x1="32.436" y1="796.736" x2="226.219" y2="796.736"/>
</g>
</svg>
