<?xml version="1.0" encoding="utf-8"?>
<!-- Generator: Adobe Illustrator 16.0.0, SVG Export Plug-In . SVG Version: 6.00 Build 0)  -->
<!DOCTYPE svg PUBLIC "-//W3C//DTD SVG 1.1//EN" "http://www.w3.org/Graphics/SVG/1.1/DTD/svg11.dtd">
<svg version="1.1" id="图层_1" xmlns="http://www.w3.org/2000/svg" xmlns:xlink="http://www.w3.org/1999/xlink" x="0px" y="0px"
	 width="210.5px" height="35.438px" viewBox="0 0 210.5 35.438" enable-background="new 0 0 210.5 35.438" xml:space="preserve">
<g>
	
		<rect x="0.25" y="0.25" fill="#9C9FA6" stroke="#2D2A29" stroke-width="0.4989" stroke-miterlimit="10" width="210" height="34.938"/>
	
		<rect x="0.25" y="0.25" fill="#9C9FA6" stroke="#2D2A29" stroke-width="0.4989" stroke-miterlimit="10" width="8.976" height="34.938"/>
	<g>
		<rect x="1.022" y="17.469" fill="#9C9FA6" width="7.43" height="17.491"/>
		<path fill="#2D2A29" d="M8.203,17.719v16.992H1.272V17.719H8.203 M8.702,17.22H8.203H1.272H0.773v0.499v16.992v0.499h0.499h6.931
			h0.499v-0.499V17.719V17.22L8.702,17.22z"/>
	</g>
	<rect x="1.272" y="17.719" fill="#B3B6BD" width="6.931" height="5.962"/>
	
		<rect x="201.195" y="0.25" fill="#9C9FA6" stroke="#2D2A29" stroke-width="0.4989" stroke-miterlimit="10" width="8.977" height="34.938"/>
	<g>
		<rect x="201.969" y="17.469" fill="#9C9FA6" width="7.428" height="17.491"/>
		<path fill="#2D2A29" d="M209.148,17.719v16.992h-6.93V17.719H209.148 M209.647,17.22h-0.499h-6.93h-0.499v0.499v16.992v0.499
			h0.499h6.93h0.499v-0.499V17.719V17.22L209.647,17.22z"/>
	</g>
	<rect x="202.218" y="17.719" fill="#B3B6BD" width="6.93" height="1.253"/>
	<linearGradient id="SVGID_1_" gradientUnits="userSpaceOnUse" x1="9.2251" y1="17.7188" x2="201.1948" y2="17.7188">
		<stop  offset="0" style="stop-color:#999999"/>
		<stop  offset="0.1348" style="stop-color:#F7F8F8"/>
		<stop  offset="0.1363" style="stop-color:#EDEDED"/>
		<stop  offset="0.1461" style="stop-color:#9FA0A0"/>
		<stop  offset="0.8466" style="stop-color:#9FA0A0"/>
		<stop  offset="0.8596" style="stop-color:#C4C4C5"/>
		<stop  offset="0.8729" style="stop-color:#E1E1E2"/>
		<stop  offset="0.8836" style="stop-color:#F2F2F2"/>
		<stop  offset="0.8902" style="stop-color:#F7F8F8"/>
		<stop  offset="0.9154" style="stop-color:#E4E4E5"/>
		<stop  offset="0.9509" style="stop-color:#CBCCCC"/>
		<stop  offset="0.9803" style="stop-color:#BBBBBC"/>
		<stop  offset="1" style="stop-color:#B5B5B6"/>
	</linearGradient>
	<linearGradient id="SVGID_2_" gradientUnits="userSpaceOnUse" x1="8.9927" y1="17.7188" x2="201.4272" y2="17.7188">
		<stop  offset="0" style="stop-color:#666666"/>
		<stop  offset="0.1348" style="stop-color:#C9CACA"/>
		<stop  offset="0.4794" style="stop-color:#DCDDDD"/>
		<stop  offset="0.6862" style="stop-color:#D1D1D2"/>
		<stop  offset="0.8902" style="stop-color:#C9CACA"/>
		<stop  offset="0.9059" style="stop-color:#BDBEBE"/>
		<stop  offset="0.9454" style="stop-color:#A1A2A2"/>
		<stop  offset="0.9781" style="stop-color:#8F8F90"/>
		<stop  offset="1" style="stop-color:#898989"/>
	</linearGradient>
	
		<polygon fill="url(#SVGID_1_)" stroke="url(#SVGID_2_)" stroke-width="0.4644" stroke-linecap="round" stroke-linejoin="round" stroke-miterlimit="10" points="
		201.195,34.719 172.376,23.994 35.604,23.994 9.225,34.719 9.225,0.719 35.604,11.948 172.376,11.948 201.195,0.77 	"/>
	<path fill="#07060B" d="M20.326,0.519h22.023v8.565c0,0,0.193,1.693-1.456,1.693c-1.842,0-5.191,0-5.191,0L21.442,4.418
		c0,0-1.135-0.319-1.117-1.15C20.343,2.437,20.326,0.519,20.326,0.519z"/>
	<path fill="#07060B" d="M187.763,0.519h-22.912v8.565c0,0-0.193,1.693,1.455,1.693c1.842,0,5.191,0,5.191,0l15.148-6.359
		c0,0,1.135-0.319,1.117-1.15C187.745,2.437,187.763,0.519,187.763,0.519z"/>
	<path fill="#07060B" d="M48.27,0.568v9.186c0,0.564,0.394,1.023,0.878,1.023h29.335c0.484,0,0.878-0.459,0.878-1.023V0.568H48.27z"
		/>
	<path fill="#07060B" d="M128.223,0.568v9.186c0,0.564,0.393,1.023,0.878,1.023h29.336c0.484,0,0.879-0.459,0.879-1.023V0.568
		H128.223z"/>
	<path fill="#07060B" d="M84.29,0.568v9.186c0,0.564,0.394,1.023,0.879,1.023h37.386c0.486,0,0.881-0.459,0.881-1.023V0.568H84.29z"
		/>
	<path fill="#07060B" d="M20.326,35.25h22.023v-8.564c0,0,0.193-1.693-1.456-1.693c-1.842,0-5.191,0-5.191,0l-14.259,6.359
		c0,0-1.135,0.318-1.117,1.15C20.343,33.333,20.326,35.25,20.326,35.25z"/>
	<path fill="#07060B" d="M187.763,35.25h-22.912v-8.564c0,0-0.193-1.693,1.455-1.693c1.842,0,5.191,0,5.191,0l15.148,6.359
		c0,0,1.135,0.318,1.117,1.15C187.745,33.333,187.763,35.25,187.763,35.25z"/>
	<path fill="#07060B" d="M48.27,35.201v-9.187c0-0.564,0.394-1.022,0.878-1.022h29.335c0.484,0,0.878,0.458,0.878,1.022v9.187H48.27
		z"/>
	<path fill="#07060B" d="M128.223,35.201v-9.187c0-0.564,0.393-1.022,0.878-1.022h29.336c0.484,0,0.879,0.458,0.879,1.022v9.187
		H128.223z"/>
	<path fill="#07060B" d="M84.29,35.201v-9.187c0-0.564,0.394-1.022,0.879-1.022h37.386c0.486,0,0.881,0.458,0.881,1.022v9.187H84.29
		z"/>
	<path fill="#3B3C3F" d="M10.921,11.1v10.373c0,0-0.463,1.015,1.542,1.015c2.004,0,9.251,0,9.251,0s3.314-0.281,3.314-4.82
		s-2.621-4.695-2.621-4.695l-9.712-2.496C12.694,10.476,10.921,9.695,10.921,11.1z"/>
	<path fill="#535259" d="M10.458,11.1v10.373c0,0-0.462,1.015,1.542,1.015c2.004,0,9.251,0,9.251,0s3.314-0.281,3.314-4.82
		s-2.621-4.695-2.621-4.695l-9.713-2.496C12.231,10.476,10.458,9.695,10.458,11.1z"/>
	<ellipse fill="#07060B" cx="19.86" cy="17.414" rx="3.272" ry="3.524"/>
	<circle fill="#0A080E" cx="205.683" cy="29.141" r="2.439"/>
</g>
</svg>
