<?xml version="1.0" encoding="utf-8"?>
<!-- Generator: Adobe Illustrator 16.0.0, SVG Export Plug-In . SVG Version: 6.00 Build 0)  -->
<!DOCTYPE svg PUBLIC "-//W3C//DTD SVG 1.1//EN" "http://www.w3.org/Graphics/SVG/1.1/DTD/svg11.dtd">
<svg version="1.1" id="图层_1" xmlns="http://www.w3.org/2000/svg" xmlns:xlink="http://www.w3.org/1999/xlink" x="0px" y="0px"
	 width="23.004px" height="23.014px" viewBox="0 0 23.004 23.014" enable-background="new 0 0 23.004 23.014" xml:space="preserve">
<g>
	<g>
		<path fill="#31BD16" d="M21.003,15.888v-1.842c1.262-1.439,2-3.182,2-5.061c0-4.962-5.147-8.984-11.5-8.984
			c-6.352,0-11.5,4.022-11.5,8.984c0,2.303,1.117,4.395,2.938,5.981v1.672c-1.339-0.928-2.298-2.064-2.709-3.318
			c-0.146,0.527-0.231,1.09-0.231,1.688c0,4.973,5.14,8.006,11.479,8.006c6.342,0,11.48-3.033,11.48-8.006
			c0-0.57-0.082-1.104-0.215-1.605C22.431,14.306,21.823,15.144,21.003,15.888z M11.493,0.996l2.496,2.981h-1.988v2.988h-0.982
			V3.977H9.034L11.493,0.996z M3.009,8.005h3.988v-1.99l2.98,2.496l-2.98,2.463V8.99H3.009V8.005z M8.941,18.833
			c-1.428-0.205-2.767-0.559-3.938-1.059v-1.379c1.172,0.629,2.51,1.068,3.938,1.324V18.833z M13.941,18.865
			c-0.786,0.105-1.6,0.17-2.438,0.17c-0.17,0-0.331-0.021-0.5-0.025v-1.064c0.169,0.006,0.33,0.027,0.5,0.027
			c0.838,0,1.652-0.074,2.438-0.207V18.865z M11.493,15.978l-2.461-2.98h1.984v-2.99h0.982v2.99h1.988L11.493,15.978z
			 M15.979,10.973L12.997,8.51l2.982-2.496v1.99h3.988v0.982h-3.988V10.973z M16.003,17.255c1.074-0.355,2.062-0.84,2.938-1.422
			v1.473c-0.879,0.465-1.858,0.861-2.938,1.148V17.255z"/>
	</g>
</g>
</svg>
